<svg width="552" height="345" viewBox="0 0 552 345" fill="none" xmlns="http://www.w3.org/2000/svg">
<path d="M453.271 105.285L453.271 105.42L390.122 105.42L390.122 105.285C390.122 104.835 390.301 104.404 390.619 104.086C390.937 103.768 391.369 103.589 391.819 103.589L451.574 103.589C452.024 103.589 452.456 103.768 452.774 104.086C453.092 104.404 453.271 104.835 453.271 105.285ZM390.391 105.15L453.001 105.15C452.962 104.798 452.795 104.472 452.532 104.234C452.27 103.996 451.929 103.863 451.574 103.858L391.819 103.858C391.455 103.849 391.101 103.977 390.827 104.216C390.552 104.455 390.378 104.789 390.337 105.15L390.391 105.15Z" fill="#88898D"/>
<path d="M157.859 105.285L157.859 105.42L94.71 105.42L94.71 105.285C94.71 104.835 94.8887 104.404 95.2069 104.086C95.525 103.768 95.9566 103.589 96.4065 103.589L156.054 103.589C156.285 103.578 156.516 103.614 156.733 103.694C156.949 103.774 157.148 103.897 157.316 104.055C157.484 104.213 157.619 104.403 157.712 104.615C157.806 104.826 157.855 105.054 157.859 105.285ZM94.9793 105.15L157.562 105.15C157.529 104.796 157.364 104.467 157.1 104.227C156.836 103.988 156.492 103.857 156.135 103.858L96.4065 103.858C96.0519 103.863 95.7111 103.996 95.4483 104.234C95.1854 104.472 95.0186 104.798 94.9793 105.15Z" fill="#88898D"/>
<path d="M551.84 184.385C551.831 188.896 551.444 193.399 550.682 197.846C547.484 216.087 537.959 232.617 523.78 244.532C509.601 256.448 491.676 262.987 473.153 263L80.5001 263C65.8137 263.006 51.419 258.901 38.9468 251.148C26.4745 243.395 16.4232 232.305 9.93163 219.134C3.44002 205.963 0.767523 191.238 2.2169 176.626C3.66628 162.015 9.17959 148.101 18.1323 136.462C20.2186 133.762 22.4763 131.199 24.8915 128.789C32.1808 121.469 40.8474 115.664 50.3915 111.708C59.9356 107.753 70.1685 105.725 80.5001 105.743L473.153 105.743C478.049 105.744 482.935 106.194 487.749 107.089C503.316 110.003 517.629 117.58 528.789 128.816C531.195 131.226 533.444 133.789 535.521 136.489C539.712 141.898 543.17 147.837 545.808 154.15C549.795 163.732 551.845 174.007 551.84 184.385ZM2.10947 184.385C2.11592 188.897 2.50328 193.4 3.26742 197.846C6.42258 216.032 15.9025 232.518 30.0338 244.395C44.165 256.272 62.0389 262.775 80.5001 262.758L473.153 262.758C478.032 262.771 482.901 262.32 487.695 261.412C503.377 258.455 517.783 250.785 528.989 239.427C540.196 228.069 547.67 213.563 550.413 197.846C551.168 193.399 551.547 188.896 551.544 184.385C551.604 167.114 545.92 150.313 535.386 136.623C533.311 133.939 531.071 131.386 528.681 128.977C517.54 117.825 503.277 110.315 487.776 107.439C482.98 106.543 478.112 106.093 473.234 106.093L80.5001 106.093C70.2058 106.09 60.0121 108.116 50.5023 112.057C40.9926 115.998 32.3536 121.775 25.08 129.058C22.6753 131.453 20.4351 134.007 18.3746 136.704C7.85394 150.4 2.17171 167.197 2.21719 184.466L2.10947 184.385Z" fill="#88898D"/>
<path d="M146.925 183.793C146.93 197.489 142.872 210.88 135.265 222.271C127.658 233.662 116.842 242.541 104.187 247.787C91.5315 253.032 77.6045 254.407 64.1673 251.738C50.73 249.069 38.3863 242.476 28.6972 232.793C19.0081 223.11 12.4089 210.772 9.73421 197.339C7.05955 183.905 8.42958 169.981 13.671 157.326C18.9125 144.672 27.7899 133.855 39.1805 126.245C50.5711 118.635 63.9632 114.573 77.663 114.573C96.0211 114.595 113.622 121.894 126.605 134.869C139.589 147.845 146.896 165.439 146.925 183.793ZM8.6976 183.793C8.6976 197.43 12.7424 210.76 20.3204 222.099C27.8984 233.438 38.6693 242.275 51.2711 247.494C63.8729 252.712 77.7395 254.078 91.1175 251.417C104.496 248.757 116.784 242.19 126.429 232.547C136.074 222.905 142.642 210.619 145.303 197.244C147.964 183.869 146.599 170.006 141.379 157.407C136.159 144.808 127.319 134.039 115.978 126.463C104.637 118.887 91.3031 114.843 77.663 114.843C59.3788 114.864 41.8496 122.135 28.9207 135.061C15.9918 147.987 8.71898 165.512 8.6976 183.793Z" fill="#88898D"/>
<path d="M541.921 183.793C541.921 197.951 537.721 211.792 529.853 223.565C521.985 235.338 510.802 244.513 497.718 249.931C484.634 255.35 470.237 256.768 456.347 254.005C442.457 251.243 429.699 244.425 419.684 234.413C409.67 224.401 402.851 211.646 400.088 197.759C397.325 183.872 398.743 169.478 404.163 156.397C409.582 143.316 418.76 132.135 430.535 124.269C442.31 116.403 456.154 112.204 470.316 112.204C489.301 112.226 507.501 119.775 520.925 133.196C534.349 146.616 541.9 164.813 541.921 183.793ZM398.981 183.793C398.955 197.904 403.116 211.706 410.938 223.452C418.76 235.198 429.892 244.36 442.924 249.779C455.957 255.197 470.304 256.629 484.151 253.892C497.997 251.156 510.72 244.374 520.71 234.405C530.7 224.436 537.508 211.729 540.271 197.89C543.034 184.052 541.63 169.705 536.234 156.666C530.839 143.626 521.696 132.48 509.962 124.637C498.228 116.794 484.431 112.608 470.316 112.608C451.427 112.629 433.315 120.132 419.946 133.473C406.576 146.814 399.038 164.908 398.981 183.793Z" fill="#88898D"/>
<path d="M103.084 183.792C103.084 188.819 101.593 193.733 98.8001 197.912C96.0068 202.092 92.0366 205.35 87.3915 207.273C82.7464 209.197 77.635 209.7 72.7038 208.719C67.7726 207.739 63.243 205.318 59.6878 201.764C56.1326 198.209 53.7115 193.681 52.7307 188.751C51.7498 183.821 52.2532 178.71 54.1773 174.066C56.1013 169.422 59.3596 165.453 63.5401 162.66C67.7205 159.868 72.6354 158.377 77.6633 158.377C84.4053 158.377 90.8713 161.055 95.6387 165.821C100.406 170.587 103.084 177.052 103.084 183.792ZM52.5115 183.792C52.5115 188.766 53.9866 193.628 56.7503 197.763C59.514 201.898 63.4422 205.121 68.0381 207.024C72.634 208.928 77.6912 209.426 82.5701 208.455C87.4491 207.485 91.9307 205.09 95.4483 201.573C98.9658 198.057 101.361 193.576 102.332 188.698C103.302 183.82 102.804 178.764 100.9 174.169C98.9968 169.575 95.773 165.647 91.6368 162.884C87.5007 160.121 82.6378 158.646 77.6633 158.646C70.9948 158.654 64.6015 161.305 59.8861 166.019C55.1708 170.734 52.5186 177.125 52.5115 183.792Z" fill="#88898D"/>
<path d="M381.585 176.093L381.585 192.435C381.58 193.513 381.155 194.546 380.401 195.316C379.929 195.78 379.352 196.123 378.719 196.315C378.086 196.507 377.415 196.543 376.765 196.42C375.965 196.262 375.227 195.879 374.638 195.316C373.883 194.546 373.458 193.513 373.453 192.435L373.453 176.954C373.305 176.138 373.335 175.3 373.539 174.497C373.743 173.693 374.118 172.943 374.638 172.296C375.408 171.543 376.442 171.122 377.519 171.122C378.596 171.122 379.631 171.543 380.401 172.296C380.846 172.816 381.18 173.42 381.384 174.073C381.588 174.725 381.656 175.413 381.585 176.093ZM373.695 192.435C373.692 192.937 373.791 193.434 373.985 193.897C374.18 194.36 374.466 194.778 374.826 195.127C375.366 195.661 376.049 196.026 376.792 196.177C377.396 196.29 378.019 196.253 378.606 196.07C379.192 195.887 379.725 195.563 380.158 195.127C380.519 194.778 380.805 194.36 380.999 193.897C381.194 193.434 381.292 192.937 381.289 192.435L381.289 176.954C381.429 176.172 381.4 175.368 381.205 174.598C381.01 173.827 380.653 173.107 380.158 172.485C379.723 172.054 379.188 171.735 378.602 171.557C378.015 171.379 377.394 171.346 376.792 171.462C376.047 171.592 375.36 171.949 374.826 172.485C374.333 173.108 373.977 173.828 373.782 174.598C373.587 175.369 373.557 176.172 373.695 176.954L373.695 192.435Z" fill="#88898D"/>
<path d="M450.04 183.793C450.045 187.271 449.018 190.672 447.089 193.567C445.16 196.462 442.416 198.719 439.203 200.054C435.99 201.389 432.454 201.741 429.041 201.066C425.628 200.39 422.492 198.718 420.03 196.26C417.568 193.803 415.891 190.67 415.21 187.259C414.529 183.848 414.876 180.312 416.206 177.098C417.536 173.884 419.79 171.136 422.682 169.203C425.575 167.27 428.976 166.239 432.455 166.239C437.112 166.246 441.576 168.097 444.872 171.386C448.167 174.676 450.025 179.137 450.04 183.793ZM415.166 183.793C415.161 187.219 416.173 190.569 418.073 193.42C419.974 196.271 422.678 198.494 425.843 199.808C429.008 201.122 432.492 201.467 435.853 200.8C439.215 200.132 442.302 198.483 444.726 196.06C447.149 193.638 448.799 190.551 449.466 187.19C450.133 183.829 449.788 180.347 448.474 177.182C447.16 174.018 444.936 171.314 442.085 169.414C439.233 167.514 435.882 166.503 432.455 166.508C427.874 166.522 423.485 168.348 420.246 171.586C417.007 174.825 415.181 179.213 415.166 183.793Z" fill="#88898D"/>
<path d="M525.737 183.793C525.742 187.272 524.715 190.675 522.784 193.57C520.854 196.465 518.108 198.723 514.894 200.057C511.68 201.391 508.142 201.741 504.728 201.064C501.314 200.386 498.179 198.711 495.718 196.251C493.257 193.791 491.582 190.655 490.904 187.243C490.226 183.83 490.577 180.293 491.911 177.079C493.245 173.866 495.503 171.12 498.399 169.19C501.295 167.261 504.699 166.233 508.179 166.239C512.831 166.253 517.289 168.107 520.578 171.396C523.868 174.685 525.723 179.141 525.737 183.793ZM490.864 183.793C490.858 187.218 491.869 190.567 493.769 193.418C495.668 196.268 498.371 198.491 501.534 199.805C504.698 201.12 508.18 201.466 511.541 200.802C514.901 200.137 517.989 198.49 520.413 196.07C522.838 193.65 524.489 190.565 525.16 187.207C525.83 183.848 525.489 180.366 524.179 177.201C522.869 174.036 520.65 171.331 517.802 169.427C514.954 167.524 511.605 166.508 508.179 166.508C503.594 166.515 499.197 168.337 495.953 171.577C492.708 174.816 490.878 179.208 490.864 183.793Z" fill="#88898D"/>
<path d="M487.902 145.966C487.902 149.443 486.87 152.842 484.938 155.733C483.006 158.624 480.26 160.877 477.046 162.208C473.833 163.539 470.298 163.887 466.887 163.209C463.475 162.53 460.342 160.856 457.883 158.397C455.424 155.938 453.749 152.806 453.07 149.395C452.392 145.985 452.74 142.45 454.071 139.238C455.402 136.025 457.656 133.28 460.548 131.348C463.439 129.416 466.839 128.385 470.317 128.385C474.979 128.392 479.447 130.247 482.744 133.542C486.04 136.838 487.895 141.305 487.902 145.966ZM452.894 145.966C452.878 149.382 453.875 152.726 455.759 155.576C457.643 158.426 460.33 160.654 463.48 161.979C466.629 163.303 470.101 163.665 473.456 163.018C476.811 162.371 479.9 160.744 482.331 158.344C484.762 155.943 486.427 152.876 487.116 149.53C487.805 146.184 487.486 142.709 486.201 139.543C484.915 136.378 482.721 133.665 479.893 131.746C477.066 129.827 473.734 128.789 470.317 128.762C465.748 128.769 461.367 130.581 458.129 133.804C454.89 137.026 453.057 141.398 453.029 145.966L452.894 145.966Z" fill="#88898D"/>
<path d="M487.902 221.646C487.918 225.127 486.9 228.534 484.977 231.436C483.055 234.337 480.314 236.603 477.102 237.946C473.891 239.289 470.353 239.649 466.936 238.98C463.52 238.311 460.379 236.643 457.911 234.187C455.444 231.732 453.761 228.599 453.076 225.187C452.391 221.774 452.735 218.235 454.063 215.018C455.392 211.801 457.646 209.05 460.539 207.115C463.433 205.18 466.836 204.146 470.317 204.146C474.967 204.146 479.427 205.988 482.723 209.267C486.018 212.547 487.88 216.998 487.902 221.646ZM452.894 221.646C452.894 225.065 453.908 228.407 455.807 231.249C457.707 234.092 460.407 236.307 463.566 237.615C466.725 238.923 470.201 239.266 473.555 238.599C476.909 237.932 479.989 236.286 482.407 233.868C484.825 231.451 486.472 228.371 487.139 225.018C487.806 221.666 487.463 218.19 486.155 215.032C484.846 211.873 482.63 209.174 479.787 207.275C476.944 205.376 473.602 204.362 470.182 204.362C465.623 204.404 461.264 206.243 458.052 209.479C454.841 212.716 453.035 217.088 453.028 221.646L452.894 221.646Z" fill="#88898D"/>
<path d="M198.09 105.285L198.09 105.42L167.041 105.42L167.041 105.285C167.048 104.833 167.233 104.401 167.555 104.084C167.878 103.767 168.312 103.589 168.764 103.589L196.448 103.589C196.888 103.603 197.306 103.788 197.613 104.104C197.919 104.421 198.09 104.844 198.09 105.285ZM167.337 105.15L197.821 105.15C197.782 104.798 197.615 104.472 197.352 104.234C197.089 103.996 196.748 103.863 196.394 103.858L168.764 103.858C168.408 103.857 168.064 103.988 167.8 104.227C167.536 104.467 167.371 104.796 167.337 105.15Z" fill="#88898D"/>
<path d="M347.44 135.277L347.44 232.55C347.429 234.337 347.129 236.11 346.551 237.8C346.249 238.637 345.88 239.447 345.447 240.223C345.217 240.64 344.966 241.045 344.693 241.435C344.411 241.856 344.106 242.261 343.777 242.646C343.467 243.033 343.134 243.402 342.781 243.75C342.302 244.234 341.789 244.684 341.246 245.096C340.602 245.6 339.917 246.051 339.199 246.442C335.703 248.071 331.837 248.74 327.997 248.381L218.368 248.381C216.197 248.497 214.02 248.297 211.905 247.789C210.975 247.518 210.073 247.157 209.213 246.712C208.755 246.496 208.297 246.227 207.839 245.958C207.381 245.689 206.708 245.177 206.17 244.746C205.631 244.316 205.442 244.1 205.092 243.75C204.739 243.402 204.406 243.033 204.096 242.646C203.773 242.269 203.45 241.839 203.153 241.435C202.857 241.031 202.265 239.9 202.049 239.55C201.818 239.143 201.637 238.709 201.511 238.258L201.322 237.8C200.744 236.11 200.444 234.337 200.434 232.55L200.434 135.277C200.434 134.547 200.488 133.819 200.595 133.097C200.832 131.352 201.36 129.659 202.157 128.089L202.723 127.066C203.057 126.514 203.425 125.983 203.827 125.477C204.231 124.993 204.635 124.508 205.092 124.05C205.55 123.593 205.792 123.377 206.17 123.081C206.695 122.636 207.253 122.231 207.839 121.87C208.297 121.574 208.755 121.331 209.213 121.089C210.078 120.654 210.979 120.294 211.905 120.012C214.022 119.517 216.197 119.317 218.368 119.42L327.997 119.42C331.836 119.087 335.695 119.755 339.199 121.358C339.908 121.766 340.591 122.215 341.246 122.704C341.784 123.135 342.296 123.593 342.781 124.05C343.223 124.5 343.637 124.976 344.02 125.477C344.429 125.983 344.807 126.513 345.151 127.066L345.716 128.089C346.514 129.659 347.041 131.352 347.278 133.097C347.385 133.819 347.439 134.547 347.44 135.277ZM200.676 232.55C200.675 234.3 200.966 236.038 201.538 237.692L201.699 238.177C201.834 238.608 202.015 239.023 202.238 239.416C202.453 239.766 203.073 240.869 203.342 241.273C203.611 241.677 203.934 242.081 204.258 242.485C204.581 242.889 204.877 243.212 205.227 243.562C205.577 243.912 205.927 244.235 206.304 244.531C206.813 244.964 207.353 245.36 207.92 245.716C208.378 245.985 208.835 246.254 209.293 246.469C210.153 246.909 211.055 247.261 211.986 247.519C214.075 248.014 216.224 248.214 218.368 248.112L327.997 248.112C331.79 248.464 335.609 247.805 339.065 246.2C339.77 245.811 340.445 245.37 341.084 244.881C341.612 244.47 342.115 244.03 342.592 243.562C342.942 243.212 343.266 242.835 343.562 242.485C343.858 242.135 344.208 241.677 344.477 241.273L345.204 240.089C345.634 239.323 345.994 238.522 346.282 237.692C346.853 236.038 347.144 234.3 347.143 232.55L347.143 135.277C347.14 134.566 347.095 133.856 347.009 133.15C346.773 131.435 346.254 129.77 345.474 128.224C345.285 127.874 345.124 127.55 344.908 127.227C344.574 126.675 344.205 126.145 343.804 125.639C343.429 125.157 343.024 124.698 342.592 124.266C342.122 123.79 341.618 123.35 341.084 122.947C340.445 122.449 339.77 121.999 339.065 121.6C335.604 120.014 331.789 119.356 327.997 119.689L218.368 119.689C216.224 119.587 214.075 119.786 211.986 120.281C211.059 120.551 210.158 120.903 209.293 121.331C208.835 121.574 208.378 121.816 207.92 122.085C207.359 122.458 206.82 122.863 206.304 123.297C205.926 123.598 205.566 123.922 205.227 124.266C204.795 124.698 204.39 125.157 204.015 125.639C203.614 126.145 203.245 126.675 202.911 127.227C202.696 127.55 202.534 127.874 202.346 128.224C201.565 129.77 201.046 131.435 200.811 133.15C200.725 133.856 200.68 134.566 200.676 135.277L200.676 232.55Z" fill="#88898D"/>
<path d="M192.624 139.531C192.624 142.976 191.602 146.344 189.687 149.209C187.773 152.073 185.052 154.306 181.868 155.624C178.684 156.943 175.181 157.288 171.801 156.615C168.422 155.943 165.317 154.284 162.88 151.848C160.444 149.412 158.784 146.308 158.112 142.929C157.44 139.55 157.785 136.048 159.104 132.865C160.422 129.682 162.655 126.962 165.521 125.047C168.386 123.133 171.755 122.112 175.2 122.112C179.821 122.112 184.253 123.947 187.521 127.214C190.788 130.481 192.624 134.911 192.624 139.531ZM158.074 139.531C158.074 142.918 159.078 146.228 160.96 149.044C162.842 151.86 165.517 154.055 168.646 155.351C171.776 156.647 175.219 156.986 178.542 156.325C181.864 155.664 184.916 154.033 187.311 151.639C189.706 149.244 191.337 146.193 191.998 142.872C192.659 139.55 192.32 136.107 191.024 132.978C189.727 129.849 187.532 127.175 184.716 125.294C181.899 123.412 178.588 122.408 175.2 122.408C172.951 122.408 170.724 122.851 168.646 123.711C166.568 124.572 164.68 125.833 163.09 127.423C161.5 129.013 160.238 130.901 159.377 132.978C158.517 135.056 158.074 137.282 158.074 139.531Z" fill="#88898D"/>
<path d="M192.624 228.189C192.629 231.635 191.612 235.005 189.7 237.874C187.789 240.742 185.07 242.979 181.887 244.301C178.703 245.624 175.199 245.972 171.818 245.303C168.436 244.634 165.329 242.977 162.89 240.542C160.451 238.107 158.789 235.004 158.114 231.624C157.44 228.244 157.783 224.74 159.101 221.556C160.419 218.371 162.652 215.649 165.518 213.734C168.384 211.819 171.753 210.796 175.2 210.796C179.817 210.796 184.244 212.628 187.511 215.889C190.778 219.15 192.616 223.573 192.624 228.189ZM158.074 228.189C158.074 231.575 159.078 234.886 160.96 237.702C162.842 240.518 165.517 242.712 168.646 244.008C171.776 245.304 175.219 245.643 178.542 244.983C181.864 244.322 184.916 242.691 187.311 240.296C189.706 237.902 191.337 234.851 191.998 231.529C192.659 228.208 192.32 224.765 191.024 221.636C189.727 218.507 187.532 215.833 184.716 213.951C181.899 212.07 178.588 211.066 175.2 211.066C170.66 211.073 166.308 212.879 163.098 216.089C159.887 219.298 158.081 223.65 158.074 228.189Z" fill="#88898D"/>
<path d="M176.036 221.135L174.366 221.108L174.366 232.496L171.7 229.831L170.677 230.8L175.201 235.323L179.725 230.8L178.675 229.777L176.036 232.496L176.036 221.135Z" fill="#88898D"/>
<path d="M192.786 183.927C192.786 187.404 191.754 190.803 189.822 193.694C187.89 196.586 185.143 198.839 181.93 200.17C178.717 201.5 175.181 201.848 171.77 201.17C168.359 200.492 165.226 198.817 162.767 196.359C160.307 193.9 158.633 190.767 157.954 187.357C157.276 183.947 157.624 180.412 158.955 177.199C160.286 173.987 162.54 171.241 165.431 169.309C168.323 167.377 171.723 166.346 175.201 166.346C179.862 166.353 184.331 168.208 187.627 171.504C190.924 174.799 192.778 179.267 192.786 183.927ZM157.912 183.927C157.918 187.345 158.936 190.684 160.839 193.523C162.742 196.361 165.444 198.573 168.604 199.877C171.763 201.181 175.238 201.519 178.59 200.849C181.942 200.179 185.02 198.531 187.435 196.113C189.85 193.694 191.494 190.614 192.159 187.262C192.824 183.91 192.48 180.436 191.171 177.279C189.861 174.123 187.646 171.425 184.803 169.527C181.961 167.629 178.619 166.616 175.201 166.616C170.613 166.623 166.216 168.45 162.974 171.696C159.733 174.941 157.912 179.34 157.912 183.927Z" fill="#88898D"/>
<path d="M192.624 183.927C192.624 187.372 191.602 190.74 189.687 193.605C187.773 196.469 185.052 198.702 181.868 200.02C178.684 201.339 175.181 201.684 171.801 201.012C168.422 200.34 165.317 198.681 162.88 196.244C160.444 193.808 158.784 190.705 158.112 187.326C157.44 183.947 157.785 180.444 159.104 177.261C160.422 174.078 162.655 171.358 165.521 169.444C168.386 167.53 171.755 166.508 175.2 166.508C179.821 166.508 184.253 168.343 187.521 171.61C190.788 174.877 192.624 179.307 192.624 183.927ZM158.074 183.927C158.079 187.313 159.088 190.621 160.973 193.433C162.858 196.245 165.535 198.436 168.665 199.728C171.795 201.02 175.238 201.355 178.558 200.691C181.879 200.027 184.928 198.394 187.321 195.999C189.713 193.603 191.342 190.552 192 187.231C192.659 183.91 192.318 180.469 191.021 177.341C189.724 174.214 187.529 171.542 184.713 169.661C181.897 167.781 178.587 166.777 175.2 166.777C172.949 166.777 170.72 167.221 168.64 168.083C166.56 168.945 164.671 170.209 163.08 171.802C161.49 173.395 160.229 175.286 159.37 177.366C158.51 179.447 158.07 181.676 158.074 183.927Z" fill="#88898D"/>
<path d="M175.039 177.439C174.981 177.379 174.912 177.332 174.836 177.3C174.759 177.268 174.677 177.251 174.594 177.251C174.512 177.251 174.43 177.268 174.353 177.3C174.277 177.332 174.208 177.379 174.15 177.439L168.953 183.389C168.836 183.518 168.771 183.686 168.771 183.86C168.771 184.034 168.836 184.202 168.953 184.331L174.339 190.281C174.397 190.345 174.467 190.396 174.546 190.43C174.625 190.465 174.71 190.483 174.796 190.483C174.883 190.483 174.968 190.465 175.047 190.43C175.126 190.396 175.196 190.345 175.254 190.281L175.389 190.281C175.503 190.161 175.566 190.002 175.566 189.837C175.566 189.672 175.503 189.513 175.389 189.393L174.985 188.935L180.829 188.935C180.913 188.935 180.997 188.918 181.076 188.886C181.154 188.853 181.226 188.806 181.286 188.746C181.346 188.686 181.393 188.614 181.426 188.536C181.458 188.458 181.475 188.374 181.475 188.289L181.475 185.973C181.475 185.888 181.458 185.804 181.426 185.726C181.393 185.648 181.346 185.576 181.286 185.516C181.226 185.456 181.154 185.409 181.076 185.376C180.997 185.344 180.913 185.327 180.829 185.327L176.735 185.327L176.735 182.366L180.829 182.366C180.91 182.369 180.991 182.357 181.068 182.329C181.144 182.301 181.215 182.259 181.275 182.204C181.335 182.149 181.383 182.082 181.418 182.008C181.452 181.935 181.471 181.855 181.475 181.773L181.475 179.296C181.475 179.212 181.458 179.128 181.426 179.049C181.393 178.971 181.346 178.9 181.286 178.84C181.226 178.78 181.154 178.732 181.076 178.699C180.997 178.667 180.913 178.65 180.829 178.65L175.066 178.65L175.308 178.381C175.308 178.219 175.308 177.923 175.066 177.681L175.039 177.439Z" fill="#88898D"/>
<path d="M390.068 228.189C390.073 231.635 389.056 235.005 387.145 237.874C385.233 240.742 382.514 242.979 379.331 244.301C376.148 245.624 372.644 245.972 369.262 245.303C365.881 244.634 362.774 242.977 360.334 240.542C357.895 238.107 356.233 235.004 355.558 231.624C354.884 228.244 355.227 224.74 356.545 221.556C357.863 218.371 360.096 215.649 362.962 213.734C365.828 211.819 369.198 210.796 372.645 210.796C377.261 210.796 381.689 212.628 384.955 215.889C388.222 219.15 390.061 223.573 390.068 228.189ZM355.518 228.189C355.513 231.583 356.515 234.902 358.398 237.727C360.28 240.551 362.959 242.754 366.095 244.055C369.23 245.356 372.682 245.698 376.012 245.037C379.342 244.376 382.401 242.742 384.801 240.342C387.202 237.942 388.836 234.884 389.497 231.555C390.158 228.225 389.816 224.775 388.515 221.64C387.213 218.505 385.01 215.827 382.185 213.945C379.36 212.062 376.04 211.06 372.645 211.066C368.105 211.073 363.752 212.879 360.542 216.089C357.332 219.298 355.525 223.65 355.518 228.189Z" fill="#88898D"/>
<path d="M390.068 139.531C390.068 142.976 389.046 146.344 387.132 149.209C385.217 152.073 382.496 154.306 379.312 155.624C376.129 156.943 372.626 157.288 369.246 156.615C365.866 155.943 362.761 154.284 360.325 151.848C357.888 149.412 356.229 146.308 355.556 142.929C354.884 139.55 355.229 136.048 356.548 132.865C357.867 129.682 360.1 126.962 362.965 125.047C365.83 123.133 369.199 122.112 372.645 122.112C377.266 122.112 381.697 123.947 384.965 127.214C388.232 130.481 390.068 134.911 390.068 139.531ZM355.518 139.531C355.513 142.925 356.515 146.245 358.398 149.069C360.28 151.894 362.959 154.096 366.095 155.397C369.23 156.699 372.682 157.041 376.012 156.38C379.342 155.719 382.401 154.085 384.801 151.685C387.202 149.285 388.836 146.226 389.497 142.897C390.158 139.568 389.816 136.117 388.515 132.982C387.213 129.848 385.01 127.169 382.185 125.287C379.36 123.405 376.04 122.403 372.645 122.408C368.102 122.408 363.746 124.212 360.534 127.423C357.322 130.634 355.518 134.99 355.518 139.531Z" fill="#88898D"/>
<path d="M341.353 228.189C341.359 231.044 340.517 233.837 338.934 236.213C337.351 238.59 335.099 240.444 332.462 241.54C329.825 242.636 326.922 242.926 324.12 242.372C321.318 241.818 318.744 240.446 316.722 238.429C314.701 236.412 313.324 233.841 312.765 231.041C312.206 228.241 312.49 225.338 313.581 222.699C314.673 220.061 316.523 217.806 318.897 216.219C321.272 214.632 324.063 213.785 326.919 213.785C330.743 213.785 334.41 215.301 337.116 218.002C339.822 220.702 341.346 224.366 341.353 228.189ZM312.782 228.189C312.776 230.992 313.603 233.733 315.158 236.066C316.712 238.399 318.924 240.219 321.513 241.294C324.103 242.369 326.953 242.652 329.703 242.106C332.453 241.561 334.98 240.211 336.962 238.229C338.945 236.247 340.294 233.721 340.84 230.972C341.386 228.222 341.103 225.372 340.028 222.784C338.952 220.195 337.132 217.983 334.799 216.429C332.465 214.875 329.723 214.049 326.919 214.054C323.172 214.061 319.58 215.553 316.93 218.202C314.28 220.851 312.789 224.442 312.782 228.189Z" fill="#88898D"/>
<path d="M330.232 233.762C330.011 233.767 329.794 233.706 329.609 233.587C329.423 233.468 329.277 233.296 329.191 233.093C329.104 232.89 329.08 232.666 329.121 232.449C329.163 232.233 329.269 232.034 329.425 231.878C329.581 231.722 329.78 231.616 329.997 231.574C330.213 231.532 330.437 231.557 330.64 231.643C330.843 231.73 331.015 231.876 331.134 232.062C331.254 232.247 331.315 232.464 331.309 232.685M330.771 230.477L329.667 230.477L329.667 222.804L330.771 222.804L330.771 230.477ZM326.92 233.762C326.762 233.787 326.601 233.777 326.448 233.734C326.294 233.69 326.152 233.614 326.03 233.51C325.909 233.407 325.812 233.278 325.745 233.133C325.678 232.988 325.644 232.831 325.644 232.671C325.644 232.512 325.678 232.354 325.745 232.209C325.812 232.064 325.909 231.936 326.03 231.832C326.152 231.729 326.294 231.652 326.448 231.609C326.601 231.566 326.762 231.556 326.92 231.581C327.077 231.556 327.238 231.566 327.392 231.609C327.545 231.652 327.688 231.729 327.809 231.832C327.93 231.936 328.028 232.064 328.094 232.209C328.161 232.354 328.196 232.512 328.196 232.671C328.196 232.831 328.161 232.988 328.094 233.133C328.028 233.278 327.93 233.407 327.809 233.51C327.688 233.614 327.545 233.69 327.392 233.734C327.238 233.777 327.077 233.787 326.92 233.762ZM327.485 230.477L326.381 230.477L326.381 222.804L327.485 222.804L327.485 230.477ZM323.634 233.762C323.477 233.787 323.316 233.777 323.162 233.734C323.009 233.69 322.866 233.614 322.745 233.51C322.624 233.407 322.526 233.278 322.46 233.133C322.393 232.988 322.358 232.831 322.358 232.671C322.358 232.512 322.393 232.354 322.46 232.209C322.526 232.064 322.624 231.936 322.745 231.832C322.866 231.729 323.009 231.652 323.162 231.609C323.316 231.566 323.477 231.556 323.634 231.581C323.792 231.556 323.953 231.566 324.107 231.609C324.26 231.652 324.402 231.729 324.524 231.832C324.645 231.936 324.742 232.064 324.809 232.209C324.876 232.354 324.91 232.512 324.91 232.671C324.91 232.831 324.876 232.988 324.809 233.133C324.742 233.278 324.645 233.407 324.524 233.51C324.402 233.614 324.26 233.69 324.107 233.734C323.953 233.777 323.792 233.787 323.634 233.762ZM324.173 230.477L323.015 230.477L323.015 222.804L324.092 222.804L324.173 230.477Z" fill="#88898D"/>
<path d="M341.353 139.531C341.353 142.385 340.507 145.175 338.921 147.548C337.335 149.922 335.08 151.771 332.443 152.863C329.806 153.956 326.903 154.241 324.103 153.685C321.303 153.128 318.732 151.753 316.713 149.735C314.694 147.717 313.32 145.146 312.763 142.346C312.206 139.547 312.492 136.646 313.584 134.009C314.677 131.372 316.527 129.118 318.9 127.532C321.274 125.947 324.065 125.1 326.919 125.1C330.747 125.1 334.419 126.621 337.126 129.327C339.833 132.033 341.353 135.704 341.353 139.531ZM312.782 139.531C312.782 142.333 313.613 145.072 315.171 147.402C316.728 149.731 318.942 151.546 321.532 152.617C324.122 153.688 326.971 153.967 329.72 153.419C332.468 152.87 334.992 151.519 336.972 149.535C338.952 147.552 340.299 145.026 340.842 142.277C341.386 139.529 341.101 136.68 340.025 134.093C338.949 131.506 337.129 129.296 334.796 127.743C332.463 126.19 329.722 125.364 326.919 125.37C323.167 125.377 319.571 126.872 316.921 129.527C314.27 132.182 312.782 135.78 312.782 139.531Z" fill="#88898D"/>
<path d="M329.935 134.147L329.935 142.223L326.919 145.4L323.903 142.223L323.903 134.147L329.935 134.147ZM329.154 142.008L329.154 134.954L324.711 134.954L324.711 142.223L326.919 144.566L329.154 142.008Z" fill="#88898D"/>
<path d="M325.335 140.413L325.754 140.832L328.743 137.843L328.325 137.424L325.335 140.413Z" fill="#88898D"/>
<path d="M325.316 137.843L328.306 140.832L328.725 140.413L325.735 137.424L325.316 137.843Z" fill="#88898D"/>
<path d="M341.353 183.927C341.353 186.781 340.507 189.571 338.921 191.944C337.335 194.318 335.08 196.167 332.443 197.259C329.806 198.352 326.903 198.637 324.103 198.081C321.303 197.524 318.732 196.149 316.713 194.131C314.694 192.113 313.32 189.542 312.763 186.742C312.206 183.943 312.492 181.042 313.584 178.405C314.677 175.768 316.527 173.514 318.9 171.928C321.274 170.343 324.065 169.496 326.919 169.496C330.745 169.504 334.412 171.026 337.118 173.731C339.823 176.436 341.346 180.102 341.353 183.927ZM312.782 183.927C312.782 186.729 313.613 189.468 315.171 191.798C316.728 194.127 318.942 195.942 321.532 197.013C324.122 198.084 326.971 198.363 329.72 197.815C332.468 197.266 334.992 195.915 336.972 193.931C338.952 191.948 340.299 189.422 340.842 186.673C341.386 183.925 341.101 181.076 340.025 178.489C338.949 175.902 337.129 173.692 334.796 172.139C332.463 170.586 329.722 169.76 326.919 169.766C323.167 169.773 319.571 171.268 316.921 173.923C314.27 176.578 312.782 180.176 312.782 183.927Z" fill="#88898D"/>
<path d="M326.893 180.642C327.643 180.638 328.392 180.71 329.128 180.858C329.709 180.99 330.264 181.217 330.771 181.531C331.195 181.789 331.547 182.15 331.794 182.581C332.041 183.015 332.162 183.509 332.144 184.008C332.152 184.489 332.031 184.963 331.794 185.381C331.558 185.788 331.225 186.13 330.824 186.377C330.344 186.673 329.815 186.882 329.263 186.996C327.788 187.301 326.267 187.301 324.792 186.996C324.191 186.89 323.616 186.67 323.096 186.35C322.664 186.093 322.303 185.732 322.046 185.3C321.822 184.839 321.711 184.332 321.722 183.819C321.722 181.701 323.446 180.642 326.893 180.642ZM326.893 181.827C324.011 181.827 322.584 182.5 322.584 183.873C322.584 185.246 324.038 186.027 326.974 186.027C329.909 186.027 331.04 185.327 331.04 183.9C331.04 182.473 329.774 181.827 327.001 181.827L326.893 181.827Z" fill="#88898D"/>
<path d="M305.861 228.189C305.866 231.044 305.024 233.837 303.442 236.213C301.859 238.59 299.606 240.444 296.969 241.54C294.332 242.636 291.429 242.926 288.628 242.372C285.826 241.818 283.252 240.446 281.23 238.429C279.209 236.412 277.832 233.841 277.272 231.041C276.713 228.241 276.998 225.338 278.089 222.699C279.181 220.061 281.031 217.806 283.405 216.219C285.779 214.632 288.571 213.785 291.427 213.785C295.251 213.785 298.918 215.301 301.624 218.002C304.33 220.702 305.854 224.366 305.861 228.189ZM277.289 228.189C277.284 230.992 278.111 233.733 279.665 236.066C281.22 238.399 283.432 240.219 286.021 241.294C288.61 242.369 291.461 242.652 294.211 242.106C296.961 241.561 299.487 240.211 301.47 238.229C303.453 236.247 304.802 233.721 305.348 230.972C305.894 228.222 305.611 225.372 304.535 222.784C303.46 220.195 301.64 217.983 299.307 216.429C296.973 214.875 294.231 214.049 291.427 214.054C289.567 214.05 287.724 214.413 286.004 215.122C284.285 215.83 282.721 216.87 281.403 218.183C280.085 219.495 279.039 221.054 278.324 222.771C277.609 224.488 277.239 226.329 277.236 228.189L277.289 228.189Z" fill="#88898D"/>
<path d="M287.064 224.985L288.06 225.55L289.407 226.25C289.891 226.493 290.43 226.735 291.022 227.004C291.615 227.273 292.18 227.489 292.773 227.704C293.365 227.919 294.012 228.108 294.631 228.269C295.239 228.447 295.86 228.573 296.489 228.646L296.489 229.885C295.86 229.799 295.239 229.664 294.631 229.481C294.012 229.319 293.392 229.104 292.8 228.889C292.207 228.673 291.615 228.431 291.049 228.189L289.514 227.462L288.276 226.816L287.441 226.358L287.441 231.419L286.391 231.419L286.391 224.985L287.064 224.985Z" fill="#88898D"/>
<path d="M305.861 139.531C305.861 142.385 305.015 145.175 303.429 147.548C301.843 149.922 299.588 151.771 296.951 152.863C294.313 153.956 291.411 154.241 288.611 153.685C285.811 153.128 283.239 151.753 281.221 149.735C279.202 147.717 277.827 145.146 277.271 142.346C276.714 139.547 276.999 136.646 278.092 134.009C279.184 131.372 281.034 129.118 283.408 127.532C285.782 125.947 288.572 125.1 291.427 125.1C295.255 125.1 298.927 126.621 301.634 129.327C304.34 132.033 305.861 135.704 305.861 139.531ZM277.236 139.531C277.236 142.333 278.067 145.072 279.625 147.402C281.182 149.731 283.396 151.546 285.986 152.617C288.576 153.688 291.425 153.967 294.174 153.419C296.922 152.87 299.446 151.519 301.426 149.535C303.406 147.552 304.753 145.026 305.296 142.277C305.84 139.529 305.555 136.68 304.479 134.093C303.403 131.506 301.583 129.296 299.25 127.743C296.917 126.19 294.176 125.364 291.373 125.37C287.621 125.377 284.025 126.872 281.375 129.527C278.724 132.182 277.236 135.78 277.236 139.531Z" fill="#88898D"/>
<path d="M290.835 136.327C291.659 136.325 292.481 136.415 293.285 136.596C293.941 136.749 294.562 137.023 295.116 137.404C295.604 137.732 296.002 138.176 296.274 138.696C296.528 139.235 296.657 139.824 296.651 140.419C296.671 141.022 296.552 141.621 296.301 142.169L295.197 142.169C295.52 141.633 295.687 141.018 295.682 140.393C295.686 139.97 295.584 139.554 295.386 139.181C295.19 138.818 294.914 138.505 294.578 138.266C294.164 138.004 293.709 137.813 293.231 137.7C292.64 137.561 292.034 137.498 291.427 137.512C291.85 137.704 292.203 138.021 292.439 138.421C292.675 138.821 292.783 139.284 292.747 139.746C292.757 140.155 292.674 140.56 292.504 140.931C292.372 141.295 292.15 141.619 291.858 141.873C291.568 142.141 291.23 142.351 290.862 142.493C289.992 142.809 289.038 142.809 288.169 142.493C287.781 142.333 287.425 142.105 287.118 141.819C286.822 141.526 286.585 141.179 286.418 140.796C286.253 140.376 286.171 139.928 286.176 139.477C286.175 139.012 286.276 138.553 286.472 138.131C286.694 137.747 286.998 137.416 287.361 137.162C287.805 136.871 288.297 136.661 288.815 136.543C289.477 136.391 290.155 136.319 290.835 136.327ZM289.784 137.566C289.428 137.563 289.073 137.617 288.734 137.727C288.439 137.816 288.164 137.962 287.926 138.158C287.699 138.317 287.514 138.53 287.388 138.777C287.256 139.025 287.191 139.304 287.199 139.585C287.198 139.853 287.253 140.119 287.361 140.366C287.473 140.599 287.628 140.809 287.819 140.985C288.036 141.161 288.282 141.297 288.546 141.389C288.829 141.499 289.131 141.554 289.434 141.55C289.762 141.549 290.088 141.504 290.404 141.416C290.664 141.321 290.902 141.174 291.104 140.985C291.307 140.81 291.464 140.588 291.562 140.339C291.674 140.075 291.729 139.791 291.723 139.504C291.721 139.244 291.666 138.988 291.562 138.75C291.453 138.528 291.317 138.32 291.158 138.131C290.973 137.966 290.764 137.83 290.539 137.727C290.303 137.617 290.045 137.562 289.784 137.566Z" fill="#88898D"/>
<path d="M305.861 183.927C305.861 186.781 305.015 189.571 303.429 191.944C301.843 194.318 299.588 196.167 296.951 197.259C294.313 198.352 291.411 198.637 288.611 198.081C285.811 197.524 283.239 196.149 281.221 194.131C279.202 192.113 277.827 189.542 277.271 186.742C276.714 183.943 276.999 181.042 278.092 178.405C279.184 175.768 281.034 173.514 283.408 171.928C285.782 170.343 288.572 169.496 291.427 169.496C295.253 169.504 298.92 171.026 301.626 173.731C304.331 176.436 305.854 180.102 305.861 183.927ZM277.289 183.927C277.289 186.729 278.121 189.468 279.678 191.798C281.236 194.127 283.45 195.942 286.04 197.013C288.63 198.084 291.479 198.363 294.227 197.815C296.976 197.266 299.5 195.915 301.48 193.931C303.459 191.948 304.806 189.422 305.35 186.673C305.893 183.925 305.609 181.076 304.533 178.489C303.457 175.902 301.637 173.692 299.304 172.139C296.971 170.586 294.23 169.76 291.427 169.766C289.565 169.762 287.72 170.126 285.998 170.836C284.277 171.546 282.712 172.589 281.394 173.904C280.076 175.219 279.03 176.782 278.316 178.502C277.603 180.221 277.236 182.065 277.236 183.927L277.289 183.927Z" fill="#88898D"/>
<path d="M293.662 187.185C293.394 187.221 293.122 187.221 292.854 187.185C292.586 187.108 292.332 186.99 292.1 186.835C291.868 186.666 291.66 186.467 291.481 186.243C291.281 186.013 291.126 185.748 291.023 185.462C290.79 185.877 290.468 186.236 290.08 186.512C289.704 186.758 289.264 186.889 288.815 186.889C288.462 186.891 288.113 186.817 287.791 186.673C287.478 186.531 287.194 186.33 286.957 186.081C286.731 185.806 286.549 185.497 286.418 185.166C286.284 184.814 286.22 184.439 286.23 184.062C286.231 183.677 286.294 183.295 286.418 182.931C286.548 182.593 286.74 182.283 286.984 182.016C287.205 181.76 287.481 181.558 287.791 181.423C288.113 181.28 288.462 181.206 288.815 181.208C289.269 181.206 289.712 181.347 290.08 181.612C290.473 181.871 290.797 182.222 291.023 182.635C291.126 182.349 291.281 182.084 291.481 181.854C291.66 181.63 291.868 181.431 292.1 181.262C292.338 181.118 292.591 181.001 292.854 180.912C293.122 180.875 293.394 180.875 293.662 180.912C294.079 180.903 294.492 180.986 294.874 181.154C295.238 181.299 295.561 181.53 295.816 181.827C296.079 182.131 296.288 182.477 296.436 182.85C296.579 183.285 296.652 183.739 296.651 184.196C296.652 184.636 296.579 185.073 296.436 185.489C296.294 185.873 296.084 186.229 295.816 186.539C295.561 186.836 295.238 187.067 294.874 187.212C294.473 187.29 294.059 187.281 293.662 187.185ZM293.662 185.946C293.948 185.95 294.232 185.895 294.497 185.785C294.747 185.717 294.972 185.576 295.143 185.381C295.337 185.204 295.485 184.982 295.574 184.735C295.662 184.466 295.708 184.184 295.709 183.9C295.708 183.626 295.662 183.353 295.574 183.093C295.372 182.605 294.984 182.218 294.497 182.016C294.227 181.927 293.946 181.882 293.662 181.881C293.387 181.882 293.114 181.927 292.854 182.016C292.614 182.118 292.395 182.264 292.208 182.446C292.019 182.618 291.872 182.83 291.777 183.066C291.669 183.331 291.614 183.614 291.615 183.9C291.616 184.175 291.662 184.448 291.75 184.708C291.91 185.081 292.177 185.397 292.518 185.618C292.858 185.838 293.256 185.953 293.662 185.946ZM288.976 185.57C289.198 185.623 289.428 185.623 289.65 185.57C289.85 185.488 290.033 185.369 290.188 185.22C290.335 185.062 290.454 184.88 290.538 184.681C290.627 184.477 290.673 184.257 290.673 184.035C290.667 183.813 290.621 183.594 290.538 183.389C290.438 183.193 290.311 183.012 290.161 182.85C290.008 182.698 289.824 182.578 289.623 182.5C289.409 182.457 289.19 182.457 288.976 182.5C288.642 182.488 288.312 182.58 288.033 182.763C287.753 182.947 287.537 183.212 287.414 183.523C287.331 183.729 287.286 183.948 287.28 184.17C287.28 184.409 287.326 184.647 287.414 184.87C287.499 185.067 287.628 185.242 287.791 185.381C287.937 185.543 288.123 185.664 288.33 185.731C288.527 185.712 288.718 185.657 288.896 185.57L288.976 185.57Z" fill="#88898D"/>
<path d="M270.395 228.189C270.401 231.044 269.559 233.837 267.976 236.213C266.393 238.59 264.141 240.444 261.504 241.54C258.867 242.636 255.964 242.926 253.162 242.372C250.36 241.818 247.786 240.446 245.765 238.429C243.743 236.412 242.366 233.841 241.807 231.041C241.248 228.241 241.532 225.338 242.623 222.699C243.715 220.061 245.565 217.806 247.939 216.219C250.314 214.632 253.105 213.785 255.961 213.785C259.783 213.792 263.446 215.311 266.15 218.01C268.855 220.709 270.381 224.368 270.395 228.189ZM241.797 228.189C241.791 230.991 242.618 233.731 244.171 236.064C245.724 238.396 247.934 240.215 250.522 241.291C253.11 242.367 255.959 242.652 258.708 242.108C261.458 241.565 263.984 240.218 265.968 238.239C267.951 236.259 269.303 233.736 269.852 230.988C270.401 228.24 270.122 225.392 269.05 222.802C267.979 220.213 266.164 218 263.834 216.443C261.504 214.885 258.764 214.054 255.961 214.054C252.211 214.061 248.617 215.552 245.963 218.2C243.309 220.849 241.811 224.44 241.797 228.189Z" fill="#88898D"/>
<path d="M250.898 226.465L257.577 226.465L257.577 225.173L258.627 225.173L258.627 226.465L261.078 226.465L261.078 227.623L258.708 227.623L258.708 232.362L257.711 232.362C257.2 231.904 256.688 231.473 256.123 231.015C255.557 230.558 254.965 230.127 254.399 229.723C253.834 229.319 253.241 228.942 252.649 228.592C252.112 228.26 251.555 227.963 250.979 227.704L250.898 226.465ZM257.577 231.069L257.577 227.65L252.622 227.65C253.241 228 253.807 228.323 254.291 228.646C254.776 228.969 255.207 229.265 255.584 229.535L256.661 230.342L257.577 231.069Z" fill="#88898D"/>
<path d="M270.395 139.531C270.395 142.385 269.549 145.175 267.963 147.548C266.377 149.922 264.122 151.771 261.485 152.863C258.848 153.956 255.945 154.241 253.145 153.685C250.346 153.128 247.774 151.753 245.755 149.735C243.736 147.717 242.362 145.146 241.805 142.346C241.248 139.547 241.534 136.646 242.626 134.009C243.719 131.372 245.569 129.118 247.942 127.532C250.316 125.947 253.107 125.1 255.961 125.1C259.787 125.108 263.455 126.63 266.16 129.335C268.865 132.04 270.388 135.706 270.395 139.531ZM241.797 139.531C241.797 142.332 242.627 145.07 244.184 147.399C245.74 149.728 247.952 151.543 250.541 152.615C253.129 153.687 255.977 153.967 258.725 153.421C261.472 152.874 263.996 151.525 265.977 149.545C267.958 147.564 269.307 145.041 269.854 142.294C270.4 139.547 270.12 136.7 269.048 134.112C267.976 131.524 266.16 129.312 263.831 127.756C261.501 126.2 258.763 125.37 255.961 125.37C252.207 125.377 248.608 126.871 245.953 129.525C243.298 132.18 241.804 135.778 241.797 139.531Z" fill="#88898D"/>
<path d="M257.792 136.327C258.252 136.322 258.709 136.404 259.138 136.57C259.536 136.714 259.901 136.933 260.215 137.216C260.517 137.505 260.756 137.853 260.916 138.239C261.081 138.64 261.164 139.07 261.158 139.504C261.162 139.969 261.06 140.43 260.862 140.85C260.65 141.265 260.335 141.617 259.946 141.873C259.504 142.173 259.011 142.392 258.492 142.52C257.856 142.667 257.206 142.739 256.553 142.735C255.745 142.739 254.939 142.64 254.156 142.439C253.499 142.278 252.878 141.995 252.325 141.604C251.837 141.27 251.431 140.827 251.14 140.312C250.868 139.788 250.729 139.206 250.736 138.616C250.718 138.045 250.819 137.476 251.033 136.946L252.11 136.946C251.844 137.453 251.705 138.017 251.706 138.589C251.697 139.015 251.809 139.435 252.029 139.8C252.229 140.176 252.515 140.499 252.864 140.743C253.276 141.014 253.731 141.214 254.21 141.335C254.773 141.479 255.352 141.552 255.934 141.55C255.529 141.322 255.197 140.983 254.978 140.573C254.759 140.163 254.66 139.699 254.695 139.235C254.676 138.829 254.75 138.424 254.91 138.05C255.059 137.703 255.279 137.391 255.557 137.135C255.84 136.885 256.169 136.693 256.526 136.57C256.931 136.417 257.359 136.335 257.792 136.327ZM257.953 137.512C257.626 137.511 257.299 137.556 256.984 137.647C256.727 137.722 256.489 137.851 256.284 138.023C256.079 138.186 255.921 138.399 255.826 138.643C255.715 138.925 255.669 139.229 255.691 139.531C255.691 139.8 255.746 140.066 255.853 140.312C255.955 140.552 256.101 140.771 256.284 140.958C256.472 141.132 256.691 141.269 256.93 141.362C257.176 141.469 257.442 141.524 257.711 141.523C258.05 141.524 258.386 141.47 258.707 141.362C258.995 141.288 259.262 141.15 259.488 140.958C259.71 140.781 259.893 140.561 260.027 140.312C260.147 140.059 260.211 139.784 260.215 139.504C260.219 139.24 260.166 138.978 260.059 138.736C259.952 138.495 259.794 138.279 259.596 138.104C259.376 137.933 259.131 137.797 258.869 137.7C258.575 137.591 258.266 137.528 257.953 137.512Z" fill="#88898D"/>
<path d="M270.395 183.927C270.395 186.781 269.549 189.571 267.963 191.944C266.377 194.318 264.122 196.167 261.485 197.259C258.848 198.352 255.945 198.637 253.145 198.081C250.346 197.524 247.774 196.149 245.755 194.131C243.736 192.113 242.362 189.542 241.805 186.742C241.248 183.943 241.534 181.042 242.626 178.405C243.719 175.768 245.569 173.514 247.942 171.928C250.316 170.343 253.107 169.496 255.961 169.496C259.787 169.504 263.455 171.026 266.16 173.731C268.865 176.436 270.388 180.102 270.395 183.927ZM241.797 183.927C241.797 186.728 242.627 189.466 244.184 191.795C245.74 194.124 247.952 195.939 250.541 197.011C253.129 198.083 255.977 198.363 258.725 197.817C261.472 197.27 263.996 195.921 265.977 193.941C267.958 191.96 269.307 189.437 269.854 186.69C270.4 183.943 270.12 181.095 269.048 178.508C267.976 175.92 266.16 173.708 263.831 172.152C261.501 170.596 258.763 169.766 255.961 169.766C252.205 169.766 248.602 171.258 245.945 173.913C243.289 176.569 241.797 180.171 241.797 183.927Z" fill="#88898D"/>
<path d="M257.82 181.1C258.28 181.092 258.737 181.175 259.166 181.343C259.56 181.501 259.91 181.75 260.189 182.07C260.497 182.391 260.727 182.777 260.863 183.2C261.008 183.671 261.081 184.161 261.078 184.654C261.124 185.377 260.985 186.1 260.674 186.754L259.435 186.754C259.852 186.131 260.085 185.403 260.109 184.654C260.114 184.315 260.06 183.978 259.947 183.658C259.843 183.38 259.688 183.125 259.489 182.904C259.296 182.697 259.056 182.54 258.789 182.446C258.512 182.314 258.207 182.25 257.9 182.258C257.61 182.246 257.321 182.301 257.055 182.417C256.789 182.534 256.553 182.71 256.365 182.931C255.953 183.48 255.753 184.158 255.8 184.843L255.8 186.566L250.737 186.216L250.737 181.558L251.788 181.558L251.788 185.3L254.75 185.489L254.75 184.573C254.745 184.089 254.818 183.608 254.965 183.146C255.1 182.751 255.31 182.385 255.585 182.07C255.84 181.772 256.163 181.541 256.527 181.396C256.933 181.209 257.373 181.108 257.82 181.1Z" fill="#88898D"/>
<path d="M234.902 228.189C234.907 231.044 234.066 233.837 232.483 236.213C230.9 238.59 228.647 240.444 226.011 241.54C223.374 242.636 220.47 242.926 217.669 242.372C214.867 241.818 212.293 240.446 210.271 238.429C208.25 236.412 206.873 233.841 206.314 231.041C205.754 228.241 206.039 225.338 207.13 222.699C208.222 220.061 210.072 217.806 212.446 216.219C214.821 214.632 217.612 213.785 220.468 213.785C224.289 213.792 227.953 215.311 230.657 218.01C233.362 220.709 234.888 224.368 234.902 228.189ZM206.303 228.189C206.298 230.991 207.124 233.731 208.678 236.064C210.231 238.396 212.441 240.215 215.029 241.291C217.617 242.367 220.466 242.652 223.215 242.108C225.964 241.565 228.491 240.218 230.475 238.239C232.458 236.259 233.81 233.736 234.359 230.988C234.907 228.24 234.628 225.392 233.557 222.802C232.486 220.213 230.67 218 228.34 216.443C226.011 214.885 223.271 214.054 220.468 214.054C216.718 214.061 213.124 215.552 210.47 218.2C207.815 220.849 206.318 224.44 206.303 228.189Z" fill="#88898D"/>
<path d="M234.902 139.531C234.902 142.385 234.056 145.175 232.47 147.548C230.884 149.922 228.629 151.771 225.992 152.863C223.354 153.956 220.452 154.241 217.652 153.685C214.852 153.128 212.28 151.753 210.262 149.735C208.243 147.717 206.868 145.146 206.312 142.346C205.755 139.547 206.04 136.646 207.133 134.009C208.225 131.372 210.075 129.118 212.449 127.532C214.823 125.947 217.613 125.1 220.468 125.1C224.294 125.108 227.961 126.63 230.667 129.335C233.372 132.04 234.895 135.706 234.902 139.531ZM206.303 139.531C206.303 142.332 207.134 145.07 208.691 147.399C210.247 149.728 212.459 151.543 215.048 152.615C217.636 153.687 220.484 153.967 223.232 153.421C225.979 152.874 228.503 151.525 230.484 149.545C232.465 147.564 233.814 145.041 234.361 142.294C234.907 139.547 234.627 136.7 233.555 134.112C232.483 131.524 230.667 129.312 228.338 127.756C226.008 126.2 223.27 125.37 220.468 125.37C216.714 125.377 213.115 126.871 210.46 129.525C207.805 132.18 206.311 135.778 206.303 139.531Z" fill="#88898D"/>
<path d="M222.65 136.623C223.075 136.617 223.497 136.7 223.889 136.866C224.254 137.046 224.583 137.292 224.858 137.593C225.127 137.932 225.336 138.314 225.477 138.723C225.621 139.185 225.693 139.666 225.693 140.15C225.735 140.952 225.538 141.748 225.127 142.439L223.889 142.439C224.42 141.785 224.706 140.966 224.696 140.123C224.695 139.796 224.65 139.47 224.562 139.154C224.48 138.892 224.352 138.645 224.185 138.427C224.009 138.237 223.799 138.081 223.565 137.969C223.311 137.859 223.035 137.804 222.758 137.808C221.438 137.808 220.792 138.723 220.792 140.5L220.792 141.335L219.795 141.335L219.795 140.554C219.795 138.885 219.176 138.05 217.937 138.05C216.806 138.05 216.241 138.696 216.241 139.962C216.238 140.687 216.485 141.39 216.941 141.954L215.837 141.954C215.424 141.264 215.219 140.469 215.244 139.666C215.235 139.271 215.299 138.879 215.433 138.508C215.535 138.191 215.7 137.898 215.918 137.646C216.126 137.407 216.383 137.214 216.672 137.081C216.984 136.937 217.324 136.863 217.668 136.866C218.289 136.801 218.911 136.973 219.41 137.348C219.909 137.722 220.249 138.271 220.361 138.885C220.384 138.559 220.466 138.239 220.603 137.943C220.726 137.662 220.899 137.406 221.115 137.189C221.317 136.968 221.565 136.793 221.842 136.677C222.107 136.616 222.379 136.597 222.65 136.623Z" fill="#88898D"/>
<path d="M234.902 183.927C234.902 186.781 234.056 189.571 232.47 191.944C230.884 194.318 228.629 196.167 225.992 197.259C223.354 198.352 220.452 198.637 217.652 198.081C214.852 197.524 212.28 196.149 210.262 194.131C208.243 192.113 206.868 189.542 206.312 186.742C205.755 183.943 206.04 181.042 207.133 178.405C208.225 175.768 210.075 173.514 212.449 171.928C214.823 170.343 217.613 169.496 220.468 169.496C224.294 169.504 227.961 171.026 230.667 173.731C233.372 176.436 234.895 180.102 234.902 183.927ZM206.303 183.927C206.303 186.728 207.134 189.466 208.691 191.795C210.247 194.124 212.459 195.939 215.048 197.011C217.636 198.083 220.484 198.363 223.232 197.817C225.979 197.27 228.503 195.921 230.484 193.941C232.465 191.96 233.814 189.437 234.361 186.69C234.907 183.943 234.627 181.095 233.555 178.508C232.483 175.92 230.667 173.708 228.338 172.152C226.008 170.596 223.27 169.766 220.468 169.766C216.711 169.766 213.109 171.258 210.452 173.913C207.796 176.569 206.303 180.171 206.303 183.927Z" fill="#88898D"/>
<path d="M218.153 182.366C217.878 182.366 217.605 182.412 217.345 182.5C217.128 182.59 216.934 182.728 216.779 182.904C216.617 183.071 216.497 183.274 216.429 183.496C216.386 183.737 216.386 183.983 216.429 184.223C216.403 184.447 216.403 184.673 216.429 184.896L216.698 185.516C216.805 185.725 216.931 185.923 217.075 186.108L217.587 186.646L216.348 186.646C216.034 186.331 215.786 185.956 215.621 185.542C215.337 184.667 215.337 183.725 215.621 182.85C215.741 182.514 215.924 182.203 216.16 181.935C216.391 181.678 216.676 181.476 216.995 181.342C217.358 181.177 217.753 181.094 218.153 181.1C218.525 181.1 218.895 181.145 219.257 181.235C219.579 181.339 219.886 181.484 220.172 181.666C220.467 181.867 220.738 182.102 220.98 182.366C221.275 182.676 221.546 183.009 221.788 183.362L222.65 184.519C222.84 184.792 223.066 185.036 223.323 185.246C223.496 185.42 223.709 185.549 223.942 185.623C224.183 185.667 224.429 185.667 224.669 185.623L224.669 180.589L225.693 180.589L225.693 186.808L225.208 186.808C224.832 186.854 224.453 186.854 224.077 186.808C223.739 186.71 223.42 186.556 223.134 186.35C222.806 186.098 222.508 185.809 222.246 185.489L221.249 184.223C221.024 183.898 220.771 183.592 220.495 183.308C220.281 183.071 220.036 182.863 219.768 182.689C219.542 182.555 219.297 182.455 219.041 182.392C218.749 182.33 218.448 182.321 218.153 182.366Z" fill="#88898D"/>
<path d="M539.552 183.792C539.552 197.483 535.491 210.865 527.883 222.248C520.276 233.631 509.463 242.503 496.812 247.742C484.161 252.981 470.24 254.352 456.81 251.681C443.38 249.011 431.043 242.418 421.36 232.738C411.678 223.057 405.084 210.724 402.412 197.296C399.741 183.869 401.112 169.952 406.352 157.303C411.592 144.655 420.466 133.845 431.852 126.239C443.238 118.633 456.623 114.573 470.317 114.573C488.672 114.595 506.27 121.894 519.25 134.871C532.229 147.847 539.53 165.441 539.552 183.792ZM401.351 183.792C401.351 197.429 405.396 210.76 412.974 222.099C420.552 233.438 431.323 242.275 443.925 247.494C456.527 252.712 470.393 254.078 483.771 251.417C497.149 248.757 509.438 242.19 519.083 232.547C528.728 222.904 535.296 210.619 537.957 197.244C540.618 183.869 539.252 170.005 534.033 157.406C528.813 144.808 519.973 134.039 508.632 126.463C497.291 118.886 483.957 114.843 470.317 114.843C452.033 114.864 434.503 122.135 421.574 135.061C408.646 147.987 401.373 165.512 401.351 183.792Z" fill="#88898D"/>
<path d="M223.673 230.908L223.673 228.565L216.214 228.565L216.214 230.423L215.298 230.423C215.189 229.663 214.933 228.932 214.544 228.269L214.544 227.273L223.592 227.273L223.592 225.173L224.696 225.173L224.696 230.908L223.673 230.908Z" fill="#88898D"/>
<path d="M182.256 139.531C182.247 140.983 181.774 142.394 180.906 143.559C180.038 144.723 178.821 145.58 177.432 146.004C176.042 146.428 174.554 146.396 173.184 145.915C171.813 145.433 170.633 144.527 169.814 143.327L171.349 142.304C171.93 143.193 172.782 143.871 173.778 144.237C174.775 144.603 175.864 144.637 176.881 144.334C177.899 144.032 178.792 143.408 179.427 142.558C180.062 141.707 180.405 140.673 180.405 139.612C180.405 138.55 180.062 137.517 179.427 136.666C178.792 135.815 177.899 135.192 176.881 134.889C175.864 134.587 174.775 134.621 173.778 134.987C172.782 135.352 171.93 136.03 171.349 136.919L171.349 137.054L169.814 136.004C170.633 134.804 171.813 133.898 173.184 133.416C174.554 132.935 176.042 132.904 177.432 133.328C178.821 133.751 180.038 134.608 180.906 135.773C181.774 136.937 182.247 138.348 182.256 139.8L182.256 139.531Z" fill="#E51C17"/>
<path d="M168.146 138.723L168.146 140.366L174.42 140.366L174.42 138.723L168.146 138.723Z" fill="#E51C17"/>
<path fill-rule="evenodd" clip-rule="evenodd" d="M367.232 228.635L367.232 229.912C367.232 230.814 367.588 231.68 368.224 232.32C368.859 232.961 369.722 233.324 370.625 233.331L375.418 233.331C376.728 233.324 377.981 232.799 378.904 231.871C379.828 230.942 380.346 229.686 380.346 228.377L380.346 227.893C380.361 227.237 380.244 226.584 380.002 225.974C379.761 225.364 379.401 224.808 378.941 224.339C378.482 223.87 377.934 223.497 377.329 223.243C376.724 222.989 376.075 222.858 375.418 222.858L370.625 222.858C369.727 222.865 368.868 223.225 368.233 223.859C367.599 224.494 367.239 225.353 367.232 226.25L367.232 227.706C366.998 227.7 366.763 227.717 366.532 227.758C366.128 227.825 365.758 228.022 365.476 228.318C365.194 228.614 365.017 228.994 364.97 229.4L365.885 229.4C366.03 228.714 366.745 228.621 367.232 228.635ZM368.89 231.762C368.432 231.298 368.174 230.672 368.174 230.02L368.229 228.485L371.54 228.485L371.54 232.496L370.625 232.496C369.972 232.489 369.349 232.225 368.89 231.762ZM372.106 232.496L375.418 232.496C375.966 232.515 376.511 232.421 377.021 232.221C377.53 232.021 377.994 231.719 378.382 231.333C378.771 230.947 379.076 230.486 379.28 229.977C379.483 229.469 379.58 228.925 379.565 228.377L379.565 227.785C379.558 226.726 379.132 225.712 378.381 224.966C377.629 224.219 376.612 223.8 375.553 223.8L372.106 223.8L372.106 232.496ZM371.54 223.8L370.759 223.8C370.11 223.8 369.486 224.058 369.027 224.518C368.567 224.977 368.309 225.601 368.309 226.25L368.249 227.92L371.54 227.92L371.54 223.8Z" fill="#88898D"/>
<path d="M366.532 134.846C366.532 134.118 365.941 133.527 365.212 133.527C364.483 133.527 363.893 134.118 363.893 134.846C363.893 135.575 364.483 136.166 365.212 136.166C365.941 136.166 366.532 135.575 366.532 134.846Z" fill="#88898D"/>
<path d="M365.709 141.948C366.254 142.455 366.972 142.737 367.717 142.735L367.717 142.708L373.102 142.708C373.291 142.721 373.48 142.721 373.668 142.708C374.439 142.654 375.158 142.297 375.665 141.713C376.173 141.13 376.428 140.369 376.374 139.598C376.321 138.827 375.963 138.109 375.38 137.601C375.091 137.35 374.755 137.158 374.392 137.037C374.029 136.915 373.646 136.866 373.264 136.893L367.313 136.893C366.575 136.993 365.903 137.37 365.433 137.948C364.962 138.525 364.73 139.26 364.781 140.003C364.832 140.745 365.164 141.441 365.709 141.948Z" fill="#88898D"/>
<path d="M375.391 134.954C376.562 135.409 377.522 136.282 378.084 137.404C378.228 137.679 378.346 137.968 378.434 138.266C378.535 138.563 378.607 138.87 378.65 139.181L380.158 139.181L380.158 137.996C380.187 137.882 380.253 137.781 380.346 137.708C380.438 137.635 380.552 137.595 380.669 137.593C380.786 137.577 380.905 137.597 381.011 137.65C381.116 137.703 381.204 137.786 381.262 137.889L381.262 141.55C381.262 141.739 381.046 141.927 380.831 141.981C380.748 142.01 380.659 142.02 380.572 142.01C380.484 142 380.4 141.971 380.325 141.924C380.25 141.878 380.187 141.816 380.139 141.741C380.092 141.667 380.061 141.584 380.05 141.496L380.05 140.42L378.542 140.42L378.38 141.119C378.144 142.087 377.626 142.964 376.894 143.639C376.161 144.315 375.245 144.759 374.26 144.916C373.777 144.97 373.289 144.97 372.806 144.916C372.661 144.909 372.524 144.846 372.424 144.741C372.323 144.636 372.267 144.496 372.268 144.35C372.26 144.276 372.267 144.201 372.289 144.129C372.311 144.058 372.347 143.992 372.394 143.934C372.442 143.876 372.5 143.829 372.566 143.794C372.632 143.759 372.705 143.738 372.779 143.731C373.039 143.717 373.3 143.717 373.56 143.731C374.494 143.684 375.382 143.311 376.068 142.676C376.754 142.041 377.195 141.185 377.314 140.257C377.433 139.33 377.222 138.391 376.718 137.603C376.214 136.816 375.449 136.231 374.556 135.95C374.132 135.807 373.685 135.743 373.237 135.762L372.833 135.762C372.754 135.762 372.676 135.746 372.603 135.714C372.531 135.683 372.466 135.636 372.413 135.578C372.36 135.519 372.319 135.45 372.294 135.376C372.269 135.301 372.26 135.221 372.268 135.143C372.274 134.983 372.343 134.832 372.458 134.722C372.574 134.612 372.727 134.55 372.887 134.55C373.695 134.496 374.505 134.625 375.257 134.927L375.391 134.954Z" fill="#88898D"/>
<path d="M367.582 143.516C368.801 143.516 369.79 144.504 369.79 145.723C369.79 146.943 368.801 147.931 367.582 147.931C366.362 147.931 365.374 146.943 365.374 145.723C365.374 144.504 366.362 143.516 367.582 143.516Z" fill="#88898D"/>
<path d="M370.517 131.131C371.514 131.131 372.321 131.939 372.321 132.935C372.321 133.931 371.514 134.739 370.517 134.739C369.521 134.739 368.713 133.931 368.713 132.935C368.713 131.939 369.521 131.131 370.517 131.131Z" fill="#88898D"/>
<path d="M221 233.333C219.527 233.333 218.333 234.527 218.333 236C218.333 237.473 219.527 238.667 221 238.667C222.473 238.667 223.667 237.473 223.667 236C223.667 234.527 222.473 233.333 221 233.333ZM220.5 236L220.5 318L221.5 318L221.5 236L220.5 236Z" fill="#555656"/>
<path d="M470 220.333C468.527 220.333 467.333 221.527 467.333 223C467.333 224.473 468.527 225.667 470 225.667C471.473 225.667 472.667 224.473 472.667 223C472.667 221.527 471.473 220.333 470 220.333ZM469.5 223L469.5 318L470.5 318L470.5 223L469.5 223Z" fill="#555656"/>
<path d="M433 182.333C431.527 182.333 430.333 183.527 430.333 185C430.333 186.473 431.527 187.667 433 187.667C434.473 187.667 435.667 186.473 435.667 185C435.667 183.527 434.473 182.333 433 182.333ZM432.5 185L432.5 318L433.5 318L433.5 185L432.5 185Z" fill="#555656"/>
<path d="M80 233.333C78.5272 233.333 77.3333 234.527 77.3333 236C77.3333 237.473 78.5272 238.667 80 238.667C81.4727 238.667 82.6667 237.473 82.6667 236C82.6667 234.527 81.4727 233.333 80 233.333ZM79.5 236L79.5 318L80.5 318L80.5 236L79.5 236Z" fill="#555656"/>
<path d="M230 186.667C231.473 186.667 232.667 185.473 232.667 184C232.667 182.527 231.473 181.333 230 181.333C228.527 181.333 227.333 182.527 227.333 184C227.333 185.473 228.527 186.667 230 186.667ZM237 184L237 184.5L237.5 184.5L237.5 184L237 184ZM230 184.5L237 184.5L237 183.5L230 183.5L230 184.5ZM237 184C237.5 184 237.5 184 237.5 183.999C237.5 183.999 237.5 183.998 237.5 183.997C237.5 183.996 237.5 183.993 237.5 183.99C237.5 183.983 237.5 183.972 237.5 183.958C237.5 183.931 237.5 183.889 237.5 183.834C237.5 183.724 237.5 183.56 237.5 183.342C237.5 182.905 237.5 182.255 237.5 181.4C237.5 179.689 237.5 177.157 237.5 173.872C237.5 167.3 237.5 157.715 237.5 145.658C237.5 121.543 237.5 87.5434 237.5 48L236.5 48C236.5 87.5434 236.5 121.543 236.5 145.658C236.5 157.715 236.5 167.3 236.5 173.872C236.5 177.157 236.5 179.689 236.5 181.4C236.5 182.255 236.5 182.905 236.5 183.342C236.5 183.56 236.5 183.724 236.5 183.834C236.5 183.889 236.5 183.931 236.5 183.958C236.5 183.972 236.5 183.983 236.5 183.99C236.5 183.993 236.5 183.996 236.5 183.997C236.5 183.998 236.5 183.999 236.5 183.999C236.5 184 236.5 184 237 184Z" fill="#555656"/>
<path d="M108.724 40V27.862H111.291V37.875H116.221V40H108.724ZM123.334 26.757H125.544V28.542H123.334V26.757ZM126.564 29.12H131.919V30.667H126.564V29.12ZM131.902 29.001H133.432V30.786H131.902V29.001ZM127.108 33.693H132.803V35.308H127.108V33.693ZM126.768 36.124H133.109V37.79H126.768V36.124ZM128.757 25.652H130.406V39.184H128.757V25.652ZM125.119 26.757H125.323L125.595 26.689L126.751 26.927C126.224 28.899 125.374 31.653 124.66 33.778L123.096 33.472C123.844 31.364 124.711 28.457 125.119 26.944V26.757ZM127.278 26.91H132.718V32.894H127.295V31.398H131.273V28.406H127.278V26.91ZM124.575 34.22C125.306 38.81 127.04 39.558 129.59 39.558C130.236 39.558 132.718 39.558 133.517 39.541C133.262 39.949 133.024 40.765 132.956 41.258H129.488C126.19 41.258 124.184 40.238 123.249 34.577L124.575 34.22ZM124.422 31.704H126.071V33.319H123.946L124.422 31.704ZM125.527 31.704H125.833L126.122 31.67L127.108 31.84C126.734 37.093 125.493 40.068 123.3 41.564C123.028 41.241 122.365 40.663 122.008 40.442C124.15 39.116 125.238 36.566 125.527 31.993V31.704ZM117.367 39.405C118.846 39.184 121.09 38.793 123.215 38.385L123.368 40.068C121.43 40.459 119.373 40.85 117.775 41.156L117.367 39.405ZM118.217 29.834H122.875V31.483H118.217V29.834ZM117.639 32.707H123.079V34.407H117.639V32.707ZM117.741 35.427L118.931 35.138C119.203 36.09 119.424 37.297 119.492 38.096L118.234 38.419C118.2 37.603 117.979 36.362 117.741 35.427ZM121.906 34.968L123.164 35.257C122.909 36.226 122.671 37.297 122.45 38.011L121.345 37.739C121.549 36.991 121.804 35.784 121.906 34.968ZM119.645 30.514H121.277V39.371L119.645 39.626V30.514ZM119.798 25.567H120.852V25.941H121.413V26.451C120.784 27.76 119.798 29.528 118.166 31.058C117.911 30.65 117.333 30.038 116.959 29.766C118.353 28.542 119.288 26.91 119.798 25.567ZM119.934 25.567H121.294C122.195 26.434 123.283 27.675 123.793 28.559L122.518 30.021C122.076 29.171 121.073 27.692 120.24 26.876H119.934V25.567Z" fill="#88898D"/>
<path d="M412.455 27.862C413.554 27.862 414.461 27.998 415.175 28.27C415.889 28.5307 416.421 28.933 416.773 29.477C417.124 30.0097 417.3 30.684 417.3 31.5C417.3 32.0553 417.192 32.5427 416.977 32.962C416.773 33.37 416.495 33.7213 416.144 34.016C415.804 34.2993 415.435 34.5317 415.039 34.713L418.609 40H415.753L412.863 35.342H411.486V40H408.919V27.862H412.455ZM412.268 29.97H411.486V33.251H412.319C412.885 33.251 413.344 33.1887 413.696 33.064C414.047 32.9393 414.302 32.7523 414.461 32.503C414.619 32.2423 414.699 31.9307 414.699 31.568C414.699 31.1827 414.608 30.8767 414.427 30.65C414.257 30.412 413.99 30.242 413.628 30.14C413.276 30.0267 412.823 29.97 412.268 29.97ZM425.139 26.757H427.349V28.542H425.139V26.757ZM428.369 29.12H433.724V30.667H428.369V29.12ZM433.707 29.001H435.237V30.786H433.707V29.001ZM428.913 33.693H434.608V35.308H428.913V33.693ZM428.573 36.124H434.914V37.79H428.573V36.124ZM430.562 25.652H432.211V39.184H430.562V25.652ZM426.924 26.757H427.128L427.4 26.689L428.556 26.927C428.029 28.899 427.179 31.653 426.465 33.778L424.901 33.472C425.649 31.364 426.516 28.457 426.924 26.944V26.757ZM429.083 26.91H434.523V32.894H429.1V31.398H433.078V28.406H429.083V26.91ZM426.38 34.22C427.111 38.81 428.845 39.558 431.395 39.558C432.041 39.558 434.523 39.558 435.322 39.541C435.067 39.949 434.829 40.765 434.761 41.258H431.293C427.995 41.258 425.989 40.238 425.054 34.577L426.38 34.22ZM426.227 31.704H427.876V33.319H425.751L426.227 31.704ZM427.332 31.704H427.638L427.927 31.67L428.913 31.84C428.539 37.093 427.298 40.068 425.105 41.564C424.833 41.241 424.17 40.663 423.813 40.442C425.955 39.116 427.043 36.566 427.332 31.993V31.704ZM419.172 39.405C420.651 39.184 422.895 38.793 425.02 38.385L425.173 40.068C423.235 40.459 421.178 40.85 419.58 41.156L419.172 39.405ZM420.022 29.834H424.68V31.483H420.022V29.834ZM419.444 32.707H424.884V34.407H419.444V32.707ZM419.546 35.427L420.736 35.138C421.008 36.09 421.229 37.297 421.297 38.096L420.039 38.419C420.005 37.603 419.784 36.362 419.546 35.427ZM423.711 34.968L424.969 35.257C424.714 36.226 424.476 37.297 424.255 38.011L423.15 37.739C423.354 36.991 423.609 35.784 423.711 34.968ZM421.45 30.514H423.082V39.371L421.45 39.626V30.514ZM421.603 25.567H422.657V25.941H423.218V26.451C422.589 27.76 421.603 29.528 419.971 31.058C419.716 30.65 419.138 30.038 418.764 29.766C420.158 28.542 421.093 26.91 421.603 25.567ZM421.739 25.567H423.099C424 26.434 425.088 27.675 425.598 28.559L424.323 30.021C423.881 29.171 422.878 27.692 422.045 26.876H421.739V25.567Z" fill="#88898D"/>
<path d="M475.67 40H472.729L469.907 35.41L467.085 40H464.331L468.36 33.744L464.586 27.862H467.425L470.043 32.231L472.61 27.862H475.381L471.573 33.88L475.67 40Z" fill="#88898D"/>
<path d="M512.09 40L511.206 37.11H506.786L505.902 40H503.131L507.415 27.811H510.56L514.861 40H512.09ZM509.71 32.129C509.654 31.9363 509.58 31.6927 509.489 31.398C509.399 31.1033 509.308 30.803 509.217 30.497C509.127 30.191 509.053 29.9247 508.996 29.698C508.94 29.9247 508.86 30.208 508.758 30.548C508.668 30.8767 508.577 31.194 508.486 31.5C508.407 31.7947 508.345 32.0043 508.299 32.129L507.432 34.951H510.594L509.71 32.129Z" fill="#88898D"/>
<path d="M209.938 26.944H223.504V28.746H209.938V26.944ZM208.986 30.837H224.286V32.656H208.986V30.837ZM212.42 36.532H220.903V38.062H212.42V36.532ZM212.42 39.286H220.903V40.969H212.42V39.286ZM215.514 25.567H217.656V28.015H215.514V25.567ZM211.4 33.676H222.178V41.513H220.019V35.359H213.44V41.53H211.4V33.676ZM219.254 28.406L221.532 28.899C221.107 29.766 220.699 30.616 220.376 31.194L218.421 30.735C218.727 30.072 219.084 29.103 219.254 28.406ZM212.097 28.882L214.103 28.491C214.545 29.171 214.902 30.106 215.021 30.718L212.896 31.211C212.811 30.565 212.471 29.579 212.097 28.882ZM230.032 28.678V29.256H237.104V28.678H230.032ZM230.032 27.131V27.692H237.104V27.131H230.032ZM228.06 26.094H239.161V30.293H228.06V26.094ZM229.675 35.461V36.073H237.563V35.461H229.675ZM229.675 33.863V34.458H237.563V33.863H229.675ZM227.754 32.775H239.569V37.144H227.754V32.775ZM232.616 33.132H234.605V40.425H232.616V33.132ZM225.901 30.82H241.388V32.265H225.901V30.82ZM227.414 37.705H239.892V39.014H227.414V37.705ZM225.867 39.626H241.422V41.122H225.867V39.626ZM248.664 26.757H250.874V28.542H248.664V26.757ZM251.894 29.12H257.249V30.667H251.894V29.12ZM257.232 29.001H258.762V30.786H257.232V29.001ZM252.438 33.693H258.133V35.308H252.438V33.693ZM252.098 36.124H258.439V37.79H252.098V36.124ZM254.087 25.652H255.736V39.184H254.087V25.652ZM250.449 26.757H250.653L250.925 26.689L252.081 26.927C251.554 28.899 250.704 31.653 249.99 33.778L248.426 33.472C249.174 31.364 250.041 28.457 250.449 26.944V26.757ZM252.608 26.91H258.048V32.894H252.625V31.398H256.603V28.406H252.608V26.91ZM249.905 34.22C250.636 38.81 252.37 39.558 254.92 39.558C255.566 39.558 258.048 39.558 258.847 39.541C258.592 39.949 258.354 40.765 258.286 41.258H254.818C251.52 41.258 249.514 40.238 248.579 34.577L249.905 34.22ZM249.752 31.704H251.401V33.319H249.276L249.752 31.704ZM250.857 31.704H251.163L251.452 31.67L252.438 31.84C252.064 37.093 250.823 40.068 248.63 41.564C248.358 41.241 247.695 40.663 247.338 40.442C249.48 39.116 250.568 36.566 250.857 31.993V31.704ZM242.697 39.405C244.176 39.184 246.42 38.793 248.545 38.385L248.698 40.068C246.76 40.459 244.703 40.85 243.105 41.156L242.697 39.405ZM243.547 29.834H248.205V31.483H243.547V29.834ZM242.969 32.707H248.409V34.407H242.969V32.707ZM243.071 35.427L244.261 35.138C244.533 36.09 244.754 37.297 244.822 38.096L243.564 38.419C243.53 37.603 243.309 36.362 243.071 35.427ZM247.236 34.968L248.494 35.257C248.239 36.226 248.001 37.297 247.78 38.011L246.675 37.739C246.879 36.991 247.134 35.784 247.236 34.968ZM244.975 30.514H246.607V39.371L244.975 39.626V30.514ZM245.128 25.567H246.182V25.941H246.743V26.451C246.114 27.76 245.128 29.528 243.496 31.058C243.241 30.65 242.663 30.038 242.289 29.766C243.683 28.542 244.618 26.91 245.128 25.567ZM245.264 25.567H246.624C247.525 26.434 248.613 27.675 249.123 28.559L247.848 30.021C247.406 29.171 246.403 27.692 245.57 26.876H245.264V25.567ZM264.899 33.098H268.112V34.917H264.899V38.113H263.08V34.917H259.867V33.098H263.08V29.868H264.899V33.098Z" fill="#88898D"/>
<path d="M193.171 322.944H206.737V324.746H193.171V322.944ZM192.219 326.837H207.519V328.656H192.219V326.837ZM195.653 332.532H204.136V334.062H195.653V332.532ZM195.653 335.286H204.136V336.969H195.653V335.286ZM198.747 321.567H200.889V324.015H198.747V321.567ZM194.633 329.676H205.411V337.513H203.252V331.359H196.673V337.53H194.633V329.676ZM202.487 324.406L204.765 324.899C204.34 325.766 203.932 326.616 203.609 327.194L201.654 326.735C201.96 326.072 202.317 325.103 202.487 324.406ZM195.33 324.882L197.336 324.491C197.778 325.171 198.135 326.106 198.254 326.718L196.129 327.211C196.044 326.565 195.704 325.579 195.33 324.882ZM213.265 324.678V325.256H220.337V324.678H213.265ZM213.265 323.131V323.692H220.337V323.131H213.265ZM211.293 322.094H222.394V326.293H211.293V322.094ZM212.908 331.461V332.073H220.796V331.461H212.908ZM212.908 329.863V330.458H220.796V329.863H212.908ZM210.987 328.775H222.802V333.144H210.987V328.775ZM215.849 329.132H217.838V336.425H215.849V329.132ZM209.134 326.82H224.621V328.265H209.134V326.82ZM210.647 333.705H223.125V335.014H210.647V333.705ZM209.1 335.626H224.655V337.122H209.1V335.626ZM231.897 322.757H234.107V324.542H231.897V322.757ZM235.127 325.12H240.482V326.667H235.127V325.12ZM240.465 325.001H241.995V326.786H240.465V325.001ZM235.671 329.693H241.366V331.308H235.671V329.693ZM235.331 332.124H241.672V333.79H235.331V332.124ZM237.32 321.652H238.969V335.184H237.32V321.652ZM233.682 322.757H233.886L234.158 322.689L235.314 322.927C234.787 324.899 233.937 327.653 233.223 329.778L231.659 329.472C232.407 327.364 233.274 324.457 233.682 322.944V322.757ZM235.841 322.91H241.281V328.894H235.858V327.398H239.836V324.406H235.841V322.91ZM233.138 330.22C233.869 334.81 235.603 335.558 238.153 335.558C238.799 335.558 241.281 335.558 242.08 335.541C241.825 335.949 241.587 336.765 241.519 337.258H238.051C234.753 337.258 232.747 336.238 231.812 330.577L233.138 330.22ZM232.985 327.704H234.634V329.319H232.509L232.985 327.704ZM234.09 327.704H234.396L234.685 327.67L235.671 327.84C235.297 333.093 234.056 336.068 231.863 337.564C231.591 337.241 230.928 336.663 230.571 336.442C232.713 335.116 233.801 332.566 234.09 327.993V327.704ZM225.93 335.405C227.409 335.184 229.653 334.793 231.778 334.385L231.931 336.068C229.993 336.459 227.936 336.85 226.338 337.156L225.93 335.405ZM226.78 325.834H231.438V327.483H226.78V325.834ZM226.202 328.707H231.642V330.407H226.202V328.707ZM226.304 331.427L227.494 331.138C227.766 332.09 227.987 333.297 228.055 334.096L226.797 334.419C226.763 333.603 226.542 332.362 226.304 331.427ZM230.469 330.968L231.727 331.257C231.472 332.226 231.234 333.297 231.013 334.011L229.908 333.739C230.112 332.991 230.367 331.784 230.469 330.968ZM228.208 326.514H229.84V335.371L228.208 335.626V326.514ZM228.361 321.567H229.415V321.941H229.976V322.451C229.347 323.76 228.361 325.528 226.729 327.058C226.474 326.65 225.896 326.038 225.522 325.766C226.916 324.542 227.851 322.91 228.361 321.567ZM228.497 321.567H229.857C230.758 322.434 231.846 323.675 232.356 324.559L231.081 326.021C230.639 325.171 229.636 323.692 228.803 322.876H228.497V321.567ZM242.794 332.26V330.475H247.214V332.26H242.794Z" fill="#88898D"/>
<path d="M469.593 323.862C470.67 323.862 471.571 323.964 472.296 324.168C473.033 324.361 473.582 324.684 473.945 325.137C474.319 325.579 474.506 326.18 474.506 326.939C474.506 327.392 474.432 327.806 474.285 328.18C474.138 328.554 473.922 328.86 473.639 329.098C473.367 329.336 473.033 329.489 472.636 329.557V329.642C473.044 329.721 473.412 329.863 473.741 330.067C474.07 330.271 474.33 330.566 474.523 330.951C474.716 331.336 474.812 331.846 474.812 332.481C474.812 333.218 474.631 333.852 474.268 334.385C473.917 334.906 473.407 335.309 472.738 335.592C472.069 335.864 471.276 336 470.358 336H465.819V323.862H469.593ZM469.882 328.673C470.63 328.673 471.146 328.554 471.429 328.316C471.724 328.078 471.871 327.732 471.871 327.279C471.871 326.814 471.701 326.48 471.361 326.276C471.021 326.072 470.483 325.97 469.746 325.97H468.386V328.673H469.882ZM468.386 330.713V333.875H470.069C470.84 333.875 471.378 333.728 471.684 333.433C471.99 333.127 472.143 332.725 472.143 332.226C472.143 331.92 472.075 331.654 471.939 331.427C471.814 331.2 471.593 331.025 471.276 330.9C470.959 330.775 470.528 330.713 469.984 330.713H468.386Z" fill="#88898D"/>
<path d="M432.5 328.86L435.033 323.862H437.804L433.775 331.274V336H431.225V331.359L427.196 323.862H429.984L432.5 328.86Z" fill="#88898D"/>
<path d="M36.816 327.687H52.303V329.812H36.816V327.687ZM43.412 321.567H45.639V337.53H43.412V321.567ZM56.978 326.48H64.577V328.333H56.978V326.48ZM54.071 330.696H68.963V332.634H54.071V330.696ZM60.378 329.608H62.571V335.201C62.571 336.289 62.316 336.85 61.483 337.156C60.667 337.462 59.579 337.496 58.168 337.496C58.032 336.884 57.624 335.966 57.284 335.405C58.321 335.456 59.613 335.473 59.953 335.456C60.293 335.439 60.378 335.371 60.378 335.133V329.608ZM63.948 326.48H64.492L64.951 326.378L66.26 327.398C65.155 328.656 63.574 330.067 61.925 330.917C61.687 330.577 61.143 330.05 60.854 329.778C62.061 329.064 63.353 327.755 63.948 326.871V326.48ZM60.378 321.567H62.554V324.661H60.378V321.567ZM54.139 323.199H68.827V327.619H66.719V325.12H56.145V327.619H54.139V323.199ZM70.782 324.287H86.201V326.242H70.782V324.287ZM76.46 328.452H82.971V330.39H76.46V328.452ZM82.223 328.452H84.331C84.331 328.452 84.314 329.064 84.263 329.336C83.957 333.994 83.6 335.915 82.92 336.663C82.41 337.207 81.866 337.377 81.084 337.462C80.438 337.513 79.299 337.496 78.16 337.462C78.126 336.867 77.82 336.017 77.429 335.456C78.602 335.558 79.809 335.558 80.302 335.558C80.676 335.558 80.914 335.541 81.135 335.354C81.645 334.912 81.968 332.974 82.206 328.775L82.223 328.452ZM75.695 325.443H77.99C77.735 329.999 77.276 334.963 71.938 337.649C71.632 337.105 71.02 336.357 70.476 335.932C75.423 333.637 75.525 329.319 75.695 325.443ZM77.344 321.482H79.452V325.052H77.344V321.482ZM88.462 324.423H101.263V326.412H90.485V337.513H88.462V324.423ZM100.532 324.423H102.589V335.167C102.589 336.272 102.351 336.85 101.637 337.173C100.906 337.496 99.818 337.547 98.288 337.547C98.203 336.969 97.897 336.017 97.608 335.473C98.611 335.541 99.767 335.541 100.107 335.524C100.43 335.524 100.532 335.439 100.532 335.133V324.423ZM94.055 321.567L96.673 321.941C96.078 323.301 95.347 324.695 94.803 325.63L92.831 325.188C93.307 324.151 93.817 322.672 94.055 321.567ZM92.151 328.061H94.004V335.082H92.151V328.061ZM92.95 328.061H98.832V333.892H92.95V332.107H96.945V329.846H92.95V328.061ZM110.528 322.757H112.738V324.542H110.528V322.757ZM113.758 325.12H119.113V326.667H113.758V325.12ZM119.096 325.001H120.626V326.786H119.096V325.001ZM114.302 329.693H119.997V331.308H114.302V329.693ZM113.962 332.124H120.303V333.79H113.962V332.124ZM115.951 321.652H117.6V335.184H115.951V321.652ZM112.313 322.757H112.517L112.789 322.689L113.945 322.927C113.418 324.899 112.568 327.653 111.854 329.778L110.29 329.472C111.038 327.364 111.905 324.457 112.313 322.944V322.757ZM114.472 322.91H119.912V328.894H114.489V327.398H118.467V324.406H114.472V322.91ZM111.769 330.22C112.5 334.81 114.234 335.558 116.784 335.558C117.43 335.558 119.912 335.558 120.711 335.541C120.456 335.949 120.218 336.765 120.15 337.258H116.682C113.384 337.258 111.378 336.238 110.443 330.577L111.769 330.22ZM111.616 327.704H113.265V329.319H111.14L111.616 327.704ZM112.721 327.704H113.027L113.316 327.67L114.302 327.84C113.928 333.093 112.687 336.068 110.494 337.564C110.222 337.241 109.559 336.663 109.202 336.442C111.344 335.116 112.432 332.566 112.721 327.993V327.704ZM104.561 335.405C106.04 335.184 108.284 334.793 110.409 334.385L110.562 336.068C108.624 336.459 106.567 336.85 104.969 337.156L104.561 335.405ZM105.411 325.834H110.069V327.483H105.411V325.834ZM104.833 328.707H110.273V330.407H104.833V328.707ZM104.935 331.427L106.125 331.138C106.397 332.09 106.618 333.297 106.686 334.096L105.428 334.419C105.394 333.603 105.173 332.362 104.935 331.427ZM109.1 330.968L110.358 331.257C110.103 332.226 109.865 333.297 109.644 334.011L108.539 333.739C108.743 332.991 108.998 331.784 109.1 330.968ZM106.839 326.514H108.471V335.371L106.839 335.626V326.514ZM106.992 321.567H108.046V321.941H108.607V322.451C107.978 323.76 106.992 325.528 105.36 327.058C105.105 326.65 104.527 326.038 104.153 325.766C105.547 324.542 106.482 322.91 106.992 321.567ZM107.128 321.567H108.488C109.389 322.434 110.477 323.675 110.987 324.559L109.712 326.021C109.27 325.171 108.267 323.692 107.434 322.876H107.128V321.567Z" fill="#88898D"/>
<path d="M155.79 33.132H164.035V34.747H155.79V33.132ZM155.535 36.039H164.307V37.705H155.535V36.039ZM160.635 33.642H162.42V41.224H160.635V33.642ZM157.32 33.71H159.054V36.974C159.054 38.062 158.595 40.306 156.81 41.53C156.538 41.173 155.926 40.629 155.501 40.357C156.946 39.473 157.32 37.824 157.32 36.957V33.71ZM153.767 28.542H158.051V29.868H153.767V28.542ZM161.655 28.542H165.956V29.868H161.655V28.542ZM165.157 26.213H167.163V39.167C167.163 40.187 166.976 40.765 166.364 41.105C165.735 41.445 164.851 41.496 163.542 41.479C163.491 40.935 163.219 39.983 162.947 39.456C163.695 39.49 164.545 39.49 164.8 39.49C165.072 39.49 165.157 39.388 165.157 39.133V26.213ZM153.954 26.213H159.343V32.265H153.954V30.803H157.422V27.675H153.954V26.213ZM166.194 26.213V27.675H162.386V30.837H166.194V32.299H160.448V26.213H166.194ZM152.747 26.213H154.753V41.53H152.747V26.213ZM190.43 34.577L191.416 34.271C191.807 34.849 192.181 35.614 192.283 36.124L191.263 36.481C191.144 35.971 190.804 35.172 190.43 34.577ZM187.591 33.285L188.254 32.503C188.866 32.928 189.597 33.557 189.937 34.016L189.257 34.917C188.934 34.424 188.203 33.744 187.591 33.285ZM189.478 31.415L190.668 31.874C190.192 32.469 189.699 33.081 189.308 33.489L188.424 33.098C188.781 32.622 189.24 31.891 189.478 31.415ZM190.634 32.656L191.688 33.132C190.855 34.05 189.801 35.138 188.985 35.801L188.203 35.41C189.019 34.679 190.056 33.472 190.634 32.656ZM192.419 36.447H193.796V41.207H192.419V36.447ZM187.455 35.274C188.509 35.206 189.937 35.121 191.467 35.002L191.484 36.039C190.073 36.175 188.73 36.294 187.574 36.379L187.455 35.274ZM194.731 34.475L195.751 34.186C196.176 34.798 196.584 35.648 196.72 36.226L195.649 36.583C195.53 36.005 195.139 35.138 194.731 34.475ZM191.637 33.2L192.368 32.452C193.031 32.928 193.83 33.642 194.187 34.135L193.422 34.985C193.082 34.475 192.3 33.71 191.637 33.2ZM193.609 31.398L194.833 31.874C194.306 32.52 193.762 33.183 193.32 33.625L192.419 33.217C192.81 32.724 193.337 31.925 193.609 31.398ZM194.816 32.673L195.904 33.166C195.02 34.118 193.915 35.223 193.031 35.92L192.232 35.495C193.099 34.764 194.204 33.523 194.816 32.673ZM191.977 35.274C193.031 35.223 194.408 35.138 195.904 35.036L195.921 36.056C194.612 36.192 193.32 36.277 192.215 36.379L191.977 35.274ZM187.965 36.719H189.223V38.198H191.059V39.32H187.965V36.719ZM194.867 36.719H196.125V39.32H193.507V38.198H194.867V36.719ZM190.243 36.447H191.603V38.096C191.603 39.422 191.28 40.697 189.121 41.445C188.951 41.122 188.526 40.595 188.237 40.34C190.005 39.813 190.243 38.946 190.243 38.045V36.447ZM185.925 28.389H190.192V29.613H185.925V28.389ZM193.745 28.389H198.063V29.613H193.745V28.389ZM197.366 26.213H199.338V39.201C199.338 40.17 199.185 40.731 198.607 41.071C198.029 41.411 197.247 41.445 196.125 41.445C196.057 40.901 195.802 39.983 195.547 39.456C196.176 39.49 196.856 39.49 197.077 39.49C197.298 39.49 197.366 39.405 197.366 39.184V26.213ZM186.112 26.213H191.501V31.772H186.112V30.395H189.58V27.59H186.112V26.213ZM198.386 26.213V27.59H194.544V30.395H198.386V31.772H192.606V26.213H198.386ZM184.905 26.213H186.843V41.53H184.905V26.213Z" fill="#88898D"/>
<path d="M178.991 27.862L174.469 40H173.007L177.529 27.862H178.991Z" fill="#C3C4C6"/>
<path d="M176 130.167C177.473 130.167 178.667 128.973 178.667 127.5C178.667 126.027 177.473 124.833 176 124.833C174.527 124.833 173.333 126.027 173.333 127.5C173.333 128.973 174.527 130.167 176 130.167ZM176.5 127.5L176.5 49L175.5 49L175.5 127.5H176.5Z" fill="#555656"/>
<path d="M470 141.667C471.473 141.667 472.667 140.473 472.667 139C472.667 137.527 471.473 136.333 470 136.333C468.527 136.333 467.333 137.527 467.333 139C467.333 140.473 468.527 141.667 470 141.667ZM470.5 139L470.5 49L469.5 49L469.5 139H470.5Z" fill="#555656"/>
<path d="M509 186.667C510.473 186.667 511.667 185.473 511.667 184C511.667 182.527 510.473 181.333 509 181.333C507.527 181.333 506.333 182.527 506.333 184C506.333 185.473 507.527 186.667 509 186.667ZM509.5 184L509.5 49L508.5 49L508.5 184H509.5Z" fill="#555656"/>
<path d="M121 101.667C122.473 101.667 123.667 100.473 123.667 99C123.667 97.5272 122.473 96.3333 121 96.3333C119.527 96.3333 118.333 97.5272 118.333 99C118.333 100.473 119.527 101.667 121 101.667ZM121.5 99L121.5 49L120.5 49L120.5 99H121.5Z" fill="#555656"/>
<path d="M422 101.667C423.473 101.667 424.667 100.473 424.667 99C424.667 97.5272 423.473 96.3333 422 96.3333C420.527 96.3333 419.333 97.5272 419.333 99C419.333 100.473 420.527 101.667 422 101.667ZM422.5 99L422.5 49L421.5 49L421.5 99H422.5Z" fill="#555656"/>
<path d="M162.57 13.818H172.226V15.025H162.57V13.818ZM162.587 11.693H173.399V17.15H162.587V15.773H171.376V13.053H162.587V11.693ZM166.344 12.441H168.299V17.201C168.299 17.83 168.486 17.932 169.523 17.932C169.999 17.932 172.141 17.932 172.753 17.932C173.603 17.932 173.773 17.66 173.875 16.215C174.3 16.504 175.065 16.759 175.592 16.861C175.354 18.935 174.776 19.479 172.923 19.479C172.379 19.479 169.846 19.479 169.336 19.479C166.99 19.479 166.344 18.986 166.344 17.201V12.441ZM161.567 11.693H163.522V17.898H161.567V11.693ZM161.159 4.179H173.773V5.675H161.159V4.179ZM162.468 8.242H165.834V9.347H162.468V8.242ZM162.145 9.942H165.834V11.047H162.145V9.942ZM169.081 9.942H172.804V11.047H169.081V9.942ZM169.081 8.242H172.413V9.347H169.081V8.242ZM166.446 4.774H168.435V11.234H166.446V4.774ZM160.003 6.304H175.014V9.789H173.127V7.664H161.805V9.789H160.003V6.304ZM182.222 4.451H192.286V6.287H182.222V4.451ZM181.61 4.451H183.582V9.16C183.582 12.186 183.276 16.708 181.253 19.547C180.879 19.207 180.012 18.663 179.536 18.459C181.44 15.807 181.61 11.931 181.61 9.16V4.451ZM185.996 11.455V12.407H189.923V11.455H185.996ZM185.996 9.16V10.095H189.923V9.16H185.996ZM184.177 7.698H191.81V13.869H184.177V7.698ZM184.466 14.532L186.268 14.957C185.826 16.351 185.027 17.779 184.245 18.68C183.871 18.374 183.106 17.881 182.664 17.643C183.446 16.861 184.109 15.688 184.466 14.532ZM189.294 15.025L191.045 14.328C191.691 15.365 192.439 16.742 192.728 17.66L190.858 18.459C190.62 17.558 189.94 16.113 189.294 15.025ZM186.914 5.862L189.175 6.219C188.886 7.154 188.614 8.072 188.376 8.684L186.557 8.31C186.71 7.596 186.88 6.593 186.914 5.862ZM186.88 13.291H188.818V17.609C188.818 18.476 188.699 18.969 188.087 19.241C187.509 19.513 186.71 19.53 185.656 19.513C185.588 19.003 185.35 18.272 185.129 17.779C185.724 17.796 186.421 17.796 186.625 17.796C186.812 17.779 186.88 17.728 186.88 17.558V13.291ZM177.275 5.148L178.414 3.669C179.4 4.094 180.658 4.774 181.27 5.352L180.046 6.984C179.485 6.406 178.261 5.624 177.275 5.148ZM176.459 9.755L177.598 8.242C178.567 8.633 179.808 9.296 180.437 9.84L179.23 11.489C178.669 10.928 177.445 10.197 176.459 9.755ZM176.68 18.221C177.377 16.878 178.346 14.719 179.06 12.713L180.726 13.835C180.08 15.671 179.298 17.626 178.533 19.309L176.68 18.221Z" fill="#88898D"/>
</svg>
