<svg width="32" height="33" viewBox="0 0 32 33" fill="none" xmlns="http://www.w3.org/2000/svg">
<g clip-path="url(#clip0_1_12234)">
<path d="M27.57 32.4967C27.2831 32.2948 27.0084 32.076 26.7476 31.8414C24.8121 29.9212 22.8822 27.9933 20.9577 26.0579C20.8806 25.9668 20.8084 25.8718 20.7414 25.773C20.6431 25.927 20.5809 26.0187 20.5252 26.1006C19.7257 27.4768 18.936 28.8595 18.1332 30.2325C17.7138 30.9533 16.8717 31.0812 16.3605 30.5045C16.2549 30.3763 16.1717 30.2312 16.1148 30.0752C13.4497 23.4061 10.7869 16.7347 8.12623 10.0612C7.84115 9.34366 8.12622 8.67851 8.80122 8.52779C9.09508 8.48222 9.39584 8.51962 9.66955 8.63586C13.7982 10.2676 17.9224 11.906 22.0423 13.5509C24.5347 14.5448 27.0272 15.5377 29.5196 16.5295C29.9718 16.7097 30.329 16.9685 30.3847 17.4928C30.4079 17.724 30.3569 17.9566 30.239 18.1569C30.1212 18.3572 29.9427 18.5148 29.7293 18.6068L25.6204 20.9824C25.5254 21.0381 25.4336 21.1004 25.2731 21.2019C25.3806 21.2714 25.4825 21.3491 25.5778 21.4346L31.502 27.3523C32.1574 28.0076 32.1574 28.5614 31.502 29.2266C30.6173 30.1113 29.7392 31.0024 28.8447 31.874C28.5966 32.0887 28.3338 32.2859 28.0582 32.4639L27.57 32.4967Z" fill="#88898D"/>
<path d="M7.39973e-05 10.8083C0.278591 10.153 0.7832 9.97279 1.45492 9.99573C2.42154 10.0285 3.39143 9.99573 4.36133 9.99573C4.53929 9.98426 4.71729 10.0174 4.87921 10.0921C5.04112 10.1669 5.18183 10.2808 5.28857 10.4236C5.39531 10.5665 5.46471 10.7338 5.49046 10.9103C5.51622 11.0867 5.49753 11.2667 5.43609 11.4342C5.38035 11.6271 5.26447 11.7973 5.10536 11.9199C4.94624 12.0425 4.75218 12.1111 4.55138 12.1157C3.35212 12.1354 2.15613 12.1354 0.947038 12.1157C0.4326 12.1157 0.173728 11.7324 -0.00976562 11.2998L7.39973e-05 10.8083Z" fill="#88898D"/>
<path d="M4.09591 3.36049C4.32176 3.4457 4.53376 3.56386 4.72503 3.71111C5.52454 4.4713 6.30112 5.25767 7.07114 6.04735C7.17761 6.14515 7.2631 6.26359 7.32247 6.39541C7.38183 6.52724 7.41383 6.66972 7.41651 6.81428C7.41918 6.95883 7.39246 7.10241 7.33801 7.23634C7.28355 7.37027 7.20248 7.49177 7.0997 7.59345C6.99691 7.69512 6.87456 7.77484 6.74005 7.82784C6.60554 7.88083 6.46166 7.90599 6.31715 7.90175C6.17263 7.89751 6.0305 7.86399 5.89932 7.8032C5.76815 7.7424 5.65068 7.65561 5.55404 7.54809C4.76545 6.77479 3.9856 5.9938 3.21449 5.20522C3.04995 5.05676 2.93849 4.85862 2.89708 4.64092C2.85567 4.42322 2.88658 4.19792 2.98512 3.99942C3.16206 3.59312 3.49628 3.39325 4.09591 3.36049Z" fill="#88898D"/>
<path d="M11.6323 3.26217C11.6323 3.85525 11.6519 4.44831 11.6323 5.04139C11.6192 5.26176 11.5343 5.47179 11.3905 5.63928C11.2467 5.80677 11.0519 5.92251 10.836 5.96871C10.6276 6.02354 10.4072 6.01093 10.2065 5.93263C10.0057 5.85433 9.83492 5.71434 9.71868 5.53289C9.60139 5.33343 9.53396 5.10863 9.52209 4.87755C9.50243 3.80608 9.52209 2.73139 9.52209 1.65992C9.5127 1.51365 9.53332 1.36697 9.5827 1.22897C9.63208 1.09097 9.70918 0.964496 9.80924 0.857387C9.90929 0.750278 10.0302 0.664776 10.1645 0.606117C10.2988 0.547458 10.4437 0.516953 10.5903 0.51636C10.7364 0.516025 10.881 0.545749 11.0152 0.603717C11.1493 0.661684 11.2701 0.746655 11.37 0.853307C11.4699 0.959959 11.5467 1.08597 11.5958 1.22361C11.6449 1.36125 11.6651 1.50757 11.6552 1.65336C11.6552 2.19401 11.6552 2.73466 11.6552 3.29169L11.6323 3.26217Z" fill="#88898D"/>
<path d="M3.47991 18.6331C3.27282 18.6202 3.07281 18.5528 2.90017 18.4377C2.72753 18.3226 2.5884 18.164 2.4969 17.9777C2.3902 17.8005 2.34489 17.5931 2.36799 17.3875C2.39109 17.182 2.48132 16.9897 2.6247 16.8407C3.4537 15.9789 4.29908 15.1302 5.16412 14.3045C5.36174 14.1281 5.62062 14.0362 5.88525 14.0484C6.14988 14.0607 6.39918 14.1761 6.57965 14.37C6.76985 14.5532 6.8829 14.8021 6.89569 15.0658C6.90848 15.3296 6.82004 15.5882 6.64844 15.7889C5.82272 16.6539 4.97079 17.4961 4.10902 18.3251C3.91748 18.4613 3.70498 18.5653 3.47991 18.6331Z" fill="#88898D"/>
<path d="M14.6828 7.44652C14.476 7.4327 14.2764 7.36494 14.1039 7.24996C13.9315 7.13498 13.7921 6.97678 13.6998 6.79118C13.5927 6.61433 13.5469 6.40714 13.5694 6.2016C13.5919 5.99607 13.6815 5.80366 13.8244 5.65418C14.6534 4.79242 15.4955 3.94376 16.3605 3.11476C16.5626 2.93534 16.8276 2.84352 17.0974 2.85949C17.3671 2.87547 17.6195 2.99794 17.799 3.19996C17.9838 3.38776 18.0904 3.63881 18.0971 3.90225C18.1038 4.16569 18.0101 4.42184 17.835 4.61878C17.0191 5.46744 16.1967 6.2964 15.3382 7.11229C15.1373 7.25515 14.9165 7.36777 14.6828 7.44652Z" fill="#88898D"/>
</g>
<defs>
<clipPath id="clip0_1_12234">
<rect width="32.0098" height="32" fill="white" transform="translate(0 0.5)"/>
</clipPath>
</defs>
</svg>
