<svg width="34" height="33" viewBox="0 0 34 33" fill="none" xmlns="http://www.w3.org/2000/svg">
<g clip-path="url(#clip0_1_12220)">
<path d="M33.1112 17.9941C33.2422 18.3709 33.3766 18.7477 33.5076 19.1213C33.5076 19.213 33.524 19.3081 33.5404 19.3966C33.7014 20.3164 33.5838 21.2632 33.2026 22.1156C32.8214 22.968 32.194 23.687 31.4011 24.1801C30.6082 24.6733 29.6859 24.9181 28.7528 24.8831C27.8197 24.8482 26.9184 24.5351 26.1646 23.984C24.5263 22.8044 22.9338 21.5887 21.325 20.3796C21.2525 20.3151 21.1628 20.2729 21.0668 20.2583C20.9708 20.2438 20.8727 20.2575 20.7843 20.2977C18.4535 21.13 16.1205 21.9534 13.7853 22.7682C13.6869 22.7953 13.5984 22.8503 13.5304 22.9264C13.4624 23.0025 13.4178 23.0966 13.402 23.1974C12.9105 25.1372 12.4386 27.0804 11.9045 29.0103C11.7072 29.8788 11.2533 30.6678 10.6018 31.2749C9.95027 31.882 9.13122 32.2792 8.25104 32.4148C5.71162 32.8965 3.50314 31.3958 2.80193 28.8531C2.2449 26.8445 1.64199 24.8456 1.06202 22.8403C0.760565 21.7951 0.406687 20.7596 0.174043 19.6947C-0.211009 17.957 0.0589136 16.1383 0.932064 14.5873C1.80522 13.0363 3.22013 11.8622 4.90555 11.29L12.1142 8.74735L12.4419 8.62615C12.3338 8.3247 12.2584 8.05272 12.1437 7.79714C12.0394 7.57808 11.9851 7.33852 11.9846 7.09589C11.9841 6.85326 12.0375 6.61362 12.141 6.39416C12.2445 6.17469 12.3954 5.98093 12.5828 5.8269C12.7703 5.67287 12.9897 5.5624 13.225 5.50347C14.634 5.05784 16.0168 4.52047 17.4093 4.03553C17.6375 3.96869 17.8471 3.85001 18.0218 3.68882C18.1966 3.52763 18.3317 3.3283 18.4167 3.10628C18.5017 2.88427 18.5343 2.64554 18.5119 2.40887C18.4895 2.1722 18.4127 1.94396 18.2875 1.74185C18.1004 1.42844 17.8064 1.19312 17.4596 1.07932C17.1128 0.965523 16.7365 0.980866 16.4001 1.12252L5.33807 5.03157C5.21045 5.08103 5.08029 5.12373 4.94815 5.1594C4.59253 5.26676 4.20973 5.23839 3.87381 5.07981C3.53789 4.92123 3.27272 4.64367 3.1296 4.30088C2.94607 3.86607 2.78851 3.42081 2.65776 2.96733C2.64799 2.90216 2.65423 2.83556 2.67592 2.77333C2.69761 2.71111 2.73411 2.65511 2.78227 2.61014C2.95921 2.50856 3.06407 2.6527 3.10994 2.81981L3.45399 3.80282C3.76527 4.67769 4.22401 4.89727 5.09232 4.58271C8.83647 3.25893 12.5828 1.93511 16.3313 0.611338C16.5854 0.52829 16.8534 0.496111 17.1199 0.516622C17.3864 0.537132 17.6463 0.609987 17.8847 0.730933C18.1231 0.85188 18.3353 1.01859 18.5093 1.22155C18.6833 1.42452 18.8155 1.65976 18.8986 1.91385C18.9816 2.16794 19.0138 2.43593 18.9933 2.70246C18.9728 2.96899 18.9 3.22883 18.7791 3.46723C18.6581 3.70562 18.4914 3.91788 18.2884 4.09184C18.0854 4.26581 17.8502 4.39806 17.5961 4.48111C16.1478 5.0021 14.6897 5.50997 13.2381 6.02441C12.6778 6.22429 12.3567 6.65025 12.4648 7.16141C12.5822 7.59679 12.7289 8.02378 12.9039 8.43936L13.2775 8.30824C15.6105 7.48252 17.9402 6.64704 20.2797 5.84098C20.8628 5.63746 21.4641 5.4904 22.0753 5.40187C23.6113 5.21424 25.1669 5.52747 26.5106 6.29496C27.8543 7.06245 28.9143 8.24319 29.533 9.66155C30.5291 12.0295 31.5242 14.3974 32.5181 16.7654C32.7311 17.1815 32.9244 17.5845 33.1112 17.9941ZM7.69728 17.4338C7.49741 16.8669 7.31719 16.3328 7.12059 15.7955C7.0881 15.706 7.0383 15.6237 6.97403 15.5535C6.90977 15.4832 6.8323 15.4264 6.74604 15.3861C6.65978 15.3457 6.56642 15.3228 6.4713 15.3185C6.37618 15.3143 6.28115 15.3288 6.19165 15.3613C6.10215 15.3938 6.01992 15.4436 5.94966 15.5079C5.8794 15.5722 5.82249 15.6496 5.78218 15.7359C5.74186 15.8221 5.71894 15.9155 5.7147 16.0106C5.71046 16.1057 5.725 16.2008 5.75749 16.2903C5.93771 16.8244 6.13104 17.352 6.32764 17.909L4.81708 18.4431C4.32558 18.62 4.1126 18.9837 4.25022 19.3998C4.38784 19.816 4.79742 19.993 5.30531 19.8128L6.7962 19.2885C6.84863 19.4097 6.88794 19.5046 6.92398 19.5996C7.06816 20.006 7.20905 20.4123 7.35323 20.8153C7.37629 20.9153 7.41997 21.0093 7.48147 21.0914C7.54297 21.1736 7.62093 21.242 7.71037 21.2922C7.79981 21.3425 7.89877 21.3736 8.00089 21.3834C8.10302 21.3933 8.20608 21.3818 8.30347 21.3495C8.72616 21.2053 8.88999 20.8055 8.72288 20.3206C8.67046 20.16 8.61147 19.9928 8.55577 19.8454L8.1855 18.797C8.7196 18.6069 9.21438 18.4365 9.70261 18.2595C10.1908 18.0826 10.4038 17.7221 10.2564 17.2994C10.1089 16.8767 9.71899 16.7129 9.23077 16.8833C8.74254 17.0537 8.24121 17.2405 7.69728 17.4338ZM22.77 10.9853C22.9426 10.9264 23.0938 10.8175 23.2045 10.6725C23.3151 10.5274 23.3802 10.3528 23.3914 10.1707C23.4027 9.98866 23.3596 9.80733 23.2676 9.64979C23.1756 9.49225 23.0389 9.36554 22.8749 9.2858C22.7108 9.20607 22.5267 9.17693 22.3461 9.20197C22.1654 9.22701 21.9962 9.3051 21.86 9.42644C21.7238 9.54778 21.6267 9.70685 21.581 9.88346C21.5353 10.0601 21.5432 10.2463 21.6035 10.4185C21.6839 10.6454 21.85 10.8319 22.0662 10.9378C22.2824 11.0438 22.5315 11.0609 22.7602 10.9853H22.77ZM25.3323 11.064C25.2174 11.101 25.1109 11.1605 25.0193 11.2392C24.9276 11.3178 24.8526 11.414 24.7986 11.522C24.7446 11.6301 24.7127 11.7478 24.7047 11.8683C24.6968 11.9889 24.713 12.1098 24.7524 12.2239C24.8342 12.447 24.9982 12.6303 25.2108 12.7363C25.4234 12.8423 25.6686 12.863 25.8959 12.7941C26.0103 12.7553 26.1159 12.6944 26.2067 12.6147C26.2974 12.5351 26.3716 12.4382 26.4248 12.3298C26.4781 12.2215 26.5095 12.1037 26.5171 11.9831C26.5247 11.8626 26.5085 11.7418 26.4694 11.6276C26.4323 11.5141 26.3732 11.4092 26.2953 11.3187C26.2175 11.2282 26.1226 11.1541 26.016 11.1005C25.9094 11.0468 25.7932 11.0149 25.6742 11.0064C25.5552 10.9979 25.4357 11.013 25.3225 11.0509L25.3323 11.064ZM22.0327 13.2265C21.9638 12.999 21.8075 12.8082 21.598 12.6958C21.3886 12.5833 21.1431 12.5586 20.9154 12.627C20.7995 12.6611 20.6916 12.7178 20.5978 12.7939C20.504 12.87 20.4262 12.964 20.369 13.0703C20.3117 13.1766 20.276 13.2932 20.2641 13.4134C20.2522 13.5336 20.2641 13.655 20.2994 13.7705C20.3766 14.0008 20.5409 14.1917 20.757 14.3025C20.9731 14.4133 21.224 14.4352 21.456 14.3636C21.6795 14.2845 21.8635 14.1218 21.9693 13.9096C22.075 13.6975 22.0942 13.4526 22.0229 13.2265H22.0327ZM23.966 14.3669C23.8539 14.408 23.751 14.4707 23.6631 14.5516C23.5753 14.6325 23.5043 14.7298 23.4541 14.8382C23.3527 15.0569 23.3423 15.3069 23.4253 15.5333C23.5083 15.7597 23.6778 15.9438 23.8966 16.0452C24.1154 16.1466 24.3654 16.157 24.5918 16.074C24.8182 15.991 25.0023 15.8215 25.1037 15.6028C25.2051 15.384 25.2155 15.1339 25.1325 14.9075C25.0495 14.6811 24.88 14.497 24.6612 14.3956C24.4424 14.2942 24.1923 14.2839 23.966 14.3669Z" fill="#88898D"/>
</g>
<defs>
<clipPath id="clip0_1_12220">
<rect width="33.6088" height="32" fill="white" transform="translate(0 0.5)"/>
</clipPath>
</defs>
</svg>
