<svg width="52" height="21" viewBox="0 0 52 21" fill="none" xmlns="http://www.w3.org/2000/svg">
<g clip-path="url(#clip0_1_12241)">
<path d="M0.000116009 1.81827C0.000116009 1.23789 0.271653 0.944963 0.814762 0.944963H7.41727C7.53148 0.929031 7.64781 0.939907 7.75714 0.976552C7.86648 1.0132 7.96582 1.07467 8.04736 1.1562C8.1289 1.23774 8.19043 1.33702 8.22708 1.44635C8.26372 1.55569 8.2745 1.67208 8.25857 1.78629V19.219C8.2745 19.3332 8.26372 19.4495 8.22708 19.5588C8.19043 19.6682 8.1289 19.7677 8.04736 19.8492C7.96582 19.9308 7.86648 19.9922 7.75714 20.0289C7.64781 20.0655 7.53148 20.0763 7.41727 20.0603H4.63785C4.52364 20.0763 4.40728 20.0655 4.29795 20.0289C4.18861 19.9922 4.08927 19.9308 4.00773 19.8492C3.92619 19.7677 3.86469 19.6682 3.82805 19.5588C3.7914 19.4495 3.78062 19.3332 3.79655 19.219V6.06196C3.80982 5.96655 3.80076 5.86937 3.77013 5.77805C3.7395 5.68672 3.68813 5.60372 3.62002 5.53561C3.55191 5.4675 3.46894 5.41609 3.37761 5.38546C3.28629 5.35483 3.18911 5.34581 3.0937 5.35907H0.820092C0.705886 5.37501 0.589554 5.36426 0.48022 5.32761C0.370886 5.29097 0.271544 5.2295 0.190006 5.14796C0.108468 5.06642 0.0469655 4.96702 0.0103206 4.85768C-0.0263242 4.74835 -0.0371024 4.63195 -0.0211707 4.51775L0.000116009 1.81827Z" fill="#88898D"/>
<path d="M15.2072 1.31248C15.8645 1.11696 16.5411 0.993665 17.2252 0.944984H25.1109C26.7182 0.953158 28.2845 1.45307 29.5995 2.3774C30.3257 3.17172 30.753 4.19382 30.8082 5.26862V8.46338C30.7825 9.11387 30.5977 9.74821 30.27 10.3107C29.9424 10.8733 29.4818 11.3467 28.9286 11.69C27.1289 12.478 24.7488 12.8615 21.7724 12.8402L19.5307 12.984C18.7512 12.9898 17.983 13.1718 17.2838 13.5164C17.0327 13.778 16.8443 14.0931 16.7327 14.4381C16.6211 14.783 16.5892 15.1486 16.6395 15.5077C16.6262 15.6031 16.6352 15.7003 16.6659 15.7916C16.6965 15.8829 16.7479 15.966 16.816 16.0342C16.8841 16.1023 16.9671 16.1535 17.0584 16.1842C17.1497 16.2148 17.2469 16.224 17.3423 16.2107H30.0787C30.193 16.1948 30.3093 16.2055 30.4186 16.2421C30.528 16.2788 30.6273 16.3403 30.7088 16.4218C30.7904 16.5033 30.8519 16.6026 30.8886 16.7119C30.9252 16.8213 30.936 16.9378 30.92 17.052V19.219C30.936 19.3332 30.9252 19.4495 30.8886 19.5588C30.8519 19.6682 30.7904 19.7677 30.7088 19.8492C30.6273 19.9308 30.528 19.9923 30.4186 20.0289C30.3093 20.0655 30.193 20.0763 30.0787 20.0604H12.9069C12.7927 20.0763 12.6764 20.0655 12.5671 20.0289C12.4577 19.9923 12.3584 19.9308 12.2768 19.8492C12.1953 19.7677 12.1338 19.6682 12.0971 19.5588C12.0605 19.4495 12.0497 19.3332 12.0656 19.219V15.6569C12.0234 14.029 12.5592 12.4387 13.5778 11.1682C14.1895 10.5387 14.9696 10.0988 15.8248 9.90099C18.0536 9.51431 20.3023 9.25301 22.5604 9.11829C23.3123 9.08049 24.061 8.99513 24.8021 8.86272C26.0019 8.66039 26.5344 7.90429 26.3995 6.59444C26.5841 5.47272 26.1723 4.76278 25.1642 4.4646H18.0665C16.7939 4.7468 16.2827 5.52946 16.5223 6.79671C16.5382 6.91092 16.5275 7.02731 16.4908 7.13665C16.4542 7.24598 16.3927 7.34526 16.3111 7.4268C16.2296 7.50833 16.1303 7.56993 16.0209 7.60658C15.9116 7.64322 15.7953 7.65397 15.6811 7.63804H12.9335C12.8193 7.65397 12.703 7.64322 12.5937 7.60658C12.4843 7.56993 12.385 7.50833 12.3035 7.4268C12.2219 7.34526 12.1604 7.24598 12.1238 7.13665C12.0871 7.02731 12.0764 6.91092 12.0923 6.79671V4.88526C12.11 3.25239 13.1483 2.06147 15.2072 1.31248Z" fill="#88898D"/>
<path d="M35.4353 1.53607C36.3494 1.17318 37.3175 0.964375 38.2999 0.918335H47.2186C47.9823 0.980845 48.7362 1.13097 49.4656 1.36565C50.9032 1.89811 51.6434 2.8246 51.6806 4.17172V7.06294C51.647 7.5737 51.4887 8.06844 51.2195 8.5038C50.9503 8.93917 50.5784 9.30196 50.1365 9.56027C49.6289 9.8407 49.6662 10.1495 50.2483 10.4867C50.6149 10.675 50.9387 10.9365 51.1998 11.2553C51.4609 11.5741 51.6535 11.9433 51.7658 12.3397C52.3444 14.9523 51.8493 17.1583 50.2803 18.958C49.2421 19.6603 48.0243 20.0504 46.7714 20.0817H38.1029C34.6206 19.8225 32.9842 18.1488 33.1936 15.0605C33.1766 14.9461 33.1866 14.8293 33.2228 14.7194C33.259 14.6095 33.3205 14.5097 33.4023 14.4279C33.4841 14.3461 33.584 14.2845 33.6938 14.2483C33.8037 14.212 33.9205 14.2021 34.0349 14.2192H36.7558C37.2882 14.2192 37.5971 14.3312 37.5971 14.5548C37.7107 15.7688 38.3922 16.3207 39.6417 16.2107H45.2858C45.5514 16.2482 45.8218 16.2328 46.0814 16.1652C46.3409 16.0976 46.5845 15.9789 46.798 15.8165C47.3766 15.2592 47.5541 14.3239 47.3305 13.0105C47.2362 12.7815 47.0772 12.585 46.8729 12.445C46.6686 12.305 46.4279 12.2276 46.1803 12.2224H39.1093C38.9951 12.2384 38.8787 12.2276 38.7694 12.191C38.66 12.1543 38.5607 12.0929 38.4792 12.0113C38.3976 11.9298 38.3361 11.8305 38.2995 11.7212C38.2628 11.6118 38.2521 11.4953 38.268 11.3811V9.33655C38.2521 9.22235 38.2628 9.10608 38.2995 8.99675C38.3361 8.88741 38.3976 8.788 38.4792 8.70647C38.5607 8.62493 38.66 8.56346 38.7694 8.52681C38.8787 8.49017 38.9951 8.47942 39.1093 8.49535H45.3976C45.9193 8.48175 46.4215 8.29436 46.8246 7.96289C46.9964 7.80696 47.1216 7.6065 47.1865 7.38377C47.2513 7.16103 47.2532 6.92466 47.192 6.7009C47.2097 6.26873 47.1901 5.83587 47.1335 5.40706C46.9826 5.07578 46.7206 4.80769 46.3929 4.64919C46.0652 4.49069 45.6924 4.45169 45.339 4.53909H39.1093C38.0816 4.82129 37.6503 5.36978 37.8207 6.19509C37.8207 6.56781 37.5385 6.72755 36.9794 6.72755H34.0882C33.974 6.74348 33.8576 6.73274 33.7483 6.69609C33.639 6.65945 33.5396 6.59785 33.4581 6.51631C33.3765 6.43477 33.315 6.3355 33.2784 6.22616C33.2417 6.11683 33.231 6.00043 33.2469 5.88622C33.212 5.0486 33.3367 4.21205 33.6143 3.421C33.9664 2.58849 34.6154 1.91663 35.4353 1.53607Z" fill="#88898D"/>
</g>
<defs>
<clipPath id="clip0_1_12241">
<rect width="52" height="19.1632" fill="white" transform="translate(0 0.918396)"/>
</clipPath>
</defs>
</svg>
