<svg width="31" height="33" viewBox="0 0 31 33" fill="none" xmlns="http://www.w3.org/2000/svg">
<g clip-path="url(#clip0_1_12227)">
<path d="M23.7548 31.3663C23.1978 31.6022 22.6539 31.8807 22.0805 32.0642C20.9547 32.435 19.7642 32.5683 18.5843 32.4555C17.4044 32.3427 16.2608 31.9863 15.2257 31.4089C13.921 30.6953 12.8184 29.6628 12.0211 28.4075C10.7497 26.4874 9.46526 24.5737 8.18736 22.6569L7.99731 22.3718L24.8394 11.1394L25.0131 11.4016C26.3237 13.3512 27.6344 15.2942 28.9123 17.2504C29.7403 18.4336 30.2579 19.8058 30.4176 21.2411C30.5773 22.6764 30.3741 24.1288 29.8265 25.4651C29.2985 26.835 28.4166 28.0401 27.2707 28.9579C27.2052 29.0136 27.1462 29.0792 27.0839 29.1414L23.7548 31.3663Z" fill="#88898D"/>
<path d="M8.31187 5.48059L9.85191 7.79066C9.90743 7.88346 9.97103 7.97119 10.042 8.05281C10.1154 8.14107 10.2191 8.19878 10.3329 8.21473C10.4466 8.23067 10.5622 8.20369 10.6571 8.13905C10.752 8.07441 10.8195 7.97672 10.8463 7.86506C10.8731 7.7534 10.8573 7.63577 10.8021 7.53507C10.7473 7.4312 10.6849 7.33157 10.6154 7.23692L9.09172 4.94325C10.0773 4.18269 11.198 3.61563 12.3946 3.27212C13.5702 2.94655 14.8014 2.87278 16.0074 3.05572C17.2135 3.23867 18.3674 3.6742 19.3936 4.33375C20.1596 4.77658 20.8283 5.36951 21.3596 6.07697C22.3426 7.47283 23.2732 8.92107 24.2365 10.3628L16.2545 15.6874C15.9203 15.1828 15.585 14.6804 15.2486 14.1802C15.1568 14.0393 15.0684 13.8984 14.9701 13.764C14.937 13.7111 14.8938 13.6652 14.8429 13.6289C14.792 13.5927 14.7345 13.5668 14.6737 13.5528C14.6128 13.5388 14.5498 13.5369 14.4882 13.5473C14.4266 13.5577 14.3677 13.5801 14.3147 13.6133C14.2601 13.6476 14.2132 13.6928 14.1769 13.7461C14.1405 13.7994 14.1156 13.8595 14.1036 13.9229C14.0916 13.9863 14.0928 14.0515 14.1072 14.1143C14.1215 14.1772 14.1487 14.2364 14.1869 14.2883C14.5441 14.8387 14.9144 15.3827 15.2781 15.9266L15.4649 16.2084L7.48287 21.5363C7.46334 21.5307 7.4454 21.5206 7.43045 21.5069C6.52609 20.1306 5.55292 18.7937 4.73703 17.3651C4.14645 16.347 3.7822 15.2135 3.66911 14.0419C3.55602 12.8704 3.69676 11.6881 4.0817 10.5758C4.81567 8.31165 6.20497 6.68641 8.31187 5.48059ZM13.5546 10.3498C13.2269 9.87792 12.9287 9.40278 12.6076 8.93422C12.5572 8.84071 12.487 8.75938 12.4019 8.69591C12.3167 8.63244 12.2187 8.58834 12.1147 8.56679C12.0107 8.54524 11.9033 8.54678 11.7999 8.57119C11.6966 8.5956 11.5998 8.64235 11.5165 8.70815C11.298 8.84795 11.0796 8.99535 10.8611 9.15045C10.7703 9.20047 10.6914 9.26966 10.63 9.35324C10.5686 9.43682 10.5261 9.53278 10.5055 9.63443C10.4849 9.73608 10.4868 9.84105 10.5108 9.94194C10.5349 10.0428 10.5806 10.1372 10.6449 10.2186C11.2674 11.1689 11.8977 12.1137 12.5355 13.053C12.5866 13.1434 12.6568 13.2214 12.7412 13.2819C12.8256 13.3423 12.9221 13.3837 13.0241 13.403C13.1261 13.4223 13.2311 13.4193 13.3318 13.3939C13.4324 13.3685 13.5263 13.3215 13.607 13.2561C13.8167 13.1251 14.0166 12.9874 14.2197 12.8498C14.3226 12.8001 14.4125 12.7272 14.4825 12.6369C14.5525 12.5466 14.6006 12.4413 14.6232 12.3293C14.6457 12.2173 14.642 12.1015 14.6124 11.9911C14.5827 11.8808 14.528 11.7788 14.4524 11.6932C14.1476 11.2311 13.8462 10.7855 13.5546 10.3366V10.3498Z" fill="#88898D"/>
<path d="M8.10544 4.92357C7.92523 4.66144 7.74828 4.39597 7.57134 4.13056C7.24368 3.64562 6.916 3.14758 6.56212 2.67902C5.81177 1.69602 4.92379 1.15208 3.94078 1.10948C2.81783 1.10549 1.73242 1.51354 0.890201 2.25632L0.506836 1.78777C1.46389 0.950134 2.6952 0.493084 3.967 0.503343C5.1335 0.552493 6.19841 1.17835 7.05362 2.31535C7.41406 2.79702 7.75156 3.29836 8.07923 3.79314C8.25617 4.05855 8.43311 4.32065 8.61332 4.57951L8.10544 4.92357Z" fill="#88898D"/>
</g>
<defs>
<clipPath id="clip0_1_12227">
<rect width="29.9685" height="32" fill="white" transform="translate(0.5 0.5)"/>
</clipPath>
</defs>
</svg>
