<svg width="37" height="33" viewBox="0 0 37 33" fill="none" xmlns="http://www.w3.org/2000/svg">
<g clip-path="url(#clip0_1_12255)">
<path d="M23.6304 14.2956V14.2951C23.6354 13.6096 23.6403 12.9237 23.6403 12.2381C23.6403 10.1323 23.6366 8.03023 23.6217 5.92443C23.6323 5.21929 23.4996 4.5194 23.2317 3.86707C22.9637 3.21475 22.566 2.62361 22.0628 2.12954C21.3008 1.36303 20.3305 0.83705 19.2724 0.616816C18.2142 0.396583 17.1146 0.491753 16.11 0.890585C15.1213 1.27005 14.2682 1.93583 13.6598 2.8027C13.0514 3.66957 12.7154 4.69816 12.6946 5.75702C12.6723 10.0728 12.6649 14.3885 12.6946 18.7043C12.7381 20.0346 13.2681 21.3028 14.1843 22.2684C15.1004 23.2339 16.339 23.8296 17.6652 23.9428C18.4293 24.0081 19.1985 23.9131 19.9237 23.6639C20.6489 23.4147 21.3141 23.0168 21.8766 22.4956C22.4391 21.9745 22.8865 21.3415 23.1902 20.6374C23.494 19.9333 23.6472 19.1735 23.6403 18.4067C23.6106 17.0377 23.6205 15.6668 23.6304 14.2956Z" fill="#88898D"/>
<path d="M0.1309 8.9019C0.0891433 9.16116 0.0473863 9.42042 0.000248087 9.67844L-0.0146484 11.1145C0.00807813 11.2039 0.0254766 11.2946 0.037444 11.3861C0.251491 14.1096 1.41865 16.6705 3.3338 18.6187C3.42596 18.7299 3.53966 18.8213 3.66811 18.8872C3.79655 18.9532 3.93705 18.9923 4.08108 19.0024C4.2251 19.0125 4.3697 18.9933 4.50608 18.9459C4.64247 18.8985 4.76783 18.824 4.87459 18.7268C4.98135 18.6296 5.06731 18.5117 5.12724 18.3804C5.18717 18.249 5.21982 18.1069 5.22325 17.9625C5.22668 17.8182 5.2008 17.6748 5.14718 17.5407C5.09356 17.4067 5.01331 17.2848 4.91129 17.1827C4.83248 17.0906 4.75305 16.9991 4.67369 16.9078C4.41963 16.6153 4.1661 16.3234 3.93652 16.0145C2.85393 14.518 2.22943 12.7392 2.13894 10.8944C2.04845 9.04963 2.49587 7.21827 3.42681 5.62304C3.91053 4.91075 4.43083 4.22409 4.98568 3.56569C5.16026 3.35364 5.2461 3.08221 5.2252 2.80833C5.20431 2.53445 5.07833 2.27931 4.87359 2.0962C4.66886 1.91309 4.40123 1.8162 4.12672 1.82588C3.85222 1.83557 3.59207 1.95108 3.40074 2.14816C1.95961 3.58617 0.931596 5.38519 0.424345 7.35685C0.297864 7.86526 0.214382 8.38358 0.1309 8.9019Z" fill="#88898D"/>
<path d="M19.2463 28.173V30.3793H22.5055C23.391 30.3793 23.8672 31.1234 23.5546 31.8675C23.4912 32.0349 23.3838 32.182 23.2436 32.2933C23.1035 32.4047 22.9358 32.476 22.7584 32.4999C22.5942 32.5193 22.429 32.5293 22.2636 32.5297H14.0785C13.9368 32.5316 13.7951 32.5241 13.6544 32.5073C13.3923 32.4848 13.1485 32.3635 12.9724 32.168C12.7963 31.9725 12.7009 31.7175 12.7057 31.4544C12.6966 31.1904 12.7918 30.9335 12.9708 30.7392C13.1497 30.5449 13.398 30.4289 13.6619 30.4164C14.2909 30.391 14.9268 30.3916 15.5555 30.3922C15.849 30.3925 16.1409 30.3928 16.4299 30.3904H17.0884V28.173C16.3142 28.0049 15.5502 27.7925 14.8003 27.5368C11.277 26.1305 9.1191 23.5856 8.52382 19.7944C8.47348 19.4307 8.44739 19.064 8.44571 18.6968C8.433 18.5552 8.44909 18.4126 8.49303 18.2773C8.53697 18.1421 8.60783 18.0173 8.70135 17.9102C8.79487 17.8031 8.90914 17.7162 9.03721 17.6544C9.16527 17.5927 9.30448 17.5575 9.4465 17.5511C9.73067 17.5505 10.0044 17.6582 10.2118 17.8524C10.4192 18.0467 10.5447 18.3127 10.5626 18.5963C10.6068 19.2657 10.7063 19.9303 10.8603 20.5832C11.1894 21.8317 11.8457 22.9697 12.7612 23.8801C13.6768 24.7904 14.8187 25.4401 16.069 25.7621C19.7523 26.815 23.3909 25.1222 25.0763 21.6696C25.5202 20.7648 25.7543 19.7716 25.7609 18.7638C25.74 18.5337 25.791 18.3027 25.907 18.1028C26.0229 17.9028 26.1981 17.7438 26.4083 17.6477C26.5707 17.5728 26.7495 17.5407 26.9279 17.5543C27.1062 17.568 27.2782 17.627 27.4273 17.7258C27.5764 17.8246 27.6978 17.9598 27.7799 18.1188C27.862 18.2777 27.9022 18.4548 27.8965 18.6336C27.9162 20.1899 27.5206 21.7233 26.7505 23.0758C26.0217 24.4164 24.9875 25.5666 23.7317 26.4334C22.4758 27.3001 21.0336 27.8591 19.5216 28.0651C19.4639 28.0739 19.4067 28.0864 19.3505 28.1023C19.3134 28.1222 19.2785 28.1459 19.2463 28.173Z" fill="#88898D"/>
<path d="M32.9602 18.6151C35.1369 16.4024 36.35 13.4185 36.3346 10.3146V10.3407C36.3172 7.25868 35.0846 4.30798 32.9043 2.12952C32.7101 1.96023 32.4609 1.86747 32.2032 1.86856C31.9455 1.86965 31.6971 1.9645 31.5043 2.13543C31.3115 2.30635 31.1875 2.54165 31.1555 2.79732C31.1236 3.05299 31.1858 3.31157 31.3306 3.52471C31.4105 3.61696 31.4905 3.70413 31.5694 3.79016C31.6814 3.91229 31.7913 4.03211 31.8961 4.1609C34.1358 6.91407 34.7423 9.98472 33.7154 13.3729C33.2528 14.807 32.4572 16.1113 31.3938 17.179C31.2887 17.2801 31.2059 17.4019 31.1507 17.5369C31.0955 17.6719 31.0692 17.8169 31.0734 17.9627C31.0776 18.1085 31.1122 18.2517 31.1751 18.3833C31.238 18.5148 31.3277 18.6318 31.4385 18.7266C31.5448 18.8211 31.669 18.8934 31.8038 18.939C31.9385 18.9846 32.081 19.0026 32.2229 18.9922C32.3647 18.9818 32.5031 18.9431 32.6297 18.8783C32.7563 18.8135 32.8687 18.724 32.9602 18.6151Z" fill="#88898D"/>
<path d="M4.25666 10.735C4.3013 8.39111 5.00076 6.64251 6.39594 5.19151C6.48879 5.08366 6.60219 4.99537 6.72953 4.93182C6.85686 4.86828 6.99559 4.83072 7.13759 4.82137C7.27959 4.81202 7.42203 4.83112 7.5566 4.87742C7.69117 4.92372 7.81515 4.99631 7.92134 5.09105C8.02958 5.18398 8.11746 5.29835 8.17939 5.42686C8.24133 5.55538 8.27598 5.69531 8.28122 5.83788C8.28646 5.98044 8.26215 6.12254 8.20982 6.25525C8.15749 6.38797 8.07828 6.50842 7.97716 6.60905C7.23458 7.36274 6.72557 8.31487 6.5113 9.35101C6.34144 10.1583 6.36477 10.9944 6.57943 11.7909C6.79408 12.5875 7.19398 13.322 7.74649 13.9347C7.77497 13.9669 7.80387 13.9987 7.83276 14.0305C7.89067 14.0942 7.94857 14.1579 8.00318 14.2249C8.19411 14.4316 8.29511 14.7057 8.28394 14.9869C8.27278 15.2681 8.1504 15.5333 7.94368 15.7243C7.73696 15.9152 7.46283 16.0162 7.18164 16.005C6.90046 15.9939 6.63525 15.8714 6.44431 15.6647C5.54429 14.7845 4.89565 13.6799 4.56544 12.4651C4.44641 12.0045 4.37598 11.5223 4.32159 11.1499C4.29779 10.9869 4.27704 10.8449 4.25666 10.735Z" fill="#88898D"/>
<path d="M31.5434 13.1298C31.916 12.1871 32.0954 11.1792 32.071 10.1658C32.0608 10.0787 32.0513 9.97748 32.0409 9.86683C32.0172 9.61368 31.9888 9.31132 31.937 9.01618C31.6643 7.54161 30.9462 6.18605 29.8796 5.132C29.7362 4.97928 29.5488 4.87496 29.3435 4.83362C29.1381 4.79228 28.925 4.81594 28.7337 4.90129C28.5435 4.97145 28.3786 5.09673 28.26 5.26108C28.1413 5.42543 28.0744 5.62139 28.0677 5.82397C28.0695 6.01357 28.1123 6.20057 28.1933 6.37205C28.2742 6.54353 28.3913 6.69548 28.5365 6.8174C29.0588 7.37633 29.4516 8.04339 29.687 8.7713C29.9223 9.4992 29.9945 10.27 29.8982 11.0289C29.7483 12.2345 29.2042 13.3568 28.3505 14.2212C28.2531 14.321 28.1771 14.4398 28.1273 14.5701C28.0775 14.7004 28.0548 14.8395 28.0608 14.9789C28.0667 15.1183 28.1011 15.255 28.1618 15.3806C28.2225 15.5062 28.3082 15.6181 28.4137 15.7094C28.5146 15.8043 28.6334 15.8783 28.7631 15.927C28.8929 15.9757 29.031 15.998 29.1695 15.9928C29.308 15.9876 29.444 15.955 29.5698 15.8967C29.6955 15.8385 29.8084 15.7559 29.9019 15.6536C30.6126 14.9308 31.1708 14.0725 31.5434 13.1298Z" fill="#88898D"/>
<path d="M11.3515 8.95294C11.2464 9.18736 11.1219 9.41254 10.9794 9.62628C10.5553 10.1918 10.5441 10.616 10.9794 11.1592C11.0833 11.265 11.1639 11.3913 11.2163 11.53C11.2686 11.6688 11.2914 11.8169 11.2834 11.9649C11.2753 12.113 11.2366 12.2577 11.1695 12.39C11.1024 12.5222 11.0086 12.639 10.8939 12.7329C10.7781 12.8255 10.6446 12.8933 10.5015 12.9319C10.3584 12.9706 10.2089 12.9794 10.0623 12.9577C9.91572 12.9361 9.77515 12.8845 9.64936 12.8061C9.52358 12.7278 9.41531 12.6243 9.33127 12.5022C8.80426 11.9075 8.51983 11.1366 8.5343 10.3421C8.54877 9.54766 8.86107 8.78767 9.40938 8.21257C9.55008 8.04235 9.74093 7.92085 9.9547 7.86541C10.1685 7.80996 10.3943 7.82336 10.6 7.90374C10.811 7.99053 10.9934 8.13495 11.1263 8.32048C11.2592 8.506 11.3372 8.72518 11.3515 8.95294Z" fill="#88898D"/>
<path d="M25.3556 11.1741C25.211 11.397 25.0865 11.6323 24.9835 11.8772C25.0037 12.1001 25.0844 12.3132 25.2168 12.4935C25.3493 12.6738 25.5285 12.8145 25.7351 12.9004C25.9406 12.9795 26.1655 12.9934 26.3792 12.9401C26.5929 12.8869 26.785 12.769 26.9293 12.6027C27.483 12.0243 27.7973 11.2578 27.809 10.4572C27.8207 9.65666 27.5291 8.88135 26.9926 8.28698C26.9081 8.16741 26.7998 8.06658 26.6746 7.99077C26.5493 7.91497 26.4098 7.86584 26.2646 7.84644C26.1195 7.82704 25.972 7.8378 25.8312 7.87805C25.6904 7.91829 25.5594 7.98716 25.4465 8.08033C25.3336 8.17351 25.2411 8.28894 25.1748 8.4195C25.1086 8.55006 25.07 8.69289 25.0614 8.83906C25.0529 8.98522 25.0746 9.13158 25.1252 9.26897C25.1759 9.40635 25.2543 9.53179 25.3556 9.63747C25.7797 10.1844 25.7686 10.6123 25.3556 11.1741Z" fill="#88898D"/>
</g>
<defs>
<clipPath id="clip0_1_12255">
<rect width="36.3344" height="32" fill="white" transform="translate(0 0.5)"/>
</clipPath>
</defs>
</svg>
