<svg width="37" height="33" viewBox="0 0 37 33" fill="none" xmlns="http://www.w3.org/2000/svg">
<g clip-path="url(#clip0_1_12248)">
<path d="M24.1304 14.2956V14.2951C24.1354 13.6096 24.1403 12.9237 24.1403 12.2381C24.1403 10.1323 24.1366 8.03023 24.1217 5.92443C24.1323 5.21929 23.9996 4.5194 23.7317 3.86707C23.4637 3.21475 23.066 2.62361 22.5628 2.12954C21.8008 1.36303 20.8305 0.83705 19.7724 0.616816C18.7142 0.396583 17.6146 0.491753 16.61 0.890585C15.6213 1.27005 14.7682 1.93583 14.1598 2.8027C13.5514 3.66957 13.2154 4.69816 13.1946 5.75702C13.1723 10.0728 13.1649 14.3885 13.1946 18.7043C13.2381 20.0346 13.7681 21.3028 14.6843 22.2684C15.6004 23.2339 16.839 23.8296 18.1652 23.9428C18.9293 24.0081 19.6985 23.9131 20.4237 23.6639C21.1489 23.4147 21.8141 23.0168 22.3766 22.4956C22.9391 21.9745 23.3865 21.3415 23.6902 20.6374C23.994 19.9333 24.1472 19.1735 24.1403 18.4067C24.1106 17.0377 24.1205 15.6668 24.1304 14.2956Z" fill="#88898D"/>
<path d="M0.6309 8.9019C0.589143 9.16116 0.547386 9.42042 0.500248 9.67844L0.485352 11.1145C0.508078 11.2039 0.525477 11.2946 0.537444 11.3861C0.751491 14.1096 1.91865 16.6705 3.8338 18.6187C3.92596 18.7299 4.03966 18.8213 4.16811 18.8872C4.29655 18.9532 4.43705 18.9923 4.58108 19.0024C4.7251 19.0125 4.8697 18.9933 5.00608 18.9459C5.14247 18.8985 5.26783 18.824 5.37459 18.7268C5.48135 18.6296 5.56731 18.5117 5.62724 18.3804C5.68717 18.249 5.71982 18.1069 5.72325 17.9625C5.72668 17.8182 5.7008 17.6748 5.64718 17.5407C5.59356 17.4067 5.51331 17.2848 5.41129 17.1827C5.33248 17.0906 5.25305 16.9991 5.17369 16.9078C4.91963 16.6153 4.6661 16.3234 4.43652 16.0145C3.35393 14.518 2.72943 12.7392 2.63894 10.8944C2.54845 9.04963 2.99587 7.21827 3.92681 5.62304C4.41053 4.91075 4.93083 4.22409 5.48568 3.56569C5.66026 3.35364 5.7461 3.08221 5.7252 2.80833C5.70431 2.53445 5.57833 2.27931 5.37359 2.0962C5.16886 1.91309 4.90123 1.8162 4.62672 1.82588C4.35222 1.83557 4.09207 1.95108 3.90074 2.14816C2.45961 3.58617 1.4316 5.38519 0.924345 7.35685C0.797864 7.86526 0.714382 8.38358 0.6309 8.9019Z" fill="#88898D"/>
<path d="M19.7463 28.173V30.3793H23.0055C23.891 30.3793 24.3672 31.1234 24.0546 31.8675C23.9912 32.0349 23.8838 32.182 23.7436 32.2933C23.6035 32.4047 23.4358 32.476 23.2584 32.4999C23.0942 32.5193 22.929 32.5293 22.7636 32.5297H14.5785C14.4368 32.5316 14.2951 32.5241 14.1544 32.5073C13.8923 32.4848 13.6485 32.3635 13.4724 32.168C13.2963 31.9725 13.2009 31.7175 13.2057 31.4544C13.1966 31.1904 13.2918 30.9335 13.4708 30.7392C13.6497 30.5449 13.898 30.4289 14.1619 30.4164C14.7909 30.391 15.4268 30.3916 16.0555 30.3922C16.349 30.3925 16.6409 30.3928 16.9299 30.3904H17.5884V28.173C16.8142 28.0049 16.0502 27.7925 15.3003 27.5368C11.777 26.1305 9.6191 23.5856 9.02382 19.7944C8.97348 19.4307 8.94739 19.064 8.94571 18.6968C8.933 18.5552 8.94909 18.4126 8.99303 18.2773C9.03697 18.1421 9.10783 18.0173 9.20135 17.9102C9.29487 17.8031 9.40914 17.7162 9.53721 17.6544C9.66527 17.5927 9.80448 17.5575 9.9465 17.5511C10.2307 17.5505 10.5044 17.6582 10.7118 17.8524C10.9192 18.0467 11.0447 18.3127 11.0626 18.5963C11.1068 19.2657 11.2063 19.9303 11.3603 20.5832C11.6894 21.8317 12.3457 22.9697 13.2612 23.8801C14.1768 24.7904 15.3187 25.4401 16.569 25.7621C20.2523 26.815 23.8909 25.1222 25.5763 21.6696C26.0202 20.7648 26.2543 19.7716 26.2609 18.7638C26.24 18.5337 26.291 18.3027 26.407 18.1028C26.5229 17.9028 26.6981 17.7438 26.9083 17.6477C27.0707 17.5728 27.2495 17.5407 27.4279 17.5543C27.6062 17.568 27.7782 17.627 27.9273 17.7258C28.0764 17.8246 28.1978 17.9598 28.2799 18.1188C28.362 18.2777 28.4022 18.4548 28.3965 18.6336C28.4162 20.1899 28.0206 21.7233 27.2505 23.0758C26.5217 24.4164 25.4875 25.5666 24.2317 26.4334C22.9758 27.3001 21.5336 27.8591 20.0216 28.0651C19.9639 28.0739 19.9067 28.0864 19.8505 28.1023C19.8134 28.1222 19.7785 28.1459 19.7463 28.173Z" fill="#88898D"/>
<path d="M33.4602 18.6151C35.6369 16.4024 36.85 13.4185 36.8346 10.3146V10.3407C36.8172 7.25868 35.5846 4.30798 33.4043 2.12952C33.2101 1.96023 32.9609 1.86747 32.7032 1.86856C32.4455 1.86965 32.1971 1.9645 32.0043 2.13543C31.8115 2.30635 31.6875 2.54165 31.6555 2.79732C31.6236 3.05299 31.6858 3.31157 31.8306 3.52471C31.9105 3.61696 31.9905 3.70413 32.0694 3.79016C32.1814 3.91229 32.2913 4.03211 32.3961 4.1609C34.6358 6.91407 35.2423 9.98472 34.2154 13.3729C33.7528 14.807 32.9572 16.1113 31.8938 17.179C31.7887 17.2801 31.7059 17.4019 31.6507 17.5369C31.5955 17.6719 31.5692 17.8169 31.5734 17.9627C31.5776 18.1085 31.6122 18.2517 31.6751 18.3833C31.738 18.5148 31.8277 18.6318 31.9385 18.7266C32.0448 18.8211 32.169 18.8934 32.3038 18.939C32.4385 18.9846 32.581 19.0026 32.7229 18.9922C32.8647 18.9818 33.0031 18.9431 33.1297 18.8783C33.2563 18.8135 33.3687 18.724 33.4602 18.6151Z" fill="#88898D"/>
<path d="M4.75666 10.735C4.8013 8.39111 5.50076 6.64251 6.89594 5.19151C6.98879 5.08366 7.10219 4.99537 7.22953 4.93182C7.35686 4.86828 7.49559 4.83072 7.63759 4.82137C7.77959 4.81202 7.92203 4.83112 8.0566 4.87742C8.19117 4.92372 8.31515 4.99631 8.42134 5.09105C8.52958 5.18398 8.61746 5.29835 8.67939 5.42686C8.74133 5.55538 8.77598 5.69531 8.78122 5.83788C8.78646 5.98044 8.76215 6.12254 8.70982 6.25525C8.65749 6.38797 8.57828 6.50842 8.47716 6.60905C7.73458 7.36274 7.22557 8.31487 7.0113 9.35101C6.84144 10.1583 6.86477 10.9944 7.07943 11.7909C7.29408 12.5875 7.69398 13.322 8.24649 13.9347C8.27497 13.9669 8.30387 13.9987 8.33276 14.0305C8.39067 14.0942 8.44857 14.1579 8.50318 14.2249C8.69411 14.4316 8.79511 14.7057 8.78394 14.9869C8.77278 15.2681 8.6504 15.5333 8.44368 15.7243C8.23696 15.9152 7.96283 16.0162 7.68164 16.005C7.40046 15.9939 7.13525 15.8714 6.94431 15.6647C6.04429 14.7845 5.39565 13.6799 5.06544 12.4651C4.94641 12.0045 4.87598 11.5223 4.82159 11.1499C4.79779 10.9869 4.77704 10.8449 4.75666 10.735Z" fill="#88898D"/>
<path d="M32.0434 13.1298C32.416 12.1871 32.5954 11.1792 32.571 10.1658C32.5608 10.0787 32.5513 9.97748 32.5409 9.86683C32.5172 9.61368 32.4888 9.31132 32.437 9.01618C32.1643 7.54161 31.4462 6.18605 30.3796 5.132C30.2362 4.97928 30.0488 4.87496 29.8435 4.83362C29.6381 4.79228 29.425 4.81594 29.2337 4.90129C29.0435 4.97145 28.8786 5.09673 28.76 5.26108C28.6413 5.42543 28.5744 5.62139 28.5677 5.82397C28.5695 6.01357 28.6123 6.20057 28.6933 6.37205C28.7742 6.54353 28.8913 6.69548 29.0365 6.8174C29.5588 7.37633 29.9516 8.04339 30.187 8.7713C30.4223 9.4992 30.4945 10.27 30.3982 11.0289C30.2483 12.2345 29.7042 13.3568 28.8505 14.2212C28.7531 14.321 28.6771 14.4398 28.6273 14.5701C28.5775 14.7004 28.5548 14.8395 28.5608 14.9789C28.5667 15.1183 28.6011 15.255 28.6618 15.3806C28.7225 15.5062 28.8082 15.6181 28.9137 15.7094C29.0146 15.8043 29.1334 15.8783 29.2631 15.927C29.3929 15.9757 29.531 15.998 29.6695 15.9928C29.808 15.9876 29.944 15.955 30.0698 15.8967C30.1955 15.8385 30.3084 15.7559 30.4019 15.6536C31.1126 14.9308 31.6708 14.0725 32.0434 13.1298Z" fill="#88898D"/>
<path d="M11.8515 8.95294C11.7464 9.18736 11.6219 9.41254 11.4794 9.62628C11.0553 10.1918 11.0441 10.616 11.4794 11.1592C11.5833 11.265 11.6639 11.3913 11.7163 11.53C11.7686 11.6688 11.7914 11.8169 11.7834 11.9649C11.7753 12.113 11.7366 12.2577 11.6695 12.39C11.6024 12.5222 11.5086 12.639 11.3939 12.7329C11.2781 12.8255 11.1446 12.8933 11.0015 12.9319C10.8584 12.9706 10.7089 12.9794 10.5623 12.9577C10.4157 12.9361 10.2751 12.8845 10.1494 12.8061C10.0236 12.7278 9.91531 12.6243 9.83127 12.5022C9.30426 11.9075 9.01983 11.1366 9.0343 10.3421C9.04877 9.54766 9.36107 8.78767 9.90938 8.21257C10.0501 8.04235 10.2409 7.92085 10.4547 7.86541C10.6685 7.80996 10.8943 7.82336 11.1 7.90374C11.311 7.99053 11.4934 8.13495 11.6263 8.32048C11.7592 8.506 11.8372 8.72518 11.8515 8.95294Z" fill="#88898D"/>
<path d="M25.8556 11.1741C25.711 11.397 25.5865 11.6323 25.4835 11.8772C25.5037 12.1001 25.5844 12.3132 25.7168 12.4935C25.8493 12.6738 26.0285 12.8145 26.2351 12.9004C26.4406 12.9795 26.6655 12.9934 26.8792 12.9401C27.0929 12.8869 27.285 12.769 27.4293 12.6027C27.983 12.0243 28.2973 11.2578 28.309 10.4572C28.3207 9.65666 28.0291 8.88135 27.4926 8.28698C27.4081 8.16741 27.2998 8.06658 27.1746 7.99077C27.0493 7.91497 26.9098 7.86584 26.7646 7.84644C26.6195 7.82704 26.472 7.8378 26.3312 7.87805C26.1904 7.91829 26.0594 7.98716 25.9465 8.08033C25.8336 8.17351 25.7411 8.28894 25.6748 8.4195C25.6086 8.55006 25.57 8.69289 25.5614 8.83906C25.5529 8.98522 25.5746 9.13158 25.6252 9.26897C25.6759 9.40635 25.7543 9.53179 25.8556 9.63747C26.2797 10.1844 26.2686 10.6123 25.8556 11.1741Z" fill="#88898D"/>
</g>
<defs>
<clipPath id="clip0_1_12248">
<rect width="36.3344" height="32" fill="white" transform="translate(0.5 0.5)"/>
</clipPath>
</defs>
</svg>
