<svg width="215" height="112" viewBox="0 0 215 112" fill="none" xmlns="http://www.w3.org/2000/svg">
<g filter="url(#filter0_d_573_4449)">
<path d="M41.581 37.5218C44.1054 34.9912 44.1054 30.8882 41.5809 28.3576C39.0565 25.827 34.9636 25.827 32.4391 28.3576C29.9146 30.8882 29.9146 34.9912 32.4391 37.5218C34.9635 40.0524 39.0565 40.0524 41.581 37.5218Z" fill="white"/>
<path d="M37.0115 13C31.4389 13 26.0945 15.2191 22.1541 19.1692C18.2137 23.1192 16 28.4766 16 34.0628V71.9456C16 74.7115 16.5435 77.4503 17.5995 80.0057C18.6554 82.561 20.2031 84.8828 22.1543 86.8385C24.1054 88.7942 26.4217 90.3455 28.9709 91.4038C31.5201 92.4621 34.2523 93.0066 37.0115 93.0063C39.7707 93.0066 42.5029 92.4621 45.0521 91.4038C47.6013 90.3455 49.9176 88.7942 51.8687 86.8385C53.8199 84.8828 55.3676 82.561 56.4236 80.0057C57.4795 77.4503 58.023 74.7115 58.023 71.9456V34.0628C58.023 31.2968 57.4795 28.5579 56.4236 26.0024C55.3677 23.447 53.82 21.125 51.8689 19.1692C49.9178 17.2133 47.6015 15.6618 45.0523 14.6033C42.503 13.5448 39.7708 13 37.0115 13ZM29.1532 80.4271C28.568 80.4274 27.9884 80.3121 27.4476 80.0878C26.9069 79.8635 26.4155 79.5346 26.0016 79.1198C25.5877 78.7051 25.2594 78.2127 25.0353 77.6707C24.8113 77.1287 24.696 76.5478 24.696 75.9612C24.6957 75.3743 24.8108 74.7932 25.0347 74.251C25.2586 73.7088 25.5869 73.2161 26.0009 72.8012C26.4148 72.3862 26.9063 72.0571 27.4472 71.8327C27.9881 71.6082 28.5678 71.4928 29.1532 71.4931C30.3353 71.4931 31.469 71.9639 32.3049 72.8018C33.1408 73.6397 33.6104 74.7762 33.6104 75.9612C33.6098 77.1458 33.14 78.2817 32.3041 79.1192C31.4683 79.9567 30.3349 80.4271 29.1532 80.4271ZM32.5501 68.0858C32.5507 66.9009 33.0204 65.7648 33.8562 64.927C34.692 64.0892 35.8254 63.6183 37.0073 63.6177C38.1894 63.6177 39.3231 64.0885 40.159 64.9264C40.9949 65.7643 41.4645 66.9008 41.4645 68.0858C41.4648 68.6726 41.3496 69.2537 41.1257 69.7959C40.9019 70.3382 40.5736 70.8308 40.1596 71.2458C39.7457 71.6607 39.2542 71.9898 38.7133 72.2143C38.1724 72.4387 37.5927 72.5541 37.0073 72.5538C35.8259 72.5527 34.6933 72.0815 33.8583 71.2437C33.0233 70.4059 32.5543 69.27 32.5543 68.0858H32.5501ZM37.0073 88.3025C35.8254 88.302 34.692 87.8311 33.8562 86.9933C33.0204 86.1555 32.5507 85.0193 32.5501 83.8345C32.5507 82.6497 33.0204 81.5135 33.8562 80.6757C34.692 79.8379 35.8254 79.367 37.0073 79.3664C37.5926 79.3664 38.1722 79.482 38.713 79.7065C39.2538 79.9311 39.7451 80.2602 40.159 80.6751C40.5729 81.09 40.9012 81.5825 41.1252 82.1246C41.3492 82.6667 41.4645 83.2477 41.4645 83.8345C41.4645 85.0188 40.9955 86.1546 40.1605 86.9924C39.3255 87.8302 38.1929 88.3014 37.0115 88.3025H37.0073ZM44.8635 80.4271C44.2783 80.4274 43.6988 80.3121 43.158 80.0878C42.6172 79.8635 42.1259 79.5346 41.7119 79.1198C41.298 78.7051 40.9697 78.2127 40.7457 77.6707C40.5216 77.1287 40.4063 76.5478 40.4063 75.9612C40.4061 75.3743 40.5212 74.7932 40.7451 74.251C40.969 73.7088 41.2973 73.2161 41.7112 72.8012C42.1251 72.3862 42.6166 72.0571 43.1575 71.8327C43.6984 71.6082 44.2781 71.4928 44.8635 71.4931C45.4487 71.4931 46.0282 71.6087 46.5689 71.8333C47.1095 72.0578 47.6008 72.387 48.0145 72.8019C48.4282 73.2168 48.7563 73.7094 48.9801 74.2515C49.2038 74.7936 49.3189 75.3745 49.3186 75.9612C49.3186 77.1449 48.8498 78.2802 48.0152 79.1176C47.1806 79.955 46.0485 80.426 44.8677 80.4271H44.8635ZM37.0073 50.0957C32.4682 50.0957 28.1149 48.2881 24.9052 45.0706C21.6956 41.8531 19.8924 37.4892 19.8924 32.939C19.8924 28.3887 21.6956 24.0249 24.9052 20.8074C28.1149 17.5899 32.4682 15.7823 37.0073 15.7823C39.2561 15.7803 41.4832 16.2227 43.5614 17.084C45.6396 17.9454 47.528 19.2088 49.1189 20.8021C50.7097 22.3955 51.9717 24.2875 52.8327 26.37C53.6937 28.4525 54.1369 30.6847 54.1369 32.939C54.1369 35.1929 53.6938 37.4247 52.8331 39.507C51.9723 41.5892 50.7107 43.481 49.1203 45.0743C47.53 46.6676 45.642 47.9311 43.5643 48.7927C41.4866 49.6543 39.2599 50.097 37.0115 50.0957H37.0073Z" fill="white"/>
<path d="M76.8364 40.5154V42.9841H68.5225V40.5154H76.8364ZM76.1477 29.782V32.1707H69.0788V29.7925L76.1477 29.782ZM84.3357 33.4987V36.603C85.5953 42.5674 88.3757 46.3101 92.6768 47.831C91.9772 48.4469 91.4063 49.1959 90.9973 50.0345C87.5583 48.5557 85.0691 45.7636 83.5295 41.6582C82.2936 45.3567 79.6343 48.233 75.5515 50.2871C75.0716 49.5145 74.4513 48.8392 73.7229 48.2961C76.161 47.0937 77.9351 45.7404 79.045 44.2363C80.2263 42.6621 80.9681 41.1847 81.2704 39.8041C81.5438 38.4588 81.6845 37.0898 81.6903 35.7169V33.5092L84.3357 33.4987ZM88.8369 32.6232H79.9394C79.0996 34.8877 78.173 36.7278 77.1597 38.1435C76.3861 37.5746 75.5517 37.0939 74.6718 36.7103C76.6831 34.3251 78.1478 30.6883 79.066 25.8L81.768 26.3052C81.5371 27.4276 81.2102 28.7107 80.7875 30.1545H89.6179L90.1218 30.0219L91.8958 31.03C91.263 33.5873 90.3387 36.0631 89.1413 38.4087C88.2764 37.9485 87.5884 37.6033 87.0776 37.3732C87.7863 35.841 88.3725 34.2548 88.8306 32.6295L88.8369 32.6232Z" fill="#88898D"/>
<path d="M114.99 42.6244H105.542V34.4754H101.306V46.0212H118.013V48.4099H98.7379V34.4754H95.0303V32.114H98.7379V26.3516H101.306V32.1119H105.542V25.7981H108.005V32.1119H112.426V26.0885H114.994V32.114H118.727V34.4754H114.994L114.99 42.6244ZM112.422 34.4754H108.001V40.3409H112.422V34.4754Z" fill="#88898D"/>
<path d="M128.122 25.876L130.452 26.6463C129.694 28.4286 128.8 30.1497 127.778 31.7941V49.9505H125.237V35.4288C124.283 36.6802 123.219 37.8437 122.059 38.9055C121.705 38.0228 121.233 37.1923 120.656 36.4369C122.252 35.0561 123.667 33.4776 124.866 31.7394C126.164 29.9118 127.256 27.9453 128.122 25.876ZM145.338 34.8205L137.5 35.8286C138.434 42.9955 140.084 46.7206 142.451 47.004C142.787 47.0209 143.056 46.6666 143.259 45.9412C143.519 44.8351 143.683 43.7084 143.748 42.5739C144.325 43.1642 145.02 43.6254 145.787 43.9271C145.507 46.172 145.092 47.747 144.542 48.6519C143.996 49.5527 143.333 49.9863 142.558 49.9526C140.384 49.773 138.705 48.4366 137.519 45.9433C136.409 43.6619 135.589 40.4061 135.059 36.1759L129.26 36.9188L128.888 34.5848L134.819 33.8398C134.608 31.4335 134.449 28.8329 134.343 26.038H136.831C136.919 28.8849 137.059 31.3704 137.25 33.4946L145.008 32.5139L145.338 34.8205ZM144.886 30.283L142.927 31.5815C142.134 30.3272 140.81 28.868 138.955 27.204L140.784 26.0359C142.581 27.5218 143.947 28.9375 144.882 30.283H144.886Z" fill="#88898D"/>
<path d="M80.357 69.0265L78.6375 70.6449C77.8243 69.9729 76.571 69.0531 74.8774 67.8858C73.8347 69.4965 72.1397 70.8294 69.7925 71.8845C69.3797 71.2423 68.8498 70.684 68.2305 70.2387C70.8772 69.2145 72.5631 67.8079 73.2881 66.019H68.495V64.0554H70.2963C69.7005 63.6286 69.0682 63.2553 68.4068 62.94C69.7491 61.5958 70.7204 59.8532 71.3209 57.7122L73.5169 58.1625C73.4288 58.4635 73.2272 59.0465 72.9081 59.9136H79.767V61.8793H76.1119V63.2578C76.1119 63.6134 76.1119 63.8892 76.0867 64.0554H80.4284V66.019H75.7151L75.6353 66.2568C76.1672 66.5052 76.9929 66.9612 78.1127 67.6248C79.2401 68.2962 79.9875 68.7613 80.357 69.0265ZM70.4013 64.0638H73.7605C73.7773 63.8681 73.7878 63.5945 73.7878 63.2409V61.8877H71.9339C71.5206 62.6774 71.0053 63.409 70.4013 64.0638ZM72.1754 82.1634V71.2195H88.778V82.1276H86.2586V81.2247H74.6087V82.155L72.1754 82.1634ZM86.2628 73.1915H74.6129V75.2624H86.2586L86.2628 73.1915ZM74.6129 79.2422H86.2586V77.1229H74.6087L74.6129 79.2422ZM81.4424 59.8946H91.0013V69.3653H81.4424V59.8946ZM88.5659 67.1934V62.0729H83.7372V67.1955L88.5659 67.1934Z" fill="#88898D"/>
<path d="M96.6404 81.6605L94.6543 80.2799C96.1939 79.3075 97.3507 77.8476 98.1247 75.9002L100.241 76.6705C99.3172 78.9897 98.117 80.6531 96.6404 81.6605ZM113.587 73.2737V71.9204H95.3429V70.3798H113.587V69.0266H97.4886V67.4881H115.995V70.3798H118.515V71.9204H115.995V74.8668H107.125C108.326 75.5684 109.191 76.2138 109.72 76.8031L108.053 78.2889C107.547 77.7435 106.984 77.2545 106.374 76.8304C105.69 76.331 104.969 75.887 104.215 75.5024L104.956 74.871H97.3311V73.2842L113.587 73.2737ZM99.7917 67.0882V65.8676H95.555V64.3291H99.7917V63.2137H96.3234V61.6752H99.7917V60.6124H95.8195V59.0739H99.7917V57.8259H102.07V59.0739H106.015V60.6124H102.07V61.6752H105.639V63.2137H102.07V64.3291H106.269V65.8676H102.07V67.0882H99.7917ZM105.483 79.7769H109.8C110.312 79.7769 110.647 79.6485 110.806 79.3917C110.964 79.135 111.07 78.5197 111.125 77.546C111.601 77.9024 112.324 78.1767 113.295 78.3689C113.156 79.786 112.864 80.7281 112.422 81.1954C111.98 81.6626 111.186 81.8976 110.039 81.9004H105.246C103.744 81.9004 102.743 81.7054 102.242 81.3153C101.741 80.9253 101.489 80.1648 101.486 79.0339V75.8476H103.921V79.0045C103.921 79.3412 104.016 79.5538 104.201 79.6358C104.385 79.7179 104.814 79.7769 105.483 79.7769ZM111.097 67.0882V65.8676H106.898V64.3291H111.097V63.1821H107.577V61.6415H111.097V60.6061H106.993V59.0676H111.097V57.8196H113.375V59.0676H117.822V60.6061H113.375V61.6415H117.345V63.1821H113.375V64.3228H118.221V65.8612H113.375V67.0819L111.097 67.0882ZM112.607 76.8304L114.54 75.6624C115.48 76.3325 116.357 77.0862 117.161 77.9143C117.89 78.6308 118.53 79.4328 119.067 80.303L116.949 81.551C116.451 80.6893 115.851 79.8914 115.162 79.1749C114.381 78.3198 113.526 77.5352 112.607 76.8304Z" fill="#88898D"/>
<path d="M126.932 70.3546L127.981 70.7755C127.733 72.6409 127.29 74.475 126.659 76.2475C127.002 76.9053 127.475 77.4868 128.048 77.957C128.621 78.4271 129.284 78.7763 129.995 78.9835C131.46 79.4268 133.763 79.6485 136.904 79.6485C140.045 79.6485 143.019 79.5152 145.827 79.2487C145.494 79.7257 145.22 80.4869 145.006 81.5321C142.448 81.6921 139.632 81.7721 136.56 81.7721C133.488 81.7721 131.165 81.5385 129.592 81.0712C128.035 80.6186 126.683 79.6382 125.767 78.2974C125.01 79.8489 123.915 81.2098 122.563 82.2793C122.144 81.61 121.595 81.0324 120.948 80.5809C123.224 78.987 124.759 76.2447 125.554 72.354H123.436C122.643 72.354 122.113 72.4866 121.847 72.7518C121.678 72.0135 121.401 71.3044 121.026 70.6472C121.517 70.5273 121.955 70.2475 122.271 69.8516C122.712 69.3928 123.612 68.0922 124.973 65.9497H121.425V63.9587H126.403L126.72 63.8262L128.282 64.4575C125.986 67.9427 124.662 69.9246 124.309 70.403H126.508L126.932 70.3546ZM127.089 61.8605L125.13 63.1885C124.513 62.1263 123.481 60.7015 122.034 58.914L123.885 57.8259C125.06 59.0824 126.131 60.4316 127.089 61.8605ZM128.811 70.965H131.645C131.043 70.5831 130.405 70.263 129.739 70.0095C130.515 69.2759 131.183 68.4355 131.723 67.5134C130.929 67.7084 129.976 67.8852 128.863 68.0438C128.67 67.4299 128.355 66.8615 127.937 66.3727C131.096 65.9841 133.78 65.2762 135.987 64.2492C135.146 63.2865 134.215 62.407 133.207 61.6226C132.058 62.2714 130.866 62.8389 129.638 63.321C129.237 62.7565 128.746 62.2629 128.183 61.8605C131.429 60.7815 133.808 59.3925 135.321 57.6934L137.545 58.1143C137.113 58.6173 136.644 59.0873 136.142 59.5201H141.811L142.231 59.4402L143.528 60.1305C141.904 63.1036 138.895 65.3071 134.5 66.741L134.341 67.1114H143.555V68.8898H137.994V70.9692H144.666V72.8275H137.994V76.2728H141.172V73.5115H143.343V78.1248H130.264V73.5115H132.329V76.2728H135.596V72.8233H128.817L128.811 70.965ZM133.816 63.0538L133.921 64.3544L129.684 65.0195L129.579 63.6388L133.816 63.0538ZM135.59 68.894H133.365C132.903 69.6338 132.371 70.3273 131.777 70.965H135.596L135.59 68.894ZM140.381 61.2501H135.113C135.978 61.924 136.776 62.6795 137.496 63.5063C138.569 62.9084 139.542 62.1473 140.381 61.2501Z" fill="#88898D"/>
<path d="M156.111 72.1055L153.092 73.061V79.4569C153.092 80.6242 152.774 81.3763 152.138 81.713C151.579 82.0329 150.431 82.1922 148.695 82.1908C148.621 81.3952 148.396 80.621 148.034 79.9094C149.252 79.9445 149.989 79.9529 150.245 79.9346C150.415 79.9411 150.585 79.9004 150.734 79.8168C150.776 79.7675 150.807 79.71 150.825 79.6481C150.844 79.5862 150.849 79.521 150.841 79.4569V73.7513L147.981 74.6795L147.505 72.2655C147.893 72.1588 149.005 71.8403 150.841 71.31V65.3098H147.797V63.0537H150.841V57.8532H153.092V63.0537H155.527V65.3098H153.092V70.6723L155.712 69.8768L156.111 72.1055ZM164.874 79.1917H171.97V81.4478H155.342V79.1917H162.438V74.2017H156.957V71.9729H170.673V74.2017H164.874V79.1917ZM158.122 62.8684V65.4971H155.978V60.7996H162.518C162.19 59.9664 161.818 59.1508 161.405 58.3562L163.681 57.6406C164.243 58.6637 164.747 59.7176 165.191 60.7975H171.758V65.3624H169.507V62.8684H167.045V66.9556C167.026 67.1969 167.067 67.439 167.164 67.6606C167.212 67.7301 167.278 67.7853 167.355 67.8201C167.432 67.8549 167.517 67.8682 167.601 67.8584H170.064C170.579 67.8751 171.094 67.8306 171.598 67.7259C171.705 68.9297 171.766 69.5758 171.785 69.6642C171.505 69.7877 170.941 69.8494 170.091 69.8494H167.521C166.463 69.8494 165.753 69.6389 165.39 69.218C165.028 68.7971 164.847 68.0366 164.847 66.9366V62.8748H163.02C162.895 65.1197 162.45 66.8139 161.683 67.9574C160.916 69.1009 159.464 69.9546 157.328 70.5187C157.068 69.8443 156.66 69.2367 156.136 68.7403C157.937 68.3193 159.137 67.6824 159.736 66.8293C160.335 65.9762 160.685 64.6581 160.786 62.8748L158.122 62.8684Z" fill="#88898D"/>
<path d="M198.446 74.6795L196.779 76.1401C196.47 75.8297 196.142 75.5373 195.799 75.2646V81.9993H193.542V81.3364H189.517V82.1593H187.346V73.8566H193.939C192.228 72.6786 190.424 71.6425 188.545 70.7587H183.567C182.464 71.9427 181.219 72.9854 179.86 73.8629H185.234V82.0119H182.984V81.349H179.066V82.1445H176.921V75.5024C176.267 75.8223 175.685 76.0791 175.174 76.2727C174.89 75.5708 174.461 74.9373 173.914 74.4143C176.274 73.5694 178.474 72.3313 180.422 70.7523H174.491V68.6814H182.488C183.069 67.9756 183.574 67.211 183.996 66.4H176.398V58.9729H184.896V65.9181L186.698 66.2632C186.281 67.1025 185.803 67.9101 185.268 68.6793H192.072C191.171 68.1204 190.222 67.6409 189.238 67.2461L190.078 66.4042H187.615V58.9729H196.271V66.4063H191.293C192.671 67.0069 193.641 67.5372 194.205 67.9974L193.544 68.6877H198.125V70.7587H192.702C195.174 72.1 197.089 73.4069 198.446 74.6795ZM182.625 64.4449V60.9575H178.545V64.4449H182.625ZM182.994 79.3623V75.8223H179.077V79.3517L182.994 79.3623ZM189.534 79.3623H193.542V75.8223H189.517L189.534 79.3623ZM189.773 60.9681V64.4449H194.063V60.9575L189.773 60.9681Z" fill="#88898D"/>
<path d="M160.641 25.6423H147.746V27.6838H160.641V25.6423Z" fill="#88898D"/>
<path d="M155.209 20.2019H153.173V33.1283H155.209V20.2019Z" fill="#88898D"/>
<path d="M41.3047 68.995C41.7903 66.5764 40.2387 64.219 37.8391 63.7295C35.4395 63.2401 33.1005 64.804 32.615 67.2226C32.1294 69.6412 33.681 71.9987 36.0806 72.4881C38.4802 72.9776 40.8191 71.4136 41.3047 68.995Z" fill="#222DFF"/>
<path d="M39.4274 87.4856C41.4358 86.0745 41.929 83.2895 40.5289 81.2652C39.1289 79.2408 36.3658 78.7437 34.3573 80.1549C32.3489 81.566 31.8557 84.351 33.2558 86.3754C34.6558 88.3997 37.419 88.8968 39.4274 87.4856Z" fill="#FFC200"/>
<path d="M47.8432 79.1184C49.5744 77.3735 49.5744 74.5445 47.8432 72.7996C46.112 71.0547 43.3052 71.0547 41.5741 72.7996C39.8429 74.5445 39.8429 77.3735 41.5741 79.1184C43.3052 80.8633 46.112 80.8633 47.8432 79.1184Z" fill="#F70000"/>
<path d="M33.3418 76.9739C33.9095 74.5736 32.4392 72.1638 30.0577 71.5915C27.6762 71.0192 25.2854 72.5011 24.7176 74.9015C24.1498 77.3019 25.6201 79.7117 28.0016 80.284C30.3831 80.8563 32.774 79.3743 33.3418 76.9739Z" fill="#00C90E"/>
</g>
<defs>
<filter id="filter0_d_573_4449" x="0" y="0" width="214.446" height="112.006" filterUnits="userSpaceOnUse" color-interpolation-filters="sRGB">
<feFlood flood-opacity="0" result="BackgroundImageFix"/>
<feColorMatrix in="SourceAlpha" type="matrix" values="0 0 0 0 0 0 0 0 0 0 0 0 0 0 0 0 0 0 127 0" result="hardAlpha"/>
<feOffset dy="3"/>
<feGaussianBlur stdDeviation="8"/>
<feComposite in2="hardAlpha" operator="out"/>
<feColorMatrix type="matrix" values="0 0 0 0 0 0 0 0 0 0 0 0 0 0 0 0 0 0 0.23 0"/>
<feBlend mode="normal" in2="BackgroundImageFix" result="effect1_dropShadow_573_4449"/>
<feBlend mode="normal" in="SourceGraphic" in2="effect1_dropShadow_573_4449" result="shape"/>
</filter>
</defs>
</svg>
