<?xml version="1.0" encoding="utf-8"?>
<!-- Generator: Adobe Illustrator 26.0.1, SVG Export Plug-In . SVG Version: 6.00 Build 0)  -->
<svg version="1.1" id="圖層_1" xmlns="http://www.w3.org/2000/svg" xmlns:xlink="http://www.w3.org/1999/xlink" x="0px" y="0px"
	 viewBox="0 0 215 64" style="enable-background:new 0 0 215 64;" xml:space="preserve">
<style type="text/css">
	.st0{fill:#FFFFFF;}
</style>
<g>
	<path class="st0" d="M160.3,31.4h-4.2v6.7h4.2c2,0,3.3-1.7,3.4-3.4C163.7,33.3,162.5,31.4,160.3,31.4z"/>
	<path class="st0" d="M141.1,37.9c-1.4,0-3.4,1.4-3.4,3.9v0l5.9-2.5C143.3,38.5,142.2,37.9,141.1,37.9z"/>
	<path class="st0" d="M107.9,37.9c-2,0-3.7,1.7-3.7,4c0,2.3,1.7,4,3.7,4c2,0,3.7-1.7,3.7-4C111.7,39.4,110,37.9,107.9,37.9z"/>
	<path class="st0" d="M122.3,37.9c-2,0-3.7,1.7-3.7,4c0,2.3,1.7,4,3.7,4c2,0,3.6-1.7,3.6-4C125.9,39.6,124.4,37.9,122.3,37.9z"/>
	<path class="st0" d="M0,0v64h215V0H0z M119.6,14.5h1.4l4.5,7.3v-7.3h1.2v9.3h-1.2l-4.8-7.6v7.6h-1.1V14.5z M109.7,15.8
		c0.9-0.9,2-1.4,3.4-1.4c1.4,0,2.5,0.5,3.4,1.4c0.9,0.9,1.4,2,1.4,3.4c0,1.4-0.5,2.5-1.4,3.4c-0.9,0.9-2,1.4-3.4,1.4
		c-1.4,0-2.5-0.5-3.4-1.4c-0.9-0.9-1.4-2-1.4-3.4C108.3,17.8,108.7,16.7,109.7,15.8z M95.3,14.5h1.2v9.3h-1.2V14.5z M84.3,14.5h6.5
		v1.1h-2.6v8.2h-1.2v-8.2h-2.6V14.5z M77.6,14.5H83v1.1h-4.2v2.9h3.9v1.1h-3.9v2.9H83v1.2h-5.4V14.5z M68,15.8
		c0.9-0.9,2-1.4,3.4-1.4c0.6,0,1.2,0.2,1.9,0.5c0.6,0.3,1.1,0.6,1.4,1.1l-0.8,0.8c-0.6-0.8-1.4-1.1-2.5-1.1c-0.9,0-1.9,0.3-2.5,1.1
		c-0.8,0.6-1.1,1.5-1.1,2.6c0,1.1,0.3,2,1.1,2.6s1.5,1.1,2.5,1.1c1.1,0,1.9-0.3,2.6-1.1c0.5-0.5,0.8-1.1,0.8-1.9h-3.4v-1.2h4.5v0.6
		c0,1.2-0.3,2.3-1.1,3.1c-0.9,0.9-2,1.4-3.4,1.4s-2.5-0.5-3.4-1.4c-0.9-0.9-1.4-2-1.4-3.4C66.6,17.8,67.1,16.7,68,15.8z M26.7,13.2
		l21.8,12.4l-5.7,5.9L24.2,12.9C24.8,12.5,25.7,12.7,26.7,13.2z M22.8,49.8V15.5c0-0.6,0.2-1.1,0.3-1.6l18.5,18.6L23.1,51.3
		C23,50.9,22.8,50.4,22.8,49.8z M26.8,52c-1.1,0.5-2,0.6-2.6,0.3l18.5-18.7l6,6.1L26.8,52z M56.8,34.9L50,38.7l-6.2-6.2l6-6.2l6.9,4
		C59,31.6,59,33.6,56.8,34.9z M83.6,45.6c-1.9,2-4,2.9-7.1,2.9c-5.6,0-10.4-4.6-10.4-10.2c0-5.6,4.8-10.2,10.4-10.2
		c3.1,0,5.3,1.2,7,2.8l-2,2c-1.2-1.1-2.9-2-5.1-2c-4,0-7.3,3.3-7.3,7.4c0,4.2,3.1,7.4,7.3,7.4c2.6,0,4.2-1.1,5.1-2
		c0.8-0.8,1.4-2,1.5-3.6h-6.7v-2.8l0,0H86c0.2,0.5,0.2,1.1,0.2,1.7C86.1,41.1,85.5,43.8,83.6,45.6z M93.5,48.7
		c-3.7,0-6.7-2.8-6.7-6.7s2.9-6.7,6.7-6.7c3.7,0,6.7,2.8,6.7,6.7S97.3,48.7,93.5,48.7z M97.9,15.6v-1.1h6.3v1.1h-2.6v8.2h-1.1v-8.2
		H97.9z M107.9,48.7c-3.7,0-6.7-2.8-6.7-6.7s2.9-6.7,6.7-6.7c3.7,0,6.7,2.8,6.7,6.7S111.7,48.7,107.9,48.7z M128.5,47.5
		c0,4.8-2.9,6.8-6.2,6.8c-3.3,0-5.1-2.2-5.9-3.9l2.5-1.1c0.3,1.1,1.5,2.3,3.3,2.3c2.2,0,3.6-1.4,3.6-3.9v-0.9h-0.2
		c-0.6,0.8-1.9,1.5-3.4,1.5c-3.4,0-6.3-2.8-6.3-6.5s3.1-6.7,6.3-6.7c1.5,0,2.8,0.8,3.6,1.5v-1.1h2.8V47.5z M133.3,48.1h-2.9v0V28.8
		h2.9V48.1z M141.4,46.1c1.5,0,2.5-0.8,3.3-1.9l2.2,1.5c-0.6,1.1-2.5,2.9-5.4,2.9c-3.7,0-6.5-2.9-6.5-6.7c0-4,2.8-6.7,6.2-6.7
		c3.4,0,5,2.6,5.6,4.2l0,0l0.3,0.8l-8.8,3.7C138.9,45.5,139.8,46.1,141.4,46.1z M160.1,40.8h-4v7.3h-2.9V28.8h7h0
		c3.3,0,6.3,2.3,6.3,6S163.4,40.8,160.1,40.8z M171,48.1H168v0V28.8h2.9V48.1z M184.3,48.1h-2.8v-1.5h-0.2c-0.8,0.9-1.7,1.9-3.7,1.9
		c-2.5,0-4.8-1.7-4.8-4.3c0-2.8,2.8-4.3,5.6-4.3c1.2,0,2.5,0.5,2.9,0.8v-0.2c-0.2-1.5-1.5-2.5-3.1-2.5c-1.1,0-2,0.3-2.6,1.4
		l-2.6-1.1c0.8-2,2.9-2.9,5.1-2.9l0,0c3.2,0,5.9,2,6.2,5.4V48.1z M189.2,54h-2.9l2.9-6.5l-5.1-11.8h3.1l3.4,8.4h0.2l3.3-8.4h0h3.1
		L189.2,54z"/>
	<path class="st0" d="M93.5,37.9c-2,0-3.7,1.7-3.7,4c0,2.3,1.7,4,3.7,4s3.7-1.7,3.7-4C97.3,39.4,95.6,37.9,93.5,37.9z"/>
	<path class="st0" d="M113.1,22.9c0.9,0,1.9-0.3,2.5-1.1c0.6-0.6,1.1-1.5,1.1-2.6c0-1.1-0.3-2-1.1-2.6c-0.6-0.6-1.5-1.1-2.5-1.1
		c-0.9,0-1.9,0.3-2.5,1.1c-0.6,0.6-1.1,1.5-1.1,2.6c0,1.1,0.3,2,1.1,2.6C111.2,22.4,112.1,22.9,113.1,22.9z"/>
	<path class="st0" d="M175.5,44.2c0,1.2,1.4,1.7,2.3,1.7c1.5,0,3.1-1.2,3.4-3.1c-0.8-0.3-1.4-0.6-2.6-0.6
		C177.2,42.2,175.5,42.7,175.5,44.2z"/>
</g>
</svg>
