<?xml version="1.0" encoding="utf-8"?>
<!-- Generator: Adobe Illustrator 26.0.1, SVG Export Plug-In . SVG Version: 6.00 Build 0)  -->
<svg version="1.1" id="圖層_1" xmlns="http://www.w3.org/2000/svg" xmlns:xlink="http://www.w3.org/1999/xlink" x="0px" y="0px"
	 viewBox="0 0 160 64" style="enable-background:new 0 0 160 64;" xml:space="preserve">
<style type="text/css">
	.st0{fill:#FFFFFF;}
</style>
<g>
	<path class="st0" d="M34.4,40.4c-0.4-0.2-0.9-0.2-1.3-0.1c-0.4,0.1-0.8,0.3-1.2,0.6c-0.3,0.3-0.5,0.7-0.6,1.2
		c-0.1,0.4,0,0.9,0.1,1.3s0.5,0.8,0.8,1c0.4,0.2,0.8,0.4,1.3,0.4c0.3,0,0.6-0.1,0.9-0.2c0.3-0.1,0.5-0.3,0.7-0.5
		c0.2-0.2,0.4-0.5,0.5-0.7c0.1-0.3,0.2-0.6,0.2-0.9c0-0.4-0.1-0.9-0.4-1.3C35.2,40.9,34.8,40.6,34.4,40.4z"/>
	<path class="st0" d="M51.8,40.4c-0.4-0.2-0.9-0.2-1.3-0.1c-0.4,0.1-0.8,0.3-1.2,0.6c-0.3,0.3-0.5,0.7-0.6,1.2
		c-0.1,0.4,0,0.9,0.1,1.3s0.5,0.8,0.8,1c0.4,0.2,0.8,0.4,1.3,0.4c0.3,0,0.6-0.1,0.9-0.2c0.3-0.1,0.5-0.3,0.7-0.5
		c0.2-0.2,0.4-0.5,0.5-0.7c0.1-0.3,0.2-0.6,0.2-0.9c0-0.4-0.1-0.9-0.4-1.3C52.6,40.9,52.3,40.6,51.8,40.4z"/>
	<path class="st0" d="M79.5,19.1c0-2.1-0.9-3.4-3-3.4h-1.8v6.9h1.8C78.6,22.6,79.5,21.1,79.5,19.1z"/>
	<path class="st0" d="M83,32.2c-0.6,1.8-2,5.1-3.8,9.5H87C84.8,36.6,83.5,33.8,83,32.2L83,32.2z"/>
	<path class="st0" d="M86.3,22.9c1.1,0,1.7-0.9,1.7-2.4c0-1.5-0.6-2.5-1.8-2.5c-1.2,0-1.7,0.8-1.7,2.4C84.5,22,85.1,22.9,86.3,22.9z
		"/>
	<path class="st0" d="M133.6,22.9c1.5,0,1.7-1.2,1.7-2.5c0-1.3-0.2-2.4-1.7-2.4c-1.4,0-1.8,0.9-1.8,2.4
		C131.9,22,132.6,22.9,133.6,22.9z"/>
	<path class="st0" d="M124,21.9c0,0.8,0.4,1.1,1.2,1.1c1.4,0,1.6-1,1.6-2.1v-0.2h-1C124.6,20.7,124,21.1,124,21.9z"/>
	<path class="st0" d="M117.6,18c-1.1,0-1.8,0.8-1.8,2.4c0,1.5,0.7,2.4,1.8,2.4c1.1,0,1.7-0.9,1.7-2.4C119.4,19,118.7,18,117.6,18z"
		/>
	<path class="st0" d="M106.9,32.4h-5.4v7h5.3c3.1,0,4.8-1.2,4.8-3.5S109.6,32.4,106.9,32.4z"/>
	<path class="st0" d="M0,0v64h160V0H0z M133.4,16.6c1.1,0,1.7,0.4,1.9,0.8v-3.8h1.8v10.5h-1.7c0-0.2-0.1-0.7-0.1-0.9
		c-0.3,0.7-1,1-2.2,1c-1.9,0-3.1-1.5-3.1-3.8C130.1,18.3,131.3,16.6,133.4,16.6z M125.5,17.9c-1.1,0-1.2,0.5-1.3,1h-1.7
		c0.1-1.2,0.9-2.3,3.1-2.3s3,0.8,3,2.5v3.2c0,0.6,0,1.2,0.1,1.8H127c-0.1-0.3-0.1-0.5-0.1-0.8c-0.3,0.4-0.8,1-2.1,1
		c-1.8,0-2.5-1.1-2.5-2.3c0-1.7,1.3-2.4,3.5-2.4h1.1v-0.5C126.8,18.5,126.6,17.9,125.5,17.9z M110.7,13.6h1.8v10.5h-1.8V13.6z
		 M102.3,16.8h1.7c0,0.3,0.1,0.7,0.1,1c0.3-0.5,0.9-1.2,2.2-1.2c1.4,0,2.4,1,2.4,2.8v4.7H107v-4.5c0-0.9-0.3-1.6-1.3-1.6
		c-1,0-1.6,0.7-1.6,2.1v4.1h-1.8V16.8z M86.3,16.6c2.3,0,3.5,1.5,3.5,3.9c0,2.2-1.3,3.9-3.6,3.9c-2.3,0-3.6-1.6-3.6-3.8
		C82.6,18.3,84,16.6,86.3,16.6z M72.9,14.2h3.8c2.9,0,4.8,1.9,4.8,4.8c0,2.9-1.8,5.1-4.8,5.1h-3.8V14.2z M21.8,50.4
		c0.5-5.8,4.3-10.8,9.7-13.7L27.6,31c-0.1-0.2-0.2-0.4-0.3-0.6c0-0.2,0-0.4,0-0.7c0-0.2,0.1-0.4,0.2-0.6s0.3-0.3,0.5-0.5
		c0.4-0.3,0.8-0.3,1.3-0.3s0.8,0.3,1.1,0.7l4.2,6.2c4.9-1.7,10.2-1.7,15.1,0l4.2-6.2c0.3-0.4,0.6-0.6,1.1-0.7c0.4-0.1,0.9,0,1.3,0.3
		c0.2,0.1,0.3,0.3,0.5,0.5c0.1,0.2,0.2,0.4,0.2,0.6c0,0.2,0,0.4,0,0.7c0,0.2-0.1,0.4-0.3,0.6l-3.9,5.7c5.4,2.9,9.2,7.9,9.7,13.7
		H21.8z M90.4,50l-2.5-5.8h-9.5L75.9,50h-3.6l8.5-20.1h4.5L94.2,50H90.4z M95.9,18.7c-0.1,0.9-0.6,2.7-1.3,5.5h-1.9l-2.1-7.4h1.9
		c0.7,3.1,1.2,4.9,1.3,5.8h0c0.1-0.8,0.5-2.2,1.4-5.8h1.7c0.9,3.8,1.2,4.9,1.3,5.7h0c0.2-0.8,0.4-1.9,1.4-5.7h1.8l-2.2,7.4h-1.9
		C96.6,21.4,96.1,19.6,95.9,18.7z M107,41.9h-5.5V50h-3.6V29.9h9.3c4.8,0,8.1,2.2,8.1,5.9S111.7,41.9,107,41.9z M114,20.5
		c0-2.2,1.4-3.9,3.7-3.9c2.3,0,3.5,1.5,3.5,3.9c0,2.2-1.3,3.9-3.6,3.9C115.3,24.3,114,22.7,114,20.5z M135.1,50l-8.9-9.7l-3,2.3V50
		h-3.5V29.9h3.5v9.7c1.8-1.5,7.7-6.5,11.3-9.7h4.4l-10.3,8.4L139.4,50H135.1z"/>
</g>
</svg>
