<?xml version="1.0" encoding="utf-8"?>
<!-- Generator: Adobe Illustrator 26.0.1, SVG Export Plug-In . SVG Version: 6.00 Build 0)  -->
<svg version="1.1" id="圖層_1" xmlns="http://www.w3.org/2000/svg" xmlns:xlink="http://www.w3.org/1999/xlink" x="0px" y="0px"
	 viewBox="0 0 215 64" style="enable-background:new 0 0 215 64;" xml:space="preserve">
<path d="M23.1,13.9c-0.2,0.5-0.3,0.9-0.3,1.6v34.3c0,0.6,0.2,1.1,0.3,1.6l18.5-18.8L23.1,13.9z"/>
<path d="M56.8,30.4l-6.9-4l-6,6.2l6.2,6.2l6.8-3.9C59,33.6,59,31.6,56.8,30.4z"/>
<path d="M48.4,25.5L26.7,13.2c-0.9-0.5-1.8-0.6-2.4-0.3l18.5,18.6L48.4,25.5z"/>
<path d="M24.2,52.3c0.6,0.3,1.5,0.2,2.6-0.3l21.9-12.4l-6-6.1L24.2,52.3z"/>
<path d="M207.1,64H7.9C3.5,64,0,60.5,0,56.2V7.8C0,3.5,3.5,0,7.9,0h199.3c4.3,0,7.9,3.5,7.9,7.8v48.3c0,2.1-0.8,4-2.3,5.5
	S209.2,64,207.1,64z M7.9,0.7c-3.9,0-7.2,3.2-7.2,7.1v48.3c0,3.9,3.2,7.1,7.2,7.1h199.3c1.9,0,3.7-0.7,5.1-2.1
	c1.4-1.3,2.1-3.1,2.1-5V7.8c0-3.9-3.2-7.1-7.2-7.1H7.9z"/>
<path d="M75.9,19.5c0,1.2-0.3,2.3-1.1,3.1c-0.9,0.9-2,1.4-3.4,1.4c-1.4,0-2.5-0.5-3.4-1.4c-0.9-0.9-1.4-2-1.4-3.4
	c0-1.4,0.5-2.5,1.4-3.4c0.9-0.9,2-1.4,3.4-1.4c0.6,0,1.2,0.2,1.9,0.5c0.6,0.3,1.1,0.6,1.4,1.1l-0.8,0.8c-0.6-0.8-1.4-1.1-2.5-1.1
	c-0.9,0-1.9,0.3-2.5,1.1c-0.8,0.6-1.1,1.5-1.1,2.6c0,1.1,0.3,2,1.1,2.6s1.5,1.1,2.5,1.1c1.1,0,1.9-0.3,2.6-1.1
	c0.5-0.5,0.8-1.1,0.8-1.9h-3.4v-1.2h4.5V19.5z M83,15.6h-4.2v2.9h3.9v1.1h-3.9v2.9H83v1.2h-5.4v-9.3H83V15.6z M88.1,23.8h-1.2v-8.2
	h-2.6v-1.1h6.5v1.1h-2.6V23.8z M95.3,23.8v-9.3h1.2v9.3H95.3z M101.8,23.8h-1.2v-8.2h-2.6v-1.1h6.3v1.1h-2.6v8.2H101.8z M116.5,22.6
	c-0.9,0.9-2,1.4-3.4,1.4c-1.4,0-2.5-0.5-3.4-1.4c-0.9-0.9-1.4-2-1.4-3.4c0-1.4,0.5-2.5,1.4-3.4c0.9-0.9,2-1.4,3.4-1.4
	c1.4,0,2.5,0.5,3.4,1.4c0.9,0.9,1.4,2,1.4,3.4C117.9,20.6,117.4,21.7,116.5,22.6z M110.6,21.8c0.6,0.6,1.5,1.1,2.5,1.1
	c0.9,0,1.9-0.3,2.5-1.1c0.6-0.6,1.1-1.5,1.1-2.6c0-1.1-0.3-2-1.1-2.6c-0.6-0.6-1.5-1.1-2.5-1.1c-0.9,0-1.9,0.3-2.5,1.1
	c-0.6,0.6-1.1,1.5-1.1,2.6C109.5,20.3,109.8,21.2,110.6,21.8z M119.6,23.8v-9.3h1.4l4.5,7.3v-7.3h1.2v9.3h-1.2l-4.8-7.6v7.6H119.6z"
	/>
<path d="M107.9,35.4c-3.7,0-6.7,2.8-6.7,6.7s2.9,6.7,6.7,6.7c3.7,0,6.7-2.8,6.7-6.7S111.7,35.4,107.9,35.4z M107.9,45.9
	c-2,0-3.7-1.7-3.7-4c0-2.3,1.7-4,3.7-4s3.7,1.5,3.7,4C111.7,44.2,110,45.9,107.9,45.9z M93.5,35.4c-3.7,0-6.7,2.8-6.7,6.7
	s2.9,6.7,6.7,6.7s6.7-2.8,6.7-6.7S97.3,35.4,93.5,35.4z M93.5,45.9c-2,0-3.7-1.7-3.7-4c0-2.3,1.7-4,3.7-4c2,0,3.7,1.5,3.7,4
	C97.3,44.2,95.6,45.9,93.5,45.9z M76.4,37.4v2.8H83c-0.2,1.5-0.8,2.8-1.5,3.6c-0.9,0.9-2.5,2-5.1,2c-4.2,0-7.3-3.3-7.3-7.4
	c0-4.2,3.3-7.4,7.3-7.4c2.2,0,3.9,0.9,5.1,2l2-2c-1.7-1.5-3.9-2.8-7-2.8c-5.6,0-10.4,4.6-10.4,10.2s4.8,10.2,10.4,10.2
	c3.1,0,5.3-0.9,7.1-2.9c1.9-1.9,2.5-4.5,2.5-6.5c0-0.6,0-1.2-0.2-1.7L76.4,37.4L76.4,37.4z M146.7,39.6c-0.6-1.5-2.2-4.2-5.6-4.2
	c-3.4,0-6.2,2.6-6.2,6.7c0,3.7,2.8,6.7,6.5,6.7c2.9,0,4.8-1.9,5.4-2.9l-2.2-1.5c-0.8,1.1-1.7,1.9-3.3,1.9c-1.5,0-2.5-0.6-3.3-2
	l8.8-3.7L146.7,39.6L146.7,39.6z M137.7,41.8c0-2.5,2-3.9,3.4-3.9c1.1,0,2.2,0.6,2.5,1.4L137.7,41.8L137.7,41.8z M130.4,48.1h2.9
	V28.8h-2.9V48.1z M125.8,36.8c-0.8-0.8-2-1.5-3.6-1.5c-3.3,0-6.3,2.9-6.3,6.7s2.9,6.5,6.3,6.5c1.5,0,2.8-0.8,3.4-1.5h0.2v0.9
	c0,2.5-1.4,3.9-3.6,3.9c-1.7,0-2.9-1.2-3.3-2.3l-2.5,1.1c0.8,1.7,2.6,3.9,5.9,3.9c3.3,0,6.2-2,6.2-6.8V35.7h-2.8V36.8z M122.3,45.9
	c-2,0-3.7-1.7-3.7-4c0-2.3,1.7-4,3.7-4s3.6,1.7,3.6,4C125.9,44.2,124.4,45.9,122.3,45.9z M153.2,28.8v19.3h2.9v-7.3h4
	c3.3,0,6.3-2.3,6.3-6c0-3.7-3.1-6-6.3-6H153.2z M160.3,38.1h-4.2v-6.7h4.2c2.2,0,3.4,1.9,3.4,3.3C163.5,36.4,162.3,38.1,160.3,38.1z
	 M178.1,35.3c-2.2,0-4.3,0.9-5.1,2.9l2.6,1.1c0.6-1.1,1.5-1.4,2.6-1.4c1.5,0,2.9,0.9,3.1,2.5v0.2c-0.5-0.3-1.7-0.8-2.9-0.8
	c-2.8,0-5.6,1.5-5.6,4.3c0,2.6,2.3,4.3,4.8,4.3c2,0,2.9-0.9,3.7-1.9h0.2v1.5h2.8v-7.4C184,37.3,181.3,35.3,178.1,35.3L178.1,35.3z
	 M177.8,45.9c-0.9,0-2.3-0.5-2.3-1.7c0-1.5,1.7-2,3.1-2c1.2,0,1.9,0.3,2.6,0.6C180.9,44.7,179.3,45.9,177.8,45.9z M194,35.7
	l-3.3,8.4h-0.2l-3.4-8.4h-3.1l5.1,11.8l-2.9,6.5h2.9l7.9-18.3H194z M168,48.1h2.9V28.8H168V48.1z"/>
</svg>
