<?xml version="1.0" encoding="utf-8"?>
<!-- Generator: Adobe Illustrator 26.0.1, SVG Export Plug-In . SVG Version: 6.00 Build 0)  -->
<svg version="1.1" id="圖層_1" xmlns="http://www.w3.org/2000/svg" xmlns:xlink="http://www.w3.org/1999/xlink" x="0px" y="0px"
	 viewBox="0 0 215 64" style="enable-background:new 0 0 215 64;" xml:space="preserve">
<style type="text/css">
	.st0{fill:#FFFFFF;}
</style>
<g>
	<path class="st0" d="M95.8,36.4c-0.8,0-1.6,0.3-2.2,0.8c-0.7,0.5-1.1,1.2-1.3,2.1c-0.1,0.3-0.1,0.7-0.2,1v2.5c0,1.1,0.3,2,1,2.7
		c0.7,0.7,1.5,1.1,2.6,1.1c1.2,0,2.2-0.5,2.9-1.4c0.7-1,1-2.2,1-3.8c0-1.4-0.3-2.6-1-3.6C97.9,36.9,97,36.4,95.8,36.4z"/>
	<path class="st0" d="M115.7,37.9c-0.7-1-1.7-1.5-2.9-1.5c-0.8,0-1.6,0.3-2.2,0.8c-0.7,0.5-1.1,1.2-1.3,2.1c-0.1,0.4-0.2,0.7-0.2,1
		v2.5c0,1.1,0.3,2,1,2.7c0.7,0.7,1.5,1.1,2.6,1.1c1.2,0,2.2-0.5,2.9-1.4c0.7-1,1-2.2,1-3.8h0C116.7,40,116.4,38.8,115.7,37.9z"/>
	<path class="st0" d="M84.3,16.5L84.3,16.5c-1.2,0-1.9,1.1-1.9,2.6s0.8,2.6,1.9,2.6c1.1,0,1.9-1.2,1.9-2.6S85.5,16.5,84.3,16.5z"/>
	<path class="st0" d="M136.1,16.5c-1.2,0-1.9,1.1-1.9,2.6c0,1.5,0.8,2.5,1.9,2.5c1,0,1.7-0.9,1.7-1.9v-1.2
		C137.9,17.4,137.2,16.5,136.1,16.5z"/>
	<path class="st0" d="M128.6,20.2v-1.1c-1.8,0-2.7,0.4-2.7,1.5c0,0.8,0.5,1.1,1.1,1.1C127.9,21.7,128.6,21.1,128.6,20.2z"/>
	<path class="st0" d="M118.9,16.5c-1.2,0-1.9,1.1-1.9,2.6c0,1.5,0.8,2.6,1.9,2.6s1.9-1.2,1.9-2.6C120.8,17.6,120,16.5,118.9,16.5z"
		/>
	<path class="st0" d="M187.3,16.4c-0.9,0-1.7,0.8-1.8,1.9h3.4C188.9,17.2,188.4,16.4,187.3,16.4z"/>
	<path class="st0" d="M149.8,21.7c1.1,0,1.9-1.2,1.9-2.6c0-1.5-0.7-2.6-1.9-2.6c-1.2,0-1.9,1.1-1.9,2.6
		C147.9,20.6,148.7,21.7,149.8,21.7z"/>
	<path class="st0" d="M77.2,31.1L77.2,31.1c-0.3,0.9-0.6,2.2-1,3.9l-1.7,5.4h5.5h0L78.2,35C78,34.4,77.7,33.1,77.2,31.1z"/>
	<path class="st0" d="M77.1,17.5c0-2.4-1.3-3.7-3.7-3.7h0c-0.5,0-0.9,0-1.3,0.1v7.6c0.2,0,0.6,0,1.1,0
		C75.7,21.5,77.1,20.1,77.1,17.5z"/>
	<path class="st0" d="M0,0v64h215V0H0z M187.4,15.3c1.9,0,3,1.4,3,3.5c0,0.2,0,0.5-0.1,0.7v0h-4.9c0,1.4,0.9,2.2,2.3,2.2
		c0.7,0,1.4-0.1,2-0.3l0.3,1.1c-0.7,0.3-1.5,0.4-2.4,0.4c-2.3,0-3.6-1.4-3.6-3.7C184,17,185.4,15.3,187.4,15.3z M157.2,15.4l0.1,1.1
		h0c0.4-0.8,1.3-1.3,2.3-1.3c1.5,0,2.5,1.2,2.5,3.1v4.4l0,0h-1.6v-4.2c0-1.3-0.5-1.9-1.5-1.9c-1,0-1.6,0.8-1.6,1.8v4.3h-1.6v-5.2
		c0-0.6,0-1.3-0.1-2.1H157.2z M149.9,15.3c2.1,0,3.5,1.5,3.5,3.7c0,2.3-1.5,3.9-3.6,3.9c-2.1,0-3.5-1.6-3.5-3.8
		C146.3,17,147.7,15.3,149.9,15.3z M111.3,12.1h1.6v10.7h-1.6V12.1z M91.1,15.4l0.8,3.5c0.2,0.8,0.4,1.6,0.5,2.3h0
		c0.1-0.6,0.3-1.4,0.6-2.3l1-3.5h1.3l1,3.4c0.2,0.8,0.4,1.6,0.6,2.4h0c0.1-0.8,0.3-1.5,0.5-2.4l0.9-3.4h1.6l0,0l0,0h0l-2.3,7.3h-1.5
		l-0.9-3.2c-0.2-0.8-0.4-1.6-0.6-2.4h0c-0.1,0.8-0.3,1.6-0.6,2.4l-1,3.2h-1.5l-2.1-7.3H91.1z M70.5,12.7c0.9-0.1,1.9-0.2,2.8-0.2
		c3.8,0,5.5,1.9,5.5,4.9c0,3.5-2.1,5.4-5.9,5.4c-0.9,0-1.7,0-2.4-0.1V12.7z M40.8,14.6c1.4-1.7,3.9-2.9,5.8-3c0.3,2.3-0.7,4.6-2,6.3
		l0,0c-1.4,1.7-3.7,2.9-5.9,2.8C38.4,18.4,39.5,16,40.8,14.6z M52.1,46.2c-1.6,2.4-3.3,4.8-6,4.8c-2.6,0.1-3.5-1.5-6.5-1.5
		s-4,1.5-6.5,1.6c-2.6,0.1-4.5-2.6-6.2-5c-3.4-4.9-6-13.8-2.5-19.9c1.7-3,4.8-4.9,8.1-4.9c2.6-0.1,5,1.7,6.5,1.7s4.5-2.1,7.5-1.8
		c1.3,0,4.9,0.5,7.2,3.9c-0.2,0.1-4.3,2.5-4.3,7.5h0c0.1,6,5.2,8,5.3,8C54.8,40.7,54,43.4,52.1,46.2z M82.4,48.9l-1.9-6.1h-6.7
		L72,48.9h-3.4l6.6-20.6h4.1L86,48.9H82.4z M84.3,22.9c-2.1,0-3.5-1.6-3.5-3.8c0-2.2,1.4-3.9,3.6-3.9c2.1,0,3.5,1.5,3.5,3.7
		S86.4,22.9,84.3,22.9z M103,41.3C103,41.3,103,41.3,103,41.3c0,2.5-0.7,4.5-2.1,6c-1.2,1.3-2.8,2-4.6,2c-2,0-3.4-0.7-4.2-2.1V55
		h-3.3V39c0-1.6,0-3.2-0.1-4.9h2.9l0.2,2.4h0.1c1.1-1.8,2.8-2.7,5-2.7c1.8,0,3.2,0.7,4.4,2.1C102.4,37.2,103,39.1,103,41.3
		C103,41.3,103,41.3,103,41.3L103,41.3z M103.7,18.4v4.3h-1.6v-5.2c0-0.6,0-1.3-0.1-2.1h1.4l0.1,1.1h0c0.4-0.8,1.3-1.3,2.3-1.3
		c1.5,0,2.5,1.2,2.5,3.1v4.4h-1.6v-4.2c0-1.3-0.5-1.9-1.5-1.9C104.4,16.6,103.7,17.4,103.7,18.4z M120.1,41.3
		C120.1,41.3,120.1,41.3,120.1,41.3c0,2.5-0.7,4.5-2.1,6c-1.2,1.3-2.8,2-4.6,2c-2,0-3.4-0.7-4.2-2.1V55h-3.3V39c0-1.6,0-3.2-0.1-4.9
		h2.9l0.2,2.4h0.1c1.1-1.8,2.8-2.7,5-2.7c1.8,0,3.2,0.7,4.4,2.1C119.5,37.2,120.1,39.1,120.1,41.3C120.1,41.3,120.1,41.3,120.1,41.3
		L120.1,41.3z M118.8,22.9c-2.1,0-3.5-1.6-3.5-3.8c0-2.2,1.4-3.9,3.6-3.9c2.1,0,3.5,1.5,3.5,3.7C122.5,21.3,121,22.9,118.8,22.9z
		 M124.3,20.8c0-1.8,1.6-2.7,4.3-2.7v-0.1c0-1-0.5-1.4-1.5-1.4c-0.7,0-1.4,0.2-1.9,0.5l-0.3-1.1c0.7-0.4,1.5-0.6,2.5-0.6
		c1.9,0,2.9,1,2.9,3V21c0,0.7,0,1.3,0.1,1.7h-1.5l0,0l-0.1-0.8h0c-0.5,0.7-1.2,1-2.1,1C125.3,22.9,124.3,22,124.3,20.8z M139.2,43.1
		c0,1.8-0.6,3.2-1.8,4.3c-1.3,1.2-3.2,1.8-5.6,1.8c-2.2,0-4-0.4-5.3-1.3l0.8-2.8c1.4,0.9,3,1.3,4.8,1.3c1.2,0,2.2-0.3,2.9-0.8
		c0.7-0.6,1-1.3,1-2.2c0-0.8-0.3-1.5-0.9-2.1c-0.6-0.6-1.5-1.1-2.8-1.6c-3.6-1.3-5.4-3.3-5.4-5.9c0-1.7,0.6-3.1,1.9-4.2
		c1.3-1.1,3-1.6,5.1-1.6c1.9,0,3.4,0.3,4.7,1l-0.8,2.7c-1.2-0.6-2.5-0.9-4-0.9c-1.2,0-2.1,0.3-2.7,0.9c-0.5,0.5-0.8,1.1-0.8,1.9
		c0,0.8,0.3,1.5,0.9,2c0.5,0.5,1.5,1,3,1.6c1.8,0.7,3.1,1.5,3.9,2.5C138.7,40.5,139.2,41.7,139.2,43.1L139.2,43.1z M138.1,22.7
		L138.1,22.7l-0.1-1.2h0c-0.5,0.9-1.2,1.3-2.3,1.3c-1.8,0-3.1-1.5-3.1-3.7c0-2.2,1.3-3.9,3.2-3.9c1,0,1.7,0.3,2.1,1h0v-4.2h1.6v8.7
		c0,0.7,0,1.4,0.1,2H138.1z M150.1,36.5L150.1,36.5l-3.6,0v7.2c0,1.8,0.6,2.7,1.9,2.7c0.6,0,1.1,0,1.5-0.2l0.1,2.5
		c-0.6,0.2-1.5,0.4-2.6,0.4c-1.3,0-2.3-0.4-3.1-1.2c-0.7-0.8-1.1-2.1-1.1-4v-7.5H141v-2.5h2.2v-2.7l3.2-1v3.7h3.6V36.5L150.1,36.5
		L150.1,36.5z M164.5,47c-1.4,1.5-3.2,2.3-5.4,2.3s-3.9-0.7-5.2-2.2c-1.3-1.4-1.9-3.3-1.9-5.5c0-2.2,0.7-4.2,2-5.7
		c1.3-1.5,3.1-2.2,5.4-2.2c2.3,0,3.9,0.7,5.3,2.2c1.3,1.4,1.9,3.2,1.9,5.4l0,0C166.5,43.7,165.8,45.5,164.5,47z M168.6,15.4h1.1
		v-1.3l1.6-0.5v1.8h1.8v1.2h-1.8v3.5c0,0.9,0.3,1.4,0.9,1.4c0.3,0,0.5,0,0.7-0.1l0,1.2c-0.3,0.1-0.7,0.2-1.3,0.2c-1.3,0-2-0.7-2-2.6
		v-3.7h-1.1V15.4z M177.2,37L177.2,37L177.2,37c-0.3-0.1-0.7-0.1-1-0.1c-1.2,0-2.1,0.4-2.7,1.3c-0.5,0.8-0.8,1.8-0.8,2.9v7.8h-3.3
		V38.7c0-1.6,0-3.1-0.1-4.7h2.9l0.1,2.8h0.1c0.3-1,0.9-1.8,1.6-2.4c0.7-0.5,1.5-0.8,2.4-0.8c0.3,0,0.6,0,0.8,0.1L177.2,37
		C177.2,37,177.2,37,177.2,37L177.2,37z M176.9,18.3v4.4h-1.6V12.1h1.6v4.4h0c0.5-0.8,1.2-1.2,2.2-1.2c1.5,0,2.5,1.2,2.5,3.1v4.3
		H180v-4.2c0-1.3-0.5-2-1.5-2C177.7,16.6,176.9,17.2,176.9,18.3z M191.8,42.3h-9.9c0,1.5,0.5,2.6,1.4,3.4c0.8,0.7,1.9,1,3.2,1
		c1.5,0,2.8-0.2,4-0.7l0.5,2.3c-1.4,0.6-3.1,0.9-5,0.9c-2.3,0-4.1-0.7-5.4-2c-1.3-1.4-2-3.2-2-5.5c0-2.3,0.6-4.1,1.8-5.6
		c1.3-1.6,3-2.4,5.2-2.4s3.8,0.8,4.9,2.4c0.9,1.3,1.3,2.8,1.3,4.7C192,41.3,191.9,41.8,191.8,42.3z"/>
	<path class="st0" d="M159.2,36.2c-1.3,0-2.3,0.6-3,1.8c-0.6,1-0.9,2.2-0.9,3.6c0,1.4,0.3,2.5,0.9,3.5c0.7,1.2,1.7,1.8,3,1.8
		c1.3,0,2.2-0.6,3-1.8c0.6-1,0.9-2.2,0.9-3.5h0c0-1.4-0.3-2.5-0.9-3.5C161.5,36.8,160.5,36.2,159.2,36.2z"/>
	<path class="st0" d="M188.2,37.4c-0.6-0.9-1.5-1.4-2.6-1.4c-1.1,0-2,0.4-2.6,1.3c-0.5,0.7-0.9,1.6-1,2.6h6.9
		C188.8,39,188.6,38.1,188.2,37.4z"/>
</g>
</svg>
