<?xml version="1.0" encoding="utf-8"?>
<!-- Generator: Adobe Illustrator 26.0.1, SVG Export Plug-In . SVG Version: 6.00 Build 0)  -->
<svg version="1.1" id="圖層_1" xmlns="http://www.w3.org/2000/svg" xmlns:xlink="http://www.w3.org/1999/xlink" x="0px" y="0px"
	 viewBox="0 0 160 64" style="enable-background:new 0 0 160 64;" xml:space="preserve">
<path d="M152.1,64H8.4c-2.1,0-4.1-0.8-5.6-2.3c-1.5-1.5-2.3-3.5-2.3-5.5V7.8c0-2.1,0.8-4.1,2.3-5.5C4.3,0.8,6.3,0,8.4,0h143.8
	c2.1,0,4.1,0.8,5.6,2.3c1.5,1.5,2.3,3.5,2.3,5.5v48.3c0,2.1-0.8,4.1-2.3,5.5C156.2,63.2,154.2,64,152.1,64z M8.4,0.7
	c-1.9,0-3.7,0.8-5.1,2.1s-2.1,3.2-2.1,5v48.3c0,1.9,0.8,3.7,2.1,5c1.3,1.3,3.2,2.1,5.1,2.1h143.8c0.9,0,1.9-0.2,2.7-0.5
	c0.9-0.4,1.7-0.9,2.3-1.6c0.7-0.7,1.2-1.4,1.6-2.3c0.4-0.9,0.5-1.8,0.5-2.7V7.8c0-1.9-0.8-3.7-2.1-5c-1.3-1.3-3.2-2.1-5.1-2.1H8.4z"
	/>
<path d="M52.8,31.9l3.9-5.7c0.1-0.2,0.2-0.4,0.3-0.6c0-0.2,0-0.4,0-0.7c0-0.2-0.1-0.4-0.2-0.6c-0.1-0.2-0.3-0.3-0.5-0.5
	c-0.4-0.3-0.8-0.3-1.3-0.3c-0.4,0.1-0.8,0.3-1.1,0.7l-4.2,6.2c-4.9-1.7-10.2-1.7-15.1,0l-4.2-6.2c-0.3-0.4-0.6-0.6-1.1-0.7
	s-0.9,0-1.3,0.3c-0.2,0.1-0.3,0.3-0.5,0.5c-0.1,0.2-0.2,0.4-0.2,0.6c0,0.2,0,0.4,0,0.7c0,0.2,0.1,0.4,0.3,0.6l3.9,5.7
	c-5.4,2.9-9.2,7.9-9.7,13.7h40.7C61.9,39.8,58.2,34.8,52.8,31.9z M33.5,40c-0.4,0-0.9-0.1-1.3-0.4c-0.4-0.2-0.7-0.6-0.8-1
	c-0.2-0.4-0.2-0.9-0.1-1.3c0.1-0.4,0.3-0.8,0.6-1.2c0.3-0.3,0.7-0.5,1.2-0.6c0.4-0.1,0.9,0,1.3,0.1c0.4,0.2,0.8,0.5,1,0.8
	c0.2,0.4,0.4,0.8,0.4,1.3c0,0.3-0.1,0.6-0.2,0.9c-0.1,0.3-0.3,0.5-0.5,0.7c-0.2,0.2-0.5,0.4-0.7,0.5C34.1,39.9,33.8,40,33.5,40z
	 M51,40c-0.4,0-0.9-0.1-1.3-0.4c-0.4-0.2-0.7-0.6-0.8-1c-0.2-0.4-0.2-0.9-0.1-1.3c0.1-0.4,0.3-0.8,0.6-1.2c0.3-0.3,0.7-0.5,1.2-0.6
	c0.4-0.1,0.9,0,1.3,0.1c0.4,0.2,0.8,0.5,1,0.8c0.2,0.4,0.4,0.8,0.4,1.3c0,0.3-0.1,0.6-0.2,0.9c-0.1,0.3-0.3,0.5-0.5,0.7
	c-0.2,0.2-0.5,0.4-0.7,0.5C51.5,39.9,51.3,40,51,40z"/>
<path d="M78.4,41.8l-2.5,5.8h-3.6l8.5-20.1h4.4l8.9,20.1h-3.8l-2.5-5.8H78.4z M87,39.3c-2.2-5.1-3.4-7.9-4-9.5h0
	c-0.6,1.8-2,5.1-3.8,9.5H87z"/>
<path d="M97.9,27.5h9.3c4.8,0,8.1,2.2,8.1,5.9s-3.5,6.1-8.2,6.1h-5.5v8.1h-3.6V27.5z M101.5,37h5.3c3.1,0,4.8-1.2,4.8-3.5
	s-2-3.5-4.7-3.5h-5.4V37z"/>
<path d="M119.6,27.5h3.5v9.7c1.8-1.5,7.7-6.5,11.3-9.7h4.4l-10.3,8.4l10.7,11.6h-4.3l-8.9-9.7l-3,2.3v7.4h-3.5V27.5z"/>
<path d="M72.9,11.8h3.8c2.9,0,4.8,1.9,4.8,4.8c0,2.9-1.8,5.1-4.8,5.1h-3.8V11.8z M74.8,20.2h1.8c2.1,0,3-1.5,3-3.5
	c0-2.1-0.9-3.4-3-3.4h-1.8V20.2z"/>
<path d="M89.8,18.1c0,2.2-1.3,3.9-3.6,3.9s-3.6-1.6-3.6-3.8c0-2.2,1.4-3.9,3.7-3.9S89.8,15.7,89.8,18.1z M84.5,18.1
	c0,1.5,0.7,2.4,1.8,2.4s1.7-0.9,1.7-2.4c0-1.5-0.6-2.5-1.8-2.5S84.5,16.5,84.5,18.1z"/>
<path d="M92.4,14.4c0.7,3.1,1.2,4.9,1.3,5.8h0c0.1-0.8,0.5-2.2,1.4-5.8h1.7c0.9,3.8,1.2,4.9,1.3,5.7h0c0.2-0.8,0.4-1.9,1.4-5.7h1.8
	l-2.2,7.4h-1.9c-0.6-2.8-1.1-4.6-1.3-5.5c-0.1,0.9-0.6,2.7-1.3,5.5h-1.9l-2.1-7.4H92.4z"/>
<path d="M102.3,14.4h1.7c0,0.3,0.1,0.7,0.1,1c0.3-0.5,0.9-1.2,2.2-1.2c1.4,0,2.4,1,2.4,2.8v4.7H107v-4.5c0-0.9-0.3-1.6-1.3-1.6
	c-1,0-1.6,0.7-1.6,2.1v4.1h-1.8V14.4z"/>
<path d="M110.7,21.8V11.3h1.8v10.5H110.7z"/>
<path d="M121.2,18.1c0,2.2-1.3,3.9-3.6,3.9c-2.3,0-3.6-1.6-3.6-3.8c0-2.2,1.4-3.9,3.7-3.9C120,14.2,121.2,15.7,121.2,18.1z
	 M115.8,18.1c0,1.5,0.7,2.4,1.8,2.4s1.7-0.9,1.7-2.4c0-1.5-0.6-2.5-1.8-2.5C116.4,15.6,115.8,16.5,115.8,18.1z"/>
<path d="M128.6,20c0,0.6,0,1.2,0.1,1.8H127c-0.1-0.3-0.1-0.5-0.1-0.8c-0.3,0.4-0.8,1-2.1,1c-1.8,0-2.5-1.1-2.5-2.3
	c0-1.7,1.3-2.4,3.5-2.4h1.1v-0.5c0-0.6-0.2-1.2-1.3-1.2c-1.1,0-1.2,0.5-1.3,1h-1.7c0.1-1.2,0.9-2.3,3.1-2.3c2.2,0,3,0.8,3,2.5V20z
	 M126.8,18.3h-1c-1.3,0-1.9,0.4-1.9,1.2c0,0.8,0.4,1.1,1.2,1.1c1.4,0,1.6-1,1.6-2.1V18.3z"/>
<path d="M137.1,11.3v10.5h-1.7c0-0.2-0.1-0.7-0.1-0.9c-0.3,0.7-1,1-2.2,1c-1.9,0-3.1-1.5-3.1-3.8c0-2.3,1.3-3.9,3.4-3.9
	c1.1,0,1.7,0.4,1.9,0.8v-3.8H137.1z M131.9,18.1c0,1.6,0.7,2.4,1.7,2.4c1.5,0,1.7-1.2,1.7-2.5c0-1.3-0.2-2.4-1.7-2.4
	C132.2,15.7,131.9,16.6,131.9,18.1z"/>
</svg>
