<?xml version="1.0" encoding="utf-8"?>
<!-- Generator: Adobe Illustrator 26.0.1, SVG Export Plug-In . SVG Version: 6.00 Build 0)  -->
<svg version="1.1" id="圖層_1" xmlns="http://www.w3.org/2000/svg" xmlns:xlink="http://www.w3.org/1999/xlink" x="0px" y="0px"
	 viewBox="0 0 215 64" style="enable-background:new 0 0 215 64;" xml:space="preserve">
<path d="M207.1,64H7.9C3.5,64,0,60.5,0,56.2V7.8C0,3.5,3.5,0,7.9,0h199.3c4.3,0,7.9,3.5,7.9,7.8v48.3c0,2.1-0.8,4-2.3,5.5
	C211.2,63.2,209.2,64,207.1,64z M7.9,0.7c-3.9,0-7.2,3.2-7.2,7.1v48.3c0,3.9,3.2,7.1,7.2,7.1h199.3c1.9,0,3.7-0.7,5.1-2.1
	c1.4-1.3,2.1-3.1,2.1-5V7.8c0-3.9-3.2-7.1-7.2-7.1H7.9z"/>
<path d="M49.5,32.6c0-5,4.1-7.4,4.3-7.5c-2.3-3.4-6-3.9-7.2-3.9c-3-0.3-6,1.8-7.5,1.8c-1.6,0-4-1.8-6.5-1.7c-3.3,0.1-6.4,2-8.1,4.9
	c-3.5,6.1-0.9,15,2.5,19.9c1.7,2.4,3.6,5.1,6.2,5c2.5-0.1,3.5-1.6,6.5-1.6c3,0,3.9,1.6,6.5,1.5c2.7,0,4.4-2.4,6-4.8
	c1.9-2.8,2.7-5.5,2.8-5.6C54.8,40.5,49.6,38.5,49.5,32.6L49.5,32.6z M44.6,17.9c1.4-1.7,2.3-4,2-6.3c-2,0.1-4.4,1.4-5.8,3
	c-1.2,1.5-2.4,3.8-2.1,6.1C40.9,20.8,43.2,19.6,44.6,17.9L44.6,17.9z"/>
<path d="M86,48.9h-3.5l-1.9-6.1h-6.7L72,48.9h-3.4l6.6-20.6h4.1L86,48.9z M79.9,40.3L78.2,35c-0.2-0.5-0.5-1.8-1-3.9h-0.1
	c-0.2,0.9-0.5,2.2-1,3.9l-1.7,5.4H79.9z M103,41.3c0,2.5-0.7,4.5-2.1,6c-1.2,1.3-2.8,2-4.6,2c-2,0-3.4-0.7-4.2-2.1V55h-3.3V39
	c0-1.6,0-3.2-0.1-4.9h2.9l0.2,2.4h0.1c1.1-1.8,2.8-2.7,5-2.7c1.8,0,3.2,0.7,4.4,2.1C102.4,37.2,103,39.1,103,41.3L103,41.3z
	 M99.6,41.4c0-1.4-0.3-2.6-1-3.6c-0.7-1-1.7-1.5-2.9-1.5c-0.8,0-1.6,0.3-2.2,0.8c-0.7,0.5-1.1,1.2-1.3,2.1c-0.1,0.3-0.1,0.7-0.2,1
	v2.5c0,1.1,0.3,2,1,2.7c0.7,0.7,1.5,1.1,2.6,1.1c1.2,0,2.2-0.5,2.9-1.4C99.3,44.3,99.6,43,99.6,41.4z M120.1,41.3
	c0,2.5-0.7,4.5-2.1,6c-1.2,1.3-2.8,2-4.6,2c-2,0-3.4-0.7-4.2-2.1V55h-3.3V39c0-1.6,0-3.2-0.1-4.9h2.9l0.2,2.4h0.1
	c1.1-1.8,2.8-2.7,5-2.7c1.8,0,3.2,0.7,4.4,2.1C119.5,37.2,120.1,39.1,120.1,41.3L120.1,41.3z M116.7,41.4c0-1.4-0.3-2.6-1-3.6
	c-0.7-1-1.7-1.5-2.9-1.5c-0.8,0-1.6,0.3-2.2,0.8c-0.7,0.5-1.1,1.2-1.3,2.1c-0.1,0.4-0.2,0.7-0.2,1v2.5c0,1.1,0.3,2,1,2.7
	c0.7,0.7,1.5,1.1,2.6,1.1c1.2,0,2.2-0.5,2.9-1.4C116.4,44.3,116.7,43,116.7,41.4L116.7,41.4z M139.2,43.1c0,1.8-0.6,3.2-1.8,4.3
	c-1.3,1.2-3.2,1.8-5.6,1.8c-2.2,0-4-0.4-5.3-1.3l0.8-2.8c1.4,0.9,3,1.3,4.8,1.3c1.2,0,2.2-0.3,2.9-0.8c0.7-0.6,1-1.3,1-2.2
	c0-0.8-0.3-1.5-0.9-2.1c-0.6-0.6-1.5-1.1-2.8-1.6c-3.6-1.3-5.4-3.3-5.4-5.9c0-1.7,0.6-3.1,1.9-4.2c1.3-1.1,3-1.6,5.1-1.6
	c1.9,0,3.4,0.3,4.7,1l-0.8,2.7c-1.2-0.6-2.5-0.9-4-0.9c-1.2,0-2.1,0.3-2.7,0.9c-0.5,0.5-0.8,1.1-0.8,1.9c0,0.8,0.3,1.5,0.9,2
	c0.5,0.5,1.5,1,3,1.6c1.8,0.7,3.1,1.5,3.9,2.5C138.7,40.5,139.2,41.7,139.2,43.1L139.2,43.1z M150.1,36.5h-3.6v7.2
	c0,1.8,0.6,2.7,1.9,2.7c0.6,0,1.1,0,1.5-0.2l0.1,2.5c-0.6,0.2-1.5,0.4-2.6,0.4c-1.3,0-2.3-0.4-3.1-1.2c-0.7-0.8-1.1-2.1-1.1-4v-7.5
	H141v-2.5h2.2v-2.7l3.2-1v3.7h3.6L150.1,36.5L150.1,36.5z M166.5,41.4c0,2.3-0.7,4.2-2,5.6c-1.4,1.5-3.2,2.3-5.4,2.3
	s-3.9-0.7-5.2-2.2c-1.3-1.4-1.9-3.3-1.9-5.5c0-2.2,0.7-4.2,2-5.7c1.3-1.5,3.1-2.2,5.4-2.2c2.3,0,3.9,0.7,5.3,2.2
	C165.8,37.3,166.5,39.2,166.5,41.4L166.5,41.4z M163,41.5c0-1.4-0.3-2.5-0.9-3.5c-0.7-1.2-1.7-1.8-3-1.8c-1.3,0-2.3,0.6-3,1.8
	c-0.6,1-0.9,2.2-0.9,3.6c0,1.4,0.3,2.5,0.9,3.5c0.7,1.2,1.7,1.8,3,1.8c1.3,0,2.2-0.6,3-1.8C162.7,44,163,42.8,163,41.5L163,41.5z
	 M177.2,37c-0.3-0.1-0.7-0.1-1-0.1c-1.2,0-2.1,0.4-2.7,1.3c-0.5,0.8-0.8,1.8-0.8,2.9v7.8h-3.3V38.8c0-1.6,0-3.1-0.1-4.7h2.9l0.1,2.8
	h0.1c0.3-1,0.9-1.8,1.6-2.4c0.7-0.5,1.5-0.8,2.4-0.8c0.3,0,0.6,0,0.8,0.1L177.2,37L177.2,37L177.2,37z M191.9,40.8
	c0,0.5,0,1-0.1,1.5h-9.9c0,1.5,0.5,2.6,1.4,3.4c0.8,0.7,1.9,1,3.2,1c1.5,0,2.8-0.2,4-0.7l0.5,2.3c-1.4,0.6-3.1,0.9-5,0.9
	c-2.3,0-4.1-0.7-5.4-2c-1.3-1.4-2-3.2-2-5.5c0-2.3,0.6-4.1,1.8-5.6c1.3-1.6,3-2.4,5.2-2.4s3.8,0.8,4.9,2.4
	C191.5,37.4,191.9,38.9,191.9,40.8z M188.8,39.9c0-1-0.2-1.8-0.6-2.5c-0.6-0.9-1.4-1.4-2.6-1.4c-1.1,0-2,0.4-2.6,1.3
	c-0.5,0.7-0.9,1.6-1,2.6L188.8,39.9L188.8,39.9z"/>
<path d="M72.9,22.8c-0.9,0-1.7,0-2.4-0.1v-10c0.9-0.1,1.9-0.2,2.8-0.2c3.8,0,5.5,1.9,5.5,4.9C78.8,20.9,76.8,22.8,72.9,22.8z
	 M73.4,13.8c-0.5,0-0.9,0-1.3,0.1v7.6c0.2,0,0.6,0,1.1,0c2.5,0,3.9-1.4,3.9-4.1C77.1,15.1,75.8,13.8,73.4,13.8L73.4,13.8z
	 M84.3,22.9c-2.1,0-3.5-1.6-3.5-3.8s1.4-3.9,3.6-3.9c2.1,0,3.5,1.5,3.5,3.7C87.9,21.3,86.4,22.9,84.3,22.9z M84.3,16.5
	c-1.2,0-1.9,1.1-1.9,2.6s0.8,2.6,1.9,2.6c1.1,0,1.9-1.2,1.9-2.6S85.5,16.5,84.3,16.5L84.3,16.5z M100,15.4l-2.3,7.3h-1.5l-0.9-3.2
	c-0.2-0.8-0.4-1.6-0.6-2.4h0c-0.1,0.8-0.3,1.6-0.6,2.4l-1,3.2h-1.5l-2.1-7.3h1.7l0.8,3.5c0.2,0.8,0.4,1.6,0.5,2.3h0
	c0.1-0.6,0.3-1.4,0.6-2.3l1-3.5h1.3l1,3.4c0.2,0.8,0.4,1.6,0.6,2.4h0c0.1-0.8,0.3-1.5,0.5-2.4l0.9-3.4L100,15.4L100,15.4z
	 M108.5,22.7h-1.6v-4.2c0-1.3-0.5-1.9-1.5-1.9c-1,0-1.6,0.8-1.6,1.8v4.3h-1.6v-5.2c0-0.6,0-1.3-0.1-2.1h1.4l0.1,1.1h0
	c0.4-0.8,1.3-1.3,2.3-1.3c1.5,0,2.5,1.2,2.5,3.1V22.7z M112.9,22.7h-1.6V12.1h1.6V22.7z M118.8,22.9c-2.1,0-3.5-1.6-3.5-3.8
	s1.4-3.9,3.6-3.9c2.1,0,3.5,1.5,3.5,3.7C122.5,21.3,121,22.9,118.8,22.9z M118.9,16.5c-1.2,0-1.9,1.1-1.9,2.6c0,1.5,0.8,2.6,1.9,2.6
	c1.1,0,1.9-1.2,1.9-2.6C120.8,17.6,120,16.5,118.9,16.5z M128.9,22.7l-0.1-0.8h0c-0.5,0.7-1.2,1-2.1,1c-1.3,0-2.2-0.9-2.2-2.1
	c0-1.8,1.6-2.7,4.3-2.7v-0.1c0-1-0.5-1.4-1.5-1.4c-0.7,0-1.4,0.2-1.9,0.5l-0.3-1.1c0.7-0.4,1.5-0.6,2.5-0.6c1.9,0,2.9,1,2.9,3V21
	c0,0.7,0,1.3,0.1,1.7L128.9,22.7L128.9,22.7z M128.6,19.1c-1.8,0-2.7,0.4-2.7,1.5c0,0.8,0.5,1.1,1.1,1.1c0.8,0,1.6-0.6,1.6-1.5V19.1
	z M138.1,22.7l-0.1-1.2h0c-0.5,0.9-1.2,1.3-2.3,1.3c-1.8,0-3.1-1.5-3.1-3.7c0-2.2,1.3-3.9,3.2-3.9c1,0,1.7,0.3,2.1,1h0v-4.2h1.6v8.7
	c0,0.7,0,1.4,0.1,2L138.1,22.7L138.1,22.7z M137.9,18.4c0-1-0.7-1.9-1.7-1.9c-1.2,0-1.9,1.1-1.9,2.6c0,1.5,0.8,2.5,1.9,2.5
	c1,0,1.7-0.9,1.7-1.9V18.4L137.9,18.4z M149.8,22.9c-2.1,0-3.5-1.6-3.5-3.8s1.4-3.9,3.6-3.9c2.1,0,3.5,1.5,3.5,3.7
	C153.4,21.3,152,22.9,149.8,22.9z M149.8,16.5c-1.2,0-1.9,1.1-1.9,2.6c0,1.5,0.8,2.6,1.9,2.6c1.1,0,1.9-1.2,1.9-2.6
	C151.7,17.6,151,16.5,149.8,16.5z M162.1,22.7h-1.6v-4.2c0-1.3-0.5-1.9-1.5-1.9c-1,0-1.6,0.8-1.6,1.8v4.3h-1.6v-5.2
	c0-0.6,0-1.3-0.1-2.1h1.4l0.1,1.1h0c0.4-0.8,1.3-1.3,2.3-1.3c1.5,0,2.5,1.2,2.5,3.1L162.1,22.7L162.1,22.7z M173,16.7h-1.8v3.5
	c0,0.9,0.3,1.4,0.9,1.4c0.3,0,0.5,0,0.7-0.1l0,1.2c-0.3,0.1-0.7,0.2-1.3,0.2c-1.3,0-2-0.7-2-2.6v-3.7h-1.1v-1.2h1.1v-1.3l1.6-0.5
	v1.8h1.8V16.7L173,16.7z M181.6,22.7H180v-4.2c0-1.3-0.5-2-1.5-2c-0.8,0-1.6,0.6-1.6,1.7v4.4h-1.6V12.1h1.6v4.4h0
	c0.5-0.8,1.2-1.2,2.2-1.2c1.5,0,2.5,1.2,2.5,3.1V22.7z M190.4,19.5h-4.9c0,1.4,0.9,2.2,2.3,2.2c0.7,0,1.4-0.1,2-0.3l0.3,1.1
	c-0.7,0.3-1.5,0.4-2.4,0.4c-2.3,0-3.6-1.4-3.6-3.7s1.4-3.9,3.5-3.9c1.9,0,3,1.4,3,3.5C190.5,19,190.5,19.2,190.4,19.5L190.4,19.5z
	 M188.9,18.3c0-1.1-0.6-1.9-1.6-1.9c-0.9,0-1.7,0.8-1.8,1.9H188.9z"/>
</svg>
