<?xml version="1.0" encoding="utf-8"?>
<!-- Generator: Adobe Illustrator 26.0.1, SVG Export Plug-In . SVG Version: 6.00 Build 0)  -->
<svg version="1.1" id="a3f9c838-da85-49b1-a0c1-0d3f46e5b99f"
	 xmlns="http://www.w3.org/2000/svg" xmlns:xlink="http://www.w3.org/1999/xlink" x="0px" y="0px" viewBox="0 0 512 512"
	 style="enable-background:new 0 0 512 512;" xml:space="preserve">
<style type="text/css">
	.st0{fill:url(#SVGID_1_);}
	.st1{fill:#214C26;}
	.st2{fill:#65A27B;}
	.st3{fill:#A3C878;}
</style>
<g>
	<radialGradient id="SVGID_1_" cx="256" cy="256" r="207" gradientUnits="userSpaceOnUse">
		<stop  offset="0.6773" style="stop-color:#F0F0EA"/>
		<stop  offset="1" style="stop-color:#DDD9D1"/>
	</radialGradient>
	<path class="st0" d="M463,138.7v234.6c0.1,49.4-39.9,89.6-89.3,89.7c-0.1,0-0.2,0-0.4,0H138.7c-49.4,0.1-89.6-39.9-89.7-89.3
		c0-0.1,0-0.2,0-0.4V138.7C48.9,89.3,88.9,49.1,138.3,49c0.1,0,0.2,0,0.4,0h234.6c49.4-0.1,89.6,39.9,89.7,89.3
		C463,138.5,463,138.6,463,138.7z"/>
	<g>
		<path class="st1" d="M212.7,97.7c4.2-3.4,10.5-5.8,14.8-2.6c3.2,2.4,4,6.9,3.9,10.9c-0.7,17.2-11.9,33.3-27,40.9
			c-0.7,0.3-1.4,0.7-2.2,0.5c-1.2-0.3-1.8-1.7-2.1-2.9C196.3,127.9,198.9,108.6,212.7,97.7z"/>
		<path class="st2" d="M329.3,122.4c5.8-0.8,10.2-3,16.2-1.2c4.8,1.4,9.4,4.8,9,10.3c-0.6,7.1-7.8,13.5-12.4,18.3
			c-4.2,4.3-9,8.2-14,11.5c-7.5,5.1-15.4,9-23.7,12.6c-5.8,2.5-11.9,4.6-18.2,5.4c-2.4,0.3-4.8,0.7-7.1,1c-3.7,0.5-7.5,0.8-11.2,0.6
			c-1.4-0.1-3.3,0.2-4.1-1.2c-0.7-1.2-0.3-2.8,0.1-4.1c0.4-1.5,1.1-2.9,1.9-4.3c7.1-13,15.3-24.2,27.2-33.1
			c6.1-4.6,13.5-7.8,20.5-10.9C318.4,125.1,323.8,123.2,329.3,122.4z"/>
		<path class="st3" d="M356.9,215.2c21.2-2.3,42.5,1.7,58.6,15.9c15.9,14,5.2,25.7-11.4,30.5c-35.6,10.4-68.5-1-97-22.6
			c-1.6-1.2-3.4-3.2-2.5-5c0.4-0.8,1.1-1.2,1.8-1.7C320.9,223.6,338.8,217.1,356.9,215.2z"/>
		<path class="st2" d="M315.4,335.7c-8.7-9.8-23.3-9.1-31.4-4.5c-12.5,7-49.9,17.6-70.1-7c-10.6-12.9-0.9-30.9,6.1-39.5c0,0,0,0,0,0
			c9.5-10,15.8-23.1,17.2-37.8c3.3-35-22.4-66.1-57.4-69.4c-19.2-1.8-37.2,5.1-50.1,17.4l0,0c0,0-38.7,34.6-40.9,89.6
			c-2.2,55.2,18.7,78.1,26.8,88s36.1,41.8,81.1,46.2c45.6,4.5,65.8-3.7,81.4-13.1c16.4-9.9,30.6-24.5,38.4-36.8
			C324.4,356.4,324.1,345.5,315.4,335.7z"/>
	</g>
</g>
</svg>
