<svg xmlns="http://www.w3.org/2000/svg" xmlns:xlink="http://www.w3.org/1999/xlink" viewBox="0 0 512 512"><defs><style>.ebc24ad6-71bf-4618-9406-4612bb0f75bb{fill:none;}.e3a6e190-6aef-4f7b-a782-4887815efabf{fill:url(#b896c31a-7466-4c59-a8ae-77ac1a6a1012);}.eeb1e205-3913-4e61-9ec5-51d8aff335de{fill:#30a851;}.a2bd9276-604f-46f1-ab98-224b6efeee10{fill:#fff;}</style><linearGradient id="b896c31a-7466-4c59-a8ae-77ac1a6a1012" x1="257" y1="467.5" x2="257" y2="42.5" gradientUnits="userSpaceOnUse"><stop offset="0" stop-color="#ff645e"/><stop offset="1" stop-color="#ee3f38"/></linearGradient></defs><g id="f0fb7cec-8719-4684-9b6e-953fe71bc722" data-name="tvSOGA"><rect class="ebc24ad6-71bf-4618-9406-4612bb0f75bb" width="512" height="512"/><rect class="ebc24ad6-71bf-4618-9406-4612bb0f75bb" width="512" height="512"/><g id="a14fe613-8761-4435-aef0-f42953a5305e" data-name="Icon"><rect class="e3a6e190-6aef-4f7b-a782-4887815efabf" x="44.5" y="42.5" width="425" height="425" rx="94.9"/></g><circle class="eeb1e205-3913-4e61-9ec5-51d8aff335de" cx="115.8" cy="288.7" r="5.8"/><path class="a2bd9276-604f-46f1-ab98-224b6efeee10" d="M78.2,264.6l-8.4,4-1,4.3H65.7l-.7,6h2.6l-1.5,7.7a14.5,14.5,0,0,0,0,5.2,4.8,4.8,0,0,0,1.9,2.5,10,10,0,0,0,4.5.7,30.9,30.9,0,0,0,5.8-.6l1.6-6.1a35.3,35.3,0,0,1-4.1.9,1.5,1.5,0,0,1-1.4-.7,4.6,4.6,0,0,1,.1-2.3l1.9-7.3H81l1.4-6H77.1Z"/><polygon class="a2bd9276-604f-46f1-ab98-224b6efeee10" points="94.7 286.6 93.3 272.9 84.6 272.9 89.9 294.6 97.3 294.6 109.2 272.9 100.8 272.9 94.7 286.6"/><path class="a2bd9276-604f-46f1-ab98-224b6efeee10" d="M411.4,212.4H390.2l-14.7,38-.7-.3a12.4,12.4,0,0,0-5-1H337.2l-4.4,14.8s30.8-.1,32.8,1.1a6.1,6.1,0,0,1,1.7,6.6c-1.3,3.2-2.6,7.2-4.1,10.4s-5.7,2.9-6.6,2.9H323s-13.8,0-17.5-14.3-1-28,1.6-31.7,6.4-10.6,15.9-11.7,43.4,0,43.4,0l6.4-14.8s-53.5-.5-58.8,0-15.3,3.9-20.9,11.5c-8.7-11.5-28.2-14.2-40.5-14.2-15,0-35.7,5.3-43.9,24.9-1.8,4.4-2.1,10.4-1.7,16.6a23.5,23.5,0,0,0-12.8-3.9H161.5c-8.4,0-13.2-4.8-13.2-10.8s4.8-10.4,13.2-10.4h37.8c.8-5.6,4.6-10.6,10-13.7h-63c-13.4,0-24.2,11.1-24.2,24.9a24.2,24.2,0,0,0,2.1,10,23.9,23.9,0,0,0,21.5,14.8h33.9c8.1.2,12.6,4.3,12.6,10.3s-4.7,11.2-13.2,11.2H131.3c-.1,6.3-3.9,11.8-9.7,15.3h72.6a23.8,23.8,0,0,0,20.7-12.4c5.1,8,17.6,13.8,37.7,13.8s33.9-5.4,39.9-13a14.3,14.3,0,0,0,4.6,5.6c9.2,6,17.4,5.8,17.4,5.8h53.2a12.1,12.1,0,0,0,10.9-7l1.7-4,17.3-42.3,4.8-12.9,6.3,16.5h-8.8l-5.4,15.1H413l14.8,34.6H449ZM275.9,275.9c-4.7,7.7-13.7,9-22.2,9s-15.9-.8-20.7-7.4-5.3-17.5-5.3-25.4c0-17.4,11.6-27,26-27s25.9,9.6,25.9,27C279.6,259.1,279.1,270.7,275.9,275.9Z"/><path class="a2bd9276-604f-46f1-ab98-224b6efeee10" d="M379.3,326h-1.5v4h1.5c1.7,0,2.6-.8,2.6-2.2S381,326,379.3,326Z"/><path class="a2bd9276-604f-46f1-ab98-224b6efeee10" d="M365.6,326h-1.5v4.3h1.6c1.7,0,2.5-.9,2.5-2.3S367.3,326,365.6,326Z"/><path class="a2bd9276-604f-46f1-ab98-224b6efeee10" d="M394.3,326c-1.9,0-3.1,1.6-3.1,4.5s1.2,4.7,3.1,4.7,3.2-1.8,3.2-4.7S396.3,326,394.3,326Z"/><path class="a2bd9276-604f-46f1-ab98-224b6efeee10" d="M436.6,312H360.9A13.9,13.9,0,0,0,347,325.9v9.4a14,14,0,0,0,13.9,13.9h75.7a14,14,0,0,0,14-13.9v-9.4A14,14,0,0,0,436.6,312Zm-70.7,21.1h-1.8V338h-3.5V323.2h5.2c3.2,0,5.9,1.1,5.9,4.8S369,333.1,365.9,333.1Zm16.3,4.9-2.7-5.2h-1.7V338h-3.6V323.2h5.4c3.2,0,5.8,1.1,5.8,4.6a4.4,4.4,0,0,1-2.5,4.3l3.2,5.9Zm12.1.2c-4,0-6.7-2.9-6.7-7.7s2.7-7.6,6.7-7.6,6.8,2.8,6.8,7.6S398.4,338.2,394.3,338.2Zm18,0a7.1,7.1,0,0,1-5.1-2l1.6-2.2a4.3,4.3,0,0,0,3,1.4,2.1,2.1,0,0,0,2.3-2.3,2.1,2.1,0,0,0-2.1-2.3,3.5,3.5,0,0,0-2.1.7l-1.6-1,.4-7.3H417v2.9h-5.3l-.2,2.5a4.5,4.5,0,0,1,1.6-.3,4.3,4.3,0,0,1,4.6,4.7A5.1,5.1,0,0,1,412.3,338.2Zm9.9,0a2.1,2.1,0,0,1-2.1-2.2,2.1,2.1,0,1,1,4.2,0A2.1,2.1,0,0,1,422.2,338.2Zm9.5,0c-3.1,0-5.2-2.6-5.2-7.7s2.1-7.6,5.2-7.6,5.3,2.6,5.3,7.6S434.8,338.2,431.7,338.2Z"/><path class="a2bd9276-604f-46f1-ab98-224b6efeee10" d="M431.7,325.6c-1,0-1.9.9-1.9,4.9s.9,5,1.9,5,1.9-1,1.9-5S432.8,325.6,431.7,325.6Z"/></g></svg>