<svg width="60" height="28" viewBox="0 0 60 28" fill="none" xmlns="http://www.w3.org/2000/svg">
<path d="M46.9441 8.35155H44.0985L42.1072 13.3892L42.0116 13.348C41.7978 13.2595 41.5683 13.2141 41.3365 13.2144H36.9556L36.3582 15.1784C36.3582 15.1784 40.5002 15.1784 40.765 15.3277C40.8902 15.4334 40.979 15.5747 41.0193 15.7323C41.0597 15.8899 41.0494 16.0559 40.99 16.2075C40.8148 16.6337 40.6495 17.1561 40.4424 17.5823C40.2791 17.9221 39.6798 17.9633 39.5503 17.9633H35.042C34.4942 17.9448 33.9677 17.7493 33.5435 17.4069C33.1193 17.0645 32.8209 16.5941 32.6942 16.0681C32.1964 14.1728 32.5509 12.3483 32.9073 11.8573C33.2638 11.3663 33.7616 10.453 35.042 10.3136C36.3224 10.1741 40.8765 10.3136 40.8765 10.3136L41.7308 8.34958C41.7308 8.34958 34.5442 8.28084 33.8313 8.34958C33.1562 8.41636 31.7762 8.86415 31.0295 9.86971C29.8486 8.35351 27.2301 8 25.5753 8C23.5661 8 20.7762 8.69918 19.677 11.2975C19.4341 11.873 19.3923 12.6723 19.452 13.4972C18.9439 13.1605 18.3457 12.9806 17.7335 12.9807H13.3387C12.1997 12.9807 11.5605 12.3404 11.5605 11.5509C11.5605 10.7614 12.1997 10.1761 13.3387 10.1761C13.5378 10.1761 14.2069 10.1761 14.2069 10.1761H18.9701L19.7667 8.35155H11.3195C10.4442 8.36345 9.6095 8.71772 8.99896 9.33646C8.38842 9.9552 8.05201 10.7877 8.06371 11.6511C8.06317 12.1097 8.15806 12.5636 8.3425 12.9846C8.58365 13.55 8.98392 14.0354 9.49596 14.3834C10.008 14.7314 10.6104 14.9276 11.2319 14.9486H15.788C16.8793 14.9722 17.4926 15.5064 17.4926 16.3077C17.4926 17.109 16.8534 17.7885 15.7143 17.7885H8.88612L8 19.8252H17.7574C18.3278 19.8201 18.8865 19.6655 19.3763 19.3773C19.8662 19.0892 20.2696 18.6778 20.5453 18.1853C21.2382 19.234 22.9069 20 25.6072 20C28.2735 20 30.1653 19.2969 30.9678 18.2854C31.1076 18.5777 31.3208 18.8298 31.5871 19.018C32.2792 19.4904 33.0937 19.7582 33.9348 19.7899H41.0856C41.3933 19.7902 41.6945 19.7026 41.9528 19.5378C42.2111 19.3729 42.4155 19.1378 42.5413 18.8609L42.7782 18.3345L45.1021 12.7273L45.7493 11.0167L46.5916 13.2026H45.3968L44.6799 15.2039H47.1631L49.1544 19.7899H52L46.9441 8.35155ZM28.7295 16.7732C28.0943 17.7984 26.8876 17.9673 25.7426 17.9673C24.6951 17.9673 23.6059 17.8593 22.9667 16.9853C22.431 16.2527 22.2558 14.6697 22.2558 13.617C22.2558 11.3113 23.817 10.0386 25.7426 10.0386C27.6682 10.0386 29.2294 11.3113 29.2294 13.617C29.2333 14.548 29.1656 16.0799 28.7355 16.7732H28.7295Z" fill="#343735"/>
</svg>
