<svg width="16" height="12" viewBox="0 0 16 12" fill="none" xmlns="http://www.w3.org/2000/svg">
<path d="M13.44 5.26539C13.5425 4.99789 13.6 4.70539 13.6 4.40039C13.6 3.07539 12.525 2.00039 11.2 2.00039C10.7075 2.00039 10.2475 2.15039 9.8675 2.40539C9.175 1.20539 7.8825 0.400391 6.4 0.400391C4.19 0.400391 2.4 2.19039 2.4 4.40039C2.4 4.46789 2.4025 4.53539 2.405 4.60289C1.005 5.09539 0 6.43039 0 8.00039C0 9.98789 1.6125 11.6004 3.6 11.6004H12.8C14.5675 11.6004 16 10.1679 16 8.40039C16 6.85289 14.9 5.56039 13.44 5.26539ZM10.1175 7.48289L7.4825 10.1179C7.3275 10.2729 7.0725 10.2729 6.9175 10.1179L4.2825 7.48289C4.03 7.23039 4.21 6.80039 4.565 6.80039H6.2V4.00039C6.2 3.78039 6.38 3.60039 6.6 3.60039H7.8C8.02 3.60039 8.2 3.78039 8.2 4.00039V6.80039H9.835C10.19 6.80039 10.37 7.23039 10.1175 7.48289Z" fill="#88898D"/>
</svg>
