<svg width="16" height="17" viewBox="0 0 16 17" fill="none" xmlns="http://www.w3.org/2000/svg">
<path d="M12.9067 7.01951C13.14 7.01951 13.3267 7.20617 13.3267 7.43951C13.3267 7.67284 13.14 7.85951 12.9067 7.85951H11.74V8.60617H12.9067C13.14 8.60617 13.3267 8.79284 13.3267 9.02617C13.3267 9.25951 13.14 9.44617 12.9067 9.44617H11.3133C11.0867 9.44617 10.8933 9.25951 10.8933 9.02617V5.85284C10.8933 5.62617 11.08 5.43284 11.3133 5.43284H12.9067C13.14 5.43284 13.3267 5.61951 13.3267 5.85284C13.3267 6.08617 13.14 6.27284 12.9067 6.27284H11.74V7.01951H12.9067ZM10.34 9.03284C10.34 9.21284 10.2267 9.37284 10.0533 9.43284C10.0133 9.44617 9.96667 9.45284 9.92 9.45284C9.78 9.45284 9.66 9.39284 9.58 9.28617L7.95333 7.07284V9.03284C7.95333 9.25951 7.76667 9.45284 7.53333 9.45284C7.3 9.45284 7.11333 9.26617 7.11333 9.03284V5.85284C7.11333 5.67284 7.22667 5.51284 7.4 5.45284C7.44 5.43951 7.49333 5.43284 7.52667 5.43284C7.65333 5.43284 7.78 5.49951 7.85333 5.59951L9.49333 7.81951V5.84617C9.49333 5.61951 9.68 5.42617 9.91333 5.42617C10.1467 5.42617 10.3333 5.61284 10.3333 5.84617V9.02617L10.34 9.03284ZM6.51333 9.03284C6.51333 9.25951 6.32667 9.45284 6.09333 9.45284C5.86 9.45284 5.67333 9.26617 5.67333 9.03284V5.85284C5.67333 5.62617 5.86 5.43284 6.09333 5.43284C6.32667 5.43284 6.51333 5.61951 6.51333 5.85284V9.03284ZM4.86667 9.45284H3.27333C3.04667 9.45284 2.85333 9.26617 2.85333 9.03284V5.85284C2.85333 5.62617 3.04 5.43284 3.27333 5.43284C3.50667 5.43284 3.69333 5.61951 3.69333 5.85284V8.61284H4.86667C5.1 8.61284 5.28667 8.79951 5.28667 9.03284C5.28667 9.26617 5.1 9.45284 4.86667 9.45284ZM16 7.32617C16 3.73951 12.4067 0.826172 8 0.826172C3.59333 0.826172 0 3.73951 0 7.31951C0 10.5262 2.84667 13.2128 6.68667 13.7262C6.94667 13.7795 7.3 13.8995 7.39333 14.1195C7.47333 14.3195 7.44667 14.6328 7.42 14.8395L7.31333 15.5195C7.28 15.7195 7.15333 16.3128 8.01333 15.9528C8.87333 15.5928 12.6267 13.2328 14.3067 11.2995C15.4533 10.0395 16.0067 8.75284 16.0067 7.31951" fill="#88898D"/>
</svg>
