<svg width="26" height="26" viewBox="0 0 26 26" fill="none" xmlns="http://www.w3.org/2000/svg">
<path d="M25.9998 1.29443L14.2943 12.9999L25.9998 24.7619L24.7617 26L12.9999 14.2943L1.2381 26L0 24.7056L11.7618 12.9999L0 1.29443L1.2381 0.0563317L12.9999 11.7618L24.7617 0L25.9998 1.29443ZM6.30297 12.9999C6.31076 13.2607 6.26515 13.5203 6.16892 13.7628C6.07269 14.0053 5.92791 14.2256 5.74343 14.4101C5.55895 14.5946 5.33867 14.7394 5.09617 14.8357C4.85368 14.9319 4.59407 14.9774 4.33329 14.9696C4.08178 14.9722 3.83238 14.9237 3.60021 14.8269C3.36803 14.7302 3.15795 14.5872 2.98266 14.4068C2.78782 14.2279 2.6322 14.0105 2.52565 13.7683C2.4191 13.5261 2.36392 13.2645 2.36361 12.9999C2.36785 12.4769 2.56874 11.9746 2.92637 11.593C3.31366 11.2443 3.81238 11.045 4.33329 11.0304C4.59786 11.0307 4.85951 11.0858 5.10167 11.1923C5.34383 11.2989 5.56124 11.4545 5.74021 11.6493C5.94273 11.8436 6.09859 12.0814 6.19606 12.3445C6.29353 12.6077 6.33007 12.8894 6.30297 13.1687V12.9999ZM12.9999 2.3637C13.5208 2.37831 14.0195 2.57784 14.4068 2.9265C14.632 3.15642 14.7975 3.43792 14.8887 3.74657C14.9798 4.05523 14.9941 4.3816 14.93 4.697C14.8659 5.0124 14.7254 5.30731 14.521 5.55589C14.3166 5.80447 14.0543 5.9992 13.7573 6.12298C13.4602 6.24677 13.1373 6.29575 12.8168 6.26587C12.4964 6.23599 12.1881 6.12816 11.919 5.95158C11.65 5.77501 11.4283 5.53519 11.2733 5.2531C11.1184 4.97102 11.0349 4.65523 11.0302 4.33342C11.0691 3.82394 11.2891 3.34517 11.6504 2.98386C12.0117 2.62256 12.4904 2.40256 12.9999 2.3637ZM12.9999 19.6969C13.26 19.6931 13.5182 19.7409 13.7597 19.8375C14.0011 19.9341 14.2211 20.0776 14.4068 20.2597C14.78 20.6328 14.9896 21.1389 14.9896 21.6666C14.9896 22.1943 14.78 22.7004 14.4068 23.0735C14.0337 23.4466 13.5276 23.6562 12.9999 23.6562C12.4722 23.6562 11.9661 23.4466 11.593 23.0735C11.411 22.8878 11.2675 22.6678 11.1709 22.4264C11.0743 22.1849 11.0265 21.9266 11.0302 21.6666C11.0438 21.1345 11.2661 20.6291 11.6493 20.2597C12.0304 19.9563 12.5155 19.8148 12.9999 19.8657V19.6969ZM23.6362 12.9999C23.6466 13.2608 23.6018 13.5211 23.5049 13.7635C23.4079 14.0059 23.2609 14.2251 23.0735 14.4068C22.6949 14.7693 22.1906 14.9711 21.6665 14.9696C21.4065 14.9734 21.1483 14.9256 20.9068 14.829C20.6653 14.7324 20.4454 14.5889 20.2596 14.4068C19.8951 14.0292 19.6914 13.5248 19.6914 12.9999C19.6914 12.475 19.8951 11.9707 20.2596 11.593C20.6413 11.2354 21.1435 11.0346 21.6665 11.0304C21.9311 11.0307 22.1927 11.0858 22.4349 11.1923C22.677 11.2989 22.8945 11.4545 23.0735 11.6493C23.276 11.8436 23.4318 12.0814 23.5293 12.3445C23.6268 12.6077 23.6633 12.8894 23.6362 13.1687V12.9999Z" fill="#C3C4C6"/>
</svg>
