<svg width="16" height="12" viewBox="0 0 16 12" fill="none" xmlns="http://www.w3.org/2000/svg">
<path d="M1.50342 0C1.18859 0 0.881751 0.0976203 0.626353 0.279033C0.370954 0.460446 0.179949 0.716454 0.080393 1.01079C-0.019163 1.30513 -0.0222226 1.62288 0.0716477 1.91903C0.165518 2.21518 0.351559 2.47471 0.603418 2.66087L7.40342 7.68696C7.57651 7.8149 7.78705 7.88406 8.00342 7.88406C8.21979 7.88406 8.43032 7.8149 8.60342 7.68696L15.4034 2.66087C15.6553 2.47471 15.8413 2.21518 15.9352 1.91903C16.0291 1.62288 16.026 1.30513 15.9264 1.01079C15.8269 0.716454 15.6359 0.460446 15.3805 0.279033C15.1251 0.0976203 14.8182 0 14.5034 0H1.50342ZM0.00341798 3.44928V9.85507C0.00341798 10.3778 0.214132 10.8792 0.589204 11.2488C0.964277 11.6184 1.47298 11.8261 2.00342 11.8261H14.0034C14.5339 11.8261 15.0426 11.6184 15.4176 11.2488C15.7927 10.8792 16.0034 10.3778 16.0034 9.85507V3.44928L9.20342 8.47536C8.85723 8.73124 8.43616 8.86957 8.00342 8.86957C7.57068 8.86957 7.14961 8.73124 6.80342 8.47536L0.00341798 3.44928Z" fill="#88898D"/>
</svg>
