<svg width="50" height="48" viewBox="0 0 50 48" fill="none" xmlns="http://www.w3.org/2000/svg">
<path d="M16 17.5709C16 16.8637 16.5786 16.2852 17.2857 16.2852H32.7143C33.4214 16.2852 34 16.8637 34 17.5709C34 18.278 33.4214 18.8566 32.7143 18.8566H17.2857C16.5786 18.8566 16 18.278 16 17.5709ZM16 23.9994C16 23.2923 16.5786 22.7137 17.2857 22.7137H32.7143C33.4214 22.7137 34 23.2923 34 23.9994C34 24.7066 33.4214 25.2852 32.7143 25.2852H17.2857C16.5786 25.2852 16 24.7066 16 23.9994ZM34 30.428C34 31.1352 33.4214 31.7137 32.7143 31.7137H17.2857C16.5786 31.7137 16 31.1352 16 30.428C16 29.7209 16.5786 29.1423 17.2857 29.1423H32.7143C33.4214 29.1423 34 29.7209 34 30.428Z" fill="#88898D"/>
</svg>
