<svg width="25" height="24" viewBox="0 0 25 24" fill="none" xmlns="http://www.w3.org/2000/svg">
<path d="M12.667 5.84791C9.25683 5.84791 6.51495 8.58979 6.51495 12C6.51495 15.4102 9.25683 18.1521 12.667 18.1521C16.0773 18.1521 18.8191 15.4102 18.8191 12C18.8191 8.58979 16.0773 5.84791 12.667 5.84791ZM12.667 16.01C10.4735 16.01 8.67418 14.2106 8.67418 12.0171C8.67418 9.82364 10.4735 8.02428 12.667 8.02428C14.8605 8.02428 16.6599 9.82364 16.6599 12.0171C16.6599 14.2106 14.8605 16.01 12.667 16.01ZM20.4985 5.59086C20.4985 6.39629 19.8473 7.03035 19.059 7.03035C18.2708 7.03035 17.6196 6.37915 17.6196 5.59086C17.6196 4.80257 18.2708 4.15137 19.059 4.15137C19.8473 4.15137 20.4985 4.80257 20.4985 5.59086ZM24.5771 7.04748C24.4914 5.12817 24.0458 3.41449 22.6406 2.02642C21.2354 0.621207 19.5217 0.192788 17.6024 0.0899679C15.6317 -0.0299893 9.68525 -0.0299893 7.69739 0.0899679C5.77807 0.175652 4.08153 0.621207 2.67632 2.02642C1.27111 3.43163 0.842691 5.12817 0.73987 7.04748C0.619913 9.03535 0.619913 14.9647 0.73987 16.9525C0.825554 18.8718 1.27111 20.5855 2.67632 21.9736C4.08153 23.3788 5.77807 23.8072 7.69739 23.91C9.68525 24.03 15.6146 24.03 17.6024 23.91C19.5217 23.8243 21.2354 23.3788 22.6235 21.9736C24.0287 20.5684 24.4571 18.8718 24.5599 16.9525C24.6799 14.9647 24.6799 9.03534 24.5599 7.06462L24.5771 7.04748ZM22.0237 19.0775C21.6124 20.1228 20.7899 20.9282 19.7445 21.3567C18.1679 21.9907 14.415 21.8365 12.667 21.8365C10.9191 21.8365 7.16615 21.9736 5.58957 21.3567C4.54423 20.9454 3.7388 20.1228 3.31038 19.0775C2.67632 17.5009 2.83055 13.7479 2.83055 12C2.83055 10.2521 2.69346 6.49911 3.31038 4.92253C3.72166 3.87719 4.54423 3.07176 5.58957 2.64334C7.16615 2.00928 10.9191 2.16351 12.667 2.16351C14.415 2.16351 18.1679 2.02642 19.7445 2.64334C20.7899 3.05462 21.5953 3.87719 22.0237 4.92253C22.6578 6.49911 22.5035 10.2521 22.5035 12C22.5035 13.7479 22.6406 17.5009 22.0237 19.0775Z" fill="#88898D"/>
</svg>
