<svg width="48" height="48" viewBox="0 0 48 48" fill="none" xmlns="http://www.w3.org/2000/svg">
<path d="M20.0258 30.496C21.1217 31.4663 22.5355 32.0016 23.9998 31.9997L23.9989 32.0007C25.4642 32.0016 26.8789 31.4635 27.9748 30.4904C28.6264 29.9119 29.2405 29.3522 29.6408 28.9519L35.3989 23.2941C35.4392 23.2575 35.4776 23.22 35.5142 23.1807C36.2708 22.3753 36.2314 21.1097 35.4261 20.3532C34.6208 19.5966 33.3551 19.636 32.5986 20.4413L26.8264 26.1132C26.4626 26.475 25.903 26.9832 25.3226 27.4988C24.567 28.1654 23.4326 28.1654 22.677 27.4988C22.0948 26.9813 21.5351 26.4732 21.1592 26.0991L15.3992 20.4413C15.3626 20.4019 15.3242 20.3644 15.2839 20.3279C14.4655 19.5872 13.2008 19.65 12.4592 20.4685C11.7186 21.2869 11.7814 22.5516 12.5998 23.2932L18.3458 28.9416C18.7517 29.3475 19.3714 29.9138 20.0258 30.496Z" fill="black"/>
<path fill-rule="evenodd" clip-rule="evenodd" d="M0 24C0 10.7456 10.7456 0 24 0C37.2487 0.0140625 47.9859 10.7512 48 24C48 37.2544 37.2544 48 24 48C10.7456 48 0 37.2544 0 24ZM4.00031 24C4.00031 35.0456 12.9544 43.9997 24 43.9997C35.04 43.9875 43.9875 35.0409 43.9997 24C43.9997 12.9544 35.0456 4.00031 24 4.00031C12.9544 4.00031 4.00031 12.9544 4.00031 24Z" fill="black"/>
</svg>
