<svg width="48" height="48" viewBox="0 0 48 48" fill="none" xmlns="http://www.w3.org/2000/svg">
<path d="M24 0C10.7512 0.0140625 0.0140625 10.7512 0 24C0 37.2544 10.7456 48 24 48C37.2544 48 48 37.2544 48 24C48 10.7456 37.2544 0 24 0ZM24 43.9997C12.9544 43.9997 4.00031 35.0456 4.00031 24C4.00031 12.9544 12.9544 4.00031 24 4.00031C35.0409 4.0125 43.9875 12.96 43.9997 24C43.9997 35.0456 35.0456 43.9997 24 43.9997Z" fill="#343735"/>
<path d="M26.8102 23.9995L33.3427 17.4605C34.118 16.6852 34.118 15.4261 33.3427 14.6498C32.5673 13.8745 31.3083 13.8745 30.532 14.6498L23.9995 21.1889L17.4605 14.6564C16.6852 13.8811 15.4261 13.8811 14.6498 14.6564C13.8745 15.4317 13.8745 16.6908 14.6498 17.467L21.1889 23.9995L14.6564 30.5386C13.8811 31.3139 13.8811 32.573 14.6564 33.3492C15.4317 34.1245 16.6908 34.1245 17.467 33.3492L23.9995 26.8102L30.5386 33.3427C31.3139 34.118 32.573 34.118 33.3492 33.3427C34.1245 32.5673 34.1245 31.3083 33.3492 30.532L26.8102 23.9995Z" fill="#343735"/>
</svg>
