<svg width="48" height="48" viewBox="0 0 48 48" fill="none" xmlns="http://www.w3.org/2000/svg">
<path fill-rule="evenodd" clip-rule="evenodd" d="M24 0C37.2544 0 48 10.7456 48 24C47.9859 37.2487 37.2487 47.9859 24 48C10.7456 48 0 37.2544 0 24C0 10.7456 10.7456 0 24 0ZM24 4.00031C12.9544 4.00031 4.00031 12.9544 4.00031 24C4.0125 35.04 12.9591 43.9875 24 43.9997C35.0456 43.9997 43.9997 35.0456 43.9997 24C43.9997 12.9544 35.0456 4.00031 24 4.00031ZM17.5038 20.0252C16.5335 21.121 15.9982 22.5346 16 23.9988C16 23.9986 16 23.9985 16 23.9983V23.9993C16 23.9991 16 23.9989 16 23.9988C15.9992 25.4649 16.5364 26.8803 17.5103 27.9761C18.0888 28.6277 18.6484 29.2418 19.0488 29.6421L24.7066 35.3983C25.4659 36.1118 26.6463 36.123 27.4188 35.4236C28.2381 34.6821 28.3009 33.4174 27.5594 32.5989L21.8875 26.8268C21.5256 26.463 21.0175 25.9033 20.5019 25.323C19.8353 24.5674 19.8353 23.433 20.5019 22.6774C21.0194 22.0952 21.5275 21.5355 21.9016 21.1596L27.5594 15.3996C28.2588 14.6271 28.2475 13.4468 27.5341 12.6874C26.7775 11.8821 25.5119 11.8427 24.7066 12.5993L19.0581 18.3452C18.6522 18.7511 18.0859 19.3708 17.5038 20.0252Z" fill="#343735"/>
</svg>
