<svg width="48" height="48" viewBox="0 0 48 48" fill="none" xmlns="http://www.w3.org/2000/svg">
<path fill-rule="evenodd" clip-rule="evenodd" d="M24 48C10.7456 48 0 37.2544 0 24C0.0140625 10.7512 10.7512 0.0140625 24 0C37.2544 0 48 10.7456 48 24C48 37.2544 37.2544 48 24 48ZM24 43.9997C35.0456 43.9997 43.9997 35.0456 43.9997 24C43.9875 12.96 35.0409 4.0125 24 4.00031C12.9544 4.00031 4.00031 12.9544 4.00031 24C4.00031 35.0456 12.9544 43.9997 24 43.9997ZM30.496 27.9744C31.4663 26.8785 32.0016 25.4647 31.9997 24.0004L32.0007 24.0013C32.0016 22.536 31.4635 21.1213 30.4904 20.0254C29.9119 19.3738 29.3522 18.7597 28.9519 18.3594L23.2941 12.6013C23.2575 12.561 23.22 12.5225 23.1807 12.486C22.3754 11.7294 21.1097 11.7688 20.3532 12.5741C19.5966 13.3794 19.636 14.645 20.4413 15.4016L26.1132 21.1738C26.475 21.5375 26.9832 22.0972 27.4988 22.6775C28.1654 23.4332 28.1654 24.5675 27.4988 25.3232C26.9813 25.9053 26.4732 26.465 26.0991 26.841L20.4413 32.601C20.4019 32.6375 20.3644 32.676 20.3279 32.7163C19.5872 33.5347 19.65 34.7994 20.4685 35.541C21.2869 36.2816 22.5516 36.2188 23.2932 35.4004L28.9416 29.6544C29.3475 29.2485 29.9138 28.6288 30.496 27.9744Z" fill="#343735"/>
</svg>
