<svg width="48" height="48" viewBox="0 0 48 48" fill="none" xmlns="http://www.w3.org/2000/svg">
<path d="M24 0C10.7456 0 0 10.7456 0 24C0 37.2544 10.7456 48 24 48C37.2544 48 48 37.2544 48 24C47.9859 10.7512 37.2487 0.0140625 24 0ZM36.045 23.1806C36.0084 23.22 35.97 23.2575 35.9297 23.2941L30.1716 28.9519C29.7712 29.3522 29.1572 29.9119 28.5056 30.4903C27.4097 31.4634 25.995 32.0016 24.5297 32.0006C23.0653 32.0025 21.6516 31.4672 20.5556 30.4969C19.9012 29.9147 19.2816 29.3484 18.8756 28.9425L13.1297 23.2941C12.3113 22.5525 12.2484 21.2878 12.9891 20.4694C13.7306 19.6509 14.9953 19.5881 15.8137 20.3288C15.8541 20.3653 15.8925 20.4028 15.9291 20.4422L21.6891 26.1C22.065 26.4741 22.6247 26.9822 23.2069 27.4997C23.9625 28.1663 25.0969 28.1663 25.8525 27.4997C26.4328 26.9841 26.9925 26.4759 27.3562 26.1141L33.1284 20.4422C33.885 19.6369 35.1506 19.5975 35.9559 20.3541C36.7612 21.1106 36.8006 22.3762 36.0441 23.1816L36.045 23.1806Z" fill="#343735"/>
</svg>
