<svg width="60" height="60" viewBox="0 0 60 60" fill="none" xmlns="http://www.w3.org/2000/svg">
<path fill-rule="evenodd" clip-rule="evenodd" d="M30 60C46.5685 60 60 46.5685 60 30C60 13.4315 46.5685 0 30 0C13.4315 0 0 13.4315 0 30C0 46.5685 13.4315 60 30 60ZM29.3267 26.9058H25.7231V28.7295V30.6851V32.4209H29.3267C30.2788 32.4209 31.0918 32.5674 31.7656 32.8604C32.4541 33.1533 32.9741 33.6221 33.3257 34.2666C33.6919 34.9111 33.875 35.7754 33.875 36.8594C33.875 37.5771 33.7065 38.229 33.3696 38.8149C33.0327 39.4009 32.542 39.8696 31.8975 40.2212C31.2676 40.5581 30.4985 40.7266 29.5903 40.7266C28.8579 40.7266 28.1768 40.5654 27.5469 40.2432C26.917 39.9209 26.4116 39.4888 26.0308 38.9468C25.6646 38.3901 25.4814 37.7749 25.4814 37.1011H18.0547C18.0547 38.7417 18.3843 40.1553 19.0435 41.3418C19.7173 42.5137 20.6035 43.4805 21.7021 44.2422C22.8008 44.9893 24.0166 45.5459 25.3496 45.9121C26.6826 46.2637 28.0156 46.4395 29.3486 46.4395C31.0479 46.4395 32.6226 46.2344 34.0728 45.8242C35.5229 45.3994 36.79 44.7842 37.874 43.9785C38.958 43.1729 39.8003 42.1841 40.4009 41.0122C41.0015 39.8403 41.3018 38.5073 41.3018 37.0132C41.3018 35.6802 41.0454 34.501 40.5327 33.4756C40.02 32.4355 39.2876 31.564 38.3354 30.8608C37.6135 30.3277 36.7863 29.8956 35.8538 29.5646C36.5876 29.2191 37.2537 28.8089 37.8521 28.334C38.7749 27.6016 39.4927 26.752 40.0054 25.7852C40.5181 24.8184 40.7744 23.7856 40.7744 22.687C40.7744 20.6948 40.291 19.0249 39.3242 17.6772C38.3721 16.3149 37.0391 15.2896 35.3252 14.6011C33.6113 13.8979 31.6191 13.5464 29.3486 13.5464C27.4443 13.5464 25.6646 13.8979 24.0093 14.6011C22.3687 15.2896 21.043 16.2856 20.0322 17.5894C19.0361 18.8784 18.5381 20.4312 18.5381 22.2476H25.9648C25.9648 21.6177 26.1406 21.083 26.4922 20.6436C26.8584 20.2041 27.3198 19.8672 27.8765 19.6328C28.4331 19.3838 29.0044 19.2593 29.5903 19.2593C30.4546 19.2593 31.165 19.4277 31.7217 19.7646C32.2783 20.0869 32.6885 20.519 32.9521 21.061C33.2305 21.603 33.3696 22.1963 33.3696 22.8408C33.3696 23.6758 33.2231 24.4009 32.9302 25.0161C32.6372 25.6167 32.1904 26.0854 31.5898 26.4224C31.0039 26.7446 30.2495 26.9058 29.3267 26.9058Z" fill="#D9D9D9"/>
</svg>
