<svg width="60" height="60" viewBox="0 0 60 60" fill="none" xmlns="http://www.w3.org/2000/svg">
<path fill-rule="evenodd" clip-rule="evenodd" d="M30 60C46.5685 60 60 46.5685 60 30C60 13.4315 46.5685 0 30 0C13.4315 0 0 13.4315 0 30C0 46.5685 13.4315 60 30 60ZM24.0972 40.5068H23.6577V46.4395H24.229C26.1187 46.4395 27.9058 46.2051 29.5903 45.7363C31.2896 45.2676 32.835 44.5718 34.2266 43.6489C35.6328 42.7114 36.8486 41.5542 37.874 40.1772C38.8994 38.7856 39.6904 37.1743 40.2471 35.3433C40.8037 33.5122 41.082 31.4614 41.082 29.1909V26.6421C41.082 24.5474 40.7891 22.687 40.2031 21.061C39.6172 19.4351 38.8115 18.0654 37.7861 16.9521C36.7607 15.8389 35.5742 14.9966 34.2266 14.4253C32.8789 13.8394 31.436 13.5464 29.8979 13.5464C28.272 13.5464 26.7778 13.8467 25.4155 14.4473C24.0532 15.0479 22.874 15.8755 21.8779 16.9302C20.8818 17.9702 20.1128 19.1787 19.5708 20.5557C19.0288 21.9326 18.7578 23.4048 18.7578 24.9722C18.7578 26.5981 18.9702 28.0776 19.395 29.4106C19.8345 30.729 20.4644 31.8643 21.2847 32.8164C22.105 33.7686 23.0938 34.501 24.251 35.0137C25.4229 35.5264 26.7339 35.7827 28.1841 35.7827C29.2681 35.7827 30.2935 35.563 31.2603 35.1235C32.1099 34.7431 32.8716 34.2529 33.5456 33.653C33.4365 34.4736 33.246 35.2128 32.9741 35.8706C32.5347 36.9546 31.8975 37.8408 31.0625 38.5293C30.2275 39.2031 29.2241 39.7012 28.0522 40.0234C26.8804 40.3457 25.562 40.5068 24.0972 40.5068ZM33.6553 28.3587V25.2798C33.6553 24.2544 33.5674 23.3682 33.3916 22.6211C33.2158 21.8594 32.9595 21.2295 32.6226 20.7314C32.2856 20.2334 31.8828 19.8672 31.4141 19.6328C30.9453 19.3838 30.418 19.2593 29.832 19.2593C29.2461 19.2593 28.7261 19.4277 28.272 19.7646C27.8325 20.0869 27.4517 20.5264 27.1294 21.083C26.8218 21.625 26.5874 22.2402 26.4263 22.9287C26.2651 23.6025 26.1846 24.2837 26.1846 24.9722C26.1846 25.7485 26.2651 26.4736 26.4263 27.1475C26.6021 27.8066 26.8511 28.3853 27.1733 28.8833C27.5103 29.3667 27.9277 29.7476 28.4258 30.0259C28.9385 30.3042 29.5317 30.4434 30.2056 30.4434C30.8794 30.4434 31.458 30.3262 31.9414 30.0918C32.4395 29.8428 32.8496 29.5205 33.1719 29.125C33.3644 28.88 33.5255 28.6246 33.6553 28.3587Z" fill="#D9D9D9"/>
</svg>
