<svg width="60" height="60" viewBox="0 0 60 60" fill="none" xmlns="http://www.w3.org/2000/svg">
<path fill-rule="evenodd" clip-rule="evenodd" d="M30 60C46.5685 60 60 46.5685 60 30C60 13.4315 46.5685 0 30 0C13.4315 0 0 13.4315 0 30C0 46.5685 13.4315 60 30 60ZM19.417 30.3555L25.3057 31.7397C25.584 31.3589 26.0308 30.9854 26.646 30.6191C27.2612 30.2529 28.1035 30.0698 29.1729 30.0698C29.9785 30.0698 30.667 30.187 31.2383 30.4214C31.8242 30.6558 32.3003 31 32.6665 31.4541C33.0327 31.8936 33.2964 32.4282 33.4575 33.0581C33.6333 33.688 33.7212 34.3984 33.7212 35.1895C33.7212 35.9365 33.6626 36.647 33.5454 37.3208C33.4282 37.98 33.2305 38.5659 32.9521 39.0786C32.6738 39.5913 32.293 39.9941 31.8096 40.2871C31.3262 40.5801 30.7183 40.7266 29.9858 40.7266C29.2681 40.7266 28.6309 40.5728 28.0742 40.2651C27.5322 39.9429 27.1001 39.4961 26.7778 38.9248C26.4556 38.3535 26.2725 37.6797 26.2285 36.9033H18.7798C18.7651 38.3682 19.0654 39.6938 19.6807 40.8804C20.3105 42.0522 21.1602 43.0557 22.2295 43.8906C23.3135 44.7109 24.5293 45.3408 25.877 45.7803C27.2246 46.2197 28.6089 46.4395 30.0298 46.4395C31.9341 46.4395 33.582 46.1465 34.9736 45.5605C36.3652 44.96 37.5151 44.1543 38.4233 43.1436C39.3462 42.1182 40.0273 40.9683 40.4668 39.6938C40.9209 38.4048 41.1479 37.0718 41.1479 35.6948C41.1479 33.981 40.9282 32.4575 40.4888 31.1245C40.064 29.7915 39.4268 28.6709 38.5771 27.7627C37.7275 26.8398 36.6875 26.144 35.457 25.6753C34.2412 25.1919 32.8423 24.9502 31.2603 24.9502C30.2349 24.9502 29.2974 25.0967 28.4478 25.3896C27.6128 25.668 27.0195 25.9097 26.668 26.1147L27.3931 19.7646H40.0493V14.0078H21.3506L19.417 30.3555Z" fill="#D9D9D9"/>
</svg>
