<svg width="60" height="60" viewBox="0 0 60 60" fill="none" xmlns="http://www.w3.org/2000/svg">
<path fill-rule="evenodd" clip-rule="evenodd" d="M30 60C46.5685 60 60 46.5685 60 30C60 13.4315 46.5685 0 30 0C13.4315 0 0 13.4315 0 30C0 46.5685 13.4315 60 30 60ZM39.7417 42.3086C40.7085 40.9316 41.1919 39.2251 41.1919 37.189C41.1919 35.3286 40.7085 33.7319 39.7417 32.3989C38.8623 31.1864 37.6859 30.2284 36.2126 29.5249C37.4567 28.8599 38.45 28.0015 39.1924 26.9497C40.0859 25.6899 40.5327 24.2251 40.5327 22.5552C40.5327 20.5923 40.0859 18.9443 39.1924 17.6113C38.2988 16.2783 37.061 15.2676 35.479 14.5791C33.897 13.8906 32.0806 13.5464 30.0298 13.5464C28.0083 13.5464 26.2065 13.8906 24.6245 14.5791C23.0425 15.2676 21.7974 16.2783 20.8892 17.6113C19.9956 18.9443 19.5488 20.5923 19.5488 22.5552C19.5488 24.2251 19.9956 25.6899 20.8892 26.9497C21.6507 27.9937 22.649 28.8472 23.8842 29.5101C23.231 29.8251 22.6282 30.1947 22.0757 30.6191C21.0649 31.3955 20.2739 32.3403 19.7026 33.4536C19.146 34.5522 18.8677 35.7974 18.8677 37.189C18.8677 39.2251 19.3584 40.9316 20.3398 42.3086C21.3213 43.6855 22.6543 44.7183 24.3389 45.4067C26.0381 46.0952 27.9497 46.4395 30.0737 46.4395C32.2124 46.4395 34.1167 46.0952 35.7866 45.4067C37.4712 44.7183 38.7896 43.6855 39.7417 42.3086ZM33.2817 34.3765C33.5894 34.9771 33.7432 35.7168 33.7432 36.5957C33.7432 37.4453 33.5894 38.1851 33.2817 38.8149C32.9888 39.4302 32.564 39.9062 32.0073 40.2432C31.4653 40.5654 30.8208 40.7266 30.0737 40.7266C29.3267 40.7266 28.6675 40.5654 28.0962 40.2432C27.5396 39.9062 27.1001 39.4302 26.7778 38.8149C26.4556 38.1851 26.2944 37.4453 26.2944 36.5957C26.2944 35.7168 26.4482 34.9771 26.7559 34.3765C27.0781 33.7612 27.5176 33.2925 28.0742 32.9702C28.6455 32.6479 29.2974 32.4868 30.0298 32.4868C30.7769 32.4868 31.4287 32.6479 31.9854 32.9702C32.542 33.2925 32.9741 33.7612 33.2817 34.3765ZM32.7764 20.9951C33.0107 21.5371 33.1279 22.189 33.1279 22.9507C33.1279 23.7124 33.0107 24.3789 32.7764 24.9502C32.5566 25.5215 32.2197 25.9683 31.7656 26.2905C31.3262 26.6128 30.7622 26.7739 30.0737 26.7739C29.3999 26.7739 28.8286 26.6128 28.3599 26.2905C27.9058 25.9683 27.5615 25.5215 27.3271 24.9502C27.0928 24.3789 26.9756 23.7124 26.9756 22.9507C26.9756 22.1743 27.0928 21.5151 27.3271 20.9731C27.5615 20.4165 27.9058 19.9917 28.3599 19.6987C28.814 19.4058 29.3706 19.2593 30.0298 19.2593C30.7183 19.2593 31.2896 19.4131 31.7437 19.7207C32.1978 20.0137 32.542 20.4385 32.7764 20.9951Z" fill="#D9D9D9"/>
</svg>
