<svg width="60" height="60" viewBox="0 0 60 60" fill="none" xmlns="http://www.w3.org/2000/svg">
<path fill-rule="evenodd" clip-rule="evenodd" d="M30 60C46.5684 60 60 46.5684 60 30C60 13.4316 46.5684 0 30 0C13.4316 0 0 13.4316 0 30C0 46.5684 13.4316 60 30 60ZM41.3018 46V40.2871H28.6895L32.8203 35.519C34.0215 34.3325 35.0908 33.2119 36.0283 32.1572C36.9805 31.1025 37.7861 30.0771 38.4453 29.0811C39.1045 28.0703 39.6094 27.0522 39.9609 26.0269C40.3125 25.0015 40.4883 23.9321 40.4883 22.8188C40.4883 20.8706 40.0781 19.208 39.2578 17.8311C38.4531 16.4395 37.252 15.3774 35.6543 14.645C34.0586 13.9126 32.0801 13.5464 29.7227 13.5464C27.4668 13.5464 25.4814 14.0371 23.7676 15.0186C22.0537 15.9854 20.7129 17.2817 19.7461 18.9077C18.7949 20.5337 18.3184 22.3281 18.3184 24.291H25.7451C25.7451 23.7656 25.792 23.269 25.8857 22.8018C25.9619 22.4219 26.0684 22.0615 26.207 21.7202C26.3633 21.3511 26.5488 21.0195 26.7637 20.7261C26.9922 20.4141 27.2529 20.145 27.5469 19.9185C28.1182 19.479 28.7852 19.2593 29.5469 19.2593C29.8984 19.2593 30.2227 19.2935 30.5205 19.3618C30.8691 19.4419 31.1816 19.5688 31.458 19.7427C31.7773 19.938 32.0479 20.1895 32.2705 20.4971C32.416 20.6978 32.54 20.9224 32.6445 21.1709C32.9229 21.7861 33.0625 22.5552 33.0625 23.478C33.0625 23.7046 33.0391 23.9429 32.9932 24.1929C32.9287 24.54 32.8193 24.9097 32.666 25.3018C32.418 25.9756 32.0146 26.73 31.458 27.5649C30.9014 28.3853 30.1689 29.3154 29.2607 30.3555L18.9775 41.166V46H41.3018Z" fill="#D9D9D9"/>
</svg>
