<svg width="60" height="60" viewBox="0 0 60 60" fill="none" xmlns="http://www.w3.org/2000/svg">
<path fill-rule="evenodd" clip-rule="evenodd" d="M30 60C46.5685 60 60 46.5685 60 30C60 13.4315 46.5685 0 30 0C13.4315 0 0 13.4315 0 30C0 46.5685 13.4315 60 30 60ZM36.8413 13.5464H35.6548C33.4136 13.5464 31.2822 13.9346 29.2607 14.7109C27.2393 15.4873 25.4448 16.6226 23.8774 18.1167C22.3247 19.5962 21.0942 21.4053 20.186 23.5439C19.2925 25.6826 18.8457 28.1216 18.8457 30.8608V33.5635C18.8457 35.585 19.1387 37.394 19.7246 38.9907C20.3252 40.5874 21.1528 41.9424 22.2075 43.0557C23.2769 44.1543 24.522 44.9966 25.9429 45.5825C27.3784 46.1538 28.9385 46.4395 30.623 46.4395C32.2637 46.4395 33.7651 46.1611 35.1274 45.6045C36.4897 45.0479 37.6689 44.2715 38.665 43.2754C39.6611 42.2793 40.4302 41.1147 40.9722 39.7817C41.5288 38.4341 41.8071 36.9766 41.8071 35.4092C41.8071 33.8564 41.6094 32.4136 41.2139 31.0806C40.8184 29.7476 40.2324 28.583 39.4561 27.5869C38.6943 26.5908 37.7495 25.8145 36.6216 25.2578C35.5083 24.7012 34.2192 24.4229 32.7544 24.4229C31.3042 24.4229 30.0298 24.6719 28.9312 25.1699C27.9483 25.6155 27.1119 26.1842 26.4221 26.876C26.5499 26.1163 26.7491 25.4158 27.0195 24.7744C27.5469 23.5586 28.272 22.5552 29.1948 21.7642C30.1323 20.9585 31.2163 20.3579 32.4468 19.9624C33.6919 19.5669 35.0249 19.3691 36.4458 19.3691H36.8413V13.5464ZM26.2505 32.4011V34.6621C26.2505 35.6875 26.3384 36.5811 26.5142 37.3428C26.6899 38.1045 26.9536 38.7344 27.3052 39.2324C27.6567 39.7305 28.0889 40.104 28.6016 40.353C29.1289 40.6021 29.7368 40.7266 30.4253 40.7266C30.9966 40.7266 31.5239 40.5947 32.0073 40.3311C32.4907 40.0674 32.9082 39.6938 33.2598 39.2104C33.626 38.7271 33.9043 38.1631 34.0947 37.5186C34.2852 36.874 34.3804 36.1709 34.3804 35.4092C34.3804 34.5889 34.2778 33.8491 34.0728 33.1899C33.8677 32.5308 33.5747 31.9741 33.1938 31.52C32.8276 31.0513 32.3809 30.6997 31.8535 30.4653C31.3408 30.2163 30.7769 30.0918 30.1616 30.0918C29.2241 30.0918 28.4258 30.3042 27.7666 30.729C27.1221 31.1392 26.6313 31.6665 26.2944 32.311C26.2794 32.341 26.2648 32.371 26.2505 32.4011Z" fill="#D9D9D9"/>
</svg>
