<svg width="48" height="48" viewBox="0 0 48 48" fill="none" xmlns="http://www.w3.org/2000/svg">
<path fill-rule="evenodd" clip-rule="evenodd" d="M48 24C48 37.2548 37.2548 48 24 48C10.7452 48 0 37.2548 0 24C0 10.7452 10.7452 0 24 0C37.2548 0 48 10.7452 48 24ZM14 13.0462C14 11.9662 14.56 10.9662 15.52 10.4462V10.3662C16.48 9.84625 17.64 9.88625 18.56 10.4462L36.56 21.4462C37.44 22.0062 38 22.9662 38 24.0062C38 25.0462 37.44 26.0062 36.56 26.5662L18.56 37.5662C17.64 38.1662 16.44 38.1662 15.52 37.6462C14.6 37.1262 14 36.1263 14 35.0462V13.0462Z" fill="#343735"/>
</svg>
