<svg width="18" height="18" viewBox="0 0 18 18" fill="none" xmlns="http://www.w3.org/2000/svg">
<path d="M17.56 3.96181L15.6674 0.969629C15.4982 0.705302 15.2022 0.536133 14.8744 0.536133H3.09597C2.77878 0.536133 2.47216 0.705302 2.30299 0.969629L0.410409 3.96181C-0.572888 5.50548 0.294106 7.66239 2.12325 7.90557C2.25013 7.92672 2.38758 7.93729 2.52503 7.93729C3.39202 7.93729 4.15328 7.55666 4.68194 6.97514C5.21059 7.55666 5.97185 7.93729 6.83885 7.93729C7.70584 7.93729 8.4671 7.55666 8.99576 6.97514C9.52441 7.55666 10.2857 7.93729 11.1527 7.93729C12.0197 7.93729 12.7809 7.55666 13.3096 6.97514C13.8382 7.55666 14.5995 7.93729 15.4665 7.93729C15.6039 7.93729 15.7308 7.93729 15.8683 7.90557C17.6974 7.66239 18.575 5.50548 17.5917 3.96181H17.56ZM15.974 8.95231C15.7942 8.97346 15.6251 8.98403 15.4348 8.98403C15.0224 8.98403 14.6312 8.92059 14.2612 8.80429V13.2133H3.69864V8.81486C3.32858 8.93116 2.93738 8.9946 2.52503 8.9946C2.34528 8.9946 2.16554 8.98403 1.9858 8.96288C1.84835 8.94174 1.72147 8.92059 1.58402 8.88887V15.349C1.58402 16.5121 2.5356 17.4636 3.69864 17.4636H14.2717C15.4348 17.4636 16.3863 16.5121 16.3863 15.349V8.8783C16.2595 8.91002 16.122 8.94174 15.9846 8.95231H15.974Z" fill="#88898D"/>
</svg>
