<svg width="14" height="16" viewBox="0 0 14 16" fill="none" xmlns="http://www.w3.org/2000/svg">
<path d="M12.5 0H1.5C0.671875 0 0 0.671875 0 1.5V14.5C0 15.3281 0.671875 16 1.5 16H12.5C13.3281 16 14 15.3281 14 14.5V1.5C14 0.671875 13.3281 0 12.5 0ZM7 15C6.44687 15 6 14.5531 6 14C6 13.4469 6.44687 13 7 13C7.55313 13 8 13.4469 8 14C8 14.5531 7.55313 15 7 15ZM12.5 11.625C12.5 11.8312 12.3312 12 12.125 12H1.875C1.66875 12 1.5 11.8312 1.5 11.625V1.875C1.5 1.66875 1.66875 1.5 1.875 1.5H12.125C12.3312 1.5 12.5 1.66875 12.5 1.875V11.625Z" fill="#343735"/>
</svg>
