<svg width="21" height="24" viewBox="0 0 21 24" fill="none" xmlns="http://www.w3.org/2000/svg">
<path d="M20.476 9.84C18.526 9.84092 16.6246 9.1958 15.038 7.995V16.38C15.038 17.8871 14.6161 19.3603 13.8256 20.6134C13.0351 21.8665 11.9115 22.8432 10.597 23.42C9.28244 23.9967 7.83596 24.1476 6.44045 23.8536C5.04495 23.5596 3.76309 22.8338 2.75699 21.7682C1.75089 20.7025 1.06572 19.3447 0.788137 17.8666C0.510553 16.3885 0.653019 14.8563 1.19752 13.464C1.74202 12.0716 2.6641 10.8815 3.84715 10.0442C5.0302 9.2069 6.4211 8.76 7.84394 8.76C8.17403 8.73716 8.50516 8.73716 8.83525 8.76V13.035C8.21325 12.8275 7.54715 12.8199 6.92106 13.0131C6.29497 13.2063 5.73697 13.5917 5.31752 14.1206C4.89807 14.6494 4.63598 15.2981 4.56435 15.9847C4.49272 16.6712 4.61476 17.3649 4.91506 17.978C5.21536 18.5911 5.68044 19.0963 6.25159 19.4296C6.82275 19.763 7.47434 19.9096 8.12411 19.851C8.77387 19.7923 9.39267 19.5311 9.90235 19.1002C10.412 18.6693 10.7897 18.0881 10.9878 17.43C11.0958 17.0919 11.1484 16.7368 11.1436 16.38V0H15.038C15.038 0.346953 15.0664 0.693251 15.1229 1.035C15.258 1.80243 15.54 2.53242 15.9516 3.17995C16.3632 3.82749 16.8957 4.37884 17.5162 4.8C18.3943 5.41483 19.4234 5.74339 20.476 5.745V9.84Z" fill="#88898D"/>
</svg>
