<svg width="111" height="111" viewBox="0 0 111 111" fill="none" xmlns="http://www.w3.org/2000/svg">
<path d="M0.75 12.67C0.75 9.54423 1.99176 6.54647 4.20201 4.33622C6.41226 2.12597 9.40995 0.884277 12.5357 0.884277H36.1071C39.2329 0.884277 42.2306 2.12597 44.4408 4.33622C46.6511 6.54647 47.8929 9.54423 47.8929 12.67V36.2414C47.8929 39.3672 46.6511 42.3649 44.4408 44.5752C42.2306 46.7854 39.2329 48.0271 36.1071 48.0271H12.5357C9.40995 48.0271 6.41226 46.7854 4.20201 44.5752C1.99176 42.3649 0.75 39.3672 0.75 36.2414V12.67ZM16.4643 16.5986V32.3128H32.1786V16.5986H16.4643ZM0.75 75.5271C0.75 72.4014 1.99176 69.4036 4.20201 67.1934C6.41226 64.9831 9.40995 63.7414 12.5357 63.7414H36.1071C39.2329 63.7414 42.2306 64.9831 44.4408 67.1934C46.6511 69.4036 47.8929 72.4014 47.8929 75.5271V99.0986C47.8929 102.224 46.6511 105.222 44.4408 107.432C42.2306 109.643 39.2329 110.884 36.1071 110.884H12.5357C9.40995 110.884 6.41226 109.643 4.20201 107.432C1.99176 105.222 0.75 102.224 0.75 99.0986V75.5271ZM16.4643 79.4557V95.17H32.1786V79.4557H16.4643ZM75.3929 0.884277H98.9643C102.09 0.884277 105.088 2.12597 107.298 4.33622C109.508 6.54647 110.75 9.54423 110.75 12.67V36.2414C110.75 39.3672 109.508 42.3649 107.298 44.5752C105.088 46.7854 102.09 48.0271 98.9643 48.0271H75.3929C72.2671 48.0271 69.2694 46.7854 67.0592 44.5752C64.8489 42.3649 63.6071 39.3672 63.6071 36.2414V12.67C63.6071 9.54423 64.8489 6.54647 67.0592 4.33622C69.2694 2.12597 72.2671 0.884277 75.3929 0.884277ZM95.0357 16.5986H79.3214V32.3128H95.0357V16.5986ZM63.6071 67.67C63.6071 66.6281 64.0211 65.6288 64.7579 64.8921C65.4946 64.1553 66.4938 63.7414 67.5357 63.7414H83.25C84.2919 63.7414 85.2911 64.1553 86.0279 64.8921C86.7646 65.6288 87.1786 66.6281 87.1786 67.67C87.1786 68.7119 87.5925 69.7112 88.3293 70.4479C89.066 71.1847 90.0652 71.5986 91.1071 71.5986H98.9643C100.006 71.5986 101.005 71.1847 101.742 70.4479C102.479 69.7112 102.893 68.7119 102.893 67.67C102.893 66.6281 103.307 65.6288 104.044 64.8921C104.78 64.1553 105.78 63.7414 106.821 63.7414C107.863 63.7414 108.863 64.1553 109.599 64.8921C110.336 65.6288 110.75 66.6281 110.75 67.67V91.2414C110.75 92.2833 110.336 93.2826 109.599 94.0193C108.863 94.7561 107.863 95.17 106.821 95.17H91.1071C90.0652 95.17 89.066 94.7561 88.3293 94.0193C87.5925 93.2826 87.1786 92.2833 87.1786 91.2414C87.1786 90.1995 86.7646 89.2002 86.0279 88.4635C85.2911 87.7267 84.2919 87.3129 83.25 87.3129C82.2081 87.3129 81.2089 87.7267 80.4721 88.4635C79.7354 89.2002 79.3214 90.1995 79.3214 91.2414V106.956C79.3214 107.998 78.9075 108.997 78.1707 109.734C77.434 110.47 76.4348 110.884 75.3929 110.884H67.5357C66.4938 110.884 65.4946 110.47 64.7579 109.734C64.0211 108.997 63.6071 107.998 63.6071 106.956V67.67ZM91.1071 110.884C90.3301 110.884 89.5706 110.654 88.9245 110.222C88.2785 109.791 87.7749 109.177 87.4776 108.459C87.1802 107.741 87.1025 106.951 87.2541 106.189C87.4057 105.427 87.7799 104.727 88.3293 104.178C88.8787 103.628 89.5786 103.254 90.3407 103.103C91.1028 102.951 91.8927 103.029 92.6106 103.326C93.3284 103.624 93.942 104.127 94.3737 104.773C94.8054 105.419 95.0357 106.179 95.0357 106.956C95.0357 107.998 94.6218 108.997 93.885 109.734C93.1483 110.47 92.1491 110.884 91.1071 110.884ZM106.821 110.884C106.044 110.884 105.285 110.654 104.639 110.222C103.993 109.791 103.489 109.177 103.192 108.459C102.895 107.741 102.817 106.951 102.968 106.189C103.12 105.427 103.494 104.727 104.044 104.178C104.593 103.628 105.293 103.254 106.055 103.103C106.817 102.951 107.607 103.029 108.325 103.326C109.043 103.624 109.656 104.127 110.088 104.773C110.52 105.419 110.75 106.179 110.75 106.956C110.75 107.998 110.336 108.997 109.599 109.734C108.863 110.47 107.863 110.884 106.821 110.884Z" fill="#C3C4C6"/>
</svg>
