<svg width="16" height="14" viewBox="0 0 16 14" fill="none" xmlns="http://www.w3.org/2000/svg">
<path d="M14.8 0.601562H1.2C0.88174 0.601563 0.576515 0.727991 0.351472 0.953034C0.126428 1.17808 0 1.4833 0 1.80156L0 9.80156C0 10.1198 0.126428 10.425 0.351472 10.6501C0.576515 10.8751 0.88174 11.0016 1.2 11.0016H7.2V11.8016H2.8C2.69391 11.8016 2.59217 11.8437 2.51716 11.9187C2.44214 11.9937 2.4 12.0955 2.4 12.2016V13.0016C2.4 13.1076 2.44214 13.2094 2.51716 13.2844C2.59217 13.3594 2.69391 13.4016 2.8 13.4016H13.2C13.3061 13.4016 13.4078 13.3594 13.4828 13.2844C13.5579 13.2094 13.6 13.1076 13.6 13.0016V12.2016C13.6 12.0955 13.5579 11.9937 13.4828 11.9187C13.4078 11.8437 13.3061 11.8016 13.2 11.8016H8.8V11.0016H14.8C15.1183 11.0016 15.4235 10.8751 15.6485 10.6501C15.8736 10.425 16 10.1198 16 9.80156V1.80156C16 1.4833 15.8736 1.17808 15.6485 0.953034C15.4235 0.727991 15.1183 0.601563 14.8 0.601562ZM14.4 9.40156H1.6V2.20156H14.4V9.40156Z" fill="#343735"/>
</svg>
