<svg width="121" height="107" viewBox="0 0 121 107" fill="none" xmlns="http://www.w3.org/2000/svg">
<path d="M0.417969 31.1789C0.876888 28.6178 1.18777 26.0271 1.80953 23.4957C3.46757 16.8339 6.93166 11.1641 11.6985 6.24919C13.1049 4.79842 15.2366 4.76882 16.6578 6.07156C18.079 7.37429 18.1382 9.35801 16.9243 10.942C15.1922 13.1922 13.2529 15.324 11.7725 17.7222C5.45127 28.0849 6.19147 42.3262 13.4602 52.0523C14.4668 53.3847 15.5919 54.643 16.6874 55.9161C18.1678 57.6482 18.1234 59.7651 16.5838 61.1123C15.0442 62.4594 13.0012 62.2522 11.4764 60.6533C5.06637 53.9472 1.36541 46.0271 0.595608 36.7599C0.566 36.4639 0.477184 36.1678 0.417969 35.8717V31.1789Z" fill="#C3C4C6"/>
<path d="M78.4935 39.6171C78.4935 46.412 78.3454 53.2218 78.5231 60.002C78.8044 70.4979 69.6112 79.1285 58.8044 78.2847C49.8776 77.5741 42.4461 69.9353 42.3869 60.979C42.2783 46.718 42.2734 32.4668 42.3721 18.2255C42.4165 11.1197 46.9909 4.78361 53.6674 2.14853C60.344 -0.48656 68.2492 1.05303 73.3417 6.24918C76.7466 9.71329 78.5083 13.8732 78.4935 18.7733C78.4787 25.7163 78.4935 32.6741 78.4935 39.6171Z" fill="#C3C4C6"/>
<path d="M63.9857 92.1855V99.4838H65.9546C68.8858 99.4838 71.8169 99.4395 74.7481 99.4987C77.6793 99.5579 79.2336 101.971 78.2122 104.369C77.7236 105.524 76.8502 106.249 75.5919 106.442C75.0478 106.52 74.4983 106.555 73.9487 106.545H46.8873C46.4174 106.551 45.9476 106.526 45.4809 106.471C43.6156 106.249 42.3425 104.828 42.3573 102.992C42.3721 101.157 43.6452 99.6467 45.5105 99.5727C48.5601 99.4395 51.6097 99.4986 54.6445 99.4838H56.8206V92.304C54.2744 91.6082 51.6689 91.1493 49.2707 90.2018C37.6348 85.5386 30.4994 77.1448 28.5305 64.6208C28.3725 63.4181 28.2884 62.2068 28.2788 60.9938C28.2344 58.8621 29.6112 57.3077 31.5949 57.204C33.5786 57.1004 35.0442 58.5512 35.2958 60.6682C35.5475 62.7851 35.6511 65.1241 36.2729 67.2263C38.8932 76.0198 44.7555 81.8376 53.5046 84.3395C65.6733 87.8036 77.6941 82.2226 83.2603 70.8532C84.7277 67.8622 85.4971 64.5771 85.5105 61.2455C85.5253 59.6023 86.073 58.2403 87.657 57.5149C89.9812 56.4491 92.5423 58.1515 92.5571 60.7718C92.5867 65.9827 91.358 70.9124 88.7821 75.4424C83.4676 84.7392 75.4735 90.2166 64.9035 91.9191C64.7081 91.9493 64.5151 91.9939 64.3262 92.0523L63.9857 92.1855Z" fill="#C3C4C6"/>
<path d="M120.418 33.3254C120.255 44.1026 116.569 53.1626 109.271 60.7422C107.805 62.267 105.718 62.415 104.237 61.1123C102.757 59.8095 102.594 57.5889 104.104 56.0049C107.568 52.3484 110.307 48.2477 111.773 43.4217C115.148 32.23 113.144 22.0893 105.762 12.9998C105.17 12.2744 104.474 11.6378 103.897 10.8976C102.668 9.3728 102.816 7.30027 104.223 6.05675C105.629 4.81322 107.701 4.81322 109.093 6.20479C111.833 8.94073 114.144 12.0751 115.947 15.5016C118.923 21.2307 120.433 27.4779 120.418 33.3254Z" fill="#C3C4C6"/>
<path d="M14.4816 34.6578C14.6297 26.9154 16.9391 21.1567 21.5431 16.3454C23.0086 14.8354 25.1256 14.7022 26.5912 16.0197C28.0567 17.3373 28.2048 19.4838 26.7688 21.0382C24.341 23.6437 22.5941 26.5749 21.9279 30.0982C20.8621 35.7829 22.2388 40.831 26.0138 45.2277C26.2951 45.5534 26.5912 45.8643 26.8576 46.19C28.1456 47.774 28.0271 49.8169 26.5616 51.1345C25.096 52.452 23.1123 52.3484 21.7059 50.942C18.7451 47.9516 16.5838 44.4431 15.5031 40.3721C14.9257 38.1663 14.6889 35.8569 14.4816 34.6578Z" fill="#C3C4C6"/>
<path d="M106.339 32.7777C106.28 40.0908 103.941 45.9975 99.1744 50.8976C97.7385 52.3632 95.6511 52.4076 94.23 51.09C92.8088 49.7725 92.6311 47.6704 94.0227 46.1604C96.8206 43.1552 98.6859 39.7355 99.13 35.62C99.7074 30.3202 98.1974 25.6718 94.6444 21.7044C93.7858 20.757 92.9864 19.8095 93.09 18.4328C93.1937 17.056 93.9339 15.9161 95.2958 15.3832C96.6578 14.8502 98.0049 15.0723 99.0708 16.153C102.639 19.7207 104.933 23.999 105.866 28.9731C106.132 30.3795 106.221 31.8302 106.339 32.7777Z" fill="#C3C4C6"/>
<path d="M37.9013 28.7807C37.5164 29.5208 37.2351 30.3351 36.7318 31.0012C35.3402 32.8665 35.2958 34.2729 36.7022 36.0641C38.1086 37.8554 38.0197 39.9576 36.4061 41.2603C34.7925 42.563 32.7052 42.2374 31.2544 40.5053C27.657 36.1382 27.7607 30.5275 31.5209 26.338C32.5719 25.1537 34.0375 24.7688 35.4439 25.3166C36.8502 25.8643 37.7385 27.167 37.9013 28.7807Z" fill="#C3C4C6"/>
<path d="M82.9198 38.4328C83.3195 37.6482 83.6156 36.8043 84.1337 36.1086C85.4957 34.2581 85.5253 32.8369 84.1041 31.0456C82.6829 29.2544 82.831 27.2114 84.3558 25.9087C85.8806 24.606 88.0716 24.8576 89.5223 26.5749C93.1937 30.942 93.1049 36.6563 89.3003 40.831C88.264 41.9709 86.7392 42.3558 85.3624 41.808C83.9857 41.2603 83.1271 39.9872 82.9198 38.4328Z" fill="#C3C4C6"/>
</svg>
