<svg width="45" height="120" viewBox="0 0 45 120" fill="none" xmlns="http://www.w3.org/2000/svg">
<path d="M22.5486 0C16.7221 0.00484077 11.1358 2.31966 7.01755 6.43575C2.89927 10.5518 0.585935 16.1324 0.585938 21.951V98.049C0.585935 103.868 2.89927 109.448 7.01755 113.564C11.1358 117.68 16.7221 119.995 22.5486 120C28.3783 120 33.9693 117.687 38.0915 113.571C42.2138 109.454 44.5296 103.871 44.5296 98.049V21.951C44.5296 16.1292 42.2138 10.5459 38.0915 6.42928C33.9693 2.31267 28.3783 0 22.5486 0ZM22.5486 114.96C19.1416 114.96 15.811 113.951 12.9782 112.06C10.1453 110.17 7.93737 107.483 6.63355 104.34C5.32973 101.197 4.98859 97.7377 5.65327 94.4007C6.31795 91.0637 7.9586 87.9984 10.3678 85.5925C12.7769 83.1867 15.8463 81.5483 19.1879 80.8845C22.5295 80.2207 25.9932 80.5614 29.1409 81.8634C32.2886 83.1655 34.979 85.3704 36.8718 88.1994C38.7647 91.0284 39.775 94.3544 39.775 97.7568C39.7774 100.017 39.3335 102.255 38.4686 104.343C37.6038 106.431 36.335 108.329 34.7349 109.926C33.1348 111.524 31.2348 112.791 29.1437 113.655C27.0526 114.519 24.8115 114.962 22.5486 114.96ZM22.5486 40.1217C19.1416 40.1217 15.811 39.1128 12.9782 37.2225C10.1453 35.3323 7.93737 32.6455 6.63355 29.5021C5.32973 26.3587 4.98859 22.8998 5.65327 19.5628C6.31795 16.2257 7.9586 13.1605 10.3678 10.7546C12.7769 8.34876 15.8463 6.71034 19.1879 6.04657C22.5295 5.38279 25.9932 5.72348 29.1409 7.02552C32.2886 8.32757 34.979 10.5325 36.8718 13.3615C38.7647 16.1905 39.775 19.5165 39.775 22.9189C39.7774 25.1787 39.3335 27.4167 38.4686 29.505C37.6038 31.5932 36.335 33.4906 34.7349 35.0885C33.1348 36.6864 31.2348 37.9535 29.1437 38.8172C27.0526 39.6808 24.8115 40.1241 22.5486 40.1217Z" fill="#C3C4C6"/>
<path d="M24.487 11.1216C24.2453 10.8869 23.959 10.7029 23.6449 10.5806C23.3308 10.4583 22.9953 10.4001 22.6583 10.4093H22.5669C22.1133 10.4078 21.6666 10.5208 21.2685 10.738C20.8898 10.9468 20.5596 11.2331 20.2993 11.5781L14.4292 17.4402C13.9546 17.919 13.6883 18.5654 13.6883 19.239C13.6883 19.9127 13.9546 20.5591 14.4292 21.0378C14.9086 21.5118 15.5559 21.7777 16.2305 21.7777C16.905 21.7777 17.5524 21.5118 18.0317 21.0378L19.7507 19.3212V32.4882C19.7507 33.2437 20.0513 33.9684 20.5863 34.5026C21.1213 35.0369 21.8469 35.3371 22.6035 35.3371C23.3601 35.3371 24.0857 35.0369 24.6207 34.5026C25.1557 33.9684 25.4563 33.2437 25.4563 32.4882V19.2664L26.6815 20.49C26.9164 20.7291 27.1967 20.919 27.506 21.0487C27.8153 21.1783 28.1473 21.2451 28.4827 21.2451C28.8182 21.2451 29.1502 21.1783 29.4595 21.0487C29.7688 20.919 30.0491 20.7291 30.284 20.49C30.7575 20.0144 31.0233 19.371 31.0233 18.7003C31.0233 18.0297 30.7575 17.3862 30.284 16.9106L24.487 11.1216Z" fill="#C3C4C6"/>
<path d="M30.284 99.6012C29.8046 99.1273 29.1573 98.8614 28.4827 98.8614C27.8082 98.8614 27.1608 99.1273 26.6815 99.6012L24.9625 101.336V88.1692C24.9625 87.7951 24.8887 87.4246 24.7453 87.079C24.602 86.7333 24.3918 86.4193 24.1269 86.1547C23.862 85.8902 23.5476 85.6804 23.2014 85.5372C22.8553 85.394 22.4844 85.3203 22.1097 85.3203C21.7351 85.3203 21.3641 85.394 21.018 85.5372C20.6719 85.6804 20.3574 85.8902 20.0925 86.1547C19.8276 86.4193 19.6175 86.7333 19.4741 87.079C19.3307 87.4246 19.257 87.7951 19.257 88.1692V101.373L18.0317 100.149C17.554 99.672 16.9061 99.404 16.2305 99.404C15.5548 99.404 14.9069 99.672 14.4292 100.149C13.9515 100.626 13.6831 101.273 13.6831 101.948C13.6831 102.623 13.9515 103.27 14.4292 103.747L20.2262 109.536C20.7208 109.998 21.3777 110.247 22.0549 110.23H22.1463C22.6025 110.233 23.0513 110.114 23.4447 109.883C23.8274 109.68 24.1589 109.393 24.4139 109.043L30.284 103.181C30.7586 102.702 31.0249 102.055 31.0249 101.382C31.0249 100.708 30.7586 100.062 30.284 99.583V99.6012Z" fill="#C3C4C6"/>
</svg>
