<svg width="111" height="110" viewBox="0 0 111 110" fill="none" xmlns="http://www.w3.org/2000/svg">
<path d="M94.9866 109.313C94.0494 108.574 93.0063 107.941 92.1752 107.098C85.5094 100.542 78.8966 93.9325 72.2661 87.341C71.997 87.0357 71.7488 86.7127 71.5234 86.3743L70.7808 87.5344C68.0402 92.2451 65.3173 96.9558 62.559 101.649C61.1268 104.11 58.2271 104.549 56.4766 102.58C56.1169 102.143 55.8303 101.65 55.6279 101.122C46.469 78.3181 37.3219 55.5263 28.1865 32.7463C27.1963 30.2855 28.1335 28.018 30.4851 27.5083C31.4222 27.3149 32.5715 27.5083 33.4732 27.8774C47.6654 33.4552 61.84 39.0624 75.9968 44.6988L101.688 54.876C103.244 55.4912 104.481 56.37 104.658 58.1629C104.835 59.9558 103.951 61.1159 102.466 61.9772C97.739 64.6723 93.0298 67.3733 88.3384 70.0802C88.0024 70.2736 87.7019 70.4845 87.1537 70.8361C87.5146 71.0822 87.8627 71.3462 88.1969 71.627L108.548 91.8408C110.829 94.1082 110.811 95.9714 108.53 98.2565C105.489 101.262 102.483 104.303 99.4069 107.291C98.6112 108.065 97.6211 108.645 96.7017 109.313H94.9866Z" fill="#C3C4C6"/>
<path d="M0.25 35.2247C1.20479 33.0275 2.93756 32.3596 5.25381 32.4475C8.5779 32.553 11.902 32.4475 15.2438 32.4827C18.0551 32.5178 19.8586 34.9259 18.9215 37.3867C18.4087 38.7577 17.3832 39.6893 15.898 39.7244C11.7723 39.7948 7.65258 39.7948 3.53872 39.7244C1.77059 39.6893 0.886528 38.4062 0.25 36.9297V35.2247Z" fill="#C3C4C6"/>
<path d="M14.289 9.77291C14.784 10.0366 15.7742 10.3354 16.4638 10.9682C19.2044 13.5696 21.8743 16.2589 24.5088 18.9658C26.0294 20.495 26.0117 22.7097 24.5972 24.1335C23.1827 25.5572 20.8841 25.61 19.3105 24.0807C16.5875 21.4442 13.9177 18.7724 11.2655 16.0831C10.0985 14.9055 9.78024 13.4817 10.4698 11.9525C11.1594 10.4233 12.2556 9.87837 14.289 9.77291Z" fill="#C3C4C6"/>
<path d="M40.2452 9.43894C40.2452 11.4603 40.3159 13.4993 40.2275 15.5207C40.1568 17.085 39.0252 18.2803 37.4869 18.6846C35.9486 19.0888 34.4103 18.4912 33.65 17.2081C33.2408 16.5053 33.0045 15.7163 32.9605 14.9055C32.9074 11.2318 32.9074 7.57576 32.9428 3.90213C32.9605 1.61709 34.5164 0 36.6205 0C38.7246 0 40.2452 1.56437 40.2805 3.88455C40.3159 5.73016 40.2982 7.59334 40.2982 9.43894H40.2452Z" fill="#C3C4C6"/>
<path d="M12.2026 61.942C10.6289 61.7311 9.51501 61.0807 8.84312 59.7449C8.17123 58.409 8.22427 56.9677 9.28515 55.8779C12.1377 52.9249 15.0434 50.0305 18.002 47.1947C19.3812 45.894 21.5383 46.105 22.8821 47.4408C24.2259 48.7767 24.4027 50.9387 23.112 52.2746C20.2594 55.2275 17.3478 58.116 14.3774 60.9401C13.8293 61.4674 12.9452 61.6256 12.2026 61.942Z" fill="#C3C4C6"/>
<path d="M50.7125 23.7292C49.1212 23.5183 47.9896 22.8503 47.3177 21.5321C46.6458 20.2138 46.6988 18.7373 47.742 17.6475C50.5887 14.6945 53.4885 11.7943 56.4589 8.98194C57.8734 7.64608 60.0659 7.87458 61.4097 9.26317C62.7535 10.6518 62.8242 12.7611 61.5335 14.1145C58.7221 16.9972 55.8578 19.8446 52.9404 22.6218C52.3746 23.1667 51.4728 23.3601 50.7125 23.7292Z" fill="#C3C4C6"/>
</svg>
