<svg width="121" height="95" viewBox="0 0 121 95" fill="none" xmlns="http://www.w3.org/2000/svg">
<path d="M116.932 41.8169C117.944 42.3995 118.785 43.2401 119.367 44.2531C119.949 45.2744 120.254 46.4306 120.25 47.6063C120.246 48.782 119.934 49.9362 119.345 50.9535L117.564 54.0255C117.185 53.5803 116.785 53.1574 116.362 52.7344C113.096 49.593 108.772 47.7906 104.242 47.6835C99.7123 47.5763 95.3073 49.1722 91.8972 52.1557C89.3369 49.8885 86.1745 48.4117 82.7926 47.9038C79.3954 47.364 75.9149 47.7962 72.753 49.1505C69.6313 50.4962 66.9645 52.7146 65.0731 55.5393C63.201 58.3299 62.2085 61.6175 62.2237 64.9778C62.2237 78.0003 74.0441 88.396 82.7703 94.2728H13.5841C10.0476 94.2728 6.65614 92.868 4.15551 90.3674C1.65488 87.8667 0.25 84.4751 0.25 80.9387V14.2458C0.25 10.7093 1.65488 7.31773 4.15551 4.8171C6.65614 2.31647 10.0476 0.911621 13.5841 0.911621H38.0487C41.5856 0.913686 44.9784 2.314 47.4872 4.80724L53.0078 10.3501C54.2457 11.5907 55.7172 12.5737 57.3373 13.2423C58.9573 13.911 60.6937 14.252 62.4463 14.2458H86.933C90.4714 14.2517 93.863 15.6614 96.363 18.1656C98.863 20.6698 100.267 24.0637 100.267 27.6022V34.2581H90.2499V27.6022C90.2499 26.7204 89.9011 25.8745 89.2797 25.2489C88.6583 24.6233 87.8147 24.2689 86.933 24.2631H62.4463C56.2539 24.2562 50.3158 21.7994 45.9289 17.429L40.4082 11.9084C39.7894 11.2854 38.9489 10.9332 38.0708 10.9289H13.5841C12.7024 10.9289 11.8564 11.2776 11.2309 11.899C10.6053 12.5204 10.2509 13.364 10.245 14.2458V68.673L24.4918 44.2309C25.0786 43.2235 25.9205 42.3886 26.9327 41.8102C27.9448 41.2318 29.0917 40.9304 30.2574 40.9363H113.601C114.77 40.9304 115.919 41.2342 116.932 41.8169Z" fill="#C3C4C6"/>
<path d="M91.9862 58.4999C94.3099 56.467 97.291 55.3441 100.379 55.3389C103.692 55.3368 106.876 56.6218 109.26 58.9229C110.421 60.0426 111.344 61.3843 111.975 62.8682C112.606 64.352 112.932 65.9476 112.934 67.56C112.934 82.1408 91.9862 92.0245 91.9862 92.0245C91.9862 92.0245 71.0389 82.1408 71.0389 67.56C71.0273 65.1911 71.7251 62.873 73.0424 60.9041C74.3764 58.9029 76.2635 57.3328 78.4739 56.3852C80.6962 55.4265 83.1445 55.1163 85.5356 55.4906C87.9268 55.8648 90.1631 56.9081 91.9862 58.4999Z" fill="#C3C4C6"/>
</svg>
