<svg width="111" height="110" viewBox="0 0 111 110" fill="none" xmlns="http://www.w3.org/2000/svg">
<path d="M55.4579 109.312C25.1948 109.312 0.422867 84.7087 0.582801 54.5237C0.742735 24.7274 24.3952 0.0707352 55.5467 8.5794e-05C86.3251 -0.0529013 110.671 24.4448 110.582 54.771C110.493 85.6448 85.3655 109.383 55.4579 109.312ZM55.6178 77.3082C68.1638 77.3082 78.5239 67.117 78.4351 54.6474C78.3462 42.1778 68.9101 32.0043 55.6356 31.9689C41.7214 31.9336 32.7295 43.2022 32.7651 54.718C32.8006 67.17 43.0364 77.3258 55.6178 77.3082ZM9.1837 54.718C9.13038 55.7778 9.55687 56.6432 10.2677 57.3497C13.3064 60.3876 16.3452 63.4256 19.4017 66.4282C20.4501 67.4703 21.7296 67.8412 23.1513 67.2583C25.4969 66.3222 26.0123 63.6375 24.1819 61.6594C22.2649 59.5829 20.2109 57.6357 18.0334 55.8308C17.0738 55.036 17.0915 54.4355 18.0689 53.6583C20.2902 51.9097 22.2272 49.8432 24.1997 47.8121C25.6391 46.3284 25.6569 44.3326 24.3419 43.0079C23.0269 41.6832 21.0366 41.6302 19.5261 43.0962C16.4163 46.1341 13.342 49.225 10.2677 52.2806C9.59241 52.9518 9.11261 53.729 9.1837 54.718ZM68.3592 88.4001C68.377 86.8458 67.755 85.8214 66.4933 85.2562C65.2316 84.691 63.7034 84.85 62.5838 85.9451C60.6291 87.9056 58.6744 89.8661 56.8262 91.9326C55.9199 92.9394 55.298 93.0807 54.3917 91.9856C52.5944 89.8048 50.6341 87.7619 48.5274 85.8744C47.088 84.5674 45.1155 84.6027 43.7827 85.8391C42.4499 87.0755 42.3789 89.1243 43.6228 90.4136C46.8037 93.6988 50.0202 96.9311 53.3432 100.057C54.8893 101.506 56.5064 101.347 58.0168 99.8807C61.1267 96.8427 64.1832 93.7518 67.2752 90.6962C67.9683 90.0074 68.3948 89.2303 68.3592 88.4001ZM102.052 54.7534C102.016 53.7113 101.554 52.8988 100.826 52.1747C97.8048 49.1897 94.8194 46.1871 91.7807 43.2198C90.1813 41.6302 88.2799 41.5949 86.8583 43.0079C85.4366 44.4209 85.5255 46.3638 87.0893 47.9357C89.0085 49.8609 90.9455 51.7861 92.9891 53.5877C94.0553 54.5238 94.0553 55.1419 92.9891 56.0074C90.8211 57.7383 88.8841 59.7342 86.9649 61.7477C85.4366 63.3373 85.5077 65.2801 87.0004 66.6578C88.4931 68.0354 90.2524 67.8058 91.6918 66.4105C94.8016 63.3726 97.8759 60.2817 100.95 57.2084C101.643 56.5373 102.088 55.7601 102.052 54.7534ZM65.0717 24.5861C66.5466 24.6037 67.5951 23.9502 68.1105 22.6962C68.6258 21.4422 68.4659 20.0292 67.3641 18.9341C64.2898 15.8785 61.2155 12.7876 58.1057 9.74969C56.5419 8.23073 54.6227 8.2484 53.0056 9.82035C50.0201 12.7346 47.0525 15.7019 44.1026 18.6692C42.5033 20.2588 42.4144 22.396 43.8005 23.7206C45.1866 25.0453 47.248 24.9217 48.7762 23.4027C50.6954 21.4952 52.6146 19.5523 54.4272 17.5388C55.298 16.6027 55.8133 16.4614 56.7374 17.5211C58.5322 19.5523 60.4869 21.4422 62.3884 23.4027C63.1347 24.1798 64.0055 24.6744 65.0717 24.5861Z" fill="#C3C4C6"/>
</svg>
