<svg width="91" height="121" viewBox="0 0 91 121" fill="none" xmlns="http://www.w3.org/2000/svg">
<path d="M0.917976 12.1616V115.216C0.916332 116.26 1.20176 117.285 1.74309 118.178C2.28443 119.071 3.06083 119.798 3.9874 120.279C4.91396 120.761 5.95505 120.978 6.99685 120.908C8.03865 120.837 9.04109 120.482 9.89455 119.88L45.918 94.6616L81.9414 119.88C82.7949 120.482 83.7973 120.837 84.8391 120.908C85.8809 120.978 86.922 120.761 87.8486 120.279C88.7751 119.798 89.5515 119.071 90.0929 118.178C90.6342 117.285 90.9196 116.26 90.918 115.216V12.1616C90.918 9.17794 89.7327 6.31645 87.6229 4.20666C85.5132 2.09688 82.6517 0.911621 79.668 0.911621H12.168C9.18429 0.911621 6.3228 2.09688 4.21302 4.20666C2.10323 6.31645 0.917976 9.17794 0.917976 12.1616Z" fill="#C3C4C6"/>
</svg>
