<svg width="48" height="48" viewBox="0 0 48 48" fill="none" xmlns="http://www.w3.org/2000/svg">
<path d="M24 0C10.7512 0.0140625 0.0140625 10.7512 0 24C0 37.2544 10.7456 48 24 48C37.2544 48 48 37.2544 48 24C48 10.7456 37.2544 0 24 0ZM33.3488 33.3431C32.5734 34.1184 31.3144 34.1184 30.5381 33.3431L23.9991 26.8106L17.4666 33.3497C16.6912 34.125 15.4322 34.125 14.6559 33.3497C13.8806 32.5744 13.8806 31.3153 14.6559 30.5391L21.1884 24L14.6494 17.4675C13.8741 16.6922 13.8741 15.4331 14.6494 14.6569C15.4247 13.8816 16.6838 13.8816 17.46 14.6569L23.9991 21.1894L30.5316 14.6503C31.3069 13.875 32.5659 13.875 33.3422 14.6503C34.1175 15.4256 34.1175 16.6847 33.3422 17.4609L26.8097 24L33.3488 30.5325C34.1241 31.3078 34.1241 32.5669 33.3488 33.3431Z" fill="#343735"/>
</svg>
