<svg width="25" height="16" viewBox="0 0 25 16" fill="none" xmlns="http://www.w3.org/2000/svg">
<path d="M23.983 2.50423C23.8455 2.02022 23.5773 1.5786 23.2048 1.22299C22.8322 0.867376 22.3683 0.610069 21.8589 0.476483C18.7458 0.120393 15.6114 -0.0400426 12.476 -0.00377237C9.34067 -0.0400426 6.20621 0.120393 3.09318 0.476483C2.58373 0.610069 2.11983 0.867376 1.74731 1.22299C1.37479 1.5786 1.10653 2.02022 0.96903 2.50423C0.630249 4.31846 0.465458 6.15806 0.476677 8.00049C0.464761 9.85178 0.629551 11.7003 0.96903 13.5234C1.1078 14.0025 1.37719 14.4384 1.75008 14.7874C2.12298 15.1363 2.58622 15.3859 3.09318 15.5111C6.2059 15.8717 9.34036 16.0366 12.476 16.0047C15.6114 16.041 18.7458 15.8806 21.8589 15.5245C22.3646 15.3968 22.8265 15.1464 23.1989 14.7978C23.5714 14.4492 23.8417 14.0146 23.983 13.5368C24.3234 11.7093 24.4881 9.85623 24.4754 8.00049C24.4866 6.15806 24.3218 4.31846 23.983 2.50423ZM10.0283 11.4023V4.62536L16.3023 8.00049L10.0283 11.4023Z" fill="#88898D"/>
</svg>
