<svg width="82" height="96" viewBox="0 0 82 96" fill="none" xmlns="http://www.w3.org/2000/svg">
<path d="M81.2482 37.4942V37.4665L81.1651 37.328C81.1513 37.3003 81.1236 37.2864 81.1097 37.2725C81.0917 37.2326 81.0684 37.1954 81.0405 37.1618C81.0128 37.1479 80.9989 37.1202 80.9851 37.1063L80.902 37.0094H80.8881L42.8953 0.581732C42.5092 0.207602 41.9924 -0.00110623 41.4548 4.41009e-06H2.56981C2.01879 4.41009e-06 1.49034 0.218884 1.10071 0.608514C0.711079 0.998144 0.492188 1.52661 0.492188 2.07763V93.9224C0.492188 94.4734 0.711079 95.0019 1.10071 95.3915C1.49034 95.7811 2.01879 96 2.56981 96H79.4338C79.9848 96 80.5132 95.7811 80.9029 95.3915C81.2925 95.0019 81.5114 94.4734 81.5114 93.9224V38.5191C81.5136 38.1605 81.4229 37.8074 81.2482 37.4942ZM74.2674 36.4277H63.8654C53.5604 36.4277 48.3941 36.4276 45.6239 33.6436C42.8538 30.8596 42.8538 25.7071 42.8538 15.416V6.28826L74.2674 36.4277ZM4.64743 91.8309V4.14139H38.6985V15.416C38.6985 26.8567 38.6985 32.591 42.6875 36.5939C46.6766 40.5967 52.4247 40.5829 63.8654 40.5829H77.3561V91.8309H4.64743Z" fill="#A6A7AA"/>
<path d="M35.8118 67.5643L30.0775 72.9522V54.6553C30.0775 54.1043 29.8586 53.5759 29.469 53.1862C29.0794 52.7966 28.5509 52.5777 27.9999 52.5777C27.4489 52.5777 26.9204 52.7966 26.5308 53.1862C26.1412 53.5759 25.9223 54.1043 25.9223 54.6553V72.9522L20.188 67.5643C19.7841 67.1912 19.2495 66.9922 18.7 67.0104C18.1504 67.0285 17.6301 67.2623 17.2517 67.6612C17.0636 67.8595 16.9167 68.0932 16.8197 68.3487C16.7226 68.6043 16.6773 68.8765 16.6863 69.1497C16.6953 69.4229 16.7585 69.6915 16.8722 69.9401C16.9859 70.1887 17.1478 70.4122 17.3486 70.5976L26.5594 79.2544C26.718 79.4039 26.9006 79.5257 27.0996 79.6145H27.1135C27.1457 79.6411 27.1836 79.66 27.2243 79.6699C27.4704 79.7709 27.7339 79.8226 27.9999 79.8223C28.2864 79.8202 28.5693 79.7589 28.831 79.6422C29.0577 79.5481 29.2645 79.4118 29.4404 79.2405L38.6512 70.5976C38.852 70.4122 39.0139 70.1887 39.1276 69.9401C39.2413 69.6915 39.3045 69.4229 39.3135 69.1497C39.3226 68.8765 39.2772 68.6043 39.1802 68.3487C39.0831 68.0932 38.9363 67.8595 38.7481 67.6612C38.3697 67.2623 37.8494 67.0285 37.2999 67.0104C36.7503 66.9922 36.2157 67.1912 35.8118 67.5643Z" fill="#A6A7AA"/>
</svg>
