<svg width="97" height="96" viewBox="0 0 97 96" fill="none" xmlns="http://www.w3.org/2000/svg">
<g clip-path="url(#clip0_1_13929)">
<path d="M94.7582 91.8662H87.6481V45.2924C90.3287 44.7948 92.7349 43.3344 94.4137 41.1861C95.8743 39.326 96.4806 36.9835 96.205 34.2276C95.9708 31.8852 95.1302 29.5427 94.4275 27.7652L87.9788 11.4643V11.4368C85.8981 6.40735 83.8726 1.63973 83.8588 1.58461C83.7035 1.21233 83.4412 0.894499 83.1051 0.671301C82.7691 0.448102 82.3745 0.329553 81.9711 0.330688L15.8307 0H15.8169C15.4104 0.000902647 15.0132 0.121624 14.675 0.347105C14.3368 0.572586 14.0725 0.892809 13.9154 1.26768C13.9016 1.30902 11.9312 5.91129 9.69892 11.4643L3.23646 27.7652C2.53371 29.5427 1.69318 31.8852 1.45893 34.2276C1.18335 36.9835 1.77586 39.326 3.25023 41.1861C4.92903 43.3344 7.33525 44.7948 10.0158 45.2924V91.8662H2.90575C2.35758 91.8662 1.83186 92.084 1.44424 92.4716C1.05663 92.8592 0.838867 93.3849 0.838867 93.9331C0.838867 94.4813 1.05663 95.007 1.44424 95.3946C1.83186 95.7822 2.35758 96 2.90575 96H94.7582C95.3064 96 95.8321 95.7822 96.2197 95.3946C96.6073 95.007 96.8251 94.4813 96.8251 93.9331C96.8251 93.3849 96.6073 92.8592 96.2197 92.4716C95.8321 92.084 95.3064 91.8662 94.7582 91.8662ZM6.48836 38.6232C4.6695 36.3083 5.75806 32.6017 7.08086 29.2809L13.5158 13.0076C15.0453 9.2183 16.437 5.88372 17.1673 4.14753L80.5656 4.4507C81.3096 6.20067 82.7014 9.549 84.1482 13.0076L90.5831 29.2809C91.9059 32.6017 92.9944 36.3083 91.1756 38.6232C90.2598 39.7849 89.0051 40.6326 87.5856 41.0488C86.1661 41.465 84.6523 41.429 83.2542 40.9458C81.8561 40.4626 80.6431 39.5562 79.7835 38.3523C78.9239 37.1485 78.4604 35.7069 78.4573 34.2276C78.4573 33.6795 78.2396 33.1538 77.852 32.7661C77.4644 32.3785 76.9386 32.1607 76.3905 32.1607C75.8423 32.1607 75.3166 32.3785 74.9289 32.7661C74.5413 33.1538 74.3236 33.6795 74.3236 34.2276C74.2429 36.061 73.4578 37.7925 72.1319 39.0613C70.8061 40.3301 69.0417 41.0383 67.2066 41.0383C65.3715 41.0383 63.6071 40.3301 62.2812 39.0613C60.9554 37.7925 60.1703 36.061 60.0896 34.2276C60.0896 33.6795 59.8719 33.1538 59.4842 32.7661C59.0966 32.3785 58.5709 32.1607 58.0227 32.1607C57.4746 32.1607 56.9488 32.3785 56.5612 32.7661C56.1736 33.1538 55.9558 33.6795 55.9558 34.2276C55.9558 36.117 55.2053 37.929 53.8693 39.265C52.5333 40.6009 50.7213 41.3515 48.832 41.3515C46.9426 41.3515 45.1306 40.6009 43.7946 39.265C42.4586 37.929 41.7081 36.117 41.7081 34.2276C41.7081 33.6795 41.4903 33.1538 41.1027 32.7661C40.7151 32.3785 40.1894 32.1607 39.6412 32.1607C39.093 32.1607 38.5673 32.3785 38.1797 32.7661C37.7921 33.1538 37.5743 33.6795 37.5743 34.2276C37.4936 36.061 36.7086 37.7925 35.3827 39.0613C34.0568 40.3301 32.2925 41.0383 30.4574 41.0383C28.6222 41.0383 26.8579 40.3301 25.532 39.0613C24.2061 37.7925 23.4211 36.061 23.3404 34.2276C23.3404 33.6795 23.1226 33.1538 22.735 32.7661C22.3474 32.3785 21.8217 32.1607 21.2735 32.1607C20.7253 32.1607 20.1996 32.3785 19.812 32.7661C19.4244 33.1538 19.2066 33.6795 19.2066 34.2276C19.2035 35.7069 18.74 37.1485 17.8804 38.3523C17.0209 39.5562 15.8079 40.4626 14.4098 40.9458C13.0117 41.429 11.4979 41.465 10.0784 41.0488C8.65889 40.6326 7.40417 39.7849 6.48836 38.6232ZM14.1496 45.2924C17.0268 44.747 19.5805 43.1071 21.2735 40.7177C22.3118 42.1877 23.6879 43.387 25.286 44.2147C26.8841 45.0425 28.6576 45.4745 30.4574 45.4745C32.2571 45.4745 34.0306 45.0425 35.6287 44.2147C37.2268 43.387 38.6029 42.1877 39.6412 40.7177C40.6811 42.1878 42.0584 43.3869 43.6576 44.2146C45.2569 45.0422 47.0313 45.4742 48.832 45.4742C50.6327 45.4742 52.4071 45.0422 54.0063 44.2146C55.6055 43.3869 56.9829 42.1878 58.0227 40.7177C59.0611 42.1877 60.4371 43.387 62.0352 44.2147C63.6334 45.0425 65.4068 45.4745 67.2066 45.4745C69.0064 45.4745 70.7798 45.0425 72.3779 44.2147C73.9761 43.387 75.3521 42.1877 76.3905 40.7177C78.0804 43.1103 80.6355 44.7511 83.5143 45.2924V91.8662H62.3632C62.3751 91.7887 62.3797 91.7103 62.377 91.632V77.8527C62.377 73.2091 62.377 70.8667 61.1782 68.786C60.3935 67.4227 59.262 66.2912 57.8987 65.5065C55.818 64.3077 53.4894 64.3077 48.832 64.3077C44.1746 64.3077 41.8459 64.3077 39.7652 65.5065C38.4019 66.2912 37.2705 67.4227 36.4858 68.786C35.287 70.8667 35.287 73.2091 35.287 77.8527V91.632C35.2842 91.7103 35.2888 91.7887 35.3008 91.8662H14.1496V45.2924ZM58.257 91.8662H39.407C39.407 91.7973 39.4207 91.7147 39.4207 91.632V77.8527C39.4207 74.0634 39.4207 71.969 40.0684 70.8529C40.4909 70.1201 41.0993 69.5117 41.8321 69.0891C42.9482 68.4415 45.0427 68.4415 48.832 68.4415C52.6213 68.4415 54.7157 68.4415 55.8318 69.0891C56.5646 69.5117 57.173 70.1201 57.5956 70.8529C58.2432 71.969 58.2432 74.0634 58.2432 77.8527V91.632C58.2432 91.7147 58.257 91.7973 58.257 91.8662Z" fill="#A6A7AA"/>
</g>
<defs>
<clipPath id="clip0_1_13929">
<rect width="96" height="96" fill="white" transform="translate(0.838867)"/>
</clipPath>
</defs>
</svg>
