<svg width="71" height="96" viewBox="0 0 71 96" fill="none" xmlns="http://www.w3.org/2000/svg">
<path d="M68.6817 14.3297L65.1147 13.826V2.14765C65.1157 1.85094 65.055 1.55724 64.9365 1.28523C64.818 1.01322 64.6442 0.768835 64.4261 0.567579C64.2081 0.366322 63.9506 0.212591 63.67 0.116163C63.3894 0.0197363 63.0918 -0.0172819 62.7961 0.00744621L2.43085 5.03976C2.20937 5.05747 1.99213 5.11046 1.78736 5.19672C1.72142 5.22387 1.6571 5.25483 1.59474 5.28945L1.55194 5.31373C1.50343 5.34226 1.45492 5.37078 1.40926 5.40217L1.35076 5.44498L1.23662 5.53346L1.20808 5.55485C1.19524 5.56626 1.18525 5.5791 1.17241 5.59052C1.15957 5.60193 1.10821 5.65186 1.07682 5.68325C1.04543 5.71464 1.03544 5.72751 1.01404 5.75034C0.992634 5.77317 0.958389 5.81453 0.932707 5.84878L0.877062 5.92012C0.851379 5.95579 0.827123 5.99432 0.802867 6.03284C0.778611 6.07136 0.772906 6.07707 0.760065 6.10132C0.747223 6.12558 0.710125 6.19264 0.687296 6.24401C0.678735 6.26255 0.668749 6.27966 0.661615 6.29678C0.569686 6.49973 0.510455 6.71595 0.486118 6.93741C0.486118 6.95596 0.486118 6.97596 0.486118 6.99593C0.486118 7.04873 0.477556 7.10293 0.477556 7.15715C0.477556 7.15715 0.477556 7.16858 0.477556 7.17571V84.5799C0.475521 85.0951 0.659388 85.5937 0.995397 85.9842C1.33141 86.3747 1.79701 86.6309 2.30672 86.7058L68.0824 95.98C68.1818 95.9931 68.2819 95.9997 68.3821 96C68.9497 96 69.494 95.7745 69.8954 95.3732C70.2968 94.9718 70.5223 94.4274 70.5223 93.8598V16.4485C70.5222 15.9329 70.3359 15.4346 69.9978 15.0453C69.6596 14.656 69.1923 14.4019 68.6817 14.3297ZM60.8343 13.2239L21.8211 7.72501L60.8343 4.47332V13.2239ZM66.2461 91.3857L4.75084 82.7193V9.64263L66.2461 18.309V91.3857Z" fill="#A6A7AA"/>
<path d="M25.7548 31.4885L44.66 34.3092C44.7654 34.3246 44.8717 34.3322 44.9782 34.3321C45.5188 34.3322 46.0395 34.1278 46.4355 33.7599C46.8316 33.3919 47.0738 32.8877 47.1134 32.3485C47.1529 31.8093 46.987 31.2752 46.6489 30.8533C46.3107 30.4315 45.8255 30.1533 45.2906 30.0745L26.3869 27.2551C26.1078 27.211 25.8227 27.2226 25.548 27.2892C25.2734 27.3559 25.0147 27.4762 24.7868 27.6434C24.559 27.8105 24.3665 28.0212 24.2204 28.2631C24.0744 28.5051 23.9777 28.7735 23.936 29.053C23.8942 29.3325 23.9083 29.6175 23.9773 29.8916C24.0463 30.1656 24.1688 30.4233 24.3379 30.6497C24.507 30.8761 24.7193 31.0668 24.9625 31.2108C25.2057 31.3547 25.475 31.4491 25.7548 31.4885Z" fill="#A6A7AA"/>
<path d="M22.5217 43.7975L47.8974 47.5814C48.0028 47.5972 48.1091 47.6053 48.2156 47.6056C48.7563 47.6062 49.2773 47.402 49.6736 47.0342C50.07 46.6663 50.3124 46.1621 50.3522 45.6228C50.3919 45.0835 50.2261 44.5492 49.8879 44.1272C49.5498 43.7052 49.0645 43.4268 48.5295 43.3481L23.1566 39.5628C22.5951 39.4791 22.0233 39.622 21.5671 39.9599C21.1108 40.2979 20.8075 40.8032 20.7239 41.3648C20.6403 41.9264 20.7832 42.4982 21.1211 42.9544C21.4591 43.4106 21.9644 43.7139 22.526 43.7975H22.5217Z" fill="#A6A7AA"/>
</svg>
