<svg width="80" height="96" viewBox="0 0 80 96" fill="none" xmlns="http://www.w3.org/2000/svg">
<path d="M77.987 10.3373C77.911 10.3373 76.0781 10.194 70.5521 10.194C66.0766 10.194 61.7228 7.74632 56.6812 4.91166C55.476 4.2338 54.2292 3.53443 52.9437 2.84655C49.6476 1.08241 45.3039 0.0721005 40.7323 0.00331201C35.9286 -0.0654765 31.3097 0.939098 27.7255 2.84511C25.2764 4.14636 23.4664 5.4247 21.8699 6.55828C18.6684 8.82543 16.7352 10.194 12.1077 10.194C4.31883 10.194 2.81981 10.3259 2.59768 10.3531C2.07555 10.4155 1.5944 10.6671 1.24528 11.0603C0.896152 11.4536 0.703266 11.9611 0.703125 12.487V56.589C0.703125 62.4116 2.82267 68.1326 7.00157 73.5927C10.2504 77.8375 14.7518 81.9347 20.3809 85.774C29.8609 92.2386 39.1946 95.7225 39.5844 95.8672C40.0644 96.0443 40.5919 96.0443 41.0719 95.8672C41.4646 95.7239 50.7998 92.2544 60.2754 85.7983C65.906 81.9648 70.4074 77.8661 73.6562 73.617C77.8351 68.1526 79.9618 62.4217 79.9618 56.5847V12.4798C79.9618 11.94 79.7587 11.4199 79.3928 11.0229C79.0269 10.626 78.5251 10.3812 77.987 10.3373ZM75.6625 56.5818C75.6625 76.5233 45.493 89.4699 40.3339 91.5364C35.1748 89.4627 5.00241 76.489 5.00241 56.5818V14.542C6.33662 14.5119 8.53643 14.4833 12.1077 14.4833C18.1023 14.4833 20.9929 12.4325 24.3549 10.0564C25.8468 9.00026 27.5364 7.80364 29.7433 6.63137C36.2997 3.14465 45.8398 3.90849 50.9173 6.63137C52.1627 7.29632 53.388 7.98562 54.5746 8.65201C59.91 11.6529 64.9516 14.4862 70.5521 14.4862C72.8909 14.4862 74.5447 14.5134 75.6625 14.542V56.5818Z" fill="#A6A7AA"/>
<path d="M64.4787 20.7459C64.3554 20.7359 63.1674 20.6499 59.6635 20.6499C56.9936 20.6499 54.2879 19.1566 51.1552 17.4283C50.3799 16.9983 49.5788 16.5598 48.7505 16.1256C43.9625 13.6163 36.7282 13.6163 31.9188 16.1256C30.5909 16.8323 29.312 17.6275 28.091 18.506C26.099 19.8903 25.0012 20.6556 22.2769 20.6556C17.38 20.6556 16.3167 20.7344 16.1146 20.7588C15.5915 20.8202 15.1091 21.0717 14.759 21.4653C14.409 21.8589 14.2157 22.3674 14.2158 22.8941V56.2021C14.2158 72.214 38.5698 81.2296 39.6073 81.6051C40.0796 81.7758 40.5968 81.7758 41.0691 81.6051C42.1066 81.231 66.4635 72.257 66.4635 56.2006V22.8884C66.4633 22.3469 66.2588 21.8255 65.8908 21.4283C65.5228 21.0311 65.0185 20.7874 64.4787 20.7459ZM62.1571 56.2021C62.1571 67.8947 44.2119 75.7237 40.3339 77.2786C36.4545 75.7165 18.5079 67.8603 18.5079 56.2021V24.9707C19.3677 24.9578 20.5744 24.9492 22.2769 24.9492C26.3483 24.9492 28.3862 23.5333 30.543 22.0343C31.6164 21.2599 32.7405 20.5584 33.9079 19.9348C37.8862 17.8611 43.673 18.3182 46.7542 19.9348C47.5438 20.3489 48.3306 20.7789 49.0786 21.1944C52.5797 23.1263 55.8873 24.9506 59.6635 24.9506C60.6953 24.9506 61.515 24.9578 62.1571 24.9692V56.2021Z" fill="#A6A7AA"/>
</svg>
