<svg width="27" height="33" viewBox="0 0 27 33" fill="none" xmlns="http://www.w3.org/2000/svg">
<path d="M25.6397 4.01248H23.2547C21.6631 3.8189 20.1529 3.20107 18.882 2.22366L17.4907 1.62739C16.2041 0.948549 14.7714 0.59375 13.3168 0.59375C11.8621 0.59375 10.4294 0.948549 9.14286 1.62739L7.15528 2.81994C6.32086 3.53645 5.2723 3.95587 4.17391 4.01248H0.993789C0.73022 4.01248 0.477446 4.11719 0.291074 4.30356C0.104703 4.48993 0 4.7427 0 5.00627V19.3168C0 27.6647 12.5217 32.2361 12.9193 32.4348H13.7143C14.1118 32.2361 26.6335 27.6647 26.6335 19.3168V5.00627C26.6335 4.7427 26.5288 4.48993 26.3425 4.30356C26.1561 4.11719 25.9033 4.01248 25.6397 4.01248ZM24.646 19.3168C24.646 25.6771 15.3043 29.6522 13.3168 30.4473C11.3292 31.2423 1.98758 25.6771 1.98758 19.3168V6.00006H4.17391C5.70839 5.97467 7.18539 5.41201 8.34783 4.41L9.93789 3.21745C11.008 2.7692 12.1566 2.53835 13.3168 2.53835C14.477 2.53835 15.6256 2.7692 16.6957 3.21745L17.8882 4.01248C19.4732 5.1314 21.3232 5.81658 23.2547 6.00006H24.646V19.3168Z" fill="#C3C4C6"/>
<path d="M16.2981 5.8013C15.3664 5.35934 14.348 5.13005 13.3168 5.13005C12.2855 5.13005 11.2672 5.35934 10.3354 5.8013C8.54658 6.59633 8.14907 7.39136 6.16149 7.39136H3.97516V19.5156C3.97516 24.882 13.3168 28.0622 13.3168 28.0622C13.3168 28.0622 22.6584 24.882 22.6584 19.5156V7.39136H20.8696C19.243 7.22334 17.6779 6.67895 16.2981 5.8013Z" fill="#C3C4C6"/>
</svg>
