<svg width="32" height="33" viewBox="0 0 32 33" fill="none" xmlns="http://www.w3.org/2000/svg">
<path d="M16 32.1289C19.1645 32.1289 22.2579 31.1905 24.8891 29.4324C27.5203 27.6743 29.5711 25.1755 30.7821 22.2518C31.9931 19.3282 32.3099 16.1112 31.6926 13.0075C31.0752 9.90377 29.5513 7.05284 27.3137 4.8152C25.0761 2.57756 22.2251 1.05371 19.1214 0.436349C16.0177 -0.181015 12.8007 0.135839 9.87706 1.34684C6.95345 2.55784 4.45459 4.6086 2.69649 7.23979C0.938383 9.87097 0 12.9644 0 16.1289C0 20.3724 1.68571 24.442 4.68629 27.4426C7.68687 30.4432 11.7565 32.1289 16 32.1289ZM13.6 21.1289H15V17.1289H13.6C13.4001 17.1578 13.1963 17.143 13.0027 17.0857C12.809 17.0284 12.63 16.9299 12.478 16.7969C12.326 16.6639 12.2046 16.4996 12.1221 16.3152C12.0396 16.1309 11.9979 15.9309 12 15.7289C11.9658 15.511 11.9836 15.2881 12.0519 15.0784C12.1203 14.8686 12.2372 14.678 12.3931 14.5221C12.5491 14.3661 12.7397 14.2492 12.9495 14.1809C13.1592 14.1125 13.3821 14.0947 13.6 14.1289H16.4C16.6179 14.0947 16.8408 14.1125 17.0505 14.1809C17.2603 14.2492 17.4509 14.3661 17.6068 14.5221C17.7628 14.678 17.8797 14.8686 17.9481 15.0784C18.0164 15.2881 18.0342 15.511 18 15.7289V21.1289H18.4C18.5999 21.1 18.8037 21.1148 18.9973 21.1721C19.191 21.2294 19.37 21.3279 19.522 21.4609C19.674 21.5939 19.7954 21.7582 19.8779 21.9426C19.9604 22.1269 20.0021 22.3269 20 22.5289C20.0342 22.7468 20.0164 22.9697 19.9481 23.1794C19.8797 23.3892 19.7628 23.5798 19.6068 23.7358C19.4509 23.8917 19.2603 24.0086 19.0505 24.077C18.8408 24.1453 18.6179 24.1631 18.4 24.1289H13.6C13.3821 24.1631 13.1592 24.1453 12.9495 24.077C12.7397 24.0086 12.5491 23.8917 12.3931 23.7358C12.2372 23.5798 12.1203 23.3892 12.0519 23.1794C11.9836 22.9697 11.9658 22.7468 12 22.5289C11.9979 22.3269 12.0396 22.1269 12.1221 21.9426C12.2046 21.7582 12.326 21.5939 12.478 21.4609C12.63 21.3279 12.809 21.2294 13.0027 21.1721C13.1963 21.1148 13.4001 21.1 13.6 21.1289ZM16 8.12891C16.2704 8.09675 16.5445 8.12635 16.8018 8.21549C17.0591 8.30463 17.2928 8.45098 17.4854 8.64352C17.6779 8.83606 17.8243 9.06978 17.9134 9.32707C18.0026 9.58436 18.0322 9.85852 18 10.1289C18.0322 10.3993 18.0026 10.6735 17.9134 10.9308C17.8243 11.188 17.6779 11.4218 17.4854 11.6143C17.2928 11.8068 17.0591 11.9532 16.8018 12.0423C16.5445 12.1315 16.2704 12.1611 16 12.1289C15.7296 12.1611 15.4554 12.1315 15.1982 12.0423C14.9409 11.9532 14.7071 11.8068 14.5146 11.6143C14.3221 11.4218 14.1757 11.188 14.0866 10.9308C13.9974 10.6735 13.9678 10.3993 14 10.1289C13.9678 9.85852 13.9974 9.58436 14.0866 9.32707C14.1757 9.06978 14.3221 8.83606 14.5146 8.64352C14.7071 8.45098 14.9409 8.30463 15.1982 8.21549C15.4554 8.12635 15.7296 8.09675 16 8.12891Z" fill="#C3C4C6"/>
</svg>
