<svg width="96" height="82" viewBox="0 0 96 82" fill="none" xmlns="http://www.w3.org/2000/svg">
<g clip-path="url(#clip0_1_13945)">
<path d="M79.1818 0H16.8181C12.4915 0.00375744 8.34306 1.72419 5.28362 4.78362C2.22419 7.84305 0.503757 11.9915 0.5 16.3181V65.6132C0.503757 69.9398 2.22419 74.0882 5.28362 77.1477C8.34306 80.2071 12.4915 81.9276 16.8181 81.9313H79.1818C83.3187 81.9326 87.301 80.36 90.3208 77.5325L90.5052 77.3622L90.5904 77.2771C92.1448 75.7582 93.3799 73.944 94.223 71.9409C95.0662 69.9379 95.5003 67.7864 95.5 65.6132V16.3181C95.4962 11.9915 93.7758 7.84305 90.7164 4.78362C87.6569 1.72419 83.5085 0.00375744 79.1818 0ZM16.8181 4.25691H79.1818C82.3795 4.26066 85.4452 5.53262 87.7063 7.79373C89.9674 10.0548 91.2393 13.1205 91.2431 16.3181V22.9873C90.8892 23.0184 90.5483 23.1353 90.2498 23.3279L63.0198 41.1785L62.8637 41.292C58.8721 44.4764 53.923 46.2213 48.8168 46.2445C43.7106 46.2677 38.7459 44.5678 34.7255 41.4197L34.5978 41.3204L5.15422 21.8663C5.03086 21.7833 4.89733 21.7165 4.75691 21.6677V16.3181C4.76066 13.1205 6.0326 10.0548 8.29371 7.79373C10.5548 5.53262 13.6205 4.26066 16.8181 4.25691ZM4.75691 65.6132V26.705L32.1714 44.8253C32.7248 45.251 33.2782 45.6483 33.8458 46.0172L7.1124 72.7648C5.57604 70.6975 4.74973 68.1888 4.75691 65.6132ZM16.8181 77.6744C14.4627 77.6735 12.1591 76.9829 10.1916 75.6878L37.7479 48.1456C41.1996 49.6864 44.9367 50.484 48.7166 50.4869H48.8301C52.2079 50.4672 55.5524 49.8176 58.6919 48.5713L85.8084 75.6878C83.8409 76.9829 81.5373 77.6735 79.1818 77.6744H16.8181ZM88.9018 72.7505L62.7076 46.5706C63.652 45.9955 64.5617 45.3654 65.432 44.6834L91.2431 27.7692V65.6132C91.2413 68.1807 90.4212 70.6808 88.9018 72.7505Z" fill="#A6A7AA"/>
</g>
<defs>
<clipPath id="clip0_1_13945">
<rect width="95" height="81.9313" fill="white" transform="translate(0.5)"/>
</clipPath>
</defs>
</svg>
