<svg width="86" height="96" viewBox="0 0 86 96" fill="none" xmlns="http://www.w3.org/2000/svg">
<g clip-path="url(#clip0_1_13922)">
<path d="M33.3884 46.8173C33.3289 50.477 36.0662 53.1548 42.0021 55.1929C54.0374 59.0609 58.6343 63.5834 57.7715 70.7541C57.2359 75.1427 54.5729 78.6685 50.4521 80.424C48.1462 81.4059 45.0667 81.9414 42.6269 81.7778C38.9013 81.6531 35.2491 80.7083 31.9305 79.0107C30.7552 78.4007 28.9997 77.1957 27.6459 76.0651C27.3038 75.7824 27.3782 75.47 27.4972 75.2766C27.6162 75.0832 27.8393 74.7559 28.3451 74.027L29.2378 72.7178C29.4609 72.3608 29.8328 72.331 30.2048 72.6137L30.2791 72.6732L30.4725 72.8368L30.7403 73.0302C34.3107 75.8271 38.4465 77.4337 42.6269 77.5974C48.4437 77.5081 52.639 74.8898 53.3828 70.8731C54.2159 66.4547 50.7347 62.6313 43.9509 60.5039C41.8235 59.8345 36.453 57.6922 35.4563 57.112C30.8147 54.3747 28.6476 50.8043 28.9551 46.4007C29.4163 40.2715 35.0992 35.7192 42.2847 35.6895C45.5427 35.6927 48.7663 36.3556 51.7612 37.6383C52.8621 38.0995 54.7961 39.1557 55.4656 39.6616C55.8524 39.9442 55.9416 40.2715 55.7185 40.6285L54.9597 41.8484H54.9449L54.2308 42.9791C54.0076 43.3213 53.7398 43.3659 53.3382 43.0981C50.0504 40.8963 46.3907 39.7806 42.3888 39.6913C37.3902 39.7954 33.6413 42.7708 33.3884 46.8173Z" fill="#A6A7AA"/>
<path fill-rule="evenodd" clip-rule="evenodd" d="M84.5116 23.2353C85.2561 23.977 85.6763 24.9835 85.6803 26.0344V26.2873L82.7495 85.7201C82.7517 85.8443 82.7468 85.9685 82.7347 86.092C82.737 86.1372 82.732 86.1824 82.7198 86.2259C82.7228 86.2908 82.7178 86.3557 82.7049 86.4193C82.214 91.7155 77.989 95.8066 72.8267 96H12.5459L12.2484 95.9702C7.3688 95.6876 3.4562 91.7601 2.876 86.5384C2.85798 86.4452 2.84803 86.3506 2.84625 86.2557V86.0772C2.83137 85.8838 2.8165 85.6755 2.8165 85.4821L0.138672 26.3022V26.0046C0.157487 24.974 0.573271 23.9904 1.29938 23.2587C2.0255 22.5271 3.00593 22.1038 4.03639 22.0772H20.8621C21.4869 16.424 23.7779 11.1873 27.4078 7.17061C31.5734 2.54393 37.0778 0 42.9095 0C48.7412 0 54.2456 2.54393 58.426 7.17061C62.041 11.1873 64.3321 16.424 64.9718 22.0772H81.7082C82.7591 22.0772 83.7671 22.4936 84.5116 23.2353ZM60.4641 22.0772C59.1401 12.0353 51.7761 4.46304 42.9095 4.46304C34.0429 4.46304 26.6789 12.0353 25.3549 22.0772H60.4641ZM78.2865 85.497L81.2024 26.5402H4.64634L7.30929 85.3185V85.4077C7.30929 85.4692 7.31326 85.5307 7.3171 85.5901C7.32069 85.6458 7.32417 85.6996 7.32417 85.7499V85.9433C7.63658 89.1269 9.83835 91.4179 12.6501 91.5221H72.6036C75.5789 91.4328 78.0187 89.0228 78.2865 85.9135V85.497Z" fill="#A6A7AA"/>
</g>
<defs>
<clipPath id="clip0_1_13922">
<rect width="85.5565" height="96" fill="white" transform="translate(0.138672)"/>
</clipPath>
</defs>
</svg>
