<svg width="97" height="96" viewBox="0 0 97 96" fill="none" xmlns="http://www.w3.org/2000/svg">
<path d="M68.4971 40.1716C72.1855 41.2718 76.1136 41.2805 79.8068 40.1966C83.5 39.1127 86.8003 36.9825 89.3091 34.0635C91.8179 31.1445 93.4277 27.5615 93.9442 23.7473C94.4607 19.9331 93.8617 16.051 92.2196 12.5699C92.0705 12.2543 91.8477 11.9791 91.57 11.7677C91.2923 11.5562 90.9678 11.4146 90.6239 11.3549C90.28 11.2951 89.9268 11.3189 89.594 11.4243C89.2612 11.5297 88.9587 11.7136 88.7119 11.9604L79.2511 21.4212L73.8567 16.0181L83.3175 6.55586C83.5643 6.30904 83.7482 6.00649 83.8536 5.67372C83.9589 5.34095 83.9828 4.98771 83.923 4.6438C83.8632 4.2999 83.7217 3.97543 83.5102 3.69772C83.2987 3.42 83.0236 3.19719 82.708 3.04812C79.2267 1.40582 75.3444 0.806731 71.53 1.32325C67.7157 1.83976 64.1325 3.44978 61.2134 5.95877C58.2943 8.46776 56.1642 11.7684 55.0805 15.4618C53.9967 19.1553 54.0057 23.0835 55.1063 26.772L25.8429 56.0325C22.1544 54.9319 18.2262 54.9229 14.5327 56.0067C10.8392 57.0904 7.53864 59.2206 5.02965 62.1396C2.52066 65.0587 0.910648 68.6419 0.394133 72.4563C-0.122382 76.2706 0.476701 80.153 2.119 83.6342C2.26801 83.9501 2.49084 84.2255 2.76867 84.4371C3.0465 84.6488 3.37118 84.7905 3.7153 84.8502C4.05941 84.91 4.41286 84.8861 4.74579 84.7805C5.07872 84.675 5.38137 84.4909 5.62817 84.2437L15.7871 74.0848L21.1843 79.4807L11.0254 89.6396C10.7787 89.8865 10.5949 90.1891 10.4896 90.5219C10.3843 90.8548 10.3607 91.2081 10.4206 91.552C10.4805 91.8959 10.6222 92.2204 10.8338 92.498C11.0454 92.7756 11.3207 92.9983 11.6364 93.1473C15.1177 94.7889 18.9998 95.3874 22.8138 94.8707C26.6279 94.3539 30.2107 92.7438 33.1296 90.235C36.0485 87.7262 38.1786 84.4259 39.2626 80.7328C40.3465 77.0397 40.338 73.1118 39.2381 69.4234L68.4971 40.1716ZM31.1516 86.1376C29.2692 88.0123 26.9399 89.3763 24.3839 90.1007C21.8279 90.8252 19.1293 90.8862 16.5432 90.2781L25.8023 81.019C26.2104 80.6108 26.4396 80.0572 26.4396 79.4799C26.4396 78.9027 26.2104 78.3491 25.8023 77.9409L17.3283 69.4655C17.1261 69.2632 16.8861 69.1027 16.6219 68.9932C16.3577 68.8837 16.0745 68.8273 15.7885 68.8273C15.5025 68.8273 15.2193 68.8837 14.9551 68.9932C14.6909 69.1027 14.4509 69.2632 14.2487 69.4655L4.98961 78.7245C4.33701 75.9728 4.4459 73.0953 5.30459 70.4007C6.16327 67.7061 7.73936 65.2962 9.86377 63.4294C11.9882 61.5626 14.5807 60.3094 17.3633 59.8042C20.1459 59.299 23.0136 59.561 25.6586 60.5619C26.0505 60.7099 26.4769 60.7417 26.8865 60.6534C27.296 60.5651 27.6714 60.3605 27.9676 60.0641L59.1365 28.8952C59.4326 28.5989 59.6369 28.2235 59.725 27.8139C59.813 27.4043 59.781 26.9781 59.6328 26.5862C58.6329 23.9414 58.3719 21.0744 58.8775 18.2925C59.3832 15.5106 60.6365 12.9188 62.5032 10.795C64.3698 8.67124 66.7793 7.09561 69.4733 6.23708C72.1673 5.37855 75.0442 5.26951 77.7954 5.92164L69.2329 14.4841C68.8248 14.8924 68.5956 15.446 68.5956 16.0232C68.5956 16.6004 68.8248 17.154 69.2329 17.5623L77.7084 26.0377C78.1166 26.4458 78.6702 26.675 79.2474 26.675C79.8247 26.675 80.3783 26.4458 80.7865 26.0377L89.349 17.4752C90.002 20.2269 89.8934 23.1044 89.0349 25.799C88.1765 28.4937 86.6005 30.9037 84.4762 32.7706C82.3518 34.6375 79.7593 35.8907 76.9767 36.3958C74.1941 36.901 71.3264 36.6389 68.6815 35.6378C68.2895 35.4898 67.8632 35.458 67.4536 35.5463C67.044 35.6346 66.6686 35.8392 66.3725 36.1356L35.2036 67.3002C34.9072 67.5963 34.7026 67.9717 34.6143 68.3813C34.526 68.7908 34.5578 69.2172 34.7058 69.6091C35.7632 72.4146 35.9903 75.4651 35.3601 78.3962C34.7298 81.3273 33.2688 84.0148 31.1516 86.1376Z" fill="#A6A7AA"/>
<path d="M95.4806 81.9681L67.8673 54.3563C67.6647 54.1542 67.4243 53.9939 67.1598 53.8847C66.8953 53.7755 66.6118 53.7195 66.3257 53.7198C66.0395 53.7202 65.7562 53.7769 65.4919 53.8867C65.2277 53.9966 64.9876 54.1573 64.7855 54.3599C64.5834 54.5625 64.4232 54.8029 64.314 55.0674C64.2048 55.332 64.1488 55.6154 64.1491 55.9016C64.1494 56.1877 64.2061 56.4711 64.3159 56.7353C64.4258 56.9996 64.5866 57.2396 64.7892 57.4417L90.8656 83.5108L83.6295 90.7483L57.5531 64.6719C57.1401 64.2912 56.5958 64.0849 56.0342 64.0961C55.4726 64.1074 54.937 64.3353 54.5395 64.7322C54.1421 65.1291 53.9134 65.6644 53.9014 66.226C53.8893 66.7876 54.0949 67.3321 54.475 67.7457L82.0897 95.3619C82.2919 95.5642 82.5319 95.7247 82.7962 95.8342C83.0604 95.9437 83.3435 96 83.6295 96C83.9155 96 84.1987 95.9437 84.4629 95.8342C84.7271 95.7247 84.9672 95.5642 85.1693 95.3619L95.4806 85.0506C95.8887 84.6424 96.118 84.0888 96.118 83.5116C96.118 82.9343 95.8887 82.3807 95.4806 81.9725V81.9681Z" fill="#A6A7AA"/>
<path d="M2.16399 11.361C2.24797 11.7732 2.4496 12.1523 2.7445 12.4523L9.76284 19.4722C10.1711 19.8803 10.7247 20.1095 11.3019 20.1095C11.8791 20.1095 12.4327 19.8803 12.841 19.4722L14.671 17.6421L32.3141 35.2866C32.7234 35.6956 33.2785 35.9252 33.8571 35.9249C34.4357 35.9246 34.9905 35.6945 35.3995 35.2852C35.8085 34.8758 36.0381 34.3208 36.0378 33.7422C36.0375 33.1635 35.8074 32.6087 35.3981 32.1998L17.7535 14.5567L20.2337 12.0765C20.436 11.8743 20.5965 11.6343 20.706 11.3701C20.8155 11.1059 20.8718 10.8227 20.8718 10.5367C20.8718 10.2507 20.8155 9.9675 20.706 9.7033C20.5965 9.43909 20.436 9.19903 20.2337 8.99687L13.2154 1.97855C12.9187 1.6813 12.5421 1.47659 12.1313 1.38932L5.86618 0.0483529C5.51081 -0.0278151 5.14203 -0.0138206 4.79348 0.089099C4.44492 0.192019 4.12768 0.380596 3.87068 0.637577L1.40353 3.10473C1.14678 3.36158 0.958366 3.67856 0.855454 4.02684C0.752541 4.37512 0.738397 4.74363 0.814309 5.09878L2.16399 11.361ZM6.1187 4.55455L10.5973 5.51237L15.6216 10.5367L11.307 14.8469L6.28124 9.82263L5.3234 5.34258L6.1187 4.55455Z" fill="#A6A7AA"/>
</svg>
