<svg width="28" height="28" viewBox="0 0 28 28" fill="none" xmlns="http://www.w3.org/2000/svg">
<path d="M16.8261 10.1997C16.8261 9.92092 16.9277 9.29818 16.6405 8.8058C16.3532 8.31343 16.1668 8.17549 15.8787 7.90613C15.6005 7.65339 15.2715 7.46302 14.9138 7.34761C14.5109 7.27426 14.0499 7.19527 13.7459 7.19527C13.4419 7.19527 12.9485 7.29483 12.578 7.34761L11.5623 7.75379C11.2052 7.9439 10.8654 8.16481 10.5467 8.41398C10.2349 8.65816 9.94599 8.93013 9.68338 9.22649V7.19527C10.1994 6.68749 10.8011 6.27495 11.4608 5.97657C12.2417 5.69353 13.0678 5.55575 13.8982 5.57024C14.5539 5.56369 15.2062 5.66665 15.8279 5.87491C16.3776 6.08156 16.8917 6.3729 17.3514 6.73826C17.7696 7.14998 18.1132 7.63105 18.367 8.16013C18.5964 8.77791 18.7166 9.43088 18.7224 10.0898C18.7238 10.6914 18.6384 11.2899 18.4686 11.8671C18.3336 12.4077 18.1106 12.9224 17.8084 13.3906C17.4904 13.9039 17.0966 14.3661 16.6405 14.7616C16.1221 15.2505 15.5613 15.6924 14.9647 16.082L13.035 17.5547C12.5838 17.875 12.1744 18.2503 11.8162 18.6719C11.531 18.9538 11.3214 19.3031 11.2068 19.6874C11.1261 20.0897 11.1261 20.5039 11.2068 20.9061H19.3826V22.582H9.22637V21.7695C9.20024 21.1331 9.2862 20.4972 9.48029 19.8906C9.64125 19.3257 9.89895 18.7931 10.242 18.3164C10.6562 17.7873 11.1149 17.2946 11.6131 16.8437L13.7459 15.2186C14.2824 14.8312 14.7915 14.407 15.2694 13.9491C15.6383 13.5873 15.9779 13.1969 16.285 12.7812C16.518 12.4046 16.7595 12.0887 16.7928 11.5624C16.8261 11.036 16.8261 10.4785 16.8261 10.1997Z" fill="#343735"/>
<path d="M16.8261 10.1997C16.8261 9.92092 16.9277 9.29818 16.6405 8.8058C16.3532 8.31343 16.1668 8.17549 15.8787 7.90613C15.6005 7.65339 15.2715 7.46302 14.9138 7.34761C14.5109 7.27426 14.0499 7.19527 13.7459 7.19527C13.4419 7.19527 12.9485 7.29483 12.578 7.34761L11.5623 7.75379C11.2052 7.9439 10.8654 8.16481 10.5467 8.41398C10.2349 8.65816 9.94599 8.93013 9.68338 9.22649V7.19527C10.1994 6.68749 10.8011 6.27495 11.4608 5.97657C12.2417 5.69353 13.0678 5.55575 13.8982 5.57024C14.5539 5.56369 15.2062 5.66665 15.8279 5.87491C16.3776 6.08156 16.8917 6.3729 17.3514 6.73826C17.7696 7.14998 18.1132 7.63105 18.367 8.16013C18.5964 8.77791 18.7166 9.43088 18.7224 10.0898C18.7238 10.6914 18.6384 11.2899 18.4686 11.8671C18.3336 12.4077 18.1106 12.9224 17.8084 13.3906C17.4904 13.9039 17.0966 14.3661 16.6405 14.7616C16.1221 15.2505 15.5613 15.6924 14.9647 16.082L13.035 17.5547C12.5838 17.875 12.1744 18.2503 11.8162 18.6719C11.531 18.9538 11.3214 19.3031 11.2068 19.6874C11.1261 20.0897 11.1261 20.5039 11.2068 20.9061H19.3826V22.582H9.22637V21.7695C9.20024 21.1331 9.2862 20.4972 9.48029 19.8906C9.64125 19.3257 9.89895 18.7931 10.242 18.3164C10.6562 17.7873 11.1149 17.2946 11.6131 16.8437L13.7459 15.2186C14.2824 14.8312 14.7915 14.407 15.2694 13.9491C15.6383 13.5873 15.9779 13.1969 16.285 12.7812C16.518 12.4046 16.7595 12.0887 16.7928 11.5624C16.8261 11.036 16.8261 10.4785 16.8261 10.1997Z" stroke="#343735" stroke-width="0.25" stroke-miterlimit="10"/>
<path d="M14 27C21.1797 27 27 21.1797 27 14C27 6.8203 21.1797 1 14 1C6.8203 1 1 6.8203 1 14C1 21.1797 6.8203 27 14 27Z" stroke="#343735" stroke-width="0.25" stroke-miterlimit="10"/>
</svg>
