<svg width="32" height="33" viewBox="0 0 32 33" fill="none" xmlns="http://www.w3.org/2000/svg">
<path d="M15.9998 0.0878906C7.16348 0.0878906 0 7.25137 0 16.0877C0 18.647 0.600957 21.0662 1.66943 23.2118C1.95359 23.782 2.04815 24.4334 1.88351 25.0487L0.930715 28.6103C0.516957 30.1564 1.93151 31.5709 3.47758 31.1572L7.03917 30.2044C7.65452 30.0397 8.30588 30.1343 8.87612 30.418C11.0212 31.4865 13.4404 32.0874 16.0002 32.0874C24.8365 32.0874 32 24.9239 32 16.0877C32 7.25137 24.8365 0.0878906 15.9998 0.0878906ZM15.9998 24.1449C14.8977 24.1449 14.0044 23.2516 14.0044 22.1495C14.0044 21.0475 14.8977 20.1542 15.9998 20.1542C17.1018 20.1542 17.9951 21.0475 17.9951 22.1495C17.9951 23.2516 17.1018 24.1449 15.9998 24.1449ZM19.5061 15.5333L17.4921 16.6867C17.4796 17.4974 16.8124 18.1584 15.9954 18.1584C15.1785 18.1584 14.4988 17.4912 14.4988 16.6617V15.8198C14.4988 15.2837 14.7858 14.7907 15.2534 14.5229L18.0158 12.9389C18.309 12.7704 18.4895 12.4589 18.4895 12.1219C18.4895 11.5982 18.0657 11.1802 17.5478 11.1802H13.9123C13.7001 11.1802 13.5134 11.3112 13.4447 11.5109L13.4198 11.5858C13.1452 12.3653 12.2851 12.7704 11.5118 12.4963C10.7385 12.2218 10.3271 11.3616 10.6012 10.5883L10.6262 10.5134L10.6199 10.5072C11.1124 9.11665 12.4343 8.18113 13.9123 8.18113H17.5478C19.7241 8.18113 21.4823 9.94608 21.4823 12.1157C21.4823 13.5249 20.7277 14.8281 19.5057 15.5328L19.5061 15.5333Z" fill="#C3C4C6"/>
</svg>
