<svg width="102" height="96" viewBox="0 0 102 96" fill="none" xmlns="http://www.w3.org/2000/svg">
<g clip-path="url(#clip0_1_13952)">
<path d="M33.2477 46.988H24.0774V31.6386C24.0774 31.1331 23.6701 30.7539 23.1224 30.7539H19.7661C19.2325 30.7539 18.8111 31.1331 18.8111 31.6386V51.0184C18.8092 51.1324 18.8321 51.2454 18.8781 51.3497C18.9242 51.4539 18.9924 51.547 19.078 51.6223C19.2575 51.7771 19.4869 51.8619 19.724 51.861H33.2055C33.7392 51.861 34.1605 51.4818 34.1605 50.9763V47.8727C34.1465 47.6378 34.045 47.4166 33.8761 47.2529C33.7093 47.0912 33.4888 46.9971 33.2569 46.9883L33.2477 46.988Z" fill="#A6A7AA"/>
<path d="M38.0364 30.7543H41.3928C41.6449 30.758 41.8857 30.8598 42.064 31.0381C42.2423 31.2164 42.3441 31.4572 42.3477 31.7093V52.704C42.3496 52.83 42.3262 52.955 42.2789 53.0717C42.2316 53.1884 42.1613 53.2944 42.0723 53.3835C41.9832 53.4726 41.8772 53.5428 41.7605 53.5901C41.6437 53.6375 41.5187 53.6609 41.3928 53.659H38.0364C37.91 53.6629 37.7841 53.6408 37.6664 53.5942C37.5488 53.5476 37.442 53.4774 37.3525 53.3879C37.2631 53.2985 37.1929 53.1917 37.1463 53.074C37.0996 52.9564 37.0776 52.8305 37.0815 52.704V31.7093C37.0776 31.5828 37.0996 31.4569 37.1463 31.3393C37.1929 31.2217 37.2631 31.1148 37.3525 31.0254C37.442 30.9359 37.5488 30.8657 37.6664 30.8191C37.7841 30.7725 37.91 30.7505 38.0364 30.7543Z" fill="#A6A7AA"/>
<path d="M61.2497 30.783H64.606C64.7301 30.7754 64.8544 30.7929 64.9715 30.8343C65.0887 30.8757 65.1963 30.9402 65.288 31.0241C65.3797 31.1079 65.4536 31.2093 65.5054 31.3223C65.5571 31.4353 65.5855 31.5576 65.5891 31.6818V52.7046C65.593 52.831 65.5709 52.957 65.5243 53.0746C65.4777 53.1922 65.4075 53.299 65.3181 53.3885C65.2286 53.4779 65.1218 53.5482 65.0041 53.5948C64.8865 53.6414 64.7606 53.6634 64.6341 53.6595H61.2778C61.1291 53.657 60.9828 53.6217 60.8493 53.5562C60.7158 53.4907 60.5983 53.3965 60.5054 53.2803L50.8717 40.2763V52.7327C50.8736 52.8586 50.8502 52.9836 50.8029 53.1003C50.7555 53.2171 50.6853 53.3231 50.5962 53.4121C50.5072 53.5012 50.4011 53.5714 50.2844 53.6188C50.1677 53.6661 50.0427 53.6895 49.9168 53.6876H46.5464C46.4204 53.6895 46.2954 53.6661 46.1787 53.6188C46.062 53.5714 45.956 53.5012 45.8669 53.4121C45.7778 53.3231 45.7076 53.2171 45.6603 53.1003C45.6129 52.9836 45.5895 52.8586 45.5914 52.7327V31.7379C45.5895 31.612 45.6129 31.487 45.6603 31.3703C45.7076 31.2535 45.7778 31.1475 45.8669 31.0585C45.956 30.9694 46.062 30.8991 46.1787 30.8518C46.2954 30.8045 46.4204 30.7811 46.5464 30.783H49.8887C50.0405 30.7846 50.1898 30.8223 50.3241 30.8932C50.4585 30.964 50.574 31.0658 50.6611 31.1903L60.2948 44.1803V31.7379C60.2909 31.6115 60.3129 31.4855 60.3595 31.3679C60.4061 31.2503 60.4763 31.1435 60.5658 31.054C60.6553 30.9645 60.7621 30.8944 60.8797 30.8477C60.9973 30.8011 61.1232 30.7791 61.2497 30.783Z" fill="#A6A7AA"/>
<path d="M83.2837 30.7539H69.8021C69.55 30.7575 69.3092 30.8593 69.1309 31.0376C68.9526 31.2159 68.8508 31.4567 68.8472 31.7089V52.7036C68.8508 52.9557 68.9526 53.1965 69.1309 53.3748C69.3092 53.5531 69.55 53.6549 69.8021 53.6585H83.2837C83.4096 53.6604 83.5346 53.637 83.6514 53.5897C83.7681 53.5424 83.8741 53.4721 83.9631 53.3831C84.0522 53.294 84.1225 53.188 84.1698 53.0713C84.2171 52.9546 84.2405 52.8295 84.2386 52.7036V49.3191C84.2405 49.1932 84.2171 49.0682 84.1698 48.9515C84.1225 48.8348 84.0522 48.7287 83.9631 48.6397C83.8741 48.5506 83.7681 48.4804 83.6514 48.433C83.5346 48.3857 83.4096 48.3623 83.2837 48.3642H74.1134V44.8534H83.2837C83.4096 44.8553 83.5346 44.8319 83.6514 44.7846C83.7681 44.7372 83.8741 44.667 83.9631 44.5779C84.0522 44.4889 84.1225 44.3828 84.1698 44.2661C84.2171 44.1494 84.2405 44.0244 84.2386 43.8984V40.514C84.2405 40.3881 84.2171 40.263 84.1698 40.1463C84.1225 40.0296 84.0522 39.9236 83.9631 39.8345C83.8741 39.7455 83.7681 39.6752 83.6514 39.6279C83.5346 39.5806 83.4096 39.5572 83.2837 39.5591H74.1134V36.0201H83.2837C83.4096 36.022 83.5346 35.9986 83.6514 35.9513C83.7681 35.904 83.8741 35.8337 83.9631 35.7447C84.0522 35.6556 84.1225 35.5496 84.1698 35.4329C84.2171 35.3162 84.2405 35.1911 84.2386 35.0652V31.7089C84.2105 31.2173 83.8033 30.7539 83.2837 30.7539Z" fill="#A6A7AA"/>
<path fill-rule="evenodd" clip-rule="evenodd" d="M0.919922 41.189C0.919922 18.481 23.4735 0 51.1809 0C78.8883 0 101.428 18.481 101.428 41.189V41.2311C101.428 50.3312 97.8749 58.6589 90.5864 66.6776C80.2786 78.5021 57.5565 92.8543 51.9814 95.1714L51.9583 95.1811C51.3427 95.4389 49.9693 96.014 48.5548 96.014C47.6703 96.0369 46.8041 95.7597 46.0972 95.2276C44.3521 93.8149 44.7379 91.4733 44.9105 90.4257L44.9176 90.3827L44.9457 90.2703L45.1142 89.203C45.5917 86.3944 45.9708 84.1615 45.6619 83.1785C45.5917 82.9117 45.4231 82.3639 42.9375 81.8303C31.3096 80.2575 20.8474 75.5108 13.0393 68.0679C5.23122 60.6249 0.919922 51.0755 0.919922 41.189ZM87.4547 63.8689C94.1113 56.5383 97.2148 49.3482 97.2148 41.2311V41.189C97.2148 20.7981 76.5712 4.21299 51.1809 4.21299C25.7906 4.21299 5.13291 20.7981 5.13291 41.189C5.13291 59.361 21.3108 74.6963 43.5694 77.6594L43.7379 77.6875C46.2096 78.2212 48.8497 79.148 49.6923 81.9427C50.2821 83.8947 49.8889 86.282 49.271 89.9052C49.2148 90.2422 49.1587 90.6074 49.1025 90.9725L49.0744 91.1129C49.0463 91.2393 49.0042 91.4921 48.9761 91.7449C49.4524 91.6322 49.9177 91.4771 50.3664 91.2814C55.5343 89.1328 77.6946 75.0755 87.4267 63.897L87.4547 63.8689Z" fill="#A6A7AA"/>
</g>
<defs>
<clipPath id="clip0_1_13952">
<rect width="100.494" height="96" fill="white" transform="translate(0.919434)"/>
</clipPath>
</defs>
</svg>
