<svg width="97" height="96" viewBox="0 0 97 96" fill="none" xmlns="http://www.w3.org/2000/svg">
<path fill-rule="evenodd" clip-rule="evenodd" d="M40.0042 38.2059L64.2288 29.5319C64.6065 29.3932 65.0157 29.3638 65.4093 29.4471C65.803 29.5304 66.1652 29.7229 66.4544 30.0027C66.7417 30.2901 66.9413 30.6534 67.0297 31.05C67.1181 31.4467 67.0918 31.8603 66.9537 32.2426L58.2939 56.4671L58.2654 56.5385L58.2369 56.5955C58.2306 56.608 58.2271 56.6206 58.2239 56.6319C58.2199 56.6464 58.2164 56.6588 58.2083 56.6668C58.2012 56.6739 58.1977 56.6847 58.1941 56.6953C58.1905 56.7061 58.1869 56.7168 58.1798 56.7239L58.137 56.7952C58.137 56.8027 58.133 56.8103 58.1293 56.8179C58.1259 56.8246 58.1227 56.8314 58.1227 56.8381L58.0799 56.9094C58.0657 56.9237 58.0514 56.938 58.0514 56.9522L57.9943 57.0092C57.9943 57.0235 57.9801 57.0379 57.9658 57.0521L57.9087 57.1234L57.8802 57.1662L57.6947 57.3517L57.6234 57.4087C57.6179 57.4142 57.6125 57.4176 57.6078 57.4204C57.6003 57.4251 57.5949 57.4284 57.5949 57.4372L57.5235 57.4801L57.4807 57.5085L57.4237 57.5514L57.3666 57.5799L57.3238 57.6084L57.2525 57.6512H57.2097L57.1241 57.6941H57.0813L56.9957 57.7368L32.7711 66.3966C32.5429 66.4817 32.3013 66.5252 32.0578 66.525C31.7765 66.5272 31.4976 66.4727 31.2378 66.3649C30.978 66.257 30.7426 66.0981 30.5455 65.8973C30.2582 65.61 30.0587 65.2466 29.9702 64.85C29.8818 64.4533 29.9082 64.0397 30.0462 63.6574L38.706 39.4329L38.7345 39.3616C38.7417 39.3544 38.7452 39.3437 38.7488 39.333C38.7523 39.3223 38.7559 39.3116 38.763 39.3045C38.7687 39.2794 38.7783 39.2553 38.7916 39.2332L38.8201 39.1903L38.8486 39.119C38.8634 39.1031 38.8733 39.0833 38.8772 39.0619L38.92 39.0049C38.9342 38.9907 38.9485 38.9763 38.9485 38.962C38.9592 38.9327 38.9793 38.9076 39.0056 38.8907L39.0341 38.8479L39.0912 38.7766L39.1197 38.7481L39.1768 38.6767L39.2766 38.5769H39.3052L39.3765 38.5056H39.405L39.4764 38.4485L39.5192 38.4199L39.5762 38.3772L39.6333 38.3486L39.6761 38.3201L39.7474 38.2773H39.7902L39.8758 38.2345H39.9186L39.99 38.2059H40.0042ZM41.6021 44.1266L35.5959 60.904L52.3733 54.8978L41.6021 44.1266ZM44.6266 41.0878L55.3978 51.8733L61.404 35.0959L44.6266 41.0878Z" fill="#A6A7AA"/>
<path fill-rule="evenodd" clip-rule="evenodd" d="M66.8701 3.6277C72.6958 6.03978 77.9854 9.58315 82.4329 14.0527C86.9051 18.499 90.4511 23.7881 92.8656 29.6139C95.2802 35.4396 96.5154 41.6866 96.4997 47.9929C96.5185 54.2996 95.2848 60.5473 92.87 66.3736C90.4553 72.1998 86.9077 77.4885 82.4329 81.933C77.9885 86.4077 72.6998 89.9553 66.8736 92.3701C61.0474 94.7848 54.7996 96.0185 48.4928 95.9998C42.1865 96.0154 35.9397 94.7802 30.1139 92.3657C24.2881 89.9511 18.999 86.4051 14.5527 81.933C10.0831 77.4855 6.53978 72.1958 4.1277 66.3701C1.71561 60.5444 0.482664 54.2982 0.500184 47.9929C0.485033 41.6879 1.71904 35.4424 4.13099 29.617C6.54295 23.7915 10.085 18.5016 14.5527 14.0527C19.0016 9.58503 24.2915 6.04298 30.1169 3.63105C35.9423 1.21904 42.1878 -0.0150027 48.4928 0.000183396C54.7981 -0.0173015 61.0444 1.21563 66.8701 3.6277ZM4.78015 47.9929C4.78015 72.1033 24.3966 91.7198 48.4928 91.7198C72.6033 91.7198 92.2198 72.1033 92.2198 47.9929C92.2198 23.8824 72.589 4.28015 48.4928 4.28015C24.3966 4.28015 4.78015 23.8824 4.78015 47.9929Z" fill="#A6A7AA"/>
</svg>
