<svg width="101" height="95" viewBox="0 0 101 95" fill="none" xmlns="http://www.w3.org/2000/svg">
<g clip-path="url(#clip0_1_13986)">
<path d="M100.763 33.764C100.579 24.9292 96.9399 16.5184 90.6265 10.3353C84.3132 4.15229 75.8283 0.689453 66.9915 0.689453C58.1548 0.689453 49.6699 4.15229 43.3565 10.3353C37.0432 16.5184 33.4041 24.9292 33.2198 33.764C33.2198 34.7925 33.2639 35.8063 33.3521 36.8054H14.4276C10.8034 36.8132 7.33011 38.2574 4.7688 40.8214C2.20748 43.3855 0.767064 46.8604 0.763184 50.4845V72.4651C0.767073 76.088 2.20796 79.5613 4.76969 82.1231C7.33143 84.6848 10.8048 86.1257 14.4276 86.1296H29.9139V90.4493H28.5034C27.9189 90.4493 27.3583 90.6815 26.945 91.0948C26.5317 91.5081 26.2995 92.0687 26.2995 92.6532C26.2995 93.2378 26.5317 93.7983 26.945 94.2116C27.3583 94.625 27.9189 94.8572 28.5034 94.8572H47.9568C48.5414 94.8572 49.1019 94.625 49.5153 94.2116C49.9286 93.7983 50.1608 93.2378 50.1608 92.6532C50.1608 92.0687 49.9286 91.5081 49.5153 91.0948C49.1019 90.6815 48.5414 90.4493 47.9568 90.4493H46.5463V86.1296H62.0327C65.6555 86.1257 69.1288 84.6848 71.6906 82.1231C74.2523 79.5613 75.6932 76.088 75.6971 72.4651V66.4117C82.8884 64.4918 89.2442 60.2504 93.777 54.3466C98.3098 48.4428 100.766 41.2072 100.763 33.764ZM42.1384 90.4493H34.3218V86.1296H42.1384V90.4493ZM71.2892 72.4651C71.2853 74.9189 70.3088 77.2711 68.5737 79.0062C66.8386 80.7413 64.4865 81.7178 62.0327 81.7217H14.4276C11.9738 81.7178 9.62162 80.7413 7.88653 79.0062C6.15143 77.2711 5.17494 74.9189 5.17106 72.4651V50.4845C5.17106 48.0282 6.14583 45.6723 7.88134 43.934C9.61686 42.1957 11.9713 41.2172 14.4276 41.2133H34.0426C34.6322 43.8457 35.54 46.3966 36.7461 48.8096C37.0824 49.4453 37.1764 50.1815 37.0106 50.8813L35.1299 57.9045C34.841 58.9747 34.8393 60.1021 35.1252 61.1732C35.4111 62.2442 35.9743 63.2209 36.7582 64.0047C37.542 64.7885 38.5187 65.3518 39.5897 65.6377C40.6607 65.9236 41.7882 65.9219 42.8584 65.6329L49.8816 63.7523C50.5814 63.5865 51.3176 63.6805 51.9533 64.0167C56.6251 66.3486 61.7774 67.5562 66.9989 67.543C68.4331 67.5437 69.8659 67.4554 71.2892 67.2786V72.4651ZM66.9989 63.1351C62.4613 63.1502 57.9831 62.1036 53.9222 60.079C52.8747 59.5466 51.7178 59.2649 50.5428 59.2562C49.933 59.2602 49.3261 59.3391 48.7356 59.4913L41.7123 61.372C41.3904 61.463 41.0501 61.4666 40.7264 61.3822C40.4026 61.2979 40.1073 61.1287 39.8707 60.8921C39.6342 60.6556 39.465 60.3602 39.3807 60.0365C39.2963 59.7128 39.2998 59.3724 39.3909 59.0505L41.2716 52.0273C41.7076 50.2841 41.4989 48.4421 40.6838 46.8407C39.3956 44.2601 38.4992 41.5017 38.0244 38.6567C38.0266 38.6266 38.0215 38.5964 38.0097 38.5686C37.7562 36.9796 37.6284 35.3731 37.6277 33.764C37.6277 17.5724 50.7926 4.40756 66.9989 4.40756C83.2051 4.40756 96.3553 17.5724 96.3553 33.764C96.3553 49.9556 83.1905 63.1351 66.9989 63.1351Z" fill="#A6A7AA"/>
<path d="M52.8937 31.707H72.9642C73.5487 31.707 74.1093 31.4748 74.5226 31.0615C74.9359 30.6482 75.1681 30.0876 75.1681 29.5031C75.1681 28.9185 74.9359 28.358 74.5226 27.9446C74.1093 27.5313 73.5487 27.2991 72.9642 27.2991H52.8937C52.3091 27.2991 51.7486 27.5313 51.3352 27.9446C50.9219 28.358 50.6897 28.9185 50.6897 29.5031C50.6897 30.0876 50.9219 30.6482 51.3352 31.0615C51.7486 31.4748 52.3091 31.707 52.8937 31.707Z" fill="#A6A7AA"/>
<path d="M81.1041 38.4217H52.8937C52.3091 38.4217 51.7486 38.6539 51.3352 39.0672C50.9219 39.4805 50.6897 40.0411 50.6897 40.6256C50.6897 41.2101 50.9219 41.7707 51.3352 42.184C51.7486 42.5973 52.3091 42.8295 52.8937 42.8295H81.1041C81.6886 42.8295 82.2492 42.5973 82.6625 42.184C83.0758 41.7707 83.308 41.2101 83.308 40.6256C83.308 40.0411 83.0758 39.4805 82.6625 39.0672C82.2492 38.6539 81.6886 38.4217 81.1041 38.4217Z" fill="#A6A7AA"/>
</g>
<defs>
<clipPath id="clip0_1_13986">
<rect width="100" height="94.8575" fill="white" transform="translate(0.763672)"/>
</clipPath>
</defs>
</svg>
