<svg width="100" height="75" viewBox="0 0 100 75" fill="none" xmlns="http://www.w3.org/2000/svg">
<path fill-rule="evenodd" clip-rule="evenodd" d="M17.1744 0H82.8256C87.3793 0.00395461 91.7454 1.81468 94.9653 5.03465C98.1853 8.25463 99.996 12.6207 100 17.1744V57.4223C99.996 61.9761 98.1853 66.3421 94.9653 69.5621C91.7454 72.7821 87.3793 74.5928 82.8256 74.5968H17.1744C12.6207 74.5928 8.25462 72.7821 5.03464 69.5621C1.81467 66.3421 0.00395461 61.9761 0 57.4223V17.1744C0.00395461 12.6207 1.81467 8.25463 5.03464 5.03465C8.25462 1.81468 12.6207 0.00395461 17.1744 0ZM91.793 66.3898C94.1719 64.0108 95.5118 60.7866 95.5197 57.4223V17.1744C95.5118 13.8102 94.1719 10.5859 91.793 8.20704C89.4141 5.82813 86.1898 4.48817 82.8256 4.48029H17.1744C13.8102 4.48817 10.5859 5.82813 8.20703 8.20704C5.82812 10.5859 4.48817 13.8102 4.48029 17.1744V57.4223C4.48817 60.7866 5.82812 64.0108 8.20703 66.3898C10.5859 68.7687 13.8102 70.1086 17.1744 70.1165H82.8256C86.1898 70.1086 89.4141 68.7687 91.793 66.3898ZM46.8787 22.6255L60.5585 31.6906C61.482 32.3041 62.2393 33.1365 62.7631 34.1136C63.2868 35.0908 63.5607 36.1823 63.5603 37.291C63.5647 38.4004 63.2926 39.4934 62.7685 40.4712C62.2444 41.449 61.4848 42.2808 60.5585 42.8913L46.8787 51.9714C45.7768 52.7034 44.483 53.0931 43.1601 53.0914C42.0514 53.0881 40.96 52.8166 39.9791 52.2999C38.909 51.7231 38.0149 50.8674 37.3918 49.8235C36.7686 48.7797 36.4396 47.5867 36.4396 46.371V28.2258C36.4396 27.0102 36.7686 25.8172 37.3918 24.7733C38.0149 23.7295 38.909 22.8738 39.9791 22.2969C41.0517 21.7237 42.2594 21.4515 43.4742 21.5094C44.689 21.5672 45.8655 21.9529 46.8787 22.6255ZM44.3996 48.2378L58.0794 39.1578C58.3892 38.9552 58.6431 38.6782 58.8179 38.352C58.9927 38.0258 59.0828 37.661 59.08 37.291C59.0802 36.9214 58.9889 36.5576 58.8143 36.2318C58.6397 35.9061 58.3873 35.6287 58.0794 35.4242L44.3996 26.3591C44.0389 26.1112 43.6127 25.9761 43.175 25.9708C42.7983 25.9728 42.4284 26.0705 42.0997 26.2545C41.738 26.4394 41.4355 26.7222 41.2269 27.0708C41.0182 27.4194 40.9119 27.8197 40.9199 28.2258V46.371C40.9119 46.7772 41.0182 47.1774 41.2269 47.526C41.4355 47.8746 41.738 48.1575 42.0997 48.3423C42.4547 48.5412 42.8582 48.6368 43.2646 48.6184C43.671 48.5999 44.0642 48.4681 44.3996 48.2378Z" fill="#A6A7AA"/>
</svg>
