<svg width="28" height="28" viewBox="0 0 28 28" fill="none" xmlns="http://www.w3.org/2000/svg">
<path d="M22.6325 13.8984C22.7938 13.7366 22.8844 13.5175 22.8844 13.2891C22.8844 13.0606 22.7938 12.8415 22.6325 12.6797L14.7107 5.77341C14.5226 5.62514 14.29 5.54451 14.0505 5.54451C13.811 5.54451 13.5784 5.62514 13.3903 5.77341L5.46845 13.0859C5.39013 13.1617 5.32789 13.2525 5.28535 13.3528C5.24282 13.4531 5.22088 13.5609 5.22088 13.6699C5.22088 13.7788 5.24282 13.8868 5.28535 13.9871C5.32789 14.0874 5.39013 14.1782 5.46845 14.2539V14.5078C5.63604 14.6577 5.85304 14.7406 6.07788 14.7406C6.30272 14.7406 6.51964 14.6577 6.68723 14.5078L7.24583 13.9999V21.7695C7.24583 21.9984 7.33677 22.218 7.49866 22.3799C7.66056 22.5418 7.88014 22.6328 8.1091 22.6328H11.2068C11.3221 22.6403 11.4376 22.623 11.5458 22.5823C11.6539 22.5416 11.7521 22.4782 11.8338 22.3965C11.9155 22.3148 11.9788 22.2167 12.0195 22.1085C12.0603 22.0004 12.0775 21.8848 12.07 21.7695V16.336H16.031V21.7695C16.024 21.8804 16.0399 21.9916 16.0776 22.0962C16.1153 22.2007 16.1741 22.2962 16.2502 22.3771C16.3264 22.458 16.4183 22.5225 16.5204 22.5665C16.6224 22.6105 16.7324 22.633 16.8435 22.6328H20.1442C20.3732 22.6328 20.5928 22.5418 20.7547 22.3799C20.9166 22.218 21.0075 21.9984 21.0075 21.7695V13.8984L21.363 14.2031C21.363 14.2031 21.9724 14.2031 22.3279 13.8984H22.6325Z" fill="#343735"/>
<path fill-rule="evenodd" clip-rule="evenodd" d="M22.6325 13.8984C22.7938 13.7366 22.8844 13.5175 22.8844 13.2891C22.8844 13.0606 22.7938 12.8415 22.6325 12.6797L14.7107 5.77341C14.5226 5.62514 14.29 5.54451 14.0505 5.54451C13.811 5.54451 13.5784 5.62514 13.3903 5.77341L5.46845 13.0859C5.39013 13.1617 5.32789 13.2525 5.28535 13.3528C5.24282 13.4531 5.22088 13.5609 5.22088 13.6699C5.22088 13.7788 5.24282 13.8868 5.28535 13.9871C5.32789 14.0874 5.39013 14.1782 5.46845 14.2539V14.5078C5.63604 14.6577 5.85304 14.7406 6.07788 14.7406C6.30272 14.7406 6.51964 14.6577 6.68723 14.5078L7.24583 13.9999V21.7695C7.24583 21.9984 7.33677 22.218 7.49866 22.3799C7.66056 22.5418 7.88014 22.6328 8.1091 22.6328H11.2068C11.3221 22.6403 11.4376 22.623 11.5458 22.5823C11.6539 22.5416 11.7521 22.4782 11.8338 22.3965C11.9155 22.3148 11.9788 22.2167 12.0195 22.1085C12.0603 22.0004 12.0775 21.8848 12.07 21.7695V16.336H16.031V21.7695C16.024 21.8804 16.0399 21.9916 16.0776 22.0962C16.1153 22.2007 16.1741 22.2962 16.2502 22.3771C16.3264 22.458 16.4183 22.5225 16.5204 22.5665C16.6224 22.6105 16.7324 22.633 16.8435 22.6328H20.1442C20.3732 22.6328 20.5928 22.5418 20.7547 22.3799C20.9166 22.218 21.0075 21.9984 21.0075 21.7695V13.8984L21.363 14.2031C21.363 14.2031 21.9724 14.2031 22.3279 13.8984H22.6325Z" fill="#343735"/>
<path d="M22.6325 13.8984C22.7938 13.7366 22.8844 13.5175 22.8844 13.2891C22.8844 13.0606 22.7938 12.8415 22.6325 12.6797L14.7107 5.77341C14.5226 5.62514 14.29 5.54451 14.0505 5.54451C13.811 5.54451 13.5784 5.62514 13.3903 5.77341L5.46845 13.0859C5.39013 13.1617 5.32789 13.2525 5.28535 13.3528C5.24282 13.4531 5.22088 13.5609 5.22088 13.6699C5.22088 13.7788 5.24282 13.8868 5.28535 13.9871C5.32789 14.0874 5.39013 14.1782 5.46845 14.2539V14.5078C5.63604 14.6577 5.85304 14.7406 6.07788 14.7406C6.30272 14.7406 6.51964 14.6577 6.68723 14.5078L7.24583 13.9999V21.7695C7.24583 21.9984 7.33677 22.218 7.49866 22.3799C7.66056 22.5418 7.88014 22.6328 8.1091 22.6328H11.2068C11.3221 22.6403 11.4376 22.623 11.5458 22.5823C11.6539 22.5416 11.7521 22.4782 11.8338 22.3965C11.9155 22.3148 11.9788 22.2167 12.0195 22.1085C12.0603 22.0004 12.0775 21.8848 12.07 21.7695V16.336H16.031V21.7695C16.024 21.8804 16.0399 21.9916 16.0776 22.0962C16.1153 22.2007 16.1741 22.2962 16.2502 22.3771C16.3264 22.458 16.4183 22.5225 16.5204 22.5665C16.6224 22.6105 16.7324 22.633 16.8435 22.6328H20.1442C20.3732 22.6328 20.5928 22.5418 20.7547 22.3799C20.9166 22.218 21.0075 21.9984 21.0075 21.7695V13.8984L21.363 14.2031C21.363 14.2031 21.9724 14.2031 22.3279 13.8984H22.6325Z" stroke="#343735" stroke-width="0.25" stroke-miterlimit="10"/>
<path fill-rule="evenodd" clip-rule="evenodd" d="M22.6325 13.8984C22.7938 13.7366 22.8844 13.5175 22.8844 13.2891C22.8844 13.0606 22.7938 12.8415 22.6325 12.6797L14.7107 5.77341C14.5226 5.62514 14.29 5.54451 14.0505 5.54451C13.811 5.54451 13.5784 5.62514 13.3903 5.77341L5.46845 13.0859C5.39013 13.1617 5.32789 13.2525 5.28535 13.3528C5.24282 13.4531 5.22088 13.5609 5.22088 13.6699C5.22088 13.7788 5.24282 13.8868 5.28535 13.9871C5.32789 14.0874 5.39013 14.1782 5.46845 14.2539V14.5078C5.63604 14.6577 5.85304 14.7406 6.07788 14.7406C6.30272 14.7406 6.51964 14.6577 6.68723 14.5078L7.24583 13.9999V21.7695C7.24583 21.9984 7.33677 22.218 7.49866 22.3799C7.66056 22.5418 7.88014 22.6328 8.1091 22.6328H11.2068C11.3221 22.6403 11.4376 22.623 11.5458 22.5823C11.6539 22.5416 11.7521 22.4782 11.8338 22.3965C11.9155 22.3148 11.9788 22.2167 12.0195 22.1085C12.0603 22.0004 12.0775 21.8848 12.07 21.7695V16.336H16.031V21.7695C16.024 21.8804 16.0399 21.9916 16.0776 22.0962C16.1153 22.2007 16.1741 22.2962 16.2502 22.3771C16.3264 22.458 16.4183 22.5225 16.5204 22.5665C16.6224 22.6105 16.7324 22.633 16.8435 22.6328H20.1442C20.3732 22.6328 20.5928 22.5418 20.7547 22.3799C20.9166 22.218 21.0075 21.9984 21.0075 21.7695V13.8984L21.363 14.2031C21.363 14.2031 21.9724 14.2031 22.3279 13.8984H22.6325Z" stroke="#343735" stroke-width="0.25" stroke-miterlimit="10"/>
</svg>
