<svg width="252" height="94" viewBox="0 0 252 94" fill="none" xmlns="http://www.w3.org/2000/svg">
<path d="M120.068 79.6239C118.668 80.5639 117.278 81.5039 115.878 82.4339C113.918 83.7539 111.958 85.0739 109.988 86.3839C109.748 86.5439 109.528 86.7439 109.218 86.5439C108.928 86.3639 109.008 86.0839 109.038 85.8039C109.478 82.4639 110.648 79.4239 112.658 76.7239C115.158 73.3739 118.458 71.1339 122.408 69.8339C124.558 69.1239 126.768 68.7739 129.028 68.7039C129.418 68.6939 129.558 68.7839 129.648 69.1339C130.518 72.8139 130.648 76.4939 129.578 80.1539C128.298 84.5439 125.458 87.5939 121.288 89.3839C118.388 90.6239 115.408 90.7639 112.418 89.6439C112.268 89.5839 112.098 89.5439 111.968 89.4439C111.648 89.2139 111.378 89.2839 111.048 89.4739C109.628 90.3139 108.128 90.9639 106.568 91.4939C106.228 91.6139 105.968 91.5139 105.868 91.2339C105.768 90.9639 105.918 90.7339 106.268 90.6139C112.078 88.5939 116.538 84.8439 119.988 79.8139C120.028 79.7639 120.058 79.7039 120.088 79.6439L120.048 79.6139L120.068 79.6239Z" fill="#41695B"/>
<path d="M108.739 82.6943C107.459 81.2643 106.519 79.6843 106.039 77.8643C105.249 74.8843 105.719 72.0443 107.049 69.3143C107.719 67.9343 108.599 66.6943 109.729 65.6343C109.969 65.4143 110.189 65.3643 110.489 65.4743C111.869 65.9743 112.899 66.9143 113.739 68.0743C114.619 69.2943 115.209 70.6543 115.529 72.1243C115.569 72.2943 115.529 72.4143 115.399 72.5243C112.189 75.1843 109.989 78.5243 108.799 82.5243C108.789 82.5743 108.769 82.6143 108.739 82.6943Z" fill="#41695B"/>
<path d="M21.754 72.53L23.29 71.09C23.834 71.378 24.402 71.738 24.994 72.17C25.602 72.602 26.066 73.002 26.386 73.37L24.778 74.954C24.474 74.586 24.034 74.17 23.458 73.706C22.882 73.242 22.314 72.85 21.754 72.53ZM14.65 81.89H18.994V88.658H14.65V86.546H17.098V83.978H14.65V81.89ZM23.65 78.65L26.146 79.13C25.41 82.33 24.33 85.138 22.906 87.554C21.498 89.954 19.714 91.906 17.554 93.41C17.442 93.25 17.266 93.05 17.026 92.81C16.786 92.586 16.546 92.354 16.306 92.114C16.066 91.89 15.85 91.706 15.658 91.562C17.786 90.266 19.498 88.522 20.794 86.33C22.09 84.122 23.042 81.562 23.65 78.65ZM10.354 74.57H12.85V81.29C12.85 82.186 12.818 83.17 12.754 84.242C12.706 85.298 12.602 86.386 12.442 87.506C12.282 88.61 12.042 89.682 11.722 90.722C11.418 91.762 11.01 92.698 10.498 93.53C10.354 93.386 10.146 93.218 9.874 93.026C9.602 92.834 9.33 92.65 9.058 92.474C8.786 92.298 8.546 92.17 8.338 92.09C8.962 91.05 9.41 89.898 9.682 88.634C9.97 87.37 10.154 86.106 10.234 84.842C10.314 83.562 10.354 82.378 10.354 81.29V74.57ZM11.89 74.57H26.194V77.09H11.89V74.57ZM13.666 78.434H18.778V80.546H13.666V78.434ZM13.546 81.89H15.418V89.93H13.546V81.89ZM5.05 73.25L6.658 71.162C7.122 71.354 7.602 71.586 8.098 71.858C8.61 72.114 9.09 72.378 9.538 72.65C10.002 72.922 10.378 73.194 10.666 73.466L8.938 75.77C8.682 75.498 8.33 75.218 7.882 74.93C7.45 74.626 6.986 74.33 6.49 74.042C5.994 73.738 5.514 73.474 5.05 73.25ZM3.922 79.754L5.506 77.642C5.97 77.802 6.45 78.01 6.946 78.266C7.458 78.506 7.938 78.762 8.386 79.034C8.834 79.306 9.202 79.57 9.49 79.826L7.81 82.154C7.538 81.898 7.186 81.626 6.754 81.338C6.322 81.034 5.85 80.746 5.338 80.474C4.842 80.202 4.37 79.962 3.922 79.754ZM4.042 91.634C4.362 90.978 4.706 90.218 5.074 89.354C5.442 88.474 5.81 87.546 6.178 86.57C6.546 85.578 6.89 84.602 7.21 83.642L9.514 85.106C9.242 86.002 8.946 86.914 8.626 87.842C8.306 88.754 7.978 89.658 7.642 90.554C7.322 91.434 6.994 92.274 6.658 93.074L4.042 91.634ZM18.994 71.306H21.634C21.65 73.258 21.706 75.154 21.802 76.994C21.898 78.834 22.026 80.546 22.186 82.13C22.362 83.714 22.554 85.098 22.762 86.282C22.97 87.466 23.194 88.394 23.434 89.066C23.674 89.738 23.93 90.082 24.202 90.098C24.378 90.114 24.522 89.826 24.634 89.234C24.746 88.642 24.834 87.786 24.898 86.666C25.042 86.858 25.25 87.058 25.522 87.266C25.794 87.458 26.058 87.642 26.314 87.818C26.586 87.978 26.794 88.09 26.938 88.154C26.746 89.626 26.49 90.746 26.17 91.514C25.866 92.282 25.538 92.802 25.186 93.074C24.834 93.362 24.49 93.506 24.154 93.506C23.418 93.49 22.77 93.13 22.21 92.426C21.666 91.722 21.202 90.714 20.818 89.402C20.434 88.09 20.114 86.522 19.858 84.698C19.618 82.874 19.426 80.834 19.282 78.578C19.154 76.322 19.058 73.898 18.994 71.306ZM28.09 72.146H36.658V74.666H28.09V72.146ZM30.73 79.586H35.962V90.506H30.73V88.034H33.562V82.058H30.73V79.586ZM30.61 73.538L33.178 73.898C32.97 75.61 32.69 77.29 32.338 78.938C31.986 80.57 31.546 82.098 31.018 83.522C30.506 84.946 29.866 86.202 29.098 87.29C29.018 87.066 28.89 86.794 28.714 86.474C28.538 86.138 28.354 85.802 28.162 85.466C27.97 85.114 27.794 84.834 27.634 84.626C28.21 83.746 28.69 82.722 29.074 81.554C29.474 80.37 29.794 79.098 30.034 77.738C30.274 76.362 30.466 74.962 30.61 73.538ZM29.65 79.586H31.978V92.282H29.65V79.586ZM40.642 82.73L42.586 83.042C42.522 83.874 42.378 84.73 42.154 85.61C41.946 86.49 41.634 87.226 41.218 87.818L39.418 86.858C39.754 86.394 40.026 85.778 40.234 85.01C40.442 84.242 40.578 83.482 40.642 82.73ZM47.818 82.322L50.242 83.162C49.842 83.898 49.434 84.65 49.018 85.418C48.618 86.186 48.242 86.842 47.89 87.386L46.066 86.618C46.274 86.234 46.49 85.794 46.714 85.298C46.938 84.786 47.146 84.274 47.338 83.762C47.53 83.234 47.69 82.754 47.818 82.322ZM37.618 71.762H39.994V74.714H47.146V71.762H49.642V77.042H37.618V71.762ZM36.442 78.506H50.458V80.93H36.442V78.506ZM42.226 71.018H44.77V76.322H42.226V71.018ZM43.498 81.266H45.85C45.802 82.882 45.706 84.338 45.562 85.634C45.434 86.93 45.178 88.082 44.794 89.09C44.41 90.082 43.834 90.946 43.066 91.682C42.314 92.434 41.306 93.066 40.042 93.578C39.914 93.274 39.706 92.922 39.418 92.522C39.13 92.122 38.858 91.81 38.602 91.586C39.722 91.154 40.602 90.642 41.242 90.05C41.882 89.458 42.362 88.746 42.682 87.914C43.002 87.082 43.21 86.122 43.306 85.034C43.418 83.93 43.482 82.674 43.498 81.266ZM45.754 82.274C45.802 83.25 45.89 84.194 46.018 85.106C46.162 86.018 46.402 86.874 46.738 87.674C47.09 88.458 47.586 89.17 48.226 89.81C48.882 90.45 49.754 90.986 50.842 91.418C50.554 91.674 50.258 92.01 49.954 92.426C49.65 92.842 49.418 93.226 49.258 93.578C48.09 93.018 47.154 92.33 46.45 91.514C45.762 90.714 45.234 89.818 44.866 88.826C44.514 87.834 44.258 86.794 44.098 85.706C43.954 84.602 43.85 83.498 43.786 82.394L45.754 82.274ZM37.402 77.546H39.826V81.674C39.826 82.938 39.77 84.258 39.658 85.634C39.546 86.994 39.314 88.346 38.962 89.69C38.61 91.034 38.042 92.306 37.258 93.506C37.018 93.266 36.682 92.994 36.25 92.69C35.818 92.386 35.426 92.162 35.074 92.018C35.794 90.946 36.314 89.818 36.634 88.634C36.954 87.45 37.162 86.266 37.258 85.082C37.354 83.882 37.402 82.738 37.402 81.65V77.546ZM52.714 73.01H73.786V75.482H52.714V73.01ZM61.618 70.994H64.57V74.234H61.618V70.994ZM53.65 82.706H71.218V85.082H56.458V93.578H53.65V82.706ZM70.138 82.706H73.018V90.53C73.018 91.186 72.938 91.714 72.778 92.114C72.618 92.53 72.306 92.85 71.842 93.074C71.378 93.282 70.826 93.41 70.186 93.458C69.546 93.506 68.786 93.53 67.906 93.53C67.858 93.13 67.746 92.666 67.57 92.138C67.394 91.626 67.21 91.194 67.018 90.842C67.578 90.858 68.114 90.874 68.626 90.89C69.154 90.89 69.498 90.882 69.658 90.866C69.85 90.85 69.978 90.818 70.042 90.77C70.106 90.722 70.138 90.626 70.138 90.482V82.706ZM58.618 86.186H61.114V92.69H58.618V86.186ZM59.89 86.186H67.834V91.586H59.89V89.642H65.314V88.13H59.89V86.186ZM59.386 78.314V79.778H66.922V78.314H59.386ZM56.65 76.394H69.85V81.698H56.65V76.394ZM94.042 70.97L96.13 73.37C94.898 73.69 93.554 73.97 92.098 74.21C90.658 74.434 89.162 74.634 87.61 74.81C86.058 74.97 84.498 75.106 82.93 75.218C81.362 75.314 79.85 75.386 78.394 75.434C78.346 75.066 78.25 74.634 78.106 74.138C77.962 73.626 77.818 73.21 77.674 72.89C79.114 72.842 80.586 72.762 82.09 72.65C83.61 72.538 85.09 72.402 86.53 72.242C87.986 72.082 89.354 71.898 90.634 71.69C91.914 71.482 93.05 71.242 94.042 70.97ZM77.914 77.786H96.874V80.546H77.914V77.786ZM76.258 83.378H98.314V86.21H76.258V83.378ZM85.786 74.378H88.786V90.122C88.786 90.986 88.666 91.626 88.426 92.042C88.202 92.474 87.794 92.81 87.202 93.05C86.642 93.258 85.914 93.394 85.018 93.458C84.138 93.522 83.082 93.546 81.85 93.53C81.802 93.258 81.706 92.946 81.562 92.594C81.434 92.258 81.29 91.914 81.13 91.562C80.97 91.226 80.818 90.93 80.674 90.674C81.282 90.69 81.882 90.706 82.474 90.722C83.066 90.738 83.594 90.746 84.058 90.746C84.522 90.746 84.85 90.746 85.042 90.746C85.314 90.73 85.506 90.674 85.618 90.578C85.73 90.482 85.786 90.314 85.786 90.074V74.378Z" fill="#41695B"/>
<path d="M145.762 72.77H148.546V79.466H145.762V72.77ZM145.762 87.194H148.618V93.578H145.762V87.194ZM144.946 79.538L147.538 80.762C146.77 81.354 145.97 81.938 145.138 82.514C144.322 83.074 143.57 83.546 142.882 83.93L140.962 82.85C141.41 82.562 141.874 82.226 142.354 81.842C142.85 81.458 143.322 81.066 143.77 80.666C144.234 80.266 144.626 79.89 144.946 79.538ZM150.418 80.786L152.89 82.154C151.882 82.842 150.794 83.53 149.626 84.218C148.458 84.906 147.282 85.554 146.098 86.162C144.93 86.77 143.834 87.298 142.81 87.746L141.01 86.474C141.794 86.122 142.602 85.722 143.434 85.274C144.282 84.81 145.13 84.322 145.978 83.81C146.826 83.298 147.626 82.786 148.378 82.274C149.146 81.762 149.826 81.266 150.418 80.786ZM138.37 82.994L140.386 81.458C140.994 81.746 141.634 82.09 142.306 82.49C142.994 82.89 143.65 83.29 144.274 83.69C144.898 84.09 145.41 84.474 145.81 84.842L143.626 86.522C143.274 86.17 142.802 85.786 142.21 85.37C141.618 84.938 140.986 84.514 140.314 84.098C139.642 83.682 138.994 83.314 138.37 82.994ZM150.49 85.01L152.578 83.69C153.218 84.058 153.89 84.49 154.594 84.986C155.314 85.466 155.986 85.954 156.61 86.45C157.25 86.93 157.778 87.386 158.194 87.818L155.962 89.258C155.594 88.842 155.098 88.386 154.474 87.89C153.866 87.378 153.21 86.866 152.506 86.354C151.818 85.842 151.146 85.394 150.49 85.01ZM150.082 89.978L152.17 88.514C152.794 88.802 153.458 89.138 154.162 89.522C154.866 89.906 155.546 90.298 156.202 90.698C156.874 91.098 157.426 91.466 157.858 91.802L155.602 93.41C155.218 93.09 154.714 92.722 154.09 92.306C153.466 91.89 152.802 91.482 152.098 91.082C151.394 90.666 150.722 90.298 150.082 89.978ZM136.762 86.33C137.914 86.33 139.21 86.322 140.65 86.306C142.106 86.29 143.65 86.274 145.282 86.258C146.914 86.226 148.586 86.202 150.298 86.186C152.026 86.154 153.738 86.13 155.434 86.114L155.29 88.178C153.61 88.226 151.922 88.274 150.226 88.322C148.546 88.37 146.898 88.41 145.282 88.442C143.682 88.474 142.162 88.506 140.722 88.538C139.298 88.57 138.002 88.594 136.834 88.61L136.762 86.33ZM141.682 88.706L144.274 89.714C143.762 90.194 143.17 90.666 142.498 91.13C141.842 91.594 141.154 92.026 140.434 92.426C139.73 92.826 139.05 93.17 138.394 93.458C138.234 93.298 138.026 93.09 137.77 92.834C137.514 92.594 137.25 92.354 136.978 92.114C136.722 91.89 136.49 91.706 136.282 91.562C137.274 91.226 138.258 90.81 139.234 90.314C140.226 89.802 141.042 89.266 141.682 88.706ZM141.01 77.21V78.482H153.49V77.21H141.01ZM141.01 73.922V75.17H153.49V73.922H141.01ZM138.298 71.762H156.322V80.642H138.298V71.762ZM163.546 73.274H166.33V93.554H163.546V73.274ZM160.306 77.594H168.706V80.282H160.306V77.594ZM163.786 78.866L165.466 79.586C165.226 80.45 164.946 81.346 164.626 82.274C164.322 83.202 163.978 84.122 163.594 85.034C163.226 85.93 162.818 86.778 162.37 87.578C161.938 88.378 161.49 89.074 161.026 89.666C160.898 89.25 160.698 88.786 160.426 88.274C160.17 87.746 159.922 87.298 159.682 86.93C160.114 86.45 160.53 85.89 160.93 85.25C161.33 84.594 161.714 83.898 162.082 83.162C162.45 82.426 162.778 81.69 163.066 80.954C163.354 80.218 163.594 79.522 163.786 78.866ZM167.266 71.282L169.186 73.49C168.386 73.794 167.506 74.066 166.546 74.306C165.602 74.53 164.634 74.722 163.642 74.882C162.666 75.026 161.722 75.154 160.81 75.266C160.746 74.962 160.634 74.594 160.474 74.162C160.314 73.714 160.154 73.346 159.994 73.058C160.874 72.93 161.754 72.778 162.634 72.602C163.514 72.41 164.354 72.202 165.154 71.978C165.954 71.754 166.658 71.522 167.266 71.282ZM166.114 80.858C166.258 80.97 166.474 81.178 166.762 81.482C167.066 81.77 167.386 82.09 167.722 82.442C168.074 82.794 168.386 83.122 168.658 83.426C168.93 83.714 169.122 83.922 169.234 84.05L167.602 86.33C167.458 86.026 167.266 85.682 167.026 85.298C166.802 84.914 166.554 84.514 166.282 84.098C166.026 83.682 165.77 83.29 165.514 82.922C165.258 82.538 165.034 82.226 164.842 81.986L166.114 80.858ZM174.01 71.018H176.89V78.698H174.01V71.018ZM169.306 72.146H181.882V73.874H169.306V72.146ZM169.738 74.69H181.33V76.37H169.738V74.69ZM168.562 77.186H182.386V78.986H168.562V77.186ZM172.642 84.194V85.226H178.498V84.194H172.642ZM172.642 86.882V87.914H178.498V86.882H172.642ZM172.642 81.554V82.562H178.498V81.554H172.642ZM170.074 79.778H181.21V89.69H170.074V79.778ZM176.242 90.77L178.162 89.402C178.69 89.69 179.234 90.01 179.794 90.362C180.37 90.714 180.914 91.058 181.426 91.394C181.938 91.714 182.378 91.994 182.746 92.234L180.226 93.602C179.938 93.362 179.57 93.074 179.122 92.738C178.674 92.418 178.202 92.082 177.706 91.73C177.21 91.378 176.722 91.058 176.242 90.77ZM172.738 89.282L174.97 90.746C174.49 91.13 173.922 91.506 173.266 91.874C172.61 92.258 171.922 92.602 171.202 92.906C170.498 93.21 169.818 93.466 169.162 93.674C168.954 93.418 168.674 93.114 168.322 92.762C167.986 92.426 167.674 92.13 167.386 91.874C168.042 91.698 168.706 91.466 169.378 91.178C170.05 90.874 170.682 90.562 171.274 90.242C171.866 89.906 172.354 89.586 172.738 89.282ZM184.09 72.146H192.658V74.666H184.09V72.146ZM186.73 79.586H191.962V90.506H186.73V88.034H189.562V82.058H186.73V79.586ZM186.61 73.538L189.178 73.898C188.97 75.61 188.69 77.29 188.338 78.938C187.986 80.57 187.546 82.098 187.018 83.522C186.506 84.946 185.866 86.202 185.098 87.29C185.018 87.066 184.89 86.794 184.714 86.474C184.538 86.138 184.354 85.802 184.162 85.466C183.97 85.114 183.794 84.834 183.634 84.626C184.21 83.746 184.69 82.722 185.074 81.554C185.474 80.37 185.794 79.098 186.034 77.738C186.274 76.362 186.466 74.962 186.61 73.538ZM185.65 79.586H187.978V92.282H185.65V79.586ZM196.642 82.73L198.586 83.042C198.522 83.874 198.378 84.73 198.154 85.61C197.946 86.49 197.634 87.226 197.218 87.818L195.418 86.858C195.754 86.394 196.026 85.778 196.234 85.01C196.442 84.242 196.578 83.482 196.642 82.73ZM203.818 82.322L206.242 83.162C205.842 83.898 205.434 84.65 205.018 85.418C204.618 86.186 204.242 86.842 203.89 87.386L202.066 86.618C202.274 86.234 202.49 85.794 202.714 85.298C202.938 84.786 203.146 84.274 203.338 83.762C203.53 83.234 203.69 82.754 203.818 82.322ZM193.618 71.762H195.994V74.714H203.146V71.762H205.642V77.042H193.618V71.762ZM192.442 78.506H206.458V80.93H192.442V78.506ZM198.226 71.018H200.77V76.322H198.226V71.018ZM199.498 81.266H201.85C201.802 82.882 201.706 84.338 201.562 85.634C201.434 86.93 201.178 88.082 200.794 89.09C200.41 90.082 199.834 90.946 199.066 91.682C198.314 92.434 197.306 93.066 196.042 93.578C195.914 93.274 195.706 92.922 195.418 92.522C195.13 92.122 194.858 91.81 194.602 91.586C195.722 91.154 196.602 90.642 197.242 90.05C197.882 89.458 198.362 88.746 198.682 87.914C199.002 87.082 199.21 86.122 199.306 85.034C199.418 83.93 199.482 82.674 199.498 81.266ZM201.754 82.274C201.802 83.25 201.89 84.194 202.018 85.106C202.162 86.018 202.402 86.874 202.738 87.674C203.09 88.458 203.586 89.17 204.226 89.81C204.882 90.45 205.754 90.986 206.842 91.418C206.554 91.674 206.258 92.01 205.954 92.426C205.65 92.842 205.418 93.226 205.258 93.578C204.09 93.018 203.154 92.33 202.45 91.514C201.762 90.714 201.234 89.818 200.866 88.826C200.514 87.834 200.258 86.794 200.098 85.706C199.954 84.602 199.85 83.498 199.786 82.394L201.754 82.274ZM193.402 77.546H195.826V81.674C195.826 82.938 195.77 84.258 195.658 85.634C195.546 86.994 195.314 88.346 194.962 89.69C194.61 91.034 194.042 92.306 193.258 93.506C193.018 93.266 192.682 92.994 192.25 92.69C191.818 92.386 191.426 92.162 191.074 92.018C191.794 90.946 192.314 89.818 192.634 88.634C192.954 87.45 193.162 86.266 193.258 85.082C193.354 83.882 193.402 82.738 193.402 81.65V77.546ZM209.218 74.81H218.29V76.49H211.258V83.498H209.218V74.81ZM217.714 74.81H219.778V81.194C219.778 81.626 219.73 81.986 219.634 82.274C219.538 82.546 219.346 82.762 219.058 82.922C218.786 83.066 218.458 83.154 218.074 83.186C217.69 83.218 217.234 83.234 216.706 83.234C216.658 82.962 216.578 82.658 216.466 82.322C216.354 81.97 216.234 81.674 216.106 81.434C216.394 81.434 216.666 81.434 216.922 81.434C217.178 81.434 217.354 81.434 217.45 81.434C217.626 81.434 217.714 81.354 217.714 81.194V74.81ZM222.61 73.322H230.242V75.482H222.61V73.322ZM213.226 71.042H215.722V75.89H215.362V83.282H213.586V75.89H213.226V71.042ZM222.586 71.042L224.986 71.546C224.602 72.858 224.058 74.082 223.354 75.218C222.666 76.354 221.874 77.298 220.978 78.05C220.882 77.89 220.73 77.698 220.522 77.474C220.314 77.25 220.098 77.026 219.874 76.802C219.65 76.562 219.45 76.37 219.274 76.226C220.058 75.634 220.73 74.89 221.29 73.994C221.866 73.082 222.298 72.098 222.586 71.042ZM211.93 77.162L213.322 77.378C213.258 78.178 213.138 78.946 212.962 79.682C212.802 80.418 212.57 81.05 212.266 81.578C212.122 81.482 211.922 81.362 211.666 81.218C211.426 81.058 211.21 80.946 211.018 80.882C211.322 80.37 211.53 79.794 211.642 79.154C211.77 78.498 211.866 77.834 211.93 77.162ZM209.17 72.362L211.162 71.498C211.45 71.914 211.738 72.362 212.026 72.842C212.314 73.322 212.514 73.738 212.626 74.09L210.538 75.074C210.426 74.69 210.242 74.242 209.986 73.73C209.73 73.218 209.458 72.762 209.17 72.362ZM226.69 74.498L229.21 74.834C228.618 77.01 227.642 78.786 226.282 80.162C224.938 81.538 223.226 82.61 221.146 83.378C221.082 83.202 220.97 82.978 220.81 82.706C220.65 82.434 220.474 82.162 220.282 81.89C220.106 81.618 219.946 81.402 219.802 81.242C221.61 80.666 223.098 79.834 224.266 78.746C225.45 77.658 226.258 76.242 226.69 74.498ZM223.33 74.81C223.73 75.898 224.274 76.898 224.962 77.81C225.65 78.706 226.466 79.49 227.41 80.162C228.37 80.834 229.442 81.346 230.626 81.698C230.37 81.938 230.09 82.258 229.786 82.658C229.482 83.042 229.25 83.386 229.09 83.69C227.186 82.97 225.586 81.898 224.29 80.474C222.994 79.034 221.994 77.322 221.29 75.338L223.33 74.81ZM215.674 77.45L216.874 77.114C217.066 77.61 217.226 78.162 217.354 78.77C217.498 79.378 217.594 79.89 217.642 80.306L216.346 80.714C216.314 80.266 216.234 79.746 216.106 79.154C215.978 78.546 215.834 77.978 215.674 77.45ZM217.834 71.45L220.162 72.266C219.794 72.762 219.442 73.258 219.106 73.754C218.77 74.234 218.458 74.65 218.17 75.002L216.514 74.282C216.738 73.882 216.978 73.418 217.234 72.89C217.49 72.346 217.69 71.866 217.834 71.45ZM217.738 83.33H220.594V93.578H217.738V83.33ZM210.658 84.626H226.714V87.026H213.442V92.474H210.658V84.626ZM225.346 84.626H228.178V89.786C228.178 90.41 228.09 90.906 227.914 91.274C227.738 91.626 227.41 91.898 226.93 92.09C226.45 92.282 225.874 92.394 225.202 92.426C224.53 92.458 223.738 92.474 222.826 92.474C222.762 92.122 222.634 91.722 222.442 91.274C222.266 90.81 222.082 90.418 221.89 90.098C222.29 90.114 222.69 90.13 223.09 90.146C223.506 90.146 223.874 90.146 224.194 90.146C224.514 90.146 224.73 90.146 224.842 90.146C225.034 90.13 225.162 90.098 225.226 90.05C225.306 90.002 225.346 89.898 225.346 89.738V84.626Z" fill="#41695B"/>
<path d="M249.15 59.358H238.25V27.418H249.15C250.53 27.418 251.65 28.538 251.65 29.918V56.858C251.65 58.238 250.53 59.358 249.15 59.358Z" fill="#41695B"/>
<path d="M240.82 37.7576L240.82 36.3776L242.28 35.8576L242.28 31.9776L240.82 31.4376L240.82 30.0776L248.25 32.8076L248.25 35.0376L240.82 37.7676L240.82 37.7576ZM243.41 35.4476L247.69 33.9076L243.41 32.3876L243.41 35.4576L243.41 35.4476Z" fill="white"/>
<path d="M245.249 46.5371C244.569 46.5371 244.049 46.3371 243.679 45.9471C243.259 45.4971 243.059 44.7971 243.059 43.8671L243.059 41.0071L240.819 41.0071L240.819 39.6771L248.199 39.6771L248.199 43.8571C248.199 44.7871 247.989 45.4771 247.579 45.9271C247.209 46.3271 246.679 46.5271 245.979 46.5271L245.259 46.5271L245.249 46.5371ZM245.379 45.2071L245.859 45.2071C246.249 45.2071 246.549 45.0871 246.739 44.8571C246.929 44.6271 247.029 44.2571 247.029 43.7471L247.029 40.9971L244.269 40.9971L244.269 43.7471C244.269 44.2571 244.359 44.6271 244.539 44.8571C244.719 45.0871 244.999 45.1971 245.389 45.1971L245.379 45.2071Z" fill="white"/>
<path d="M245.249 55.418C244.569 55.418 244.049 55.218 243.679 54.828C243.259 54.378 243.059 53.678 243.059 52.748L243.059 49.888L240.819 49.888L240.819 48.558L248.199 48.558L248.199 52.738C248.199 53.668 247.989 54.358 247.579 54.808C247.209 55.208 246.679 55.408 245.979 55.408L245.259 55.408L245.249 55.418ZM245.379 54.098L245.859 54.098C246.249 54.098 246.549 53.978 246.739 53.748C246.929 53.518 247.029 53.148 247.029 52.638L247.029 49.888L244.269 49.888L244.269 52.638C244.269 53.148 244.359 53.518 244.539 53.748C244.719 53.978 244.999 54.088 245.389 54.088L245.379 54.098Z" fill="white"/>
<path d="M156.786 42.81L159.99 45.402C159.03 46.266 158.046 47.13 157.038 47.994C156.03 48.858 155.094 49.59 154.23 50.19L151.71 47.922C152.238 47.514 152.814 47.022 153.438 46.446C154.086 45.846 154.698 45.222 155.274 44.574C155.874 43.926 156.378 43.338 156.786 42.81ZM140.37 45.366L143.178 43.026C143.922 43.65 144.69 44.37 145.482 45.186C146.274 45.978 146.874 46.698 147.282 47.346L144.294 49.974C143.91 49.326 143.334 48.57 142.566 47.706C141.822 46.818 141.09 46.038 140.37 45.366ZM144.906 28.518H154.77V31.758H144.906V28.518ZM144.114 33.666H154.302V36.906H144.114V33.666ZM139.866 38.562H159.774V42.234H139.866V38.562ZM147.93 39.966H151.854V55.626C151.854 56.538 151.758 57.258 151.566 57.786C151.374 58.314 150.966 58.722 150.342 59.01C149.742 59.298 149.034 59.478 148.218 59.55C147.402 59.622 146.442 59.658 145.338 59.658C145.242 59.13 145.086 58.518 144.87 57.822C144.654 57.126 144.438 56.526 144.222 56.022C144.87 56.046 145.494 56.07 146.094 56.094C146.718 56.094 147.138 56.082 147.354 56.058C147.57 56.058 147.714 56.022 147.786 55.95C147.882 55.878 147.93 55.746 147.93 55.554V39.966ZM138.498 54.186C139.506 53.61 140.73 52.878 142.17 51.99C143.61 51.078 145.074 50.142 146.562 49.182L147.822 52.35C146.646 53.31 145.422 54.27 144.15 55.23C142.902 56.19 141.714 57.078 140.586 57.894L138.498 54.186ZM151.53 40.362C151.77 41.658 152.106 42.99 152.538 44.358C152.994 45.702 153.57 47.022 154.266 48.318C154.962 49.59 155.826 50.766 156.858 51.846C157.89 52.902 159.126 53.778 160.566 54.474C160.302 54.738 159.99 55.074 159.63 55.482C159.294 55.89 158.97 56.322 158.658 56.778C158.37 57.234 158.13 57.63 157.938 57.966C156.57 57.15 155.382 56.13 154.374 54.906C153.39 53.682 152.55 52.362 151.854 50.946C151.158 49.53 150.594 48.126 150.162 46.734C149.73 45.318 149.394 43.998 149.154 42.774L151.53 40.362ZM144.042 25.818L148.074 26.286C147.786 27.558 147.474 28.89 147.138 30.282C146.802 31.674 146.466 33.018 146.13 34.314C145.794 35.61 145.47 36.75 145.158 37.734L141.126 37.122C141.462 36.138 141.798 34.998 142.134 33.702C142.494 32.406 142.842 31.074 143.178 29.706C143.514 28.314 143.802 27.018 144.042 25.818ZM153.366 28.518H153.798L154.446 28.374L157.398 28.77C157.23 29.994 157.026 31.29 156.786 32.658C156.546 34.002 156.294 35.346 156.03 36.69C155.766 38.01 155.49 39.27 155.202 40.47L151.314 39.966C151.578 38.766 151.842 37.482 152.106 36.114C152.37 34.722 152.61 33.402 152.826 32.154C153.042 30.882 153.222 29.814 153.366 28.95V28.518ZM131.694 25.854L135.438 27.186C134.958 28.122 134.454 29.082 133.926 30.066C133.398 31.026 132.882 31.962 132.378 32.874C131.874 33.762 131.394 34.542 130.938 35.214L128.058 34.026C128.49 33.282 128.934 32.442 129.39 31.506C129.846 30.57 130.278 29.598 130.686 28.59C131.118 27.582 131.454 26.67 131.694 25.854ZM135.762 30.138L139.29 31.722C138.402 33.066 137.442 34.482 136.41 35.97C135.378 37.458 134.346 38.886 133.314 40.254C132.282 41.622 131.298 42.822 130.362 43.854L127.878 42.486C128.55 41.67 129.246 40.758 129.966 39.75C130.71 38.718 131.43 37.65 132.126 36.546C132.846 35.418 133.518 34.302 134.142 33.198C134.766 32.094 135.306 31.074 135.762 30.138ZM126.15 34.278L128.274 31.362C128.874 31.938 129.498 32.562 130.146 33.234C130.794 33.906 131.394 34.578 131.946 35.25C132.498 35.922 132.906 36.546 133.17 37.122L130.866 40.398C130.602 39.822 130.206 39.174 129.678 38.454C129.174 37.734 128.61 37.014 127.986 36.294C127.362 35.55 126.75 34.878 126.15 34.278ZM134.538 38.742L137.562 37.518C138.042 38.31 138.498 39.174 138.93 40.11C139.362 41.046 139.746 41.958 140.082 42.846C140.418 43.71 140.658 44.49 140.802 45.186L137.526 46.626C137.43 45.93 137.226 45.126 136.914 44.214C136.602 43.302 136.242 42.378 135.834 41.442C135.426 40.482 134.994 39.582 134.538 38.742ZM126.042 41.622C127.65 41.55 129.546 41.454 131.73 41.334C133.914 41.19 136.134 41.046 138.39 40.902L138.462 44.43C136.35 44.598 134.238 44.766 132.126 44.934C130.038 45.078 128.154 45.222 126.474 45.366L126.042 41.622ZM135.546 47.778L138.534 46.878C138.966 47.862 139.35 48.954 139.686 50.154C140.046 51.354 140.274 52.374 140.37 53.214L137.166 54.258C137.094 53.394 136.902 52.362 136.59 51.162C136.302 49.938 135.954 48.81 135.546 47.778ZM127.59 46.986L131.046 47.598C130.854 49.326 130.566 51.03 130.182 52.71C129.822 54.366 129.39 55.77 128.886 56.922C128.646 56.754 128.334 56.574 127.95 56.382C127.566 56.19 127.17 56.01 126.762 55.842C126.354 55.65 126.006 55.506 125.718 55.41C126.246 54.33 126.654 53.034 126.942 51.522C127.23 50.01 127.446 48.498 127.59 46.986ZM131.514 43.566H135.258V59.658H131.514V43.566ZM168.738 32.37H193.794V36.582H168.738V32.37ZM167.226 42.954H192.39V47.13H167.226V42.954ZM163.086 54.402H195.63V58.614H163.086V54.402ZM177.054 25.818H181.59V56.454H177.054V25.818ZM168.738 26.286L173.202 27.294C172.698 29.142 172.074 30.966 171.33 32.766C170.586 34.566 169.782 36.246 168.918 37.806C168.054 39.342 167.154 40.686 166.218 41.838C165.93 41.574 165.546 41.286 165.066 40.974C164.61 40.638 164.13 40.314 163.626 40.002C163.122 39.69 162.69 39.438 162.33 39.246C163.29 38.238 164.166 37.038 164.958 35.646C165.774 34.254 166.494 32.754 167.118 31.146C167.766 29.538 168.306 27.918 168.738 26.286ZM211.362 45.042H230.262V59.442H226.122V48.966H215.322V59.622H211.362V45.042ZM227.382 25.818L230.694 29.202C228.942 29.874 226.998 30.462 224.862 30.966C222.726 31.446 220.53 31.842 218.274 32.154C216.042 32.466 213.858 32.718 211.722 32.91C211.65 32.406 211.482 31.794 211.218 31.074C210.978 30.33 210.738 29.718 210.498 29.238C212.034 29.07 213.582 28.878 215.142 28.662C216.726 28.446 218.262 28.194 219.75 27.906C221.238 27.618 222.63 27.306 223.926 26.97C225.222 26.61 226.374 26.226 227.382 25.818ZM218.742 29.886H222.846V47.31H218.742V29.886ZM209.13 36.33H232.062V40.434H209.13V36.33ZM214.206 54.222H227.85V58.146H214.206V54.222ZM200.238 29.418L202.686 26.286C203.358 26.622 204.114 27.006 204.954 27.438C205.794 27.87 206.61 28.302 207.402 28.734C208.218 29.166 208.878 29.55 209.382 29.886L206.826 33.378C206.346 33.018 205.722 32.61 204.954 32.154C204.186 31.698 203.382 31.23 202.542 30.75C201.702 30.246 200.934 29.802 200.238 29.418ZM198.51 39.39L200.85 36.186C201.522 36.474 202.29 36.834 203.154 37.266C204.018 37.698 204.858 38.13 205.674 38.562C206.49 38.97 207.15 39.342 207.654 39.678L205.242 43.278C204.762 42.918 204.126 42.51 203.334 42.054C202.566 41.598 201.75 41.13 200.886 40.65C200.022 40.17 199.23 39.75 198.51 39.39ZM199.05 56.31C199.698 55.398 200.406 54.33 201.174 53.106C201.966 51.858 202.77 50.538 203.586 49.146C204.402 47.73 205.17 46.326 205.89 44.934L209.058 47.814C208.434 49.062 207.762 50.346 207.042 51.666C206.346 52.986 205.626 54.282 204.882 55.554C204.162 56.826 203.43 58.05 202.686 59.226L199.05 56.31Z" fill="#41695B"/>
<path d="M16.0902 57.418L9.21016 35.018H9.05016C9.07682 35.5513 9.11682 36.3513 9.17016 37.418C9.22349 38.4846 9.27682 39.6313 9.33016 40.858C9.38349 42.058 9.41016 43.1513 9.41016 44.138V57.418H4.01016V28.858H12.2502L19.0102 50.698H19.1302L26.2902 28.858H34.5302V57.418H28.8902V43.898C28.8902 42.9913 28.9035 41.9513 28.9302 40.778C28.9835 39.6046 29.0235 38.498 29.0502 37.458C29.1035 36.3913 29.1435 35.5913 29.1702 35.058H29.0102L21.6502 57.418H16.0902ZM58.1845 57.418H41.7445V28.858H58.1845V33.818H47.7845V40.098H57.4645V45.058H47.7845V52.418H58.1845V57.418ZM74.9673 41.378H86.2873V56.178C84.794 56.6846 83.234 57.0846 81.6073 57.378C80.0073 57.6713 78.1807 57.818 76.1273 57.818C73.3007 57.818 70.8873 57.258 68.8873 56.138C66.914 55.018 65.4073 53.3646 64.3673 51.178C63.354 48.9913 62.8473 46.298 62.8473 43.098C62.8473 40.1113 63.4207 37.5246 64.5673 35.338C65.7407 33.1513 67.434 31.458 69.6473 30.258C71.8607 29.058 74.5673 28.458 77.7673 28.458C79.2873 28.458 80.7807 28.618 82.2473 28.938C83.714 29.258 85.0473 29.6846 86.2473 30.218L84.2473 35.058C83.3673 34.6046 82.3673 34.2313 81.2473 33.938C80.1273 33.6446 78.954 33.498 77.7273 33.498C75.9673 33.498 74.434 33.898 73.1273 34.698C71.8473 35.498 70.8473 36.6313 70.1273 38.098C69.434 39.538 69.0873 41.2446 69.0873 43.218C69.0873 45.0846 69.3407 46.738 69.8473 48.178C70.354 49.618 71.154 50.7513 72.2473 51.578C73.3407 52.378 74.7673 52.778 76.5273 52.778C77.3807 52.778 78.1007 52.738 78.6873 52.658C79.3007 52.578 79.8607 52.4846 80.3673 52.378V46.418H74.9673V41.378ZM110.553 57.418L108.473 50.618H98.0727L95.9927 57.418H89.4727L99.5527 28.738H106.953L117.073 57.418H110.553ZM104.953 38.898C104.819 38.4446 104.646 37.8713 104.433 37.178C104.219 36.4846 104.006 35.778 103.793 35.058C103.579 34.338 103.406 33.7113 103.273 33.178C103.139 33.7113 102.953 34.378 102.713 35.178C102.499 35.9513 102.286 36.698 102.073 37.418C101.886 38.1113 101.739 38.6046 101.633 38.898L99.5927 45.538H107.033L104.953 38.898Z" fill="#41695B"/>
<path d="M61.2032 0.417969H6.03221C4.48969 0.417969 3.25 1.66712 3.25 3.20018V16.1554C3.25 17.6979 4.49916 18.9376 6.03221 18.9376H61.2032C62.7457 18.9376 63.9854 17.6885 63.9854 16.1554V3.20018C63.9854 1.65766 62.7363 0.417969 61.2032 0.417969ZM20.407 14.7359H19.2808V6.04863L14.729 11.4616L10.1771 6.04863V14.7359H9.051V4.77109H10.5841L14.7195 9.70146L18.855 4.77109H20.388V14.7359H20.407ZM32.4159 5.88775H24.4383V9.18098H30.845V10.3166H24.4383V13.6098H32.4159V14.7359H23.3216V4.77109H32.4159V5.89722V5.88775ZM45.2481 6.82462H44.122V6.42716C44.122 6.1338 43.8759 5.88775 43.5826 5.88775H36.9393C36.646 5.88775 36.3999 6.1338 36.3999 6.42716V13.0704C36.3999 13.3638 36.646 13.6098 36.9393 13.6098H43.5826C43.8759 13.6098 44.122 13.3638 44.122 13.0704V10.6099H41.6615V9.47434H45.2481V13.0704C45.2481 13.9978 44.51 14.7359 43.5826 14.7359H36.9393C36.0119 14.7359 35.2738 13.9978 35.2738 13.0704V6.42716C35.2738 5.49976 36.0119 4.76162 36.9393 4.76162H43.5826C44.51 4.76162 45.2481 5.49976 45.2481 6.42716V6.82462ZM58.156 14.7265H57.0299V11.0831H49.3079V14.7265H48.1817V6.42716C48.1817 5.49976 48.9199 4.76162 49.8473 4.76162H56.4905C57.4179 4.76162 58.156 5.49976 58.156 6.42716V14.7359V14.7265Z" fill="#41695B"/>
<path d="M56.499 5.88867H49.8558C49.5624 5.88867 49.3164 6.13472 49.3164 6.42808V9.97682H57.0384V6.42808C57.0384 6.13472 56.7924 5.88867 56.499 5.88867Z" fill="#41695B"/>
<path d="M74.0065 4.37503C73.6848 4.37503 73.4482 4.59269 73.4482 4.95229V11.7943C73.4482 13.4219 73.1927 15.0875 72.8331 16.6489H71.2148C71.9624 14.5765 71.9624 12.1255 71.9624 9.85428V4.88605C71.9624 4.37503 72.1328 3.96811 72.4167 3.68421C72.71 3.40978 73.117 3.23944 73.6374 3.23944H77.9148C77.7918 3.00286 77.5742 2.53915 77.4606 2.23633H79.3438C79.4668 2.55808 79.6372 2.91769 79.817 3.23944H85.9492V4.37503H73.9876H74.0065ZM73.7037 16.9423V15.7878C74.8393 15.7026 76.0127 15.6174 77.1389 15.466C77.4985 14.8698 77.754 14.2074 77.9338 13.526H79.4952C79.3627 14.0844 79.1262 14.6616 78.8801 15.2105C79.41 15.1632 79.9873 15.078 80.4983 14.9739V16.0906C78.7098 16.3934 75.7761 16.772 73.7037 16.9423ZM77.8865 6.69354V7.78182H79.8548V8.8701H74.404V7.78182H76.3913V6.69354H74.016V5.60526H76.3913V4.79142H77.8865V5.60526H80.4699V6.69354H77.8865ZM79.6845 12.7217C79.4763 12.9299 79.1735 13.0623 78.8139 13.0623H75.2273C75.0096 13.0623 74.7352 12.9109 74.5459 12.6743C74.3756 12.4662 74.2526 12.2201 74.2526 11.9646V10.706C74.2526 10.4032 74.3756 10.1287 74.5932 9.95838C74.8109 9.76911 75.1232 9.66502 75.4922 9.66502H78.8044C79.1451 9.66502 79.4195 9.76911 79.6182 9.95838C79.8548 10.1666 79.9968 10.4694 79.9968 10.7911V11.9646C79.9968 12.258 79.8737 12.5229 79.675 12.7311L79.6845 12.7217ZM75.18 15.1348C74.9623 14.6049 74.792 14.0465 74.6689 13.5166H76.2304C76.3534 14.056 76.5521 14.6238 76.8076 15.1348H75.18ZM78.53 11.1129C78.53 10.8952 78.3596 10.7533 78.1704 10.7533H76.1168C75.8613 10.7533 75.7478 10.9426 75.7478 11.094V11.6334C75.7478 11.7848 75.956 11.9741 76.1358 11.9741H78.1609C78.3502 11.9741 78.53 11.8037 78.53 11.5861V11.1129ZM81.5582 13.1854C81.0283 11.9267 80.6781 10.5735 80.3658 9.2297H81.88C82.2017 10.6208 82.6654 11.9267 83.2711 13.1854H81.5582ZM85.23 8.39693V15.6174C85.23 16.0433 85.0975 16.384 84.8704 16.6205C84.6149 16.9139 84.2269 17.0464 83.7537 17.0464H82.2585L81.6812 15.8445H83.3468C83.5834 15.8445 83.7158 15.6931 83.7158 15.4376V8.4064H80.4037V7.21402H83.7158V4.93337H85.23V7.21402H86.1006V8.4064H85.23V8.39693Z" fill="#41695B"/>
<path d="M95.2326 6.61623C94.9298 5.90648 94.4472 4.67626 94.2106 3.88134C94.1727 3.74885 94.0592 3.64476 93.9078 3.64476H93.5482C93.3968 3.64476 93.2453 3.72993 93.1791 3.90027C92.8574 4.81821 92.5356 5.73615 91.9583 6.61623H90.2266C91.1066 5.42386 91.5325 4.43967 91.9773 3.17159C92.0435 2.9634 92.2138 2.7836 92.4504 2.66057C92.6397 2.55648 92.8574 2.49023 93.075 2.49023H94.3147C94.5891 2.49023 94.8257 2.5754 95.0244 2.70789C95.2326 2.8593 95.3935 3.07696 95.4787 3.33247C95.7815 4.26933 96.2641 5.55634 96.8698 6.60677H95.2232L95.2326 6.61623ZM95.4692 17.1489C95.3462 16.8934 95.1664 16.4202 95.0812 16.1836L94.5891 17.1489H92.4977C91.9583 17.1489 91.542 16.9785 91.2959 16.6757C91.0593 16.4013 90.9363 16.0133 90.9363 15.559V8.27231C90.9363 7.88431 91.1067 7.50578 91.3811 7.2692C91.5987 7.06101 91.8921 6.94745 92.2517 6.94745H93.1507C93.1034 6.64462 92.9614 5.94434 92.8952 5.55634H94.2863C94.3715 5.96326 94.5229 6.5973 94.627 6.94745H95.0718C95.4598 6.94745 95.8194 7.07047 96.0749 7.31652C96.3493 7.5531 96.5007 7.94109 96.5007 8.43318V10.8653C96.5007 11.3763 96.3493 11.7643 96.0465 12.0387C95.791 12.2469 95.4314 12.3605 94.9582 12.3605H92.3937V15.5685C92.3937 15.7767 92.5829 15.9944 92.7533 15.9944H95.0339C94.8163 15.2846 94.4093 13.7989 94.2201 13.004H95.668C96.037 14.4518 96.4629 15.7862 97.078 17.1489H95.4976H95.4692ZM95.015 8.39533C95.015 8.18714 94.8636 8.03573 94.6932 8.03573H92.7438C92.5545 8.03573 92.3842 8.18714 92.3842 8.39533V9.05776H95.015V8.39533ZM95.015 10.1271H92.3842V11.2154H94.6743C94.9109 11.2154 95.015 11.064 95.015 10.8463V10.1366V10.1271ZM103.437 8.1209C103.371 7.99787 103.229 7.79914 103.163 7.69505H101.687V9.53093H104.781V10.7233H101.687V15.7388C101.687 16.1079 101.564 16.4486 101.327 16.7041C101.071 16.9785 100.712 17.1489 100.258 17.1489H99.1883L98.6489 15.9754H99.8223C100.012 15.9754 100.182 15.8713 100.182 15.6064V10.7328H97.0023V9.54039H100.182V7.70451H98.4975C98.4312 7.837 98.3461 8.02626 98.242 8.13036H96.5575C97.4944 6.73925 98.0716 4.85606 98.4786 3.34193C98.5448 3.0675 98.7341 2.84984 98.9706 2.69843C99.1599 2.5754 99.3776 2.50916 99.6142 2.50916H101.961C102.321 2.50916 102.605 2.61326 102.832 2.81199C103.04 2.98233 103.191 3.23783 103.276 3.54066C103.636 4.82767 104.365 6.72979 105.216 8.13036H103.447L103.437 8.1209ZM98.1663 15.8997H96.6332C97.2956 14.6222 97.8729 12.7201 98.0811 11.5845H99.5384C99.3302 12.8431 98.8287 14.7073 98.1663 15.8997ZM101.866 4.02329C101.819 3.83402 101.696 3.63529 101.441 3.63529H100.201C99.9832 3.63529 99.8129 3.78671 99.775 3.95705C99.6047 4.7425 99.3019 5.75507 99.0085 6.5216H102.699C102.406 5.84024 102.037 4.65733 101.866 4.02329ZM103.485 15.8997C102.955 14.7831 102.482 12.9756 102.226 11.5845H103.598C103.835 12.8242 104.554 14.8966 105.046 15.8997H103.485Z" fill="#41695B"/>
<path d="M110.621 15.5691H109.334C109.703 13.0234 109.788 9.41792 109.779 6.95747H110.981C111.104 9.33275 110.933 12.8152 110.621 15.5691ZM112.816 6.1247V17.1021H111.369V6.1247H109.514V5.00803H111.369V2.26367H112.816V4.99856H114.52V6.11523H112.816V6.1247ZM113.479 14.0455C113.309 11.7648 113.157 8.79335 113.157 6.95747H114.359C114.359 9.04886 114.529 11.85 114.766 14.0455H113.479ZM123.889 17.1021H122.696C122.374 17.1021 122.081 17.0359 121.816 16.8845C121.475 16.6763 121.173 16.3261 120.936 15.7773C120.491 16.2031 119.848 16.7804 119.422 17.1021H116.971C118.088 16.4208 119.621 15.2379 120.302 14.4335C120.046 13.8184 119.592 12.3232 119.422 11.339H116.905C116.819 13.26 116.602 15.3514 115.627 17.1021H113.857C114.993 15.5217 115.438 13.4966 115.438 11.339H114.794V10.1845H115.438C115.457 9.96679 115.438 9.67343 115.419 9.50309H116.895C116.895 9.69236 116.895 9.99518 116.876 10.1845H119.157C118.901 8.09306 118.731 4.64842 118.712 2.26367H120.16C120.122 4.74306 120.264 7.9038 120.605 10.1845H121.4C121.296 9.97626 121.106 9.58826 121.059 9.37061H122.507C122.592 9.62612 122.781 9.99518 122.914 10.1845H124.201V11.339H120.851C120.917 11.7837 121.144 12.5976 121.296 13.0518C121.532 12.7774 121.892 12.1717 122.043 11.8311H123.728C123.302 12.6165 122.488 13.8562 121.93 14.547C122.1 14.9729 122.318 15.3609 122.545 15.6826C122.668 15.834 122.8 15.9003 122.952 15.9003H124.324L123.879 17.0927L123.889 17.1021ZM117.794 9.30436C117.728 9.09617 117.624 8.74603 117.577 8.49052L117.302 9.10564H115.788C115.514 9.10564 115.334 9.00154 115.211 8.8312C115.088 8.62301 115.088 8.33911 115.23 8.10253L116.148 6.47484H115.353C115.097 6.47484 114.908 6.32343 114.823 6.10577C114.738 5.88811 114.738 5.63261 114.861 5.42441L116.356 2.45294H117.747L116.1 5.50958H116.696L117.321 4.4213H118.627L116.469 8.07414H117.51C117.472 7.81863 117.406 7.27922 117.378 6.98586H118.428C118.494 7.61043 118.722 8.75549 118.854 9.31383H117.804L117.794 9.30436ZM117.983 14.6227C117.709 13.9414 117.34 12.8436 117.151 12.0109H118.523C118.712 12.6733 119.185 13.9792 119.479 14.6227H117.983ZM123.179 9.30436C123.131 9.04886 123.056 8.55676 123.046 8.28233L122.706 9.09617H121.589C121.248 9.09617 121.012 8.97315 120.889 8.77442C120.785 8.58515 120.785 8.32965 120.936 8.04575L121.75 6.46537H121.154C120.898 6.46537 120.699 6.36128 120.576 6.20987C120.425 6.0206 120.406 5.7367 120.539 5.41495L121.778 2.44347H123.122L121.731 5.50012H122.261L122.857 4.41184H124.116L122.091 8.06467H123.008C122.971 7.84702 122.942 7.31707 122.942 6.97639H123.841C123.907 7.60097 124.059 8.76496 124.144 9.30436H123.179Z" fill="#41695B"/>
<path d="M128.449 17.0833V15.9667H135.111V14.1119H129.604V12.9763H135.111V11.2256H129.017V10.1183H142.625V11.2256H136.626V12.9763H142.095V14.1119H136.626V15.9667H143.25V17.0833H128.449ZM142.076 8.64207C141.755 9.00168 141.281 9.15309 140.856 9.15309H130.626C130.219 9.15309 129.859 8.98275 129.604 8.70832C129.367 8.45281 129.235 8.11213 129.235 7.70521V4.61071C129.235 4.15647 129.452 3.81579 129.765 3.58867C130.058 3.39941 130.408 3.31424 130.768 3.31424H133.228C133.38 3.07765 133.588 2.56664 133.682 2.20703H135.566C135.433 2.52878 135.206 3.0398 135.074 3.31424H140.884C141.376 3.31424 141.736 3.43726 141.991 3.67384C142.285 3.94828 142.417 4.33627 142.417 4.79051V7.61057C142.417 8.06481 142.285 8.39603 142.076 8.63261V8.64207ZM140.884 4.90407C140.884 4.68641 140.714 4.44983 140.477 4.44983H131.184C130.948 4.44983 130.711 4.6391 130.711 4.89461V5.62328H140.884V4.91353V4.90407ZM140.884 6.72102H130.711V7.57272C130.711 7.84716 130.881 8.01749 131.137 8.01749H140.449C140.704 8.01749 140.893 7.78091 140.893 7.5254V6.73049L140.884 6.72102Z" fill="#41695B"/>
</svg>
