<svg width="252" height="149" viewBox="0 0 252 149" fill="none" xmlns="http://www.w3.org/2000/svg">
<path d="M119.818 82.2059C118.418 83.1459 117.028 84.0859 115.628 85.0159C113.668 86.3359 111.708 87.6559 109.738 88.9659C109.498 89.1259 109.278 89.3259 108.968 89.1259C108.678 88.9459 108.758 88.6659 108.788 88.3859C109.228 85.0459 110.398 82.0059 112.408 79.3059C114.908 75.9559 118.208 73.7159 122.158 72.4159C124.308 71.7059 126.518 71.3559 128.778 71.2859C129.168 71.2759 129.308 71.3659 129.398 71.7159C130.268 75.3959 130.398 79.0759 129.328 82.7359C128.048 87.1259 125.208 90.1759 121.038 91.9659C118.138 93.2059 115.158 93.3459 112.168 92.2259C112.018 92.1659 111.848 92.1259 111.718 92.0259C111.398 91.7959 111.128 91.8659 110.798 92.0559C109.378 92.8959 107.878 93.5459 106.318 94.0759C105.978 94.1959 105.718 94.0959 105.618 93.8159C105.518 93.5459 105.668 93.3159 106.018 93.1959C111.828 91.1759 116.288 87.4259 119.738 82.3959C119.778 82.3459 119.808 82.2859 119.838 82.2259L119.798 82.1959L119.818 82.2059Z" fill="#41695B"/>
<path d="M108.489 85.2763C107.209 83.8463 106.269 82.2663 105.789 80.4463C104.999 77.4663 105.469 74.6263 106.799 71.8963C107.469 70.5163 108.349 69.2763 109.479 68.2163C109.719 67.9963 109.939 67.9463 110.239 68.0563C111.619 68.5563 112.649 69.4963 113.489 70.6563C114.369 71.8763 114.959 73.2363 115.279 74.7063C115.319 74.8763 115.279 74.9963 115.149 75.1063C111.939 77.7663 109.739 81.1063 108.549 85.1063C108.539 85.1563 108.519 85.1963 108.489 85.2763Z" fill="#41695B"/>
<path d="M4.55293 130.85H11.1529V133.5H4.55293V130.85ZM3.20293 126H6.05293V144.575L3.20293 145.075V126ZM1.47793 143.975C3.87793 143.5 7.57793 142.6 11.0529 141.725L11.4029 144.55C8.30293 145.45 4.92793 146.375 2.35293 147.075L1.47793 143.975ZM7.65293 139.975L10.0779 138.8C11.6279 140.95 13.3029 143.775 13.9029 145.7L11.2779 147.05C10.7279 145.125 9.15293 142.175 7.65293 139.975ZM4.52793 126H12.9529V138.3H4.52793V135.525H10.1779V128.775H4.52793V126ZM20.9529 125.95H24.0529V141.125C24.0529 142.575 23.8279 143.525 22.9029 144.075C22.0029 144.65 20.8279 144.725 19.1779 144.725C19.1029 143.8 18.6279 142.3 18.1529 141.425C19.1279 141.5 20.1779 141.475 20.5279 141.475C20.8529 141.475 20.9529 141.375 20.9529 141.05V125.95ZM14.3279 125.95H22.5529V128.975H17.4029V148.225H14.3279V125.95ZM35.5529 137.525H49.8029V140.15H35.5529V137.525ZM41.0529 126.7H47.4779L46.8779 128.725H39.8279L41.0529 126.7ZM44.1779 134.6H47.0279V145.05C47.0279 146.475 46.8029 147.3 45.8279 147.75C44.9029 148.225 43.5779 148.275 41.7029 148.275C41.6029 147.425 41.2279 146.2 40.8529 145.375C42.0529 145.425 43.3029 145.425 43.7029 145.4C44.0529 145.4 44.1779 145.325 44.1779 145V134.6ZM41.6529 124.825L44.5529 125.575C42.5529 128.3 39.4779 130.85 36.4029 132.375C35.9779 131.85 35.1029 130.975 34.5279 130.55C37.5029 129.275 40.2029 127 41.6529 124.825ZM36.7529 141.65L39.0529 140.325C40.0779 141.375 41.2779 142.825 41.7779 143.85L39.3029 145.325C38.8779 144.3 37.7779 142.75 36.7529 141.65ZM39.6279 129.725L41.1029 128.35C42.3779 129.05 43.9029 130.15 44.6029 131L43.0279 132.525C42.3779 131.675 40.9029 130.5 39.6279 129.725ZM36.8029 131.575L38.4779 130.275C39.7029 131.1 41.1279 132.325 41.7779 133.25L40.0029 134.65C39.3779 133.75 38.0029 132.45 36.8029 131.575ZM26.5029 137.175H33.1279V139.75H26.5029V137.175ZM32.0279 124.775H34.8029V148.25H32.0279V124.775ZM27.7529 138.25H30.3529V139.775C30.3529 141.85 30.1029 145.75 28.4279 148.3C27.9529 147.85 26.8779 147.15 26.2279 146.875C27.5779 144.7 27.7529 141.475 27.7529 139.675V138.25ZM46.4279 126.7H46.9529L47.4529 126.6L49.2779 127.475C47.1529 133.025 42.3029 136.075 36.8279 137.65C36.5279 137 35.8529 136.025 35.3529 135.5C40.2529 134.325 44.7779 131.45 46.4279 127.125V126.7ZM27.5279 125.95H30.1029V131.625H33.5779V134.3H27.5279V125.95ZM62.5279 132.275H72.9279V135.3H62.5279V132.275ZM51.8279 144H74.6779V147.025H51.8279V144ZM60.8279 125.075H64.0529V145.675H60.8279V125.075ZM86.5529 124.675H89.7779V129.75H86.5529V124.675ZM86.6029 130.675H89.7279V148.3H86.6029V130.675ZM76.8029 127.95H99.7529V130.875H76.8029V127.95ZM79.1779 133.5H95.6529V136.425H82.2029V145.25H79.1779V133.5ZM94.5279 133.5H97.6529V141.975C97.6529 143.425 97.3529 144.275 96.3029 144.75C95.2529 145.2 93.8029 145.25 91.8529 145.25C91.7279 144.375 91.2779 143.1 90.8529 142.3C92.1029 142.35 93.6029 142.35 93.9779 142.35C94.4029 142.35 94.5279 142.25 94.5279 141.925V133.5ZM108.247 127H120.972V129.525H108.247V127ZM111.297 132.075H118.047V134.55H111.297V132.075ZM110.422 130.475L113.297 131.125C112.597 133.8 111.347 136.475 109.947 138.175C109.447 137.675 108.297 136.75 107.647 136.325C108.922 134.9 109.897 132.675 110.422 130.475ZM111.172 124.775H113.772V130.9H111.172V124.775ZM115.797 124.775H118.472V131.325H115.797V124.775ZM109.622 135.925H111.847V144.675H109.622V135.925ZM110.972 135.925H115.897V143.4H110.972V141.125H113.647V138.2H110.972V135.925ZM117.347 132.075H120.147C120.147 132.075 120.122 132.975 120.122 133.325C119.847 142.5 119.572 145.825 118.797 146.875C118.272 147.65 117.722 147.9 116.947 148.025C116.247 148.175 115.197 148.175 114.072 148.125C114.022 147.325 113.722 146.2 113.297 145.45C114.222 145.55 115.047 145.55 115.497 145.55C115.897 145.55 116.097 145.475 116.347 145.15C116.847 144.475 117.122 141.35 117.347 132.65V132.075ZM122.172 129.4H131.347V132.175H122.172V129.4ZM122.572 124.85L125.622 125.275C124.872 130.125 123.447 134.55 121.072 137.3C120.597 136.75 119.422 135.65 118.747 135.175C120.872 132.85 122.047 129 122.572 124.85ZM126.997 131.1L130.072 131.4C128.997 139.85 126.447 145.25 120.222 148.4C119.947 147.7 119.047 146.3 118.497 145.65C124.097 143.175 126.247 138.45 126.997 131.1ZM123.697 132.075C124.772 138.225 127.097 143.375 131.797 145.65C131.122 146.225 130.172 147.425 129.722 148.225C124.597 145.4 122.297 139.825 120.997 132.55L123.697 132.075ZM134.172 132.45H141.722V134.7H134.172V132.45ZM134.247 125.55H141.647V127.825H134.247V125.55ZM134.172 135.85H141.722V138.125H134.172V135.85ZM132.972 128.925H142.547V131.3H132.972V128.925ZM135.472 139.325H141.747V146.925H135.472V144.55H139.197V141.7H135.472V139.325ZM134.122 139.325H136.647V147.925H134.122V139.325ZM143.147 126.125H155.897V128.275H143.147V126.125ZM143.772 129.175H155.497V131.2H143.772V129.175ZM142.547 132.175H156.372V134.325H142.547V132.175ZM147.997 124.775H150.847V134H147.997V124.775ZM144.247 135.275H153.847V137.4H147.022V148.225H144.247V135.275ZM152.197 135.275H154.997V145.45C154.997 146.725 154.747 147.375 153.922 147.775C153.072 148.15 151.897 148.175 150.272 148.175C150.197 147.45 149.822 146.425 149.497 145.775C150.422 145.825 151.472 145.8 151.797 145.8C152.122 145.8 152.197 145.7 152.197 145.425V135.275ZM145.472 138.525H153.647V140.475H145.472V138.525ZM145.472 141.65H153.647V143.6H145.472V141.65ZM172.597 125.9H179.072V128.6H172.597V125.9ZM172.597 131.55H179.072V134.175H172.597V131.55ZM172.597 137.25H179.097V139.925H172.597V137.25ZM177.772 125.9H180.672V144.95C180.672 146.4 180.397 147.225 179.497 147.675C178.622 148.15 177.347 148.225 175.472 148.225C175.397 147.425 174.997 146.125 174.622 145.375C175.697 145.425 176.922 145.425 177.272 145.4C177.647 145.4 177.772 145.275 177.772 144.9V125.9ZM171.372 125.9H174.172V135.075C174.172 139.025 173.847 144.75 171.722 148.3C171.222 147.775 169.997 146.9 169.347 146.6C171.222 143.4 171.372 138.65 171.372 135.075V125.9ZM158.272 127.725H170.522V130.325H158.272V127.725ZM161.547 131.8H167.497V134.1H161.547V131.8ZM161.547 135.7H167.522V137.975H161.547V135.7ZM157.972 139.65H170.347V142.275H157.972V139.65ZM160.247 125.05H162.947V140.6H160.247V125.05ZM166.072 125.05H168.822V140.6H166.072V125.05ZM161.097 142.45L163.922 143.275C162.997 145.125 161.522 147.075 160.197 148.3C159.622 147.8 158.472 146.95 157.772 146.55C159.122 145.525 160.397 143.975 161.097 142.45ZM164.797 143.575L167.072 142.325C168.072 143.425 169.347 144.95 169.922 145.975L167.497 147.4C166.997 146.4 165.797 144.75 164.797 143.575ZM191.822 127.625H205.347V130.325H191.822V127.625ZM190.672 137.225H206.322V139.95H190.672V137.225ZM190.422 132.525H206.522V135.25H190.422V132.525ZM196.947 124.875H199.947V133.925H196.947V124.875ZM200.372 134.775H203.372V145.1C203.372 146.575 203.097 147.325 202.097 147.775C201.072 148.225 199.697 148.25 197.797 148.25C197.672 147.425 197.247 146.225 196.872 145.425C198.097 145.5 199.472 145.5 199.872 145.475C200.247 145.475 200.372 145.375 200.372 145.05V134.775ZM192.047 141.375L194.522 140.1C195.622 141.375 196.922 143.15 197.447 144.375L194.822 145.8C194.372 144.6 193.147 142.725 192.047 141.375ZM188.722 130.3L191.322 131.4C189.547 134.475 186.672 137.775 184.097 139.85C183.897 139.175 183.147 137.475 182.697 136.75C184.872 135.2 187.297 132.725 188.722 130.3ZM188.122 124.8L190.897 125.95C189.272 128.275 186.747 130.725 184.422 132.25C184.122 131.575 183.397 130.35 182.972 129.725C184.872 128.525 187.072 126.475 188.122 124.8ZM186.372 135.875L189.122 133.1L189.247 133.175V148.25H186.372V135.875Z" fill="#41695B"/>
<path d="M20.275 75.325L21.85 73.85C23 74.45 24.4 75.45 25.1 76.225L23.425 77.85C22.8 77.1 21.425 76.025 20.275 75.325ZM12.85 85.075H17.4V92.15H12.85V89.95H15.4V87.25H12.85V85.075ZM22.25 81.725L24.825 82.2C23.275 88.9 20.375 93.95 15.9 97.1C15.5 96.6 14.475 95.625 13.925 95.15C18.325 92.475 20.975 87.8 22.25 81.725ZM8.375 77.45H11V84.475C11 88.225 10.65 93.7 8.55 97.225C8.075 96.75 6.9 95.975 6.3 95.7C8.225 92.475 8.375 87.85 8.375 84.475V77.45ZM9.975 77.45H24.9V80.1H9.975V77.45ZM11.825 81.5H17.175V83.675H11.825V81.5ZM11.7 85.075H13.675V93.475H11.7V85.075ZM2.85 76.1L4.55 73.925C5.95 74.525 7.8 75.5 8.725 76.325L6.925 78.725C6.075 77.9 4.3 76.8 2.85 76.1ZM1.675 82.875L3.325 80.675C4.75 81.2 6.575 82.15 7.5 82.95L5.725 85.375C4.9 84.575 3.1 83.5 1.675 82.875ZM1.825 95.25C2.775 93.225 4.125 89.925 5.1 86.9L7.525 88.45C6.65 91.225 5.575 94.225 4.525 96.75L1.825 95.25ZM17.4 74.05H20.125C20.225 84.275 21.45 93.575 22.8 93.625C23.175 93.65 23.4 92.4 23.55 90.075C24 90.65 25.2 91.4 25.65 91.625C25.05 96.2 23.775 97.2 22.775 97.2C18.875 97.125 17.7 87.575 17.4 74.05ZM26.85 74.925H35.8V77.55H26.85V74.925ZM29.6 82.675H35.05V94.075H29.6V91.5H32.55V85.275H29.6V82.675ZM29.475 76.375L32.175 76.775C31.475 82.1 30.275 87.325 27.925 90.7C27.65 90.025 26.875 88.6 26.4 87.95C28.175 85.2 29.025 80.85 29.475 76.375ZM28.475 82.675H30.925V95.9H28.475V82.675ZM39.925 85.95L41.95 86.275C41.825 88.025 41.4 90.025 40.55 91.275L38.65 90.275C39.35 89.275 39.8 87.55 39.925 85.95ZM47.4 85.525L49.925 86.425C49.075 87.95 48.2 89.675 47.475 90.8L45.575 90.025C46.25 88.8 47 86.9 47.4 85.525ZM36.775 74.525H39.25V77.625H46.7V74.525H49.3V80.025H36.775V74.525ZM35.55 81.55H50.15V84.075H35.55V81.55ZM41.6 73.775H44.225V79.275H41.6V73.775ZM42.925 84.45H45.35C45.2 91.175 44.6 95.1 39.325 97.275C39.025 96.625 38.35 95.675 37.825 95.2C42.475 93.425 42.8 90.325 42.925 84.45ZM45.275 85.475C45.475 89.6 46.025 93.175 50.575 95C49.975 95.55 49.25 96.55 48.9 97.25C44.05 94.975 43.5 90.225 43.2 85.6L45.275 85.475ZM36.575 80.55H39.1V84.875C39.1 88.8 38.825 93.45 36.425 97.175C35.875 96.675 34.85 95.95 34.15 95.625C36.325 92.3 36.575 88.25 36.575 84.85V80.55ZM52.5 75.85H74.45V78.4H52.5V75.85ZM61.775 73.725H64.875V77.125H61.775V73.725ZM53.5 85.95H71.775V88.425H56.425V97.275H53.5V85.95ZM70.65 85.95H73.675V94.1C73.675 95.475 73.4 96.275 72.425 96.725C71.475 97.175 70.15 97.225 68.35 97.225C68.25 96.375 67.825 95.175 67.425 94.4C68.55 94.45 69.825 94.45 70.175 94.425C70.55 94.425 70.65 94.325 70.65 94.025V85.95ZM58.675 89.575H61.275V96.325H58.675V89.575ZM59.975 89.575H68.275V95.175H59.975V93.175H65.625V91.575H59.975V89.575ZM59.45 81.375V82.875H67.325V81.375H59.45ZM56.6 79.375H70.35V84.9H56.6V79.375ZM95.55 73.725L97.725 76.2C92.575 77.525 85.375 78.15 79.25 78.35C79.175 77.6 78.8 76.375 78.525 75.725C84.55 75.475 91.45 74.825 95.55 73.725ZM78.75 80.825H98.525V83.7H78.75V80.825ZM77.025 86.65H100V89.575H77.025V86.65ZM86.975 77.25H90.1V93.675C90.1 95.45 89.65 96.25 88.45 96.7C87.25 97.175 85.425 97.25 82.875 97.225C82.675 96.375 82.1 95.025 81.65 94.25C83.5 94.325 85.6 94.3 86.175 94.3C86.75 94.3 86.975 94.125 86.975 93.625V77.25Z" fill="#41695B"/>
<path d="M143.925 75.6H146.85V82.55H143.925V75.6ZM143.925 90.6H146.9V97.25H143.925V90.6ZM143.075 82.65L145.775 83.9C144.2 85.15 142.35 86.4 140.95 87.225L138.925 86.075C140.325 85.175 142.05 83.725 143.075 82.65ZM148.8 83.925L151.375 85.375C148.225 87.525 144.075 89.8 140.85 91.2L139 89.875C142.225 88.375 146.325 85.9 148.8 83.925ZM136.25 86.225L138.35 84.65C140.225 85.575 142.7 87.05 143.975 88.175L141.725 89.9C140.575 88.825 138.15 87.25 136.25 86.225ZM148.85 88.35L151.025 86.975C153.025 88.125 155.6 89.925 156.875 91.25L154.55 92.775C153.375 91.475 150.9 89.575 148.85 88.35ZM148.425 93.525L150.625 92C152.5 92.9 155.15 94.375 156.55 95.4L154.2 97.1C152.975 96.075 150.4 94.525 148.425 93.525ZM134.55 89.7C139.35 89.7 146.975 89.6 154 89.475L153.85 91.65C146.925 91.85 139.475 92.025 134.65 92.075L134.55 89.7ZM139.675 92.2L142.375 93.225C140.8 94.75 138.325 96.225 136.25 97.15C135.75 96.6 134.7 95.625 134.05 95.15C136.125 94.45 138.375 93.35 139.675 92.2ZM138.975 80.225V81.525H151.975V80.225H138.975ZM138.975 76.8V78.075H151.975V76.8H138.975ZM136.175 74.525H154.925V83.8H136.175V74.525ZM162.45 76.1H165.375V97.225H162.45V76.1ZM159.075 80.6H167.85V83.4H159.075V80.6ZM162.7 81.925L164.45 82.7C163.5 86.275 161.75 90.725 159.85 93.2C159.575 92.325 158.9 91.075 158.45 90.325C160.175 88.325 161.925 84.7 162.7 81.925ZM166.325 74.025L168.325 76.35C165.825 77.275 162.45 77.875 159.6 78.175C159.5 77.55 159.1 76.525 158.775 75.875C161.475 75.5 164.475 74.825 166.325 74.025ZM165.125 84C165.75 84.525 167.925 86.775 168.4 87.35L166.675 89.7C166.1 88.5 164.6 86.225 163.825 85.175L165.125 84ZM173.375 73.775H176.35V81.775H173.375V73.775ZM168.475 74.925H181.575V76.75H168.475V74.925ZM168.925 77.6H181V79.325H168.925V77.6ZM167.7 80.175H182.075V82.05H167.7V80.175ZM171.95 87.5V88.575H178.025V87.5H171.95ZM171.95 90.275V91.35H178.025V90.275H171.95ZM171.95 84.75V85.775H178.025V84.75H171.95ZM169.25 82.9H180.85V93.2H169.25V82.9ZM175.7 94.35L177.7 92.9C179.325 93.875 181.325 95.075 182.45 95.875L179.85 97.275C178.9 96.525 177.175 95.275 175.7 94.35ZM172.05 92.775L174.375 94.325C172.85 95.5 170.35 96.725 168.325 97.375C167.875 96.825 167.05 96 166.475 95.5C168.475 94.925 170.85 93.75 172.05 92.775ZM183.85 74.925H192.8V77.55H183.85V74.925ZM186.6 82.675H192.05V94.075H186.6V91.5H189.55V85.275H186.6V82.675ZM186.475 76.375L189.175 76.775C188.475 82.1 187.275 87.325 184.925 90.7C184.65 90.025 183.875 88.6 183.4 87.95C185.175 85.2 186.025 80.85 186.475 76.375ZM185.475 82.675H187.925V95.9H185.475V82.675ZM196.925 85.95L198.95 86.275C198.825 88.025 198.4 90.025 197.55 91.275L195.65 90.275C196.35 89.275 196.8 87.55 196.925 85.95ZM204.4 85.525L206.925 86.425C206.075 87.95 205.2 89.675 204.475 90.8L202.575 90.025C203.25 88.8 204 86.9 204.4 85.525ZM193.775 74.525H196.25V77.625H203.7V74.525H206.3V80.025H193.775V74.525ZM192.55 81.55H207.15V84.075H192.55V81.55ZM198.6 73.775H201.225V79.275H198.6V73.775ZM199.925 84.45H202.35C202.2 91.175 201.6 95.1 196.325 97.275C196.025 96.625 195.35 95.675 194.825 95.2C199.475 93.425 199.8 90.325 199.925 84.45ZM202.275 85.475C202.475 89.6 203.025 93.175 207.575 95C206.975 95.55 206.25 96.55 205.9 97.25C201.05 94.975 200.5 90.225 200.2 85.6L202.275 85.475ZM193.575 80.55H196.1V84.875C196.1 88.8 195.825 93.45 193.425 97.175C192.875 96.675 191.85 95.95 191.15 95.625C193.325 92.3 193.575 88.25 193.575 84.85V80.55ZM210.025 77.7H219.5V79.475H212.175V86.775H210.025V77.7ZM218.875 77.7H221.025V84.375C221.025 85.3 220.9 85.825 220.275 86.15C219.7 86.475 218.925 86.5 217.85 86.5C217.75 85.925 217.475 85.125 217.225 84.6C217.825 84.625 218.4 84.625 218.625 84.6C218.825 84.6 218.875 84.55 218.875 84.35V77.7ZM223.975 76.175H231.95V78.425H223.975V76.175ZM214.2 73.8H216.8V78.825H216.425V86.525H214.575V78.825H214.2V73.8ZM223.975 73.8L226.45 74.3C225.65 77.05 224.15 79.525 222.3 81.075C221.95 80.6 221.025 79.625 220.5 79.2C222.125 77.95 223.35 75.975 223.975 73.8ZM212.85 80.15L214.325 80.4C214.175 82.025 213.825 83.675 213.225 84.775C212.925 84.55 212.3 84.2 211.9 84.05C212.55 82.975 212.725 81.575 212.85 80.15ZM210 75.15L212.05 74.275C212.675 75.1 213.35 76.225 213.6 76.975L211.4 77.975C211.175 77.2 210.575 76.025 210 75.15ZM228.25 77.375L230.85 77.75C229.6 82.275 226.775 85.05 222.475 86.65C222.225 86.075 221.525 84.925 221.05 84.4C224.825 83.225 227.35 81 228.25 77.375ZM224.725 77.725C225.975 81.1 228.65 83.75 232.325 84.9C231.8 85.375 231.075 86.325 230.75 86.975C226.775 85.475 224.075 82.375 222.6 78.275L224.725 77.725ZM216.775 80.475L218.025 80.125C218.4 81.175 218.725 82.55 218.8 83.425L217.45 83.85C217.4 82.95 217.1 81.55 216.775 80.475ZM219 74.225L221.45 75.075C220.675 76.125 219.95 77.2 219.375 77.9L217.625 77.175C218.1 76.325 218.7 75.1 219 74.225ZM218.9 86.6H221.875V97.25H218.9V86.6ZM211.55 87.95H228.275V90.45H214.45V96.1H211.55V87.95ZM226.85 87.95H229.8V93.3C229.8 94.625 229.5 95.325 228.5 95.725C227.475 96.125 226.125 96.1 224.225 96.1C224.05 95.375 223.625 94.325 223.25 93.65C224.45 93.675 225.95 93.675 226.325 93.675C226.7 93.65 226.85 93.575 226.85 93.275V87.95Z" fill="#41695B"/>
<path d="M249.4 58.94H238.5V27H249.4C250.78 27 251.9 28.12 251.9 29.5V56.44C251.9 57.82 250.78 58.94 249.4 58.94Z" fill="#41695B"/>
<path d="M241.07 37.3396L241.07 35.9596L242.53 35.4396L242.53 31.5596L241.07 31.0196L241.07 29.6596L248.5 32.3896L248.5 34.6196L241.07 37.3496L241.07 37.3396ZM243.66 35.0296L247.94 33.4896L243.66 31.9696L243.66 35.0396L243.66 35.0296Z" fill="white"/>
<path d="M245.499 46.1191C244.819 46.1191 244.299 45.9191 243.929 45.5291C243.509 45.0791 243.309 44.3791 243.309 43.4491L243.309 40.5891L241.069 40.5891L241.069 39.2591L248.449 39.2591L248.449 43.4391C248.449 44.3691 248.239 45.0591 247.829 45.5091C247.459 45.9091 246.929 46.1091 246.229 46.1091L245.509 46.1091L245.499 46.1191ZM245.629 44.7891L246.109 44.7891C246.499 44.7891 246.799 44.6691 246.989 44.4391C247.179 44.2091 247.279 43.8391 247.279 43.3291L247.279 40.5791L244.519 40.5791L244.519 43.3291C244.519 43.8391 244.609 44.2091 244.789 44.4391C244.969 44.6691 245.249 44.7791 245.639 44.7791L245.629 44.7891Z" fill="white"/>
<path d="M245.499 55C244.819 55 244.299 54.8 243.929 54.41C243.509 53.96 243.309 53.26 243.309 52.33L243.309 49.47L241.069 49.47L241.069 48.14L248.449 48.14L248.449 52.32C248.449 53.25 248.239 53.94 247.829 54.39C247.459 54.79 246.929 54.99 246.229 54.99L245.509 54.99L245.499 55ZM245.629 53.68L246.109 53.68C246.499 53.68 246.799 53.56 246.989 53.33C247.179 53.1 247.279 52.73 247.279 52.22L247.279 49.47L244.519 49.47L244.519 52.22C244.519 52.73 244.609 53.1 244.789 53.33C244.969 53.56 245.249 53.67 245.639 53.67L245.629 53.68Z" fill="white"/>
<path d="M157.036 42.392L160.204 44.984C158.296 46.748 156.172 48.584 154.48 49.772L151.96 47.54C153.508 46.28 155.776 44.048 157.036 42.392ZM140.584 44.984L143.428 42.644C144.868 43.868 146.704 45.668 147.532 46.964L144.508 49.556C143.788 48.26 142.06 46.316 140.584 44.984ZM145.12 28.136H155.02V31.34H145.12V28.136ZM144.328 33.248H154.552V36.488H144.328V33.248ZM140.116 38.18H159.988V41.852H140.116V38.18ZM148.18 39.584H152.068V55.208C152.068 57.044 151.78 58.016 150.556 58.592C149.404 59.204 147.784 59.24 145.552 59.24C145.408 58.196 144.904 56.684 144.436 55.64C145.732 55.712 147.172 55.712 147.604 55.676C148.036 55.676 148.18 55.568 148.18 55.136V39.584ZM138.712 53.768C140.728 52.688 143.824 50.708 146.776 48.8L148.072 51.968C145.696 53.876 143.068 55.856 140.8 57.512L138.712 53.768ZM151.744 39.98C152.716 45.056 155.056 51.284 160.78 54.056C159.988 54.848 158.728 56.504 158.188 57.548C152.68 54.272 150.34 47.252 149.368 42.392L151.744 39.98ZM144.256 25.436L148.288 25.904C147.46 29.72 146.272 34.364 145.372 37.316L141.376 36.74C142.312 33.788 143.536 29.072 144.256 25.436ZM153.58 28.136H154.012L154.696 27.956L157.648 28.352C157.144 32.06 156.28 36.524 155.452 40.052L151.528 39.584C152.32 35.984 153.22 31.16 153.58 28.568V28.136ZM131.944 25.472L135.688 26.768C134.212 29.576 132.556 32.78 131.188 34.796L128.308 33.608C129.568 31.448 131.116 27.956 131.944 25.472ZM136.012 29.72L139.504 31.34C136.876 35.372 133.384 40.376 130.612 43.472L128.128 42.068C130.828 38.828 134.104 33.572 136.012 29.72ZM126.364 33.86L128.488 30.98C130.36 32.672 132.556 35.012 133.42 36.704L131.08 40.016C130.288 38.252 128.164 35.696 126.364 33.86ZM134.788 38.36L137.776 37.1C139.216 39.548 140.584 42.716 141.016 44.768L137.776 46.244C137.38 44.156 136.12 40.844 134.788 38.36ZM126.256 41.24C129.496 41.06 134.14 40.808 138.64 40.52L138.676 44.048C134.464 44.372 130.072 44.696 126.724 44.948L126.256 41.24ZM135.76 47.396L138.784 46.46C139.648 48.476 140.368 51.104 140.62 52.832L137.416 53.876C137.236 52.112 136.552 49.448 135.76 47.396ZM127.804 46.604L131.26 47.18C130.9 50.636 130.144 54.2 129.1 56.504C128.38 56.036 126.796 55.352 125.968 54.992C126.976 52.868 127.516 49.628 127.804 46.604ZM131.764 43.148H135.472V59.24H131.764V43.148ZM168.952 31.952H194.008V36.164H168.952V31.952ZM167.476 42.572H192.64V46.712H167.476V42.572ZM163.3 53.984H195.844V58.196H163.3V53.984ZM177.304 25.436H181.804V56.072H177.304V25.436ZM168.988 25.868L173.452 26.876C171.868 32.456 169.24 38 166.432 41.456C165.568 40.7 163.66 39.44 162.544 38.828C165.388 35.804 167.692 30.836 168.988 25.868ZM211.612 44.624H230.476V59.06H226.372V48.548H215.536V59.204H211.612V44.624ZM227.632 25.436L230.944 28.82C225.652 30.836 218.344 31.952 211.972 32.528C211.792 31.484 211.216 29.792 210.748 28.82C216.868 28.208 223.636 27.02 227.632 25.436ZM218.992 29.468H223.096V46.892H218.992V29.468ZM209.344 35.912H232.312V40.052H209.344V35.912ZM214.42 53.84H228.064V57.728H214.42V53.84ZM200.488 29L202.9 25.904C204.916 26.912 208.048 28.496 209.596 29.504L207.04 32.996C205.6 31.916 202.54 30.188 200.488 29ZM198.724 38.972L201.064 35.768C203.116 36.74 206.32 38.288 207.904 39.296L205.492 42.86C204.016 41.852 200.884 40.124 198.724 38.972ZM199.264 55.892C201.208 53.192 203.98 48.692 206.14 44.552L209.308 47.396C207.4 51.212 205.096 55.316 202.936 58.808L199.264 55.892Z" fill="#41695B"/>
<path d="M16.3402 57L9.46016 34.6H9.30016C9.32682 35.1333 9.36682 35.9333 9.42016 37C9.47349 38.0667 9.52682 39.2133 9.58016 40.44C9.63349 41.64 9.66016 42.7333 9.66016 43.72V57H4.26016V28.44H12.5002L19.2602 50.28H19.3802L26.5402 28.44H34.7802V57H29.1402V43.48C29.1402 42.5733 29.1535 41.5333 29.1802 40.36C29.2335 39.1867 29.2735 38.08 29.3002 37.04C29.3535 35.9733 29.3935 35.1733 29.4202 34.64H29.2602L21.9002 57H16.3402ZM58.4345 57H41.9945V28.44H58.4345V33.4H48.0345V39.68H57.7145V44.64H48.0345V52H58.4345V57ZM75.2173 40.96H86.5373V55.76C85.044 56.2667 83.484 56.6667 81.8573 56.96C80.2573 57.2533 78.4307 57.4 76.3773 57.4C73.5507 57.4 71.1373 56.84 69.1373 55.72C67.164 54.6 65.6573 52.9467 64.6173 50.76C63.604 48.5733 63.0973 45.88 63.0973 42.68C63.0973 39.6933 63.6707 37.1067 64.8173 34.92C65.9907 32.7333 67.684 31.04 69.8973 29.84C72.1107 28.64 74.8173 28.04 78.0173 28.04C79.5373 28.04 81.0307 28.2 82.4973 28.52C83.964 28.84 85.2973 29.2667 86.4973 29.8L84.4973 34.64C83.6173 34.1867 82.6173 33.8133 81.4973 33.52C80.3773 33.2267 79.204 33.08 77.9773 33.08C76.2173 33.08 74.684 33.48 73.3773 34.28C72.0973 35.08 71.0973 36.2133 70.3773 37.68C69.684 39.12 69.3373 40.8267 69.3373 42.8C69.3373 44.6667 69.5907 46.32 70.0973 47.76C70.604 49.2 71.404 50.3333 72.4973 51.16C73.5907 51.96 75.0173 52.36 76.7773 52.36C77.364 52.36 77.8707 52.3467 78.2973 52.32C78.7507 52.2667 79.164 52.2133 79.5373 52.16C79.9107 52.08 80.2707 52.0133 80.6173 51.96V46H75.2173V40.96ZM110.803 57L108.723 50.2H98.3227L96.2427 57H89.7227L99.8027 28.32H107.203L117.323 57H110.803ZM105.203 38.48C105.069 38.0267 104.896 37.4533 104.683 36.76C104.469 36.0667 104.256 35.36 104.043 34.64C103.829 33.92 103.656 33.2933 103.523 32.76C103.389 33.2933 103.203 33.96 102.963 34.76C102.749 35.5333 102.536 36.28 102.323 37C102.136 37.6933 101.989 38.1867 101.883 38.48L99.8427 45.12H107.283L105.203 38.48Z" fill="#41695B"/>
<path d="M61.4532 0H6.28221C4.73969 0 3.5 1.24916 3.5 2.78221V15.7375C3.5 17.28 4.74916 18.5197 6.28221 18.5197H61.4532C62.9957 18.5197 64.2354 17.2705 64.2354 15.7375V2.78221C64.2354 1.23969 62.9863 0 61.4532 0ZM20.657 14.318H19.5308V5.63066L14.979 11.0437L10.4271 5.63066V14.318H9.30101V4.35312H10.8341L14.9695 9.28349L19.105 4.35312H20.638V14.318H20.657ZM32.6659 5.46979H24.6883V8.76301H31.095V9.89861H24.6883V13.1918H32.6659V14.318H23.5716V4.35312H32.6659V5.47925V5.46979ZM45.4981 6.40665H44.372V6.00919C44.372 5.71583 44.1259 5.46979 43.8326 5.46979H37.1893C36.896 5.46979 36.6499 5.71583 36.6499 6.00919V12.6524C36.6499 12.9458 36.896 13.1918 37.1893 13.1918H43.8326C44.1259 13.1918 44.372 12.9458 44.372 12.6524V10.192H41.9115V9.05637H45.4981V12.6524C45.4981 13.5798 44.76 14.318 43.8326 14.318H37.1893C36.2619 14.318 35.5238 13.5798 35.5238 12.6524V6.00919C35.5238 5.08179 36.2619 4.34365 37.1893 4.34365H43.8326C44.76 4.34365 45.4981 5.08179 45.4981 6.00919V6.40665ZM58.406 14.3085H57.2799V10.6651H49.5579V14.3085H48.4317V6.00919C48.4317 5.08179 49.1699 4.34365 50.0973 4.34365H56.7405C57.6679 4.34365 58.406 5.08179 58.406 6.00919V14.318V14.3085Z" fill="#41695B"/>
<path d="M56.749 5.4707H50.1058C49.8124 5.4707 49.5664 5.71675 49.5664 6.01011V9.55885H57.2884V6.01011C57.2884 5.71675 57.0424 5.4707 56.749 5.4707Z" fill="#41695B"/>
<path d="M74.2565 3.95706C73.9348 3.95706 73.6982 4.17472 73.6982 4.53433V11.3763C73.6982 13.004 73.4427 14.6695 73.0831 16.231H71.4648C72.2124 14.1585 72.2124 11.7075 72.2124 9.43631V4.46808C72.2124 3.95706 72.3828 3.55014 72.6667 3.26624C72.96 2.99181 73.367 2.82147 73.8874 2.82147H78.1648C78.0418 2.58489 77.8242 2.12118 77.7106 1.81836H79.5938C79.7168 2.14011 79.8872 2.49972 80.067 2.82147H86.1992V3.95706H74.2376H74.2565ZM73.9537 16.5243V15.3698C75.0893 15.2846 76.2627 15.1995 77.3889 15.048C77.7485 14.4519 78.004 13.7894 78.1838 13.1081H79.7452C79.6127 13.6664 79.3762 14.2437 79.1301 14.7925C79.66 14.7452 80.2373 14.6601 80.7483 14.556V15.6726C78.9598 15.9755 76.0261 16.354 73.9537 16.5243ZM78.1365 6.27557V7.36385H80.1048V8.45213H74.654V7.36385H76.6413V6.27557H74.266V5.18729H76.6413V4.37345H78.1365V5.18729H80.7199V6.27557H78.1365ZM79.9345 12.3037C79.7263 12.5119 79.4235 12.6444 79.0639 12.6444H75.4773C75.2596 12.6444 74.9852 12.493 74.7959 12.2564C74.6256 12.0482 74.5026 11.8021 74.5026 11.5466V10.288C74.5026 9.98518 74.6256 9.71075 74.8432 9.54041C75.0609 9.35114 75.3732 9.24705 75.7422 9.24705H79.0544C79.3951 9.24705 79.6695 9.35114 79.8682 9.54041C80.1048 9.7486 80.2468 10.0514 80.2468 10.3732V11.5466C80.2468 11.84 80.1237 12.105 79.925 12.3132L79.9345 12.3037ZM75.43 14.7168C75.2123 14.1869 75.042 13.6286 74.9189 13.0986H76.4804C76.6034 13.638 76.8021 14.2058 77.0576 14.7168H75.43ZM78.78 10.6949C78.78 10.4773 78.6096 10.3353 78.4204 10.3353H76.3668C76.1113 10.3353 75.9978 10.5246 75.9978 10.676V11.2154C75.9978 11.3668 76.206 11.5561 76.3858 11.5561H78.4109C78.6002 11.5561 78.78 11.3858 78.78 11.1681V10.6949ZM81.8082 12.7674C81.2783 11.5088 80.9281 10.1555 80.6158 8.81174H82.13C82.4517 10.2028 82.9154 11.5088 83.5211 12.7674H81.8082ZM85.48 7.97897V15.1995C85.48 15.6253 85.3475 15.966 85.1204 16.2026C84.8649 16.4959 84.4769 16.6284 84.0037 16.6284H82.5085L81.9312 15.4266H83.5968C83.8334 15.4266 83.9658 15.2752 83.9658 15.0197V7.98843H80.6537V6.79605H83.9658V4.5154H85.48V6.79605H86.3506V7.98843H85.48V7.97897Z" fill="#41695B"/>
<path d="M95.4826 6.19826C95.1798 5.48852 94.6972 4.25829 94.4606 3.46337C94.4227 3.33088 94.3092 3.22679 94.1578 3.22679H93.7982C93.6468 3.22679 93.4953 3.31196 93.4291 3.4823C93.1074 4.40024 92.7856 5.31818 92.2083 6.19826H90.4766C91.3566 5.00589 91.7825 4.0217 92.2273 2.75362C92.2935 2.54543 92.4638 2.36563 92.7004 2.2426C92.8897 2.13851 93.1074 2.07227 93.325 2.07227H94.5647C94.8391 2.07227 95.0757 2.15744 95.2744 2.28992C95.4826 2.44133 95.6435 2.65899 95.7287 2.9145C96.0315 3.85137 96.5141 5.13837 97.1198 6.1888H95.4732L95.4826 6.19826ZM95.7192 16.7309C95.5962 16.4754 95.4164 16.0022 95.3312 15.7657L94.8391 16.7309H92.7477C92.2083 16.7309 91.792 16.5606 91.5459 16.2577C91.3093 15.9833 91.1863 15.5953 91.1863 15.1411V7.85434C91.1863 7.46634 91.3567 7.08781 91.6311 6.85123C91.8487 6.64304 92.1421 6.52948 92.5017 6.52948H93.4007C93.3534 6.22665 93.2114 5.52637 93.1452 5.13837H94.5363C94.6215 5.5453 94.7729 6.17934 94.877 6.52948H95.3218C95.7098 6.52948 96.0694 6.6525 96.3249 6.89855C96.5993 7.13513 96.7507 7.52312 96.7507 8.01522V10.4473C96.7507 10.9583 96.5993 11.3463 96.2965 11.6207C96.041 11.8289 95.6814 11.9425 95.2082 11.9425H92.6437V15.1505C92.6437 15.3587 92.8329 15.5764 93.0033 15.5764H95.2839C95.0663 14.8666 94.6593 13.3809 94.4701 12.586H95.918C96.287 14.0339 96.7129 15.3682 97.328 16.7309H95.7476H95.7192ZM95.265 7.97736C95.265 7.76917 95.1136 7.61776 94.9432 7.61776H92.9938C92.8045 7.61776 92.6342 7.76917 92.6342 7.97736V8.63979H95.265V7.97736ZM95.265 9.70915H92.6342V10.7974H94.9243C95.1609 10.7974 95.265 10.646 95.265 10.4284V9.71861V9.70915ZM103.687 7.70293C103.621 7.5799 103.479 7.38117 103.413 7.27708H101.937V9.11296H105.031V10.3053H101.937V15.3209C101.937 15.6899 101.814 16.0306 101.577 16.2861C101.321 16.5606 100.962 16.7309 100.508 16.7309H99.4383L98.8989 15.5575H100.072C100.262 15.5575 100.432 15.4534 100.432 15.1884V10.3148H97.2523V9.12242H100.432V7.28654H98.7475C98.6812 7.41903 98.5961 7.60829 98.492 7.71239H96.8075C97.7444 6.32129 98.3216 4.43809 98.7286 2.92396C98.7948 2.64953 98.9841 2.43187 99.2206 2.28046C99.4099 2.15744 99.6276 2.09119 99.8641 2.09119H102.211C102.571 2.09119 102.855 2.19529 103.082 2.39402C103.29 2.56436 103.441 2.81987 103.526 3.12269C103.886 4.4097 104.615 6.31182 105.466 7.71239H103.697L103.687 7.70293ZM98.4163 15.4818H96.8832C97.5456 14.2042 98.1229 12.3021 98.3311 11.1665H99.7884C99.5802 12.4251 99.0787 14.2894 98.4163 15.4818ZM102.116 3.60532C102.069 3.41605 101.946 3.21732 101.691 3.21732H100.451C100.233 3.21732 100.063 3.36874 100.025 3.53908C99.8547 4.32453 99.5519 5.3371 99.2585 6.10363H102.949C102.656 5.42227 102.287 4.23936 102.116 3.60532ZM103.735 15.4818C103.205 14.3651 102.732 12.5576 102.476 11.1665H103.848C104.085 12.4062 104.804 14.4786 105.296 15.4818H103.735Z" fill="#41695B"/>
<path d="M110.871 15.1511H109.584C109.953 12.6055 110.038 8.99995 110.029 6.5395H111.231C111.354 8.91479 111.183 12.3973 110.871 15.1511ZM113.066 5.70673V16.6842H111.619V5.70673H109.764V4.59006H111.619V1.8457H113.066V4.5806H114.77V5.69726H113.066V5.70673ZM113.729 13.6275C113.559 11.3469 113.407 8.37538 113.407 6.5395H114.609C114.609 8.63089 114.779 11.432 115.016 13.6275H113.729ZM124.139 16.6842H122.946C122.624 16.6842 122.331 16.6179 122.066 16.4665C121.725 16.2583 121.423 15.9082 121.186 15.3593C120.741 15.7851 120.098 16.3624 119.672 16.6842H117.221C118.338 16.0028 119.871 14.8199 120.552 14.0155C120.296 13.4004 119.842 11.9052 119.672 10.921H117.155C117.069 12.8421 116.852 14.9334 115.877 16.6842H114.107C115.243 15.1038 115.688 13.0786 115.688 10.921H115.044V9.76648H115.688C115.707 9.54883 115.688 9.25546 115.669 9.08513H117.145C117.145 9.27439 117.145 9.57722 117.126 9.76648H119.407C119.151 7.67509 118.981 4.23045 118.962 1.8457H120.41C120.372 4.32509 120.514 7.48583 120.855 9.76648H121.65C121.546 9.55829 121.356 9.17029 121.309 8.95264H122.757C122.842 9.20815 123.031 9.57722 123.164 9.76648H124.451V10.921H121.101C121.167 11.3658 121.394 12.1796 121.546 12.6339C121.782 12.3594 122.142 11.7538 122.293 11.4131H123.978C123.552 12.1985 122.738 13.4382 122.18 14.1291C122.35 14.5549 122.568 14.9429 122.795 15.2647C122.918 15.4161 123.05 15.4823 123.202 15.4823H124.574L124.129 16.6747L124.139 16.6842ZM118.044 8.8864C117.978 8.6782 117.874 8.32806 117.827 8.07255L117.552 8.68767H116.038C115.764 8.68767 115.584 8.58357 115.461 8.41323C115.338 8.20504 115.338 7.92114 115.48 7.68456L116.398 6.05687H115.603C115.347 6.05687 115.158 5.90546 115.073 5.6878C114.988 5.47015 114.988 5.21464 115.111 5.00644L116.606 2.03497H117.997L116.35 5.09161H116.946L117.571 4.00333H118.877L116.719 7.65617H117.76C117.722 7.40066 117.656 6.86125 117.628 6.56789H118.678C118.744 7.19247 118.972 8.33752 119.104 8.89586H118.054L118.044 8.8864ZM118.233 14.2048C117.959 13.5234 117.59 12.4257 117.401 11.5929H118.773C118.962 12.2553 119.435 13.5613 119.729 14.2048H118.233ZM123.429 8.8864C123.381 8.63089 123.306 8.1388 123.296 7.86436L122.956 8.6782H121.839C121.498 8.6782 121.262 8.55518 121.139 8.35645C121.035 8.16718 121.035 7.91168 121.186 7.62778L122 6.04741H121.404C121.148 6.04741 120.949 5.94331 120.826 5.7919C120.675 5.60263 120.656 5.31873 120.789 4.99698L122.028 2.02551H123.372L121.981 5.08215H122.511L123.107 3.99387H124.366L122.341 7.6467H123.258C123.221 7.42905 123.192 6.8991 123.192 6.55842H124.091C124.157 7.183 124.309 8.34699 124.394 8.8864H123.429Z" fill="#41695B"/>
<path d="M128.699 16.6654V15.5487H135.361V13.6939H129.854V12.5583H135.361V10.8076H129.267V9.70038H142.875V10.8076H136.876V12.5583H142.345V13.6939H136.876V15.5487H143.5V16.6654H128.699ZM142.326 8.2241C142.005 8.58371 141.531 8.73512 141.106 8.73512H130.876C130.469 8.73512 130.109 8.56478 129.854 8.29035C129.617 8.03484 129.485 7.69416 129.485 7.28724V4.19274C129.485 3.7385 129.702 3.39782 130.015 3.1707C130.308 2.98144 130.658 2.89627 131.018 2.89627H133.478C133.63 2.65969 133.838 2.14867 133.932 1.78906H135.816C135.683 2.11081 135.456 2.62183 135.324 2.89627H141.134C141.626 2.89627 141.986 3.01929 142.241 3.25587C142.535 3.53031 142.667 3.9183 142.667 4.37254V7.1926C142.667 7.64684 142.535 7.97806 142.326 8.21464V8.2241ZM141.134 4.4861C141.134 4.26845 140.964 4.03186 140.727 4.03186H131.434C131.198 4.03186 130.961 4.22113 130.961 4.47664V5.20531H141.134V4.49557V4.4861ZM141.134 6.30305H130.961V7.15475C130.961 7.42919 131.131 7.59953 131.387 7.59953H140.699C140.954 7.59953 141.143 7.36294 141.143 7.10744V6.31252L141.134 6.30305Z" fill="#41695B"/>
</svg>
