<svg width="228" height="33" viewBox="0 0 228 33" fill="none" xmlns="http://www.w3.org/2000/svg">
<g clip-path="url(#clip0_2_4165)">
<path d="M108.941 28.8085C108.941 30.4971 107.548 31.872 105.838 31.872H4.08362C2.36357 31.872 0.970703 30.4971 0.970703 28.8085V4.36563C0.970703 2.66782 2.36357 1.29297 4.08362 1.29297H105.828C107.548 1.29297 108.941 2.66782 108.941 4.36563V28.8085Z" fill="white"/>
<path d="M105.827 32.582H4.08272C1.97005 32.582 0.25 30.8934 0.25 28.8081V4.36519C0.25 2.27984 1.97005 0.582031 4.08272 0.582031H105.827C107.94 0.582031 109.66 2.27984 109.66 4.36519V28.8081C109.66 30.8934 107.94 32.582 105.827 32.582Z" fill="#A6A5A5"/>
<path d="M108.941 28.8085C108.941 30.4971 107.548 31.872 105.838 31.872H4.08362C2.36357 31.872 0.970703 30.4971 0.970703 28.8085V4.36563C0.970703 2.66782 2.36357 1.29297 4.08362 1.29297H105.828C107.548 1.29297 108.941 2.66782 108.941 4.36563V28.8085Z" fill="#010101"/>
<path opacity="0.1" d="M105.828 0.582031H51.3379L72.6796 32.582H105.828C107.941 32.582 109.661 30.8934 109.661 28.7989V4.36519C109.661 2.27984 107.941 0.582031 105.828 0.582031Z" fill="white"/>
<path d="M38.9144 10.253C38.9144 10.8805 38.7555 11.4249 38.3629 11.8216C37.8861 12.2922 37.3346 12.5229 36.6148 12.5229C35.895 12.5229 35.3435 12.2922 34.8667 11.8216C34.39 11.351 34.1562 10.8066 34.1562 10.0961C34.1562 9.38565 34.39 8.84124 34.8667 8.37065C35.3435 7.90006 35.895 7.66938 36.6148 7.66938C36.9326 7.66938 37.2505 7.7432 37.5683 7.90006C37.8861 8.05693 38.1198 8.21379 38.2788 8.44447L37.8861 8.83201C37.5683 8.44447 37.1757 8.28761 36.6148 8.28761C36.138 8.28761 35.6613 8.44447 35.3435 8.83201C34.9508 9.14574 34.7919 9.61633 34.7919 10.1607C34.7919 10.7051 34.9508 11.1757 35.3435 11.4895C35.7361 11.8032 36.138 12.0339 36.6148 12.0339C37.1663 12.0339 37.5683 11.877 37.9609 11.4895C38.1946 11.2588 38.3535 10.945 38.3535 10.5483H36.6054V9.92083H38.9051V10.2346L38.9144 10.253ZM42.5602 8.29683H40.4195V9.78242H42.4013V10.3268H40.4195V11.8124H42.5602V12.4399H39.7838V7.75243H42.5602V8.29683ZM45.1776 12.4399H44.542V8.29683H43.1958V7.75243H46.5238V8.29683H45.1776V12.4399ZM48.8234 12.4399V7.75243H49.4591V12.4491H48.8234V12.4399ZM52.1513 12.4399H51.5156V8.29683H50.1695V7.75243H53.4227V8.29683H52.0765V12.4399H52.1513ZM59.6765 11.8124C59.1998 12.283 58.6482 12.5137 57.9284 12.5137C57.2086 12.5137 56.6571 12.283 56.1803 11.8124C55.7036 11.3418 55.4699 10.7974 55.4699 10.0869C55.4699 9.37642 55.7036 8.83201 56.1803 8.36143C56.6571 7.89084 57.2086 7.66016 57.9284 7.66016C58.6482 7.66016 59.1998 7.89084 59.6765 8.36143C60.1533 8.83201 60.387 9.37642 60.387 10.0869C60.387 10.7974 60.1533 11.3418 59.6765 11.8124ZM56.6664 11.4249C56.9843 11.7386 57.461 11.9693 57.9378 11.9693C58.4145 11.9693 58.8913 11.8124 59.2091 11.4249C59.527 11.1111 59.7607 10.6405 59.7607 10.0961C59.7607 9.55174 59.6017 9.08115 59.2091 8.76742C58.8913 8.4537 58.4145 8.22302 57.9378 8.22302C57.461 8.22302 56.9843 8.37988 56.6664 8.76742C56.3486 9.08115 56.1149 9.55174 56.1149 10.0961C56.1149 10.6405 56.2738 11.1111 56.6664 11.4249ZM61.2657 12.4399V7.75243H61.9762L64.2758 11.4249V7.75243H64.9115V12.4491H64.2758L61.8172 8.61979V12.4491H61.2657V12.4399Z" fill="white"/>
<path d="M55.3201 18.3086C53.4224 18.3086 51.908 19.7204 51.908 21.6765C51.908 23.6327 53.4131 25.0445 55.3201 25.0445C57.2271 25.0445 58.7321 23.6327 58.7321 21.6765C58.7321 19.7204 57.2271 18.3086 55.3201 18.3086ZM55.3201 23.6235C54.2918 23.6235 53.4224 22.7654 53.4224 21.5935C53.4224 20.4216 54.2918 19.5635 55.3201 19.5635C56.3484 19.5635 57.2177 20.3478 57.2177 21.5935C57.2177 22.7654 56.3484 23.6235 55.3201 23.6235ZM47.9538 18.3086C46.0561 18.3086 44.5417 19.7204 44.5417 21.6765C44.5417 23.6327 46.0468 25.0445 47.9538 25.0445C49.8608 25.0445 51.3658 23.6327 51.3658 21.6765C51.3658 19.7204 49.8608 18.3086 47.9538 18.3086ZM47.9538 23.6235C46.9255 23.6235 46.0561 22.7654 46.0561 21.5935C46.0561 20.4216 46.9255 19.5635 47.9538 19.5635C48.9821 19.5635 49.8514 20.3478 49.8514 21.5935C49.8514 22.7654 48.9821 23.6235 47.9538 23.6235ZM39.1572 19.3236V20.7354H42.5693C42.4945 21.5197 42.1767 22.1471 41.7747 22.5347C41.2979 23.0053 40.5033 23.5497 39.1572 23.5497C37.0165 23.5497 35.4367 21.9072 35.4367 19.7942C35.4367 17.6812 37.1006 16.0387 39.1572 16.0387C40.2696 16.0387 41.139 16.5093 41.7747 17.0537L42.803 16.0387C41.9336 15.2544 40.8212 14.627 39.2414 14.627C36.3902 14.627 33.9316 16.9707 33.9316 19.7942C33.9316 22.6177 36.3902 24.9614 39.2414 24.9614C40.8305 24.9614 41.9336 24.4909 42.8871 23.4759C43.8406 22.5347 44.1585 21.206 44.1585 20.191C44.1585 19.8772 44.1584 19.5635 44.0837 19.3328H39.1666L39.1572 19.3236ZM75.138 20.4216C74.8202 19.6373 74.0256 18.3086 72.2868 18.3086C70.5481 18.3086 69.1178 19.6373 69.1178 21.6765C69.1178 23.5497 70.5481 25.0445 72.4458 25.0445C73.9508 25.0445 74.9043 24.1033 75.2221 23.5589L74.1097 22.7746C73.7171 23.319 73.2403 23.7158 72.4458 23.7158C71.6512 23.7158 71.1744 23.402 70.7818 22.7008L75.2969 20.8276L75.138 20.4401V20.4216ZM70.5388 21.5197C70.5388 20.2648 71.567 19.5635 72.2868 19.5635C72.8384 19.5635 73.3993 19.8772 73.5582 20.2648L70.5481 21.5197H70.5388ZM66.8182 24.7308H68.3233V14.9499H66.8182V24.7308ZM64.4438 19.0191C64.0512 18.6316 63.4155 18.2348 62.6209 18.2348C60.957 18.2348 59.3678 19.7204 59.3678 21.6027C59.3678 23.4851 60.8728 24.8876 62.6209 24.8876C63.4155 24.8876 64.0512 24.5001 64.369 24.1033H64.4438V24.5739C64.4438 25.8288 63.7333 26.5301 62.6209 26.5301C61.7515 26.5301 61.1159 25.9026 60.957 25.3582L59.6856 25.9026C60.0782 26.7607 61.0317 27.8588 62.6957 27.8588C64.3597 27.8588 65.8647 26.8438 65.8647 24.417V18.4747H64.4345V19.0191H64.4438ZM62.6957 23.6327C61.6674 23.6327 60.798 22.7746 60.798 21.6027C60.798 20.4309 61.6674 19.5727 62.6957 19.5727C63.724 19.5727 64.5186 20.4309 64.5186 21.6027C64.5186 22.7746 63.724 23.6327 62.6957 23.6327ZM82.0275 14.9499H78.4659V24.7308H79.971V21.0583H82.0275C83.6915 21.0583 85.2807 19.8865 85.2807 18.0041C85.2807 16.1218 83.6915 14.9499 82.0275 14.9499ZM82.1023 19.6466H79.9616V16.2786H82.1023C83.2148 16.2786 83.8504 17.2198 83.8504 17.9211C83.7756 18.7792 83.14 19.6466 82.1023 19.6466ZM91.2167 18.2348C90.1043 18.2348 89.0012 18.7054 88.5993 19.7204L89.9454 20.2648C90.2632 19.7204 90.74 19.5635 91.2915 19.5635C92.0861 19.5635 92.7965 20.0341 92.8807 20.8184V20.8922C92.647 20.7354 92.0113 20.5047 91.3756 20.5047C89.9454 20.5047 88.5245 21.289 88.5245 22.6915C88.5245 24.0203 89.7117 24.8784 90.983 24.8784C92.0113 24.8784 92.4881 24.4078 92.8807 23.9372H92.9555V24.7215H94.3857V20.9661C94.2268 19.2406 92.8807 18.2256 91.2167 18.2256V18.2348ZM91.0578 23.6327C90.581 23.6327 89.8706 23.402 89.8706 22.7746C89.8706 21.9903 90.74 21.7596 91.4598 21.7596C92.0954 21.7596 92.4133 21.9165 92.8059 22.0733C92.647 23.0145 91.8524 23.6419 91.0578 23.6419V23.6327ZM99.3776 18.4655L97.7136 22.6915H97.6389L95.8908 18.4655H94.3016L96.9191 24.4078L95.414 27.6927H96.9191L100.957 18.4655H99.3682H99.3776ZM86.0659 24.7215H87.571V14.9499H86.0659V24.7308V24.7215Z" fill="white"/>
<path d="M12.0288 7.07812C11.7951 7.30881 11.7109 7.70558 11.7109 8.17616V25.4587C11.7109 25.9293 11.8699 26.3169 12.1036 26.5568L12.1783 26.6306L22.0032 16.9328V16.7759L12.0288 7.07812Z" fill="url(#paint0_linear_2_4165)"/>
<path d="M25.1809 20.2173L21.9277 17.0062V16.7755L25.1809 13.5645L25.2557 13.6383L29.1351 15.8251C30.2475 16.4526 30.2475 17.4676 29.1351 18.095L25.1715 20.2081L25.1809 20.2173Z" fill="url(#paint1_linear_2_4165)"/>
<path d="M25.2564 20.1345L21.9285 16.8496L12.0195 26.6305C12.4122 27.018 12.973 27.018 13.6835 26.7043L25.2564 20.1345Z" fill="url(#paint2_linear_2_4165)"/>
<path d="M25.2568 13.5654L13.6933 7.07863C12.9828 6.69109 12.4219 6.76491 12.0293 7.15245L21.9383 16.8503L25.2662 13.5654H25.2568Z" fill="url(#paint3_linear_2_4165)"/>
</g>
<g clip-path="url(#clip1_2_4165)">
<path d="M226.361 28.8085C226.361 30.4971 224.968 31.872 223.257 31.872H121.504C119.783 31.872 118.391 30.4971 118.391 28.8085V4.36563C118.391 2.66782 119.783 1.29297 121.504 1.29297H223.248C224.968 1.29297 226.361 2.66782 226.361 4.36563V28.8085Z" fill="white"/>
<path d="M223.247 32.582H121.503C119.39 32.582 117.67 30.8934 117.67 28.8081V4.36519C117.67 2.27984 119.39 0.582031 121.503 0.582031H223.247C225.36 0.582031 227.08 2.27984 227.08 4.36519V28.8081C227.08 30.8934 225.36 32.582 223.247 32.582Z" fill="#A6A5A5"/>
<path d="M226.361 28.8085C226.361 30.4971 224.968 31.872 223.257 31.872H121.504C119.783 31.872 118.391 30.4971 118.391 28.8085V4.36563C118.391 2.66782 119.783 1.29297 121.504 1.29297H223.248C224.968 1.29297 226.361 2.66782 226.361 4.36563V28.8085Z" fill="#010101"/>
<path opacity="0.1" d="M223.248 0.582031H168.758L190.099 32.582H223.248C225.36 32.582 227.081 30.8934 227.081 28.7989V4.36519C227.081 2.27984 225.36 0.582031 223.248 0.582031Z" fill="white"/>
<path d="M142.882 16.8686C142.863 14.3495 144.976 13.1223 145.069 13.0577C143.873 11.3322 142.012 11.1016 141.358 11.0831C139.797 10.917 138.282 12.0058 137.488 12.0058C136.693 12.0058 135.45 11.1016 134.132 11.1292C132.43 11.1569 130.851 12.1258 129.972 13.6298C128.177 16.7025 129.514 21.2146 131.234 23.6967C132.094 24.9147 133.104 26.2711 134.422 26.225C135.712 26.1696 136.188 25.413 137.75 25.413C139.311 25.413 139.741 26.225 141.087 26.1881C142.47 26.1696 143.34 24.9701 144.172 23.7429C145.163 22.3495 145.565 20.9747 145.583 20.9101C145.555 20.9009 142.9 19.8951 142.872 16.8778L142.882 16.8686ZM140.348 9.44989C141.04 8.59176 141.517 7.42913 141.386 6.24805C140.386 6.29418 139.124 6.93086 138.404 7.77054C137.768 8.50872 137.198 9.71748 137.338 10.8524C138.469 10.9355 139.619 10.2896 140.348 9.44989Z" fill="white"/>
<path d="M161.55 25.1355H159.746L158.755 22.072H155.325L154.38 25.1355H152.623L156.026 14.7179H158.12L161.532 25.1355H161.55ZM158.466 20.7895L157.578 18.0674C157.484 17.7906 157.306 17.1355 157.045 16.102H157.017C156.914 16.5449 156.746 17.2001 156.512 18.0674L155.633 20.7895H158.466ZM170.272 21.2877C170.272 22.5611 169.917 23.5761 169.216 24.3143C168.59 24.9786 167.804 25.3016 166.87 25.3016C165.86 25.3016 165.14 24.9509 164.701 24.2404V28.1805H163.009V20.0974C163.009 19.2946 162.99 18.4734 162.943 17.6245H164.43L164.523 18.8148H164.551C165.112 17.9198 165.972 17.4677 167.122 17.4677C168.019 17.4677 168.767 17.8183 169.365 18.5196C169.964 19.2208 170.263 20.1436 170.263 21.2877H170.272ZM168.552 21.3523C168.552 20.6234 168.384 20.0144 168.047 19.5438C167.683 19.0455 167.187 18.8056 166.58 18.8056C166.159 18.8056 165.785 18.944 165.449 19.2116C165.112 19.4884 164.888 19.8391 164.785 20.282C164.738 20.4481 164.71 20.6141 164.71 20.7895V22.0444C164.71 22.5888 164.878 23.0501 165.215 23.4284C165.551 23.8068 165.991 23.9913 166.542 23.9913C167.178 23.9913 167.673 23.7514 168.029 23.2624C168.384 22.7733 168.562 22.1366 168.562 21.3431L168.552 21.3523ZM179.031 21.2877C179.031 22.5611 178.676 23.5761 177.975 24.3143C177.349 24.9786 176.563 25.3016 175.629 25.3016C174.619 25.3016 173.899 24.9509 173.46 24.2404V28.1805H171.768V20.0974C171.768 19.2946 171.749 18.4734 171.702 17.6245H173.189L173.282 18.8148H173.31C173.871 17.9198 174.731 17.4677 175.881 17.4677C176.779 17.4677 177.526 17.8183 178.125 18.5196C178.723 19.2208 179.022 20.1436 179.022 21.2877H179.031ZM177.311 21.3523C177.311 20.6234 177.143 20.0144 176.807 19.5438C176.442 19.0455 175.956 18.8056 175.339 18.8056C174.918 18.8056 174.544 18.944 174.198 19.2116C173.862 19.4884 173.638 19.8391 173.535 20.282C173.479 20.485 173.46 20.6603 173.46 20.7895V22.0444C173.46 22.5888 173.628 23.0501 173.965 23.4284C174.301 23.8068 174.741 23.9913 175.292 23.9913C175.928 23.9913 176.423 23.7514 176.779 23.2624C177.134 22.7733 177.311 22.1366 177.311 21.3431V21.3523ZM188.819 22.2197C188.819 23.1055 188.501 23.8252 187.884 24.3881C187.202 24.9971 186.239 25.3016 185.005 25.3016C183.874 25.3016 182.958 25.0893 182.275 24.6557L182.668 23.2624C183.406 23.696 184.22 23.9083 185.108 23.9083C185.743 23.9083 186.239 23.7699 186.594 23.4838C186.949 23.1978 187.127 22.8194 187.127 22.3489C187.127 21.9244 186.977 21.5738 186.687 21.2785C186.398 20.9925 185.912 20.7249 185.229 20.4757C183.378 19.7929 182.453 18.7964 182.453 17.4953C182.453 16.6372 182.78 15.9452 183.434 15.3915C184.089 14.8471 184.949 14.5703 186.024 14.5703C186.987 14.5703 187.781 14.7364 188.417 15.0686L187.996 16.425C187.398 16.102 186.725 15.9452 185.968 15.9452C185.369 15.9452 184.902 16.0928 184.565 16.3788C184.285 16.6372 184.145 16.9509 184.145 17.32C184.145 17.7352 184.304 18.0767 184.631 18.3442C184.911 18.5934 185.425 18.861 186.164 19.147C187.071 19.5069 187.744 19.9313 188.164 20.4111C188.594 20.891 188.809 21.5 188.809 22.2197H188.819ZM194.428 18.8794H192.567V22.5242C192.567 23.4561 192.895 23.9175 193.558 23.9175C193.857 23.9175 194.11 23.8898 194.306 23.8437L194.353 25.1078C194.016 25.2278 193.577 25.2923 193.035 25.2923C192.371 25.2923 191.848 25.0893 191.464 24.6926C191.09 24.2866 190.903 23.613 190.903 22.6718V18.8887H189.791V17.6337H190.903V16.2589L192.567 15.7606V17.6337H194.428V18.8887V18.8794ZM202.822 21.3246C202.822 22.478 202.486 23.4284 201.822 24.1666C201.121 24.9325 200.195 25.3108 199.036 25.3108C197.877 25.3108 197.026 24.9417 196.363 24.2128C195.699 23.4838 195.372 22.5611 195.372 21.4446C195.372 20.3281 195.718 19.3316 196.4 18.5842C197.083 17.846 198.008 17.4677 199.167 17.4677C200.326 17.4677 201.177 17.8367 201.859 18.5657C202.504 19.2762 202.832 20.1897 202.832 21.3154L202.822 21.3246ZM201.074 21.3615C201.074 20.6695 200.925 20.079 200.625 19.5899C200.27 18.9902 199.765 18.6949 199.102 18.6949C198.438 18.6949 197.905 18.9902 197.55 19.5899C197.251 20.0882 197.092 20.688 197.092 21.3892C197.092 22.0905 197.241 22.6718 197.55 23.1609C197.915 23.7606 198.429 24.0559 199.083 24.0559C199.737 24.0559 200.233 23.7514 200.607 23.1424C200.915 22.6349 201.074 22.0444 201.074 21.3523V21.3615ZM208.328 19.1009C208.151 19.0732 207.973 19.0547 207.795 19.0547C207.197 19.0547 206.739 19.2762 206.421 19.7191C206.141 20.1066 206.001 20.6049 206.001 21.2047V25.1447H204.309V19.9959C204.309 19.2116 204.29 18.4181 204.262 17.6337H205.739L205.804 19.0732H205.851C206.029 18.5749 206.309 18.1782 206.692 17.8829C207.048 17.6245 207.478 17.4769 207.917 17.4769C208.076 17.4769 208.216 17.4861 208.338 17.5046V19.1009H208.328ZM215.891 21.0294C215.891 21.2785 215.872 21.5369 215.825 21.786H210.749C210.768 22.5242 211.011 23.0963 211.488 23.4838C211.918 23.8344 212.469 24.0098 213.143 24.0098C213.89 24.0098 214.582 23.8898 215.199 23.6591L215.461 24.8125C214.741 25.1263 213.89 25.2739 212.909 25.2739C211.731 25.2739 210.806 24.9325 210.132 24.2497C209.459 23.5669 209.123 22.6441 209.123 21.4907C209.123 20.3373 209.441 19.4146 210.067 18.6672C210.721 17.8644 211.609 17.4584 212.731 17.4584C213.853 17.4584 214.657 17.8644 215.218 18.6672C215.667 19.3039 215.891 20.0882 215.891 21.0294ZM214.283 20.5957C214.292 20.0974 214.18 19.673 213.956 19.3131C213.666 18.8517 213.217 18.6211 212.61 18.6211C212.058 18.6211 211.609 18.8517 211.264 19.3039C210.983 19.6637 210.815 20.0974 210.759 20.6049H214.283V20.5957Z" fill="white"/>
<path d="M154.848 11.9407C154.381 11.9407 153.969 11.9222 153.633 11.8761V6.84727C154.11 6.77345 154.586 6.73654 155.063 6.73654C156.998 6.73654 157.896 7.67772 157.896 9.20944C157.896 10.9811 156.839 11.9407 154.848 11.9407ZM155.129 7.38245C154.867 7.38245 154.642 7.4009 154.455 7.43781V11.2671C154.558 11.2856 154.745 11.2856 155.016 11.2856C156.288 11.2856 157.007 10.5751 157.007 9.23712C157.007 8.04681 156.353 7.38245 155.119 7.38245H155.129ZM160.672 11.9776C159.578 11.9776 158.868 11.1748 158.868 10.0768C158.868 8.97875 159.588 8.12062 160.728 8.12062C161.803 8.12062 162.532 8.88648 162.532 10.0122C162.532 11.1379 161.784 11.9684 160.672 11.9684V11.9776ZM160.7 8.72962C160.102 8.72962 159.718 9.28325 159.718 10.0583C159.718 10.8334 160.111 11.3686 160.7 11.3686C161.289 11.3686 161.682 10.7781 161.682 10.0399C161.682 9.30171 161.298 8.72962 160.709 8.72962H160.7ZM168.767 8.20367L167.599 11.8946H166.832L166.346 10.289C166.225 9.90148 166.122 9.49548 166.047 9.09871H166.028C165.963 9.50471 165.851 9.90148 165.729 10.289L165.215 11.8946H164.449L163.345 8.20367H164.196L164.617 9.95684C164.72 10.3721 164.804 10.7688 164.869 11.1379H164.888C164.953 10.8242 165.047 10.4367 165.196 9.95684L165.729 8.19444H166.402L166.907 9.91993C167.029 10.3352 167.131 10.7504 167.206 11.1379H167.225C167.281 10.7596 167.365 10.3536 167.477 9.91993L167.935 8.19444H168.749L168.767 8.20367ZM173.077 11.8946H172.245V9.7723C172.245 9.11716 171.992 8.79421 171.488 8.79421C170.983 8.79421 170.656 9.20943 170.656 9.69848V11.8946H169.824V9.25557C169.824 8.93262 169.824 8.58198 169.796 8.20367H170.525L170.562 8.77576H170.581C170.805 8.37899 171.254 8.12985 171.768 8.12985C172.553 8.12985 173.067 8.72039 173.067 9.68925V11.9038L173.077 11.8946ZM175.367 11.8946H174.535V6.51509H175.367V11.9038V11.8946ZM178.396 11.9776C177.302 11.9776 176.592 11.1748 176.592 10.0768C176.592 8.97875 177.312 8.12062 178.452 8.12062C179.527 8.12062 180.256 8.88648 180.256 10.0122C180.256 11.1656 179.508 11.9684 178.396 11.9684V11.9776ZM178.424 8.72962C177.826 8.72962 177.442 9.28325 177.442 10.0583C177.442 10.8334 177.835 11.3686 178.415 11.3686C178.994 11.3686 179.396 10.7781 179.396 10.0399C179.396 9.29248 179.013 8.72962 178.424 8.72962ZM183.528 11.8946L183.472 11.4701H183.453C183.201 11.8115 182.827 11.9776 182.359 11.9776C181.686 11.9776 181.21 11.5162 181.21 10.8888C181.21 9.97529 182.014 9.50471 183.397 9.50471V9.44012C183.397 8.95107 183.135 8.71117 182.621 8.71117C182.257 8.71117 181.929 8.80344 181.64 8.98798L181.471 8.4528C181.817 8.24058 182.247 8.12985 182.752 8.12985C183.734 8.12985 184.22 8.63735 184.22 9.65234V11.0087C184.22 11.3778 184.238 11.6731 184.276 11.8946H183.528ZM183.416 10.0583C182.49 10.0583 182.032 10.2798 182.032 10.8057C182.032 11.1933 182.275 11.3871 182.603 11.3871C183.023 11.3871 183.416 11.0641 183.416 10.6397V10.0676V10.0583ZM188.258 11.8946L188.221 11.304H188.202C187.959 11.7561 187.566 11.9776 187.005 11.9776C186.108 11.9776 185.435 11.1933 185.435 10.0952C185.435 8.99721 186.127 8.12985 187.071 8.12985C187.576 8.12985 187.922 8.29594 188.127 8.62812H188.146V6.50586H188.978V10.898C188.978 11.2579 188.978 11.5901 189.006 11.8946H188.267H188.258ZM188.137 9.72616C188.137 9.20943 187.791 8.76653 187.258 8.76653C186.641 8.76653 186.267 9.30171 186.267 10.0676C186.267 10.8334 186.66 11.3225 187.239 11.3225C187.763 11.3225 188.127 10.8703 188.127 10.3444V9.72616H188.137ZM194.241 11.9776C193.147 11.9776 192.437 11.1748 192.437 10.0768C192.437 8.97875 193.157 8.12062 194.297 8.12062C195.372 8.12062 196.101 8.88648 196.101 10.0122C196.101 11.1656 195.353 11.9684 194.241 11.9684V11.9776ZM194.269 8.72962C193.671 8.72962 193.287 9.28325 193.287 10.0583C193.287 10.8334 193.68 11.3686 194.26 11.3686C194.839 11.3686 195.241 10.7781 195.241 10.0399C195.241 9.29248 194.858 8.72962 194.269 8.72962ZM200.57 11.8946H199.738V9.7723C199.738 9.11716 199.485 8.79421 198.98 8.79421C198.476 8.79421 198.148 9.20943 198.148 9.69848V11.8946H197.316V9.25557C197.316 8.93262 197.316 8.58198 197.288 8.20367H198.018L198.055 8.77576H198.074C198.298 8.37899 198.747 8.12985 199.261 8.12985C200.046 8.12985 200.56 8.72039 200.56 9.68925V11.9038L200.57 11.8946ZM206.16 8.82189H205.244V10.612C205.244 11.0641 205.403 11.2948 205.73 11.2948C205.879 11.2948 206.001 11.2763 206.094 11.2579L206.113 11.8853C205.954 11.9499 205.739 11.9776 205.468 11.9776C204.814 11.9776 204.421 11.6177 204.421 10.6858V8.82189H203.879V8.20367H204.421V7.53008L205.234 7.29017V8.2129H206.15V8.83112L206.16 8.82189ZM210.563 11.8946H209.731V9.79075C209.731 9.12639 209.478 8.79421 208.973 8.79421C208.543 8.79421 208.142 9.08025 208.142 9.6708V11.8946H207.31V6.51509H208.142V8.72962H208.16C208.422 8.32362 208.805 8.12985 209.282 8.12985C210.077 8.12985 210.553 8.73885 210.553 9.69848V11.8946H210.563ZM215.068 10.2429H212.572C212.591 10.9442 213.059 11.3317 213.75 11.3317C214.115 11.3317 214.461 11.2671 214.76 11.1564L214.891 11.7285C214.536 11.8761 214.124 11.9591 213.638 11.9591C212.47 11.9591 211.778 11.2302 211.778 10.0952C211.778 8.9603 212.488 8.1114 213.545 8.1114C214.498 8.1114 215.096 8.81266 215.096 9.86457C215.096 9.99375 215.096 10.1137 215.068 10.2337V10.2429ZM214.302 9.66157C214.302 9.08948 214.012 8.69271 213.479 8.69271C213.003 8.69271 212.629 9.09871 212.572 9.66157H214.302Z" fill="white"/>
</g>
<defs>
<linearGradient id="paint0_linear_2_4165" x1="16.8617" y1="7.02276" x2="16.8617" y2="26.483" gradientUnits="userSpaceOnUse">
<stop stop-color="#267CAF"/>
<stop offset="0.29" stop-color="#4A92B4"/>
<stop offset="0.77" stop-color="#79BCBA"/>
<stop offset="1" stop-color="#88CEBC"/>
</linearGradient>
<linearGradient id="paint1_linear_2_4165" x1="27.0598" y1="14.5056" x2="24.7092" y2="19.8985" gradientUnits="userSpaceOnUse">
<stop stop-color="#F48879"/>
<stop offset="0.12" stop-color="#F5907A"/>
<stop offset="0.71" stop-color="#FBB777"/>
<stop offset="1" stop-color="#FDC874"/>
</linearGradient>
<linearGradient id="paint2_linear_2_4165" x1="23.4803" y1="18.5843" x2="12.7762" y2="27.3572" gradientUnits="userSpaceOnUse">
<stop stop-color="#EB413D"/>
<stop offset="0.17" stop-color="#D94452"/>
<stop offset="0.57" stop-color="#AF487A"/>
<stop offset="0.86" stop-color="#954B92"/>
<stop offset="1" stop-color="#894A9C"/>
</linearGradient>
<linearGradient id="paint3_linear_2_4165" x1="13.4315" y1="7.54922" x2="23.6803" y2="15.4749" gradientUnits="userSpaceOnUse">
<stop stop-color="#54C0AC"/>
<stop offset="1" stop-color="#DDE79A"/>
</linearGradient>
<clipPath id="clip0_2_4165">
<rect width="109.419" height="32" fill="white" transform="translate(0.25 0.582031)"/>
</clipPath>
<clipPath id="clip1_2_4165">
<rect width="109.419" height="32" fill="white" transform="translate(117.67 0.582031)"/>
</clipPath>
</defs>
</svg>
