<svg width="337" height="145" viewBox="0 0 337 145" fill="none" xmlns="http://www.w3.org/2000/svg">
<path d="M43.3406 102.751C42.1306 102.751 41.1406 101.771 41.1406 100.551C41.1406 99.3306 42.1206 98.3506 43.3406 98.3506C50.7906 98.3506 56.8506 92.2906 56.8506 84.8406C56.8506 83.6306 57.8306 82.6406 59.0506 82.6406C60.2706 82.6406 61.2506 83.6206 61.2506 84.8406C61.2506 94.7106 53.2206 102.741 43.3506 102.741L43.3406 102.751Z" fill="#41695B"/>
<path d="M59.0506 62.3502C57.8406 62.3502 56.8506 61.3702 56.8506 60.1502C56.8506 52.7002 50.7906 46.6402 43.3406 46.6402C42.1306 46.6402 41.1406 45.6602 41.1406 44.4402C41.1406 43.2202 42.1206 42.2402 43.3406 42.2402C53.2106 42.2402 61.2406 50.2702 61.2406 60.1402C61.2406 61.3502 60.2606 62.3402 59.0406 62.3402L59.0506 62.3502Z" fill="#41695B"/>
<path d="M2.95 62.35C1.74 62.35 0.75 61.37 0.75 60.15C0.75 50.28 8.78 42.25 18.65 42.25C19.86 42.25 20.85 43.23 20.85 44.45C20.85 45.67 19.87 46.65 18.65 46.65C11.2 46.65 5.14 52.71 5.14 60.16C5.14 61.37 4.16 62.36 2.94 62.36L2.95 62.35Z" fill="#41695B"/>
<path d="M18.65 102.75C8.78 102.75 0.75 94.7204 0.75 84.8504C0.75 83.6404 1.73 82.6504 2.95 82.6504C4.17 82.6504 5.15 83.6304 5.15 84.8504C5.15 92.3004 11.21 98.3604 18.66 98.3604C19.87 98.3604 20.86 99.3404 20.86 100.56C20.86 101.78 19.88 102.76 18.66 102.76L18.65 102.75Z" fill="#41695B"/>
<path d="M30.9998 82.9098C25.2598 82.9098 20.5898 78.2398 20.5898 72.4998C20.5898 66.7598 25.2598 62.0898 30.9998 62.0898C36.7398 62.0898 41.4098 66.7598 41.4098 72.4998C41.4098 78.2398 36.7398 82.9098 30.9998 82.9098ZM30.9998 66.4898C27.6798 66.4898 24.9898 69.1898 24.9898 72.4998C24.9898 75.8098 27.6898 78.5098 30.9998 78.5098C34.3098 78.5098 37.0098 75.8098 37.0098 72.4998C37.0098 69.1898 34.3098 66.4898 30.9998 66.4898Z" fill="#41695B"/>
<g clip-path="url(#clip0_36_420)">
<path d="M195.941 140.809C195.941 142.497 194.548 143.872 192.838 143.872H91.0836C89.3636 143.872 87.9707 142.497 87.9707 140.809V116.366C87.9707 114.668 89.3636 113.293 91.0836 113.293H192.828C194.548 113.293 195.941 114.668 195.941 116.366V140.809Z" fill="white"/>
<path d="M192.827 144.582H91.0827C88.97 144.582 87.25 142.893 87.25 140.808V116.365C87.25 114.28 88.97 112.582 91.0827 112.582H192.827C194.94 112.582 196.66 114.28 196.66 116.365V140.808C196.66 142.893 194.94 144.582 192.827 144.582Z" fill="#A6A5A5"/>
<path d="M195.941 140.809C195.941 142.497 194.548 143.872 192.838 143.872H91.0836C89.3636 143.872 87.9707 142.497 87.9707 140.809V116.366C87.9707 114.668 89.3636 113.293 91.0836 113.293H192.828C194.548 113.293 195.941 114.668 195.941 116.366V140.809Z" fill="#010101"/>
<path opacity="0.1" d="M192.828 112.582H138.338L159.68 144.582H192.828C194.941 144.582 196.661 142.893 196.661 140.799V116.365C196.661 114.28 194.941 112.582 192.828 112.582Z" fill="white"/>
<path d="M125.914 122.253C125.914 122.88 125.756 123.425 125.363 123.822C124.886 124.292 124.335 124.523 123.615 124.523C122.895 124.523 122.343 124.292 121.867 123.822C121.39 123.351 121.156 122.807 121.156 122.096C121.156 121.386 121.39 120.841 121.867 120.371C122.343 119.9 122.895 119.669 123.615 119.669C123.933 119.669 124.25 119.743 124.568 119.9C124.886 120.057 125.12 120.214 125.279 120.444L124.886 120.832C124.568 120.444 124.176 120.288 123.615 120.288C123.138 120.288 122.661 120.444 122.343 120.832C121.951 121.146 121.792 121.616 121.792 122.161C121.792 122.705 121.951 123.176 122.343 123.489C122.736 123.803 123.138 124.034 123.615 124.034C124.166 124.034 124.568 123.877 124.961 123.489C125.195 123.259 125.354 122.945 125.354 122.548H123.605V121.921H125.905V122.235L125.914 122.253ZM129.56 120.297H127.419V121.782H129.401V122.327H127.419V123.812H129.56V124.44H126.784V119.752H129.56V120.297ZM132.178 124.44H131.542V120.297H130.196V119.752H133.524V120.297H132.178V124.44ZM135.823 124.44V119.752H136.459V124.449H135.823V124.44ZM139.151 124.44H138.516V120.297H137.17V119.752H140.423V120.297H139.077V124.44H139.151ZM146.677 123.812C146.2 124.283 145.648 124.514 144.928 124.514C144.209 124.514 143.657 124.283 143.18 123.812C142.704 123.342 142.47 122.797 142.47 122.087C142.47 121.376 142.704 120.832 143.18 120.361C143.657 119.891 144.209 119.66 144.928 119.66C145.648 119.66 146.2 119.891 146.677 120.361C147.153 120.832 147.387 121.376 147.387 122.087C147.387 122.797 147.153 123.342 146.677 123.812ZM143.666 123.425C143.984 123.739 144.461 123.969 144.938 123.969C145.415 123.969 145.891 123.812 146.209 123.425C146.527 123.111 146.761 122.641 146.761 122.096C146.761 121.552 146.602 121.081 146.209 120.767C145.891 120.454 145.415 120.223 144.938 120.223C144.461 120.223 143.984 120.38 143.666 120.767C143.349 121.081 143.115 121.552 143.115 122.096C143.115 122.641 143.274 123.111 143.666 123.425ZM148.266 124.44V119.752H148.976L151.276 123.425V119.752H151.911V124.449H151.276L148.817 120.62V124.449H148.266V124.44Z" fill="white"/>
<path d="M142.32 130.309C140.422 130.309 138.908 131.72 138.908 133.677C138.908 135.633 140.413 137.044 142.32 137.044C144.227 137.044 145.732 135.633 145.732 133.677C145.732 131.72 144.227 130.309 142.32 130.309ZM142.32 135.623C141.292 135.623 140.422 134.765 140.422 133.594C140.422 132.422 141.292 131.564 142.32 131.564C143.348 131.564 144.218 132.348 144.218 133.594C144.218 134.765 143.348 135.623 142.32 135.623ZM134.954 130.309C133.056 130.309 131.542 131.72 131.542 133.677C131.542 135.633 133.047 137.044 134.954 137.044C136.861 137.044 138.366 135.633 138.366 133.677C138.366 131.72 136.861 130.309 134.954 130.309ZM134.954 135.623C133.925 135.623 133.056 134.765 133.056 133.594C133.056 132.422 133.925 131.564 134.954 131.564C135.982 131.564 136.851 132.348 136.851 133.594C136.851 134.765 135.982 135.623 134.954 135.623ZM126.157 131.324V132.735H129.569C129.494 133.52 129.177 134.147 128.775 134.535C128.298 135.005 127.503 135.55 126.157 135.55C124.017 135.55 122.437 133.907 122.437 131.794C122.437 129.681 124.101 128.039 126.157 128.039C127.27 128.039 128.139 128.509 128.775 129.054L129.803 128.039C128.934 127.254 127.821 126.627 126.241 126.627C123.39 126.627 120.932 128.971 120.932 131.794C120.932 134.618 123.39 136.961 126.241 136.961C127.831 136.961 128.934 136.491 129.887 135.476C130.841 134.535 131.158 133.206 131.158 132.191C131.158 131.877 131.158 131.564 131.084 131.333H126.167L126.157 131.324ZM162.138 132.422C161.82 131.637 161.026 130.309 159.287 130.309C157.548 130.309 156.118 131.637 156.118 133.677C156.118 135.55 157.548 137.044 159.446 137.044C160.951 137.044 161.904 136.103 162.222 135.559L161.11 134.775C160.717 135.319 160.24 135.716 159.446 135.716C158.651 135.716 158.174 135.402 157.782 134.701L162.297 132.828L162.138 132.44V132.422ZM157.539 133.52C157.539 132.265 158.567 131.564 159.287 131.564C159.838 131.564 160.399 131.877 160.558 132.265L157.548 133.52H157.539ZM153.818 136.731H155.323V126.95H153.818V136.731ZM151.444 131.019C151.051 130.632 150.416 130.235 149.621 130.235C147.957 130.235 146.368 131.72 146.368 133.603C146.368 135.485 147.873 136.888 149.621 136.888C150.416 136.888 151.051 136.5 151.369 136.103H151.444V136.574C151.444 137.829 150.733 138.53 149.621 138.53C148.752 138.53 148.116 137.903 147.957 137.358L146.686 137.903C147.078 138.761 148.032 139.859 149.696 139.859C151.36 139.859 152.865 138.844 152.865 136.417V130.475H151.434V131.019H151.444ZM149.696 135.633C148.667 135.633 147.798 134.775 147.798 133.603C147.798 132.431 148.667 131.573 149.696 131.573C150.724 131.573 151.519 132.431 151.519 133.603C151.519 134.775 150.724 135.633 149.696 135.633ZM169.028 126.95H165.466V136.731H166.971V133.058H169.028C170.692 133.058 172.281 131.886 172.281 130.004C172.281 128.122 170.692 126.95 169.028 126.95ZM169.102 131.647H166.962V128.279H169.102C170.215 128.279 170.85 129.22 170.85 129.921C170.776 130.779 170.14 131.647 169.102 131.647ZM178.217 130.235C177.104 130.235 176.001 130.705 175.599 131.72L176.945 132.265C177.263 131.72 177.74 131.564 178.292 131.564C179.086 131.564 179.797 132.034 179.881 132.818V132.892C179.647 132.735 179.011 132.505 178.376 132.505C176.945 132.505 175.524 133.289 175.524 134.692C175.524 136.02 176.712 136.878 177.983 136.878C179.011 136.878 179.488 136.408 179.881 135.937H179.955V136.722H181.386V132.966C181.227 131.241 179.881 130.226 178.217 130.226V130.235ZM178.058 135.633C177.581 135.633 176.871 135.402 176.871 134.775C176.871 133.99 177.74 133.76 178.46 133.76C179.095 133.76 179.413 133.916 179.806 134.073C179.647 135.014 178.852 135.642 178.058 135.642V135.633ZM186.378 130.465L184.714 134.692H184.639L182.891 130.465H181.302L183.919 136.408L182.414 139.693H183.919L187.957 130.465H186.368H186.378ZM173.066 136.722H174.571V126.95H173.066V136.731V136.722Z" fill="white"/>
<path d="M99.0288 119.078C98.7951 119.309 98.7109 119.706 98.7109 120.176V137.459C98.7109 137.929 98.8699 138.317 99.1036 138.557L99.1783 138.631L109.003 128.933V128.776L99.0288 119.078Z" fill="url(#paint0_linear_36_420)"/>
<path d="M112.181 132.217L108.928 129.006V128.776L112.181 125.564L112.256 125.638L116.135 127.825C117.248 128.453 117.248 129.468 116.135 130.095L112.172 132.208L112.181 132.217Z" fill="url(#paint1_linear_36_420)"/>
<path d="M112.256 132.135L108.929 128.85L99.0195 138.63C99.4122 139.018 99.973 139.018 100.683 138.704L112.256 132.135Z" fill="url(#paint2_linear_36_420)"/>
<path d="M112.257 125.565L100.693 119.079C99.9828 118.691 99.4219 118.765 99.0293 119.152L108.938 128.85L112.266 125.565H112.257Z" fill="url(#paint3_linear_36_420)"/>
</g>
<g clip-path="url(#clip1_36_420)">
<path d="M313.361 140.809C313.361 142.497 311.968 143.872 310.257 143.872H208.504C206.783 143.872 205.391 142.497 205.391 140.809V116.366C205.391 114.668 206.783 113.293 208.504 113.293H310.248C311.968 113.293 313.361 114.668 313.361 116.366V140.809Z" fill="white"/>
<path d="M310.247 144.582H208.503C206.39 144.582 204.67 142.893 204.67 140.808V116.365C204.67 114.28 206.39 112.582 208.503 112.582H310.247C312.36 112.582 314.08 114.28 314.08 116.365V140.808C314.08 142.893 312.36 144.582 310.247 144.582Z" fill="#A6A5A5"/>
<path d="M313.361 140.809C313.361 142.497 311.968 143.872 310.257 143.872H208.504C206.783 143.872 205.391 142.497 205.391 140.809V116.366C205.391 114.668 206.783 113.293 208.504 113.293H310.248C311.968 113.293 313.361 114.668 313.361 116.366V140.809Z" fill="#010101"/>
<path opacity="0.1" d="M310.248 112.582H255.758L277.099 144.582H310.248C312.36 144.582 314.081 142.893 314.081 140.799V116.365C314.081 114.28 312.36 112.582 310.248 112.582Z" fill="white"/>
<path d="M229.882 128.869C229.863 126.35 231.976 125.122 232.069 125.058C230.873 123.332 229.012 123.102 228.358 123.083C226.797 122.917 225.282 124.006 224.488 124.006C223.693 124.006 222.45 123.102 221.132 123.129C219.43 123.157 217.851 124.126 216.972 125.63C215.177 128.702 216.514 133.215 218.234 135.697C219.094 136.915 220.104 138.271 221.422 138.225C222.712 138.17 223.188 137.413 224.75 137.413C226.311 137.413 226.741 138.225 228.087 138.188C229.47 138.17 230.34 136.97 231.172 135.743C232.163 134.35 232.565 132.975 232.583 132.91C232.555 132.901 229.9 131.895 229.872 128.878L229.882 128.869ZM227.348 121.45C228.04 120.592 228.517 119.429 228.386 118.248C227.386 118.294 226.124 118.931 225.404 119.771C224.768 120.509 224.198 121.717 224.338 122.852C225.469 122.935 226.619 122.29 227.348 121.45Z" fill="white"/>
<path d="M248.55 137.135H246.746L245.755 134.072H242.325L241.38 137.135H239.623L243.026 126.718H245.12L248.532 137.135H248.55ZM245.466 132.789L244.578 130.067C244.484 129.791 244.306 129.135 244.045 128.102H244.017C243.914 128.545 243.746 129.2 243.512 130.067L242.633 132.789H245.466ZM257.272 133.288C257.272 134.561 256.917 135.576 256.216 136.314C255.59 136.979 254.804 137.302 253.87 137.302C252.86 137.302 252.14 136.951 251.701 136.24V140.18H250.009V132.097C250.009 131.295 249.99 130.473 249.943 129.625H251.43L251.523 130.815H251.551C252.112 129.92 252.972 129.468 254.122 129.468C255.019 129.468 255.767 129.818 256.365 130.52C256.964 131.221 257.263 132.144 257.263 133.288H257.272ZM255.552 133.352C255.552 132.623 255.384 132.014 255.047 131.544C254.683 131.046 254.187 130.806 253.58 130.806C253.159 130.806 252.785 130.944 252.449 131.212C252.112 131.488 251.888 131.839 251.785 132.282C251.738 132.448 251.71 132.614 251.71 132.789V134.044C251.71 134.589 251.878 135.05 252.215 135.428C252.551 135.807 252.991 135.991 253.542 135.991C254.178 135.991 254.673 135.751 255.029 135.262C255.384 134.773 255.562 134.137 255.562 133.343L255.552 133.352ZM266.031 133.288C266.031 134.561 265.676 135.576 264.975 136.314C264.349 136.979 263.563 137.302 262.629 137.302C261.619 137.302 260.899 136.951 260.46 136.24V140.18H258.768V132.097C258.768 131.295 258.749 130.473 258.702 129.625H260.189L260.282 130.815H260.31C260.871 129.92 261.731 129.468 262.881 129.468C263.779 129.468 264.526 129.818 265.125 130.52C265.723 131.221 266.022 132.144 266.022 133.288H266.031ZM264.311 133.352C264.311 132.623 264.143 132.014 263.807 131.544C263.442 131.046 262.956 130.806 262.339 130.806C261.918 130.806 261.544 130.944 261.198 131.212C260.862 131.488 260.638 131.839 260.535 132.282C260.479 132.485 260.46 132.66 260.46 132.789V134.044C260.46 134.589 260.628 135.05 260.965 135.428C261.301 135.807 261.741 135.991 262.292 135.991C262.928 135.991 263.423 135.751 263.779 135.262C264.134 134.773 264.311 134.137 264.311 133.343V133.352ZM275.819 134.22C275.819 135.105 275.501 135.825 274.884 136.388C274.202 136.997 273.239 137.302 272.005 137.302C270.874 137.302 269.958 137.089 269.275 136.656L269.668 135.262C270.406 135.696 271.22 135.908 272.108 135.908C272.743 135.908 273.239 135.77 273.594 135.484C273.949 135.198 274.127 134.819 274.127 134.349C274.127 133.924 273.977 133.574 273.687 133.279C273.398 132.992 272.912 132.725 272.229 132.476C270.378 131.793 269.453 130.796 269.453 129.495C269.453 128.637 269.78 127.945 270.434 127.392C271.089 126.847 271.949 126.57 273.024 126.57C273.987 126.57 274.781 126.736 275.417 127.069L274.996 128.425C274.398 128.102 273.725 127.945 272.968 127.945C272.369 127.945 271.902 128.093 271.565 128.379C271.285 128.637 271.145 128.951 271.145 129.32C271.145 129.735 271.304 130.077 271.631 130.344C271.911 130.593 272.425 130.861 273.164 131.147C274.071 131.507 274.744 131.931 275.164 132.411C275.594 132.891 275.809 133.5 275.809 134.22H275.819ZM281.428 130.879H279.567V134.524C279.567 135.456 279.895 135.917 280.558 135.917C280.857 135.917 281.11 135.89 281.306 135.844L281.353 137.108C281.016 137.228 280.577 137.292 280.035 137.292C279.371 137.292 278.848 137.089 278.464 136.693C278.09 136.287 277.903 135.613 277.903 134.672V130.889H276.791V129.634H277.903V128.259L279.567 127.761V129.634H281.428V130.889V130.879ZM289.822 133.325C289.822 134.478 289.486 135.428 288.822 136.167C288.121 136.932 287.195 137.311 286.036 137.311C284.877 137.311 284.026 136.942 283.363 136.213C282.699 135.484 282.372 134.561 282.372 133.445C282.372 132.328 282.718 131.332 283.4 130.584C284.083 129.846 285.008 129.468 286.167 129.468C287.326 129.468 288.177 129.837 288.859 130.566C289.504 131.276 289.832 132.19 289.832 133.315L289.822 133.325ZM288.074 133.362C288.074 132.67 287.925 132.079 287.625 131.59C287.27 130.99 286.765 130.695 286.102 130.695C285.438 130.695 284.905 130.99 284.55 131.59C284.251 132.088 284.092 132.688 284.092 133.389C284.092 134.09 284.241 134.672 284.55 135.161C284.915 135.761 285.429 136.056 286.083 136.056C286.737 136.056 287.233 135.751 287.607 135.142C287.915 134.635 288.074 134.044 288.074 133.352V133.362ZM295.328 131.101C295.151 131.073 294.973 131.055 294.795 131.055C294.197 131.055 293.739 131.276 293.421 131.719C293.141 132.107 293.001 132.605 293.001 133.205V137.145H291.309V131.996C291.309 131.212 291.29 130.418 291.262 129.634H292.739L292.804 131.073H292.851C293.029 130.575 293.309 130.178 293.692 129.883C294.048 129.625 294.478 129.477 294.917 129.477C295.076 129.477 295.216 129.486 295.338 129.505V131.101H295.328ZM302.891 133.029C302.891 133.279 302.872 133.537 302.825 133.786H297.749C297.768 134.524 298.011 135.096 298.488 135.484C298.918 135.834 299.469 136.01 300.143 136.01C300.89 136.01 301.582 135.89 302.199 135.659L302.461 136.813C301.741 137.126 300.89 137.274 299.909 137.274C298.731 137.274 297.806 136.932 297.132 136.25C296.459 135.567 296.123 134.644 296.123 133.491C296.123 132.337 296.441 131.415 297.067 130.667C297.721 129.864 298.609 129.458 299.731 129.458C300.853 129.458 301.657 129.864 302.218 130.667C302.667 131.304 302.891 132.088 302.891 133.029ZM301.283 132.596C301.292 132.097 301.18 131.673 300.956 131.313C300.666 130.852 300.217 130.621 299.61 130.621C299.058 130.621 298.609 130.852 298.264 131.304C297.983 131.664 297.815 132.097 297.759 132.605H301.283V132.596Z" fill="white"/>
<path d="M241.848 123.941C241.381 123.941 240.969 123.922 240.633 123.876V118.847C241.11 118.773 241.586 118.737 242.063 118.737C243.998 118.737 244.896 119.678 244.896 121.209C244.896 122.981 243.839 123.941 241.848 123.941ZM242.129 119.382C241.867 119.382 241.642 119.401 241.455 119.438V123.267C241.558 123.286 241.745 123.286 242.016 123.286C243.288 123.286 244.007 122.575 244.007 121.237C244.007 120.047 243.353 119.382 242.119 119.382H242.129ZM247.672 123.978C246.578 123.978 245.868 123.175 245.868 122.077C245.868 120.979 246.588 120.121 247.728 120.121C248.803 120.121 249.532 120.886 249.532 122.012C249.532 123.138 248.784 123.968 247.672 123.968V123.978ZM247.7 120.73C247.102 120.73 246.718 121.283 246.718 122.058C246.718 122.833 247.111 123.369 247.7 123.369C248.289 123.369 248.682 122.778 248.682 122.04C248.682 121.302 248.298 120.73 247.709 120.73H247.7ZM255.767 120.204L254.599 123.895H253.832L253.346 122.289C253.225 121.901 253.122 121.495 253.047 121.099H253.028C252.963 121.505 252.851 121.901 252.729 122.289L252.215 123.895H251.449L250.345 120.204H251.196L251.617 121.957C251.72 122.372 251.804 122.769 251.869 123.138H251.888C251.953 122.824 252.047 122.437 252.196 121.957L252.729 120.194H253.402L253.907 121.92C254.029 122.335 254.131 122.75 254.206 123.138H254.225C254.281 122.76 254.365 122.354 254.477 121.92L254.935 120.194H255.749L255.767 120.204ZM260.077 123.895H259.245V121.772C259.245 121.117 258.992 120.794 258.488 120.794C257.983 120.794 257.656 121.209 257.656 121.698V123.895H256.824V121.256C256.824 120.933 256.824 120.582 256.796 120.204H257.525L257.562 120.776H257.581C257.805 120.379 258.254 120.13 258.768 120.13C259.553 120.13 260.067 120.72 260.067 121.689V123.904L260.077 123.895ZM262.367 123.895H261.535V118.515H262.367V123.904V123.895ZM265.396 123.978C264.302 123.978 263.592 123.175 263.592 122.077C263.592 120.979 264.312 120.121 265.452 120.121C266.527 120.121 267.256 120.886 267.256 122.012C267.256 123.166 266.508 123.968 265.396 123.968V123.978ZM265.424 120.73C264.826 120.73 264.442 121.283 264.442 122.058C264.442 122.833 264.835 123.369 265.415 123.369C265.994 123.369 266.396 122.778 266.396 122.04C266.396 121.292 266.013 120.73 265.424 120.73ZM270.528 123.895L270.472 123.47H270.453C270.201 123.812 269.827 123.978 269.359 123.978C268.686 123.978 268.21 123.516 268.21 122.889C268.21 121.975 269.014 121.505 270.397 121.505V121.44C270.397 120.951 270.135 120.711 269.621 120.711C269.257 120.711 268.929 120.803 268.64 120.988L268.471 120.453C268.817 120.241 269.247 120.13 269.752 120.13C270.734 120.13 271.22 120.637 271.22 121.652V123.009C271.22 123.378 271.238 123.673 271.276 123.895H270.528ZM270.416 122.058C269.49 122.058 269.032 122.28 269.032 122.806C269.032 123.193 269.275 123.387 269.603 123.387C270.023 123.387 270.416 123.064 270.416 122.64V122.068V122.058ZM275.258 123.895L275.221 123.304H275.202C274.959 123.756 274.566 123.978 274.005 123.978C273.108 123.978 272.435 123.193 272.435 122.095C272.435 120.997 273.127 120.13 274.071 120.13C274.576 120.13 274.922 120.296 275.127 120.628H275.146V118.506H275.978V122.898C275.978 123.258 275.978 123.59 276.006 123.895H275.267H275.258ZM275.137 121.726C275.137 121.209 274.791 120.767 274.258 120.767C273.641 120.767 273.267 121.302 273.267 122.068C273.267 122.833 273.66 123.322 274.239 123.322C274.763 123.322 275.127 122.87 275.127 122.344V121.726H275.137ZM281.241 123.978C280.147 123.978 279.437 123.175 279.437 122.077C279.437 120.979 280.157 120.121 281.297 120.121C282.372 120.121 283.101 120.886 283.101 122.012C283.101 123.166 282.353 123.968 281.241 123.968V123.978ZM281.269 120.73C280.671 120.73 280.287 121.283 280.287 122.058C280.287 122.833 280.68 123.369 281.26 123.369C281.839 123.369 282.241 122.778 282.241 122.04C282.241 121.292 281.858 120.73 281.269 120.73ZM287.57 123.895H286.738V121.772C286.738 121.117 286.485 120.794 285.98 120.794C285.476 120.794 285.148 121.209 285.148 121.698V123.895H284.316V121.256C284.316 120.933 284.316 120.582 284.288 120.204H285.018L285.055 120.776H285.074C285.298 120.379 285.747 120.13 286.261 120.13C287.046 120.13 287.56 120.72 287.56 121.689V123.904L287.57 123.895ZM293.16 120.822H292.244V122.612C292.244 123.064 292.403 123.295 292.73 123.295C292.879 123.295 293.001 123.276 293.094 123.258L293.113 123.885C292.954 123.95 292.739 123.978 292.468 123.978C291.814 123.978 291.421 123.618 291.421 122.686V120.822H290.879V120.204H291.421V119.53L292.234 119.29V120.213H293.15V120.831L293.16 120.822ZM297.563 123.895H296.731V121.791C296.731 121.126 296.478 120.794 295.973 120.794C295.543 120.794 295.142 121.08 295.142 121.671V123.895H294.31V118.515H295.142V120.73H295.16C295.422 120.324 295.805 120.13 296.282 120.13C297.077 120.13 297.553 120.739 297.553 121.698V123.895H297.563ZM302.068 122.243H299.572C299.591 122.944 300.059 123.332 300.75 123.332C301.115 123.332 301.461 123.267 301.76 123.156L301.891 123.728C301.536 123.876 301.124 123.959 300.638 123.959C299.47 123.959 298.778 123.23 298.778 122.095C298.778 120.96 299.488 120.111 300.545 120.111C301.498 120.111 302.096 120.813 302.096 121.865C302.096 121.994 302.096 122.114 302.068 122.234V122.243ZM301.302 121.662C301.302 121.089 301.012 120.693 300.479 120.693C300.003 120.693 299.629 121.099 299.572 121.662H301.302Z" fill="white"/>
</g>
<path d="M205.068 79.6239C203.668 80.5639 202.278 81.5039 200.878 82.4339C198.918 83.7539 196.958 85.0739 194.988 86.3839C194.748 86.5439 194.528 86.7439 194.218 86.5439C193.928 86.3639 194.008 86.0839 194.038 85.8039C194.478 82.4639 195.648 79.4239 197.658 76.7239C200.158 73.3739 203.458 71.1339 207.408 69.8339C209.558 69.1239 211.768 68.7739 214.028 68.7039C214.418 68.6939 214.558 68.7839 214.648 69.1339C215.518 72.8139 215.648 76.4939 214.578 80.1539C213.298 84.5439 210.458 87.5939 206.288 89.3839C203.388 90.6239 200.408 90.7639 197.418 89.6439C197.268 89.5839 197.098 89.5439 196.968 89.4439C196.648 89.2139 196.378 89.2839 196.048 89.4739C194.628 90.3139 193.128 90.9639 191.568 91.4939C191.228 91.6139 190.968 91.5139 190.868 91.2339C190.768 90.9639 190.918 90.7339 191.268 90.6139C197.078 88.5939 201.538 84.8439 204.988 79.8139C205.028 79.7639 205.058 79.7039 205.088 79.6439L205.048 79.6139L205.068 79.6239Z" fill="#41695B"/>
<path d="M193.739 82.6943C192.459 81.2643 191.519 79.6843 191.039 77.8643C190.249 74.8843 190.719 72.0443 192.049 69.3143C192.719 67.9343 193.599 66.6943 194.729 65.6343C194.969 65.4143 195.189 65.3643 195.489 65.4743C196.869 65.9743 197.899 66.9143 198.739 68.0743C199.619 69.2943 200.209 70.6543 200.529 72.1243C200.569 72.2943 200.529 72.4143 200.399 72.5243C197.189 75.1843 194.989 78.5243 193.799 82.5243C193.789 82.5743 193.769 82.6143 193.739 82.6943Z" fill="#41695B"/>
<path d="M106.754 72.53L108.266 71.114C109.37 71.69 110.714 72.65 111.386 73.394L109.778 74.954C109.178 74.234 107.858 73.202 106.754 72.53ZM99.626 81.89H103.994V88.682H99.626V86.57H102.074V83.978H99.626V81.89ZM108.65 78.674L111.122 79.13C109.634 85.562 106.85 90.41 102.554 93.434C102.17 92.954 101.186 92.018 100.658 91.562C104.882 88.994 107.426 84.506 108.65 78.674ZM95.33 74.57H97.85V81.314C97.85 84.914 97.514 90.17 95.498 93.554C95.042 93.098 93.914 92.354 93.338 92.09C95.186 88.994 95.33 84.554 95.33 81.314V74.57ZM96.866 74.57H111.194V77.114H96.866V74.57ZM98.642 78.458H103.778V80.546H98.642V78.458ZM98.522 81.89H100.418V89.954H98.522V81.89ZM90.026 73.274L91.658 71.186C93.002 71.762 94.778 72.698 95.666 73.49L93.938 75.794C93.122 75.002 91.418 73.946 90.026 73.274ZM88.898 79.778L90.482 77.666C91.85 78.17 93.602 79.082 94.49 79.85L92.786 82.178C91.994 81.41 90.266 80.378 88.898 79.778ZM89.042 91.658C89.954 89.714 91.25 86.546 92.186 83.642L94.514 85.13C93.674 87.794 92.642 90.674 91.634 93.098L89.042 91.658ZM103.994 71.306H106.61C106.706 81.122 107.882 90.05 109.178 90.098C109.538 90.122 109.754 88.922 109.898 86.69C110.33 87.242 111.482 87.962 111.914 88.178C111.338 92.57 110.114 93.53 109.154 93.53C105.41 93.458 104.282 84.29 103.994 71.306ZM113.066 72.146H121.658V74.666H113.066V72.146ZM115.706 79.586H120.938V90.53H115.706V88.058H118.538V82.082H115.706V79.586ZM115.586 73.538L118.178 73.922C117.506 79.034 116.354 84.05 114.098 87.29C113.834 86.642 113.09 85.274 112.634 84.65C114.338 82.01 115.154 77.834 115.586 73.538ZM114.626 79.586H116.978V92.282H114.626V79.586ZM125.618 82.73L127.562 83.042C127.442 84.722 127.034 86.642 126.218 87.842L124.394 86.882C125.066 85.922 125.498 84.266 125.618 82.73ZM132.794 82.322L135.218 83.186C134.402 84.65 133.562 86.306 132.866 87.386L131.042 86.642C131.69 85.466 132.41 83.642 132.794 82.322ZM122.594 71.762H124.97V74.738H132.122V71.762H134.618V77.042H122.594V71.762ZM121.418 78.506H135.434V80.93H121.418V78.506ZM127.226 71.042H129.746V76.322H127.226V71.042ZM128.498 81.29H130.826C130.682 87.746 130.106 91.514 125.042 93.602C124.754 92.978 124.106 92.066 123.602 91.61C128.066 89.906 128.378 86.93 128.498 81.29ZM130.754 82.274C130.946 86.234 131.474 89.666 135.842 91.418C135.266 91.946 134.57 92.906 134.234 93.578C129.578 91.394 129.05 86.834 128.762 82.394L130.754 82.274ZM122.402 77.546H124.826V81.698C124.826 85.466 124.562 89.93 122.258 93.506C121.73 93.026 120.746 92.33 120.074 92.018C122.162 88.826 122.402 84.938 122.402 81.674V77.546ZM137.69 73.034H158.762V75.482H137.69V73.034ZM146.594 70.994H149.57V74.258H146.594V70.994ZM138.65 82.73H156.194V85.106H141.458V93.602H138.65V82.73ZM155.114 82.73H158.018V90.554C158.018 91.874 157.754 92.642 156.818 93.074C155.906 93.506 154.634 93.554 152.906 93.554C152.81 92.738 152.402 91.586 152.018 90.842C153.098 90.89 154.322 90.89 154.658 90.866C155.018 90.866 155.114 90.77 155.114 90.482V82.73ZM143.618 86.21H146.114V92.69H143.618V86.21ZM144.866 86.21H152.834V91.586H144.866V89.666H150.29V88.13H144.866V86.21ZM144.362 78.338V79.778H151.922V78.338H144.362ZM141.626 76.418H154.826V81.722H141.626V76.418ZM179.018 70.994L181.106 73.37C176.162 74.642 169.25 75.242 163.37 75.434C163.298 74.714 162.938 73.538 162.674 72.914C168.458 72.674 175.082 72.05 179.018 70.994ZM162.89 77.81H181.874V80.57H162.89V77.81ZM161.234 83.402H183.29V86.21H161.234V83.402ZM170.786 74.378H173.786V90.146C173.786 91.85 173.354 92.618 172.202 93.05C171.05 93.506 169.298 93.578 166.85 93.554C166.658 92.738 166.106 91.442 165.674 90.698C167.45 90.77 169.466 90.746 170.018 90.746C170.57 90.746 170.786 90.578 170.786 90.098V74.378Z" fill="#41695B"/>
<path d="M230.738 72.794H233.546V79.466H230.738V72.794ZM230.738 87.194H233.594V93.578H230.738V87.194ZM229.922 79.562L232.514 80.762C231.002 81.962 229.226 83.162 227.882 83.954L225.938 82.85C227.282 81.986 228.938 80.594 229.922 79.562ZM235.418 80.786L237.89 82.178C234.866 84.242 230.882 86.426 227.786 87.77L226.01 86.498C229.106 85.058 233.042 82.682 235.418 80.786ZM223.37 82.994L225.386 81.482C227.186 82.37 229.562 83.786 230.786 84.866L228.626 86.522C227.522 85.49 225.194 83.978 223.37 82.994ZM235.466 85.034L237.554 83.714C239.474 84.818 241.946 86.546 243.17 87.818L240.938 89.282C239.81 88.034 237.434 86.21 235.466 85.034ZM235.058 90.002L237.17 88.538C238.97 89.402 241.514 90.818 242.858 91.802L240.602 93.434C239.426 92.45 236.954 90.962 235.058 90.002ZM221.738 86.33C226.346 86.33 233.666 86.234 240.41 86.114L240.266 88.202C233.618 88.394 226.466 88.562 221.834 88.61L221.738 86.33ZM226.658 88.73L229.25 89.714C227.738 91.178 225.362 92.594 223.37 93.482C222.89 92.954 221.882 92.018 221.258 91.562C223.25 90.89 225.41 89.834 226.658 88.73ZM225.986 77.234V78.482H238.466V77.234H225.986ZM225.986 73.946V75.17H238.466V73.946H225.986ZM223.298 71.762H241.298V80.666H223.298V71.762ZM248.522 73.274H251.33V93.554H248.522V73.274ZM245.282 77.594H253.706V80.282H245.282V77.594ZM248.762 78.866L250.442 79.61C249.53 83.042 247.85 87.314 246.026 89.69C245.762 88.85 245.114 87.65 244.682 86.93C246.338 85.01 248.018 81.53 248.762 78.866ZM252.242 71.282L254.162 73.514C251.762 74.402 248.522 74.978 245.786 75.266C245.69 74.666 245.306 73.682 244.994 73.058C247.586 72.698 250.466 72.05 252.242 71.282ZM251.09 80.858C251.69 81.362 253.778 83.522 254.234 84.074L252.578 86.33C252.026 85.178 250.586 82.994 249.842 81.986L251.09 80.858ZM259.01 71.042H261.866V78.722H259.01V71.042ZM254.306 72.146H266.882V73.898H254.306V72.146ZM254.738 74.714H266.33V76.37H254.738V74.714ZM253.562 77.186H267.362V78.986H253.562V77.186ZM257.642 84.218V85.25H263.474V84.218H257.642ZM257.642 86.882V87.914H263.474V86.882H257.642ZM257.642 81.578V82.562H263.474V81.578H257.642ZM255.05 79.802H266.186V89.69H255.05V79.802ZM261.242 90.794L263.162 89.402C264.722 90.338 266.642 91.49 267.722 92.258L265.226 93.602C264.314 92.882 262.658 91.682 261.242 90.794ZM257.738 89.282L259.97 90.77C258.506 91.898 256.106 93.074 254.162 93.698C253.73 93.17 252.938 92.378 252.386 91.898C254.306 91.346 256.586 90.218 257.738 89.282ZM269.066 72.146H277.658V74.666H269.066V72.146ZM271.706 79.586H276.938V90.53H271.706V88.058H274.538V82.082H271.706V79.586ZM271.586 73.538L274.178 73.922C273.506 79.034 272.354 84.05 270.098 87.29C269.834 86.642 269.09 85.274 268.634 84.65C270.338 82.01 271.154 77.834 271.586 73.538ZM270.626 79.586H272.978V92.282H270.626V79.586ZM281.618 82.73L283.562 83.042C283.442 84.722 283.034 86.642 282.218 87.842L280.394 86.882C281.066 85.922 281.498 84.266 281.618 82.73ZM288.794 82.322L291.218 83.186C290.402 84.65 289.562 86.306 288.866 87.386L287.042 86.642C287.69 85.466 288.41 83.642 288.794 82.322ZM278.594 71.762H280.97V74.738H288.122V71.762H290.618V77.042H278.594V71.762ZM277.418 78.506H291.434V80.93H277.418V78.506ZM283.226 71.042H285.746V76.322H283.226V71.042ZM284.498 81.29H286.826C286.682 87.746 286.106 91.514 281.042 93.602C280.754 92.978 280.106 92.066 279.602 91.61C284.066 89.906 284.378 86.93 284.498 81.29ZM286.754 82.274C286.946 86.234 287.474 89.666 291.842 91.418C291.266 91.946 290.57 92.906 290.234 93.578C285.578 91.394 285.05 86.834 284.762 82.394L286.754 82.274ZM278.402 77.546H280.826V81.698C280.826 85.466 280.562 89.93 278.258 93.506C277.73 93.026 276.746 92.33 276.074 92.018C278.162 88.826 278.402 84.938 278.402 81.674V77.546ZM294.194 74.81H303.29V76.514H296.258V83.522H294.194V74.81ZM302.69 74.81H304.754V81.218C304.754 82.106 304.634 82.61 304.034 82.922C303.482 83.234 302.738 83.258 301.706 83.258C301.61 82.706 301.346 81.938 301.106 81.434C301.682 81.458 302.234 81.458 302.45 81.434C302.642 81.434 302.69 81.386 302.69 81.194V74.81ZM307.586 73.346H315.242V75.506H307.586V73.346ZM298.202 71.066H300.698V75.89H300.338V83.282H298.562V75.89H298.202V71.066ZM307.586 71.066L309.962 71.546C309.194 74.186 307.754 76.562 305.978 78.05C305.642 77.594 304.754 76.658 304.25 76.25C305.81 75.05 306.986 73.154 307.586 71.066ZM296.906 77.162L298.322 77.402C298.178 78.962 297.842 80.546 297.266 81.602C296.978 81.386 296.378 81.05 295.994 80.906C296.618 79.874 296.786 78.53 296.906 77.162ZM294.17 72.362L296.138 71.522C296.738 72.314 297.386 73.394 297.626 74.114L295.514 75.074C295.298 74.33 294.722 73.202 294.17 72.362ZM311.69 74.498L314.186 74.858C312.986 79.202 310.274 81.866 306.146 83.402C305.906 82.85 305.234 81.746 304.778 81.242C308.402 80.114 310.826 77.978 311.69 74.498ZM308.306 74.834C309.506 78.074 312.074 80.618 315.602 81.722C315.098 82.178 314.402 83.09 314.09 83.714C310.274 82.274 307.682 79.298 306.266 75.362L308.306 74.834ZM300.674 77.474L301.874 77.138C302.234 78.146 302.546 79.466 302.618 80.306L301.322 80.714C301.274 79.85 300.986 78.506 300.674 77.474ZM302.81 71.474L305.162 72.29C304.418 73.298 303.722 74.33 303.17 75.002L301.49 74.306C301.946 73.49 302.522 72.314 302.81 71.474ZM302.714 83.354H305.57V93.578H302.714V83.354ZM295.658 84.65H311.714V87.05H298.442V92.474H295.658V84.65ZM310.346 84.65H313.178V89.786C313.178 91.058 312.89 91.73 311.93 92.114C310.946 92.498 309.65 92.474 307.826 92.474C307.658 91.778 307.25 90.77 306.89 90.122C308.042 90.146 309.482 90.146 309.842 90.146C310.202 90.122 310.346 90.05 310.346 89.762V84.65Z" fill="#41695B"/>
<path d="M334.15 59.358H323.25V27.418H334.15C335.53 27.418 336.65 28.538 336.65 29.918V56.858C336.65 58.238 335.53 59.358 334.15 59.358Z" fill="#41695B"/>
<path d="M325.82 37.7576L325.82 36.3776L327.28 35.8576L327.28 31.9776L325.82 31.4376L325.82 30.0776L333.25 32.8076L333.25 35.0376L325.82 37.7676L325.82 37.7576ZM328.41 35.4476L332.69 33.9076L328.41 32.3876L328.41 35.4576L328.41 35.4476Z" fill="white"/>
<path d="M330.249 46.5371C329.569 46.5371 329.049 46.3371 328.679 45.9471C328.259 45.4971 328.059 44.7971 328.059 43.8671L328.059 41.0071L325.819 41.0071L325.819 39.6771L333.199 39.6771L333.199 43.8571C333.199 44.7871 332.989 45.4771 332.579 45.9271C332.209 46.3271 331.679 46.5271 330.979 46.5271L330.259 46.5271L330.249 46.5371ZM330.379 45.2071L330.859 45.2071C331.249 45.2071 331.549 45.0871 331.739 44.8571C331.929 44.6271 332.029 44.2571 332.029 43.7471L332.029 40.9971L329.269 40.9971L329.269 43.7471C329.269 44.2571 329.359 44.6271 329.539 44.8571C329.719 45.0871 329.999 45.1971 330.389 45.1971L330.379 45.2071Z" fill="white"/>
<path d="M330.249 55.418C329.569 55.418 329.049 55.218 328.679 54.828C328.259 54.378 328.059 53.678 328.059 52.748L328.059 49.888L325.819 49.888L325.819 48.558L333.199 48.558L333.199 52.738C333.199 53.668 332.989 54.358 332.579 54.808C332.209 55.208 331.679 55.408 330.979 55.408L330.259 55.408L330.249 55.418ZM330.379 54.098L330.859 54.098C331.249 54.098 331.549 53.978 331.739 53.748C331.929 53.518 332.029 53.148 332.029 52.638L332.029 49.888L329.269 49.888L329.269 52.638C329.269 53.148 329.359 53.518 329.539 53.748C329.719 53.978 329.999 54.088 330.389 54.088L330.379 54.098Z" fill="white"/>
<path d="M241.786 42.81L244.954 45.402C243.046 47.166 240.922 49.002 239.23 50.19L236.71 47.958C238.258 46.698 240.526 44.466 241.786 42.81ZM225.334 45.402L228.178 43.062C229.618 44.286 231.454 46.086 232.282 47.382L229.258 49.974C228.538 48.678 226.81 46.734 225.334 45.402ZM229.87 28.554H239.77V31.758H229.87V28.554ZM229.078 33.666H239.302V36.906H229.078V33.666ZM224.866 38.598H244.738V42.27H224.866V38.598ZM232.93 40.002H236.818V55.626C236.818 57.462 236.53 58.434 235.306 59.01C234.154 59.622 232.534 59.658 230.302 59.658C230.158 58.614 229.654 57.102 229.186 56.058C230.482 56.13 231.922 56.13 232.354 56.094C232.786 56.094 232.93 55.986 232.93 55.554V40.002ZM223.462 54.186C225.478 53.106 228.574 51.126 231.526 49.218L232.822 52.386C230.446 54.294 227.818 56.274 225.55 57.93L223.462 54.186ZM236.494 40.398C237.466 45.474 239.806 51.702 245.53 54.474C244.738 55.266 243.478 56.922 242.938 57.966C237.43 54.69 235.09 47.67 234.118 42.81L236.494 40.398ZM229.006 25.854L233.038 26.322C232.21 30.138 231.022 34.782 230.122 37.734L226.126 37.158C227.062 34.206 228.286 29.49 229.006 25.854ZM238.33 28.554H238.762L239.446 28.374L242.398 28.77C241.894 32.478 241.03 36.942 240.202 40.47L236.278 40.002C237.07 36.402 237.97 31.578 238.33 28.986V28.554ZM216.694 25.89L220.438 27.186C218.962 29.994 217.306 33.198 215.938 35.214L213.058 34.026C214.318 31.866 215.866 28.374 216.694 25.89ZM220.762 30.138L224.254 31.758C221.626 35.79 218.134 40.794 215.362 43.89L212.878 42.486C215.578 39.246 218.854 33.99 220.762 30.138ZM211.114 34.278L213.238 31.398C215.11 33.09 217.306 35.43 218.17 37.122L215.83 40.434C215.038 38.67 212.914 36.114 211.114 34.278ZM219.538 38.778L222.526 37.518C223.966 39.966 225.334 43.134 225.766 45.186L222.526 46.662C222.13 44.574 220.87 41.262 219.538 38.778ZM211.006 41.658C214.246 41.478 218.89 41.226 223.39 40.938L223.426 44.466C219.214 44.79 214.822 45.114 211.474 45.366L211.006 41.658ZM220.51 47.814L223.534 46.878C224.398 48.894 225.118 51.522 225.37 53.25L222.166 54.294C221.986 52.53 221.302 49.866 220.51 47.814ZM212.554 47.022L216.01 47.598C215.65 51.054 214.894 54.618 213.85 56.922C213.13 56.454 211.546 55.77 210.718 55.41C211.726 53.286 212.266 50.046 212.554 47.022ZM216.514 43.566H220.222V59.658H216.514V43.566ZM253.702 32.37H278.758V36.582H253.702V32.37ZM252.226 42.99H277.39V47.13H252.226V42.99ZM248.05 54.402H280.594V58.614H248.05V54.402ZM262.054 25.854H266.554V56.49H262.054V25.854ZM253.738 26.286L258.202 27.294C256.618 32.874 253.99 38.418 251.182 41.874C250.318 41.118 248.41 39.858 247.294 39.246C250.138 36.222 252.442 31.254 253.738 26.286ZM296.362 45.042H315.226V59.478H311.122V48.966H300.286V59.622H296.362V45.042ZM312.382 25.854L315.694 29.238C310.402 31.254 303.094 32.37 296.722 32.946C296.542 31.902 295.966 30.21 295.498 29.238C301.618 28.626 308.386 27.438 312.382 25.854ZM303.742 29.886H307.846V47.31H303.742V29.886ZM294.094 36.33H317.062V40.47H294.094V36.33ZM299.17 54.258H312.814V58.146H299.17V54.258ZM285.238 29.418L287.65 26.322C289.666 27.33 292.798 28.914 294.346 29.922L291.79 33.414C290.35 32.334 287.29 30.606 285.238 29.418ZM283.474 39.39L285.814 36.186C287.866 37.158 291.07 38.706 292.654 39.714L290.242 43.278C288.766 42.27 285.634 40.542 283.474 39.39ZM284.014 56.31C285.958 53.61 288.73 49.11 290.89 44.97L294.058 47.814C292.15 51.63 289.846 55.734 287.686 59.226L284.014 56.31Z" fill="#41695B"/>
<path d="M101.09 57.418L94.2102 35.018H94.0502C94.0768 35.5513 94.1168 36.3513 94.1702 37.418C94.2235 38.4846 94.2768 39.6313 94.3302 40.858C94.3835 42.058 94.4102 43.1513 94.4102 44.138V57.418H89.0102V28.858H97.2502L104.01 50.698H104.13L111.29 28.858H119.53V57.418H113.89V43.898C113.89 42.9913 113.903 41.9513 113.93 40.778C113.983 39.6046 114.023 38.498 114.05 37.458C114.103 36.3913 114.143 35.5913 114.17 35.058H114.01L106.65 57.418H101.09ZM143.185 57.418H126.745V28.858H143.185V33.818H132.785V40.098H142.465V45.058H132.785V52.418H143.185V57.418ZM159.967 41.378H171.287V56.178C169.794 56.6846 168.234 57.0846 166.607 57.378C165.007 57.6713 163.181 57.818 161.127 57.818C158.301 57.818 155.887 57.258 153.887 56.138C151.914 55.018 150.407 53.3646 149.367 51.178C148.354 48.9913 147.847 46.298 147.847 43.098C147.847 40.1113 148.421 37.5246 149.567 35.338C150.741 33.1513 152.434 31.458 154.647 30.258C156.861 29.058 159.567 28.458 162.767 28.458C164.287 28.458 165.781 28.618 167.247 28.938C168.714 29.258 170.047 29.6846 171.247 30.218L169.247 35.058C168.367 34.6046 167.367 34.2313 166.247 33.938C165.127 33.6446 163.954 33.498 162.727 33.498C160.967 33.498 159.434 33.898 158.127 34.698C156.847 35.498 155.847 36.6313 155.127 38.098C154.434 39.538 154.087 41.2446 154.087 43.218C154.087 45.0846 154.341 46.738 154.847 48.178C155.354 49.618 156.154 50.7513 157.247 51.578C158.341 52.378 159.767 52.778 161.527 52.778C162.114 52.778 162.621 52.7646 163.047 52.738C163.501 52.6846 163.914 52.6313 164.287 52.578C164.661 52.498 165.021 52.4313 165.367 52.378V46.418H159.967V41.378ZM195.553 57.418L193.473 50.618H183.073L180.993 57.418H174.473L184.553 28.738H191.953L202.073 57.418H195.553ZM189.953 38.898C189.819 38.4446 189.646 37.8713 189.433 37.178C189.219 36.4846 189.006 35.778 188.793 35.058C188.579 34.338 188.406 33.7113 188.273 33.178C188.139 33.7113 187.953 34.378 187.713 35.178C187.499 35.9513 187.286 36.698 187.073 37.418C186.886 38.1113 186.739 38.6046 186.633 38.898L184.593 45.538H192.033L189.953 38.898Z" fill="#41695B"/>
<path d="M146.203 0.417969H91.0322C89.4897 0.417969 88.25 1.66712 88.25 3.20018V16.1554C88.25 17.6979 89.4992 18.9376 91.0322 18.9376H146.203C147.746 18.9376 148.985 17.6885 148.985 16.1554V3.20018C148.985 1.65766 147.736 0.417969 146.203 0.417969ZM105.407 14.7359H104.281V6.04863L99.729 11.4616L95.1771 6.04863V14.7359H94.051V4.77109H95.5841L99.7195 9.70146L103.855 4.77109H105.388V14.7359H105.407ZM117.416 5.88775H109.438V9.18098H115.845V10.3166H109.438V13.6098H117.416V14.7359H108.322V4.77109H117.416V5.89722V5.88775ZM130.248 6.82462H129.122V6.42716C129.122 6.1338 128.876 5.88775 128.583 5.88775H121.939C121.646 5.88775 121.4 6.1338 121.4 6.42716V13.0704C121.4 13.3638 121.646 13.6098 121.939 13.6098H128.583C128.876 13.6098 129.122 13.3638 129.122 13.0704V10.6099H126.662V9.47434H130.248V13.0704C130.248 13.9978 129.51 14.7359 128.583 14.7359H121.939C121.012 14.7359 120.274 13.9978 120.274 13.0704V6.42716C120.274 5.49976 121.012 4.76162 121.939 4.76162H128.583C129.51 4.76162 130.248 5.49976 130.248 6.42716V6.82462ZM143.156 14.7265H142.03V11.0831H134.308V14.7265H133.182V6.42716C133.182 5.49976 133.92 4.76162 134.847 4.76162H141.49C142.418 4.76162 143.156 5.49976 143.156 6.42716V14.7359V14.7265Z" fill="#41695B"/>
<path d="M141.499 5.88867H134.856C134.562 5.88867 134.316 6.13472 134.316 6.42808V9.97682H142.038V6.42808C142.038 6.13472 141.792 5.88867 141.499 5.88867Z" fill="#41695B"/>
<path d="M159.007 4.37503C158.685 4.37503 158.448 4.59269 158.448 4.95229V11.7943C158.448 13.4219 158.193 15.0875 157.833 16.6489H156.215C156.962 14.5765 156.962 12.1255 156.962 9.85428V4.88605C156.962 4.37503 157.133 3.96811 157.417 3.68421C157.71 3.40978 158.117 3.23944 158.637 3.23944H162.915C162.792 3.00286 162.574 2.53915 162.461 2.23633H164.344C164.467 2.55808 164.637 2.91769 164.817 3.23944H170.949V4.37503H158.988H159.007ZM158.704 16.9423V15.7878C159.839 15.7026 161.013 15.6174 162.139 15.466C162.498 14.8698 162.754 14.2074 162.934 13.526H164.495C164.363 14.0844 164.126 14.6616 163.88 15.2105C164.41 15.1632 164.987 15.078 165.498 14.9739V16.0906C163.71 16.3934 160.776 16.772 158.704 16.9423ZM162.886 6.69354V7.78182H164.855V8.8701H159.404V7.78182H161.391V6.69354H159.016V5.60526H161.391V4.79142H162.886V5.60526H165.47V6.69354H162.886ZM164.684 12.7217C164.476 12.9299 164.173 13.0623 163.814 13.0623H160.227C160.01 13.0623 159.735 12.9109 159.546 12.6743C159.376 12.4662 159.253 12.2201 159.253 11.9646V10.706C159.253 10.4032 159.376 10.1287 159.593 9.95838C159.811 9.76911 160.123 9.66502 160.492 9.66502H163.804C164.145 9.66502 164.42 9.76911 164.618 9.95838C164.855 10.1666 164.997 10.4694 164.997 10.7911V11.9646C164.997 12.258 164.874 12.5229 164.675 12.7311L164.684 12.7217ZM160.18 15.1348C159.962 14.6049 159.792 14.0465 159.669 13.5166H161.23C161.353 14.056 161.552 14.6238 161.808 15.1348H160.18ZM163.53 11.1129C163.53 10.8952 163.36 10.7533 163.17 10.7533H161.117C160.861 10.7533 160.748 10.9426 160.748 11.094V11.6334C160.748 11.7848 160.956 11.9741 161.136 11.9741H163.161C163.35 11.9741 163.53 11.8037 163.53 11.5861V11.1129ZM166.558 13.1854C166.028 11.9267 165.678 10.5735 165.366 9.2297H166.88C167.202 10.6208 167.665 11.9267 168.271 13.1854H166.558ZM170.23 8.39693V15.6174C170.23 16.0433 170.097 16.384 169.87 16.6205C169.615 16.9139 169.227 17.0464 168.754 17.0464H167.259L166.681 15.8445H168.347C168.583 15.8445 168.716 15.6931 168.716 15.4376V8.4064H165.404V7.21402H168.716V4.93337H170.23V7.21402H171.101V8.4064H170.23V8.39693Z" fill="#41695B"/>
<path d="M180.233 6.61623C179.93 5.90648 179.447 4.67626 179.211 3.88134C179.173 3.74885 179.059 3.64476 178.908 3.64476H178.548C178.397 3.64476 178.245 3.72993 178.179 3.90027C177.857 4.81821 177.536 5.73615 176.958 6.61623H175.227C176.107 5.42386 176.532 4.43967 176.977 3.17159C177.044 2.9634 177.214 2.7836 177.45 2.66057C177.64 2.55648 177.857 2.49023 178.075 2.49023H179.315C179.589 2.49023 179.826 2.5754 180.024 2.70789C180.233 2.8593 180.394 3.07696 180.479 3.33247C180.782 4.26933 181.264 5.55634 181.87 6.60677H180.223L180.233 6.61623ZM180.469 17.1489C180.346 16.8934 180.166 16.4202 180.081 16.1836L179.589 17.1489H177.498C176.958 17.1489 176.542 16.9785 176.296 16.6757C176.059 16.4013 175.936 16.0133 175.936 15.559V8.27231C175.936 7.88431 176.107 7.50578 176.381 7.2692C176.599 7.06101 176.892 6.94745 177.252 6.94745H178.151C178.103 6.64462 177.961 5.94434 177.895 5.55634H179.286C179.371 5.96326 179.523 6.5973 179.627 6.94745H180.072C180.46 6.94745 180.819 7.07047 181.075 7.31652C181.349 7.5531 181.501 7.94109 181.501 8.43318V10.8653C181.501 11.3763 181.349 11.7643 181.046 12.0387C180.791 12.2469 180.431 12.3605 179.958 12.3605H177.394V15.5685C177.394 15.7767 177.583 15.9944 177.753 15.9944H180.034C179.816 15.2846 179.409 13.7989 179.22 13.004H180.668C181.037 14.4518 181.463 15.7862 182.078 17.1489H180.498H180.469ZM180.015 8.39533C180.015 8.18714 179.864 8.03573 179.693 8.03573H177.744C177.555 8.03573 177.384 8.18714 177.384 8.39533V9.05776H180.015V8.39533ZM180.015 10.1271H177.384V11.2154H179.674C179.911 11.2154 180.015 11.064 180.015 10.8463V10.1366V10.1271ZM188.437 8.1209C188.371 7.99787 188.229 7.79914 188.163 7.69505H186.687V9.53093H189.781V10.7233H186.687V15.7388C186.687 16.1079 186.564 16.4486 186.327 16.7041C186.071 16.9785 185.712 17.1489 185.258 17.1489H184.188L183.649 15.9754H184.822C185.012 15.9754 185.182 15.8713 185.182 15.6064V10.7328H182.002V9.54039H185.182V7.70451H183.497C183.431 7.837 183.346 8.02626 183.242 8.13036H181.558C182.494 6.73925 183.072 4.85606 183.479 3.34193C183.545 3.0675 183.734 2.84984 183.971 2.69843C184.16 2.5754 184.378 2.50916 184.614 2.50916H186.961C187.321 2.50916 187.605 2.61326 187.832 2.81199C188.04 2.98233 188.191 3.23783 188.276 3.54066C188.636 4.82767 189.365 6.72979 190.216 8.13036H188.447L188.437 8.1209ZM183.166 15.8997H181.633C182.296 14.6222 182.873 12.7201 183.081 11.5845H184.538C184.33 12.8431 183.829 14.7073 183.166 15.8997ZM186.866 4.02329C186.819 3.83402 186.696 3.63529 186.441 3.63529H185.201C184.983 3.63529 184.813 3.78671 184.775 3.95705C184.605 4.7425 184.302 5.75507 184.008 6.5216H187.699C187.406 5.84024 187.037 4.65733 186.866 4.02329ZM188.485 15.8997C187.955 14.7831 187.482 12.9756 187.226 11.5845H188.598C188.835 12.8242 189.554 14.8966 190.046 15.8997H188.485Z" fill="#41695B"/>
<path d="M195.621 15.5691H194.334C194.703 13.0234 194.788 9.41792 194.779 6.95747H195.981C196.104 9.33275 195.933 12.8152 195.621 15.5691ZM197.816 6.1247V17.1021H196.369V6.1247H194.514V5.00803H196.369V2.26367H197.816V4.99856H199.52V6.11523H197.816V6.1247ZM198.479 14.0455C198.309 11.7648 198.157 8.79335 198.157 6.95747H199.359C199.359 9.04886 199.529 11.85 199.766 14.0455H198.479ZM208.889 17.1021H207.696C207.374 17.1021 207.081 17.0359 206.816 16.8845C206.475 16.6763 206.173 16.3261 205.936 15.7773C205.491 16.2031 204.848 16.7804 204.422 17.1021H201.971C203.088 16.4208 204.621 15.2379 205.302 14.4335C205.046 13.8184 204.592 12.3232 204.422 11.339H201.905C201.819 13.26 201.602 15.3514 200.627 17.1021H198.857C199.993 15.5217 200.438 13.4966 200.438 11.339H199.794V10.1845H200.438C200.457 9.96679 200.438 9.67343 200.419 9.50309H201.895C201.895 9.69236 201.895 9.99518 201.876 10.1845H204.157C203.901 8.09306 203.731 4.64842 203.712 2.26367H205.16C205.122 4.74306 205.264 7.9038 205.605 10.1845H206.4C206.296 9.97626 206.106 9.58826 206.059 9.37061H207.507C207.592 9.62612 207.781 9.99518 207.914 10.1845H209.201V11.339H205.851C205.917 11.7837 206.144 12.5976 206.296 13.0518C206.532 12.7774 206.892 12.1717 207.043 11.8311H208.728C208.302 12.6165 207.488 13.8562 206.93 14.547C207.1 14.9729 207.318 15.3609 207.545 15.6826C207.668 15.834 207.8 15.9003 207.952 15.9003H209.324L208.879 17.0927L208.889 17.1021ZM202.794 9.30436C202.728 9.09617 202.624 8.74603 202.577 8.49052L202.302 9.10564H200.788C200.514 9.10564 200.334 9.00154 200.211 8.8312C200.088 8.62301 200.088 8.33911 200.23 8.10253L201.148 6.47484H200.353C200.097 6.47484 199.908 6.32343 199.823 6.10577C199.738 5.88811 199.738 5.63261 199.861 5.42441L201.356 2.45294H202.747L201.1 5.50958H201.696L202.321 4.4213H203.627L201.469 8.07414H202.51C202.472 7.81863 202.406 7.27922 202.378 6.98586H203.428C203.494 7.61043 203.722 8.75549 203.854 9.31383H202.804L202.794 9.30436ZM202.983 14.6227C202.709 13.9414 202.34 12.8436 202.151 12.0109H203.523C203.712 12.6733 204.185 13.9792 204.479 14.6227H202.983ZM208.179 9.30436C208.131 9.04886 208.056 8.55676 208.046 8.28233L207.706 9.09617H206.589C206.248 9.09617 206.012 8.97315 205.889 8.77442C205.785 8.58515 205.785 8.32965 205.936 8.04575L206.75 6.46537H206.154C205.898 6.46537 205.699 6.36128 205.576 6.20987C205.425 6.0206 205.406 5.7367 205.539 5.41495L206.778 2.44347H208.122L206.731 5.50012H207.261L207.857 4.41184H209.116L207.091 8.06467H208.008C207.971 7.84702 207.942 7.31707 207.942 6.97639H208.841C208.907 7.60097 209.059 8.76496 209.144 9.30436H208.179Z" fill="#41695B"/>
<path d="M213.449 17.0833V15.9667H220.111V14.1119H214.604V12.9763H220.111V11.2256H214.017V10.1183H227.625V11.2256H221.626V12.9763H227.095V14.1119H221.626V15.9667H228.25V17.0833H213.449ZM227.076 8.64207C226.755 9.00168 226.281 9.15309 225.856 9.15309H215.626C215.219 9.15309 214.859 8.98275 214.604 8.70832C214.367 8.45281 214.235 8.11213 214.235 7.70521V4.61071C214.235 4.15647 214.452 3.81579 214.765 3.58867C215.058 3.39941 215.408 3.31424 215.768 3.31424H218.228C218.38 3.07765 218.588 2.56664 218.682 2.20703H220.566C220.433 2.52878 220.206 3.0398 220.074 3.31424H225.884C226.376 3.31424 226.736 3.43726 226.991 3.67384C227.285 3.94828 227.417 4.33627 227.417 4.79051V7.61057C227.417 8.06481 227.285 8.39603 227.076 8.63261V8.64207ZM225.884 4.90407C225.884 4.68641 225.714 4.44983 225.477 4.44983H216.184C215.948 4.44983 215.711 4.6391 215.711 4.89461V5.62328H225.884V4.91353V4.90407ZM225.884 6.72102H215.711V7.57272C215.711 7.84716 215.881 8.01749 216.137 8.01749H225.449C225.704 8.01749 225.893 7.78091 225.893 7.5254V6.73049L225.884 6.72102Z" fill="#41695B"/>
<defs>
<linearGradient id="paint0_linear_36_420" x1="103.862" y1="119.023" x2="103.862" y2="138.483" gradientUnits="userSpaceOnUse">
<stop stop-color="#267CAF"/>
<stop offset="0.29" stop-color="#4A92B4"/>
<stop offset="0.77" stop-color="#79BCBA"/>
<stop offset="1" stop-color="#88CEBC"/>
</linearGradient>
<linearGradient id="paint1_linear_36_420" x1="114.06" y1="126.506" x2="111.709" y2="131.898" gradientUnits="userSpaceOnUse">
<stop stop-color="#F48879"/>
<stop offset="0.12" stop-color="#F5907A"/>
<stop offset="0.71" stop-color="#FBB777"/>
<stop offset="1" stop-color="#FDC874"/>
</linearGradient>
<linearGradient id="paint2_linear_36_420" x1="110.48" y1="130.584" x2="99.7762" y2="139.357" gradientUnits="userSpaceOnUse">
<stop stop-color="#EB413D"/>
<stop offset="0.17" stop-color="#D94452"/>
<stop offset="0.57" stop-color="#AF487A"/>
<stop offset="0.86" stop-color="#954B92"/>
<stop offset="1" stop-color="#894A9C"/>
</linearGradient>
<linearGradient id="paint3_linear_36_420" x1="100.432" y1="119.549" x2="110.68" y2="127.475" gradientUnits="userSpaceOnUse">
<stop stop-color="#54C0AC"/>
<stop offset="1" stop-color="#DDE79A"/>
</linearGradient>
<clipPath id="clip0_36_420">
<rect width="109.419" height="32" fill="white" transform="translate(87.25 112.582)"/>
</clipPath>
<clipPath id="clip1_36_420">
<rect width="109.419" height="32" fill="white" transform="translate(204.67 112.582)"/>
</clipPath>
</defs>
</svg>
