<svg width="62" height="61" viewBox="0 0 62 61" fill="none" xmlns="http://www.w3.org/2000/svg">
<path d="M59.0506 20.528C57.8406 20.528 56.8506 19.548 56.8506 18.328C56.8506 10.878 50.7906 4.81797 43.3406 4.81797C42.1306 4.81797 41.1406 3.83797 41.1406 2.61797C41.1406 1.39797 42.1206 0.417969 43.3406 0.417969C53.2106 0.417969 61.2406 8.44797 61.2406 18.318C61.2406 19.528 60.2606 20.518 59.0406 20.518L59.0506 20.528Z" fill="#41695B"/>
<path d="M43.3406 60.9284C42.1306 60.9284 41.1406 59.9484 41.1406 58.7284C41.1406 57.5084 42.1206 56.5284 43.3406 56.5284C50.7906 56.5284 56.8506 50.4684 56.8506 43.0184C56.8506 41.8084 57.8306 40.8184 59.0506 40.8184C60.2706 40.8184 61.2506 41.7984 61.2506 43.0184C61.2506 52.8884 53.2206 60.9184 43.3506 60.9184L43.3406 60.9284Z" fill="#41695B"/>
<path d="M0.75 18.3277C0.75 19.5477 1.74 20.5277 2.95 20.5277L2.94 20.5377C4.16 20.5377 5.14 19.5477 5.14 18.3377C5.14 10.8877 11.2 4.82773 18.65 4.82773C19.87 4.82773 20.85 3.84773 20.85 2.62773C20.85 1.40773 19.86 0.427734 18.65 0.427734C8.78 0.427734 0.75 8.45773 0.75 18.3277Z" fill="#41695B"/>
<path d="M18.65 60.9281C8.78 60.9281 0.75 52.8981 0.75 43.0281C0.75 41.8181 1.73 40.8281 2.95 40.8281C4.17 40.8281 5.15 41.8081 5.15 43.0281C5.15 50.4781 11.21 56.5381 18.66 56.5381C19.87 56.5381 20.86 57.5181 20.86 58.7381C20.86 59.9581 19.88 60.9381 18.66 60.9381L18.65 60.9281Z" fill="#41695B"/>
<path fill-rule="evenodd" clip-rule="evenodd" d="M20.5898 30.6776C20.5898 36.4176 25.2598 41.0876 30.9998 41.0876C36.7398 41.0876 41.4098 36.4176 41.4098 30.6776C41.4098 24.9376 36.7398 20.2676 30.9998 20.2676C25.2598 20.2676 20.5898 24.9376 20.5898 30.6776ZM24.9898 30.6776C24.9898 27.3676 27.6798 24.6676 30.9998 24.6676C34.3098 24.6676 37.0098 27.3676 37.0098 30.6776C37.0098 33.9876 34.3098 36.6876 30.9998 36.6876C27.6898 36.6876 24.9898 33.9876 24.9898 30.6776Z" fill="#41695B"/>
</svg>
