<svg width="103" height="28" viewBox="0 0 103 28" fill="none" xmlns="http://www.w3.org/2000/svg">
<path fill-rule="evenodd" clip-rule="evenodd" d="M14.9003 8H25.6922C26.4802 7.99984 27.2606 8.15493 27.9887 8.45641C28.7168 8.75789 29.3783 9.19986 29.9356 9.75706C30.4929 10.3143 30.9349 10.9758 31.2365 11.7039C31.538 12.4319 31.6932 13.2123 31.6931 14.0003C31.6931 15.5909 31.0615 17.1164 29.9371 18.2415C28.8127 19.3665 27.2876 19.999 25.697 20H14.9051C14.1171 20.0001 13.3369 19.845 12.6089 19.5435C11.8809 19.242 11.2195 18.8001 10.6623 18.2429C10.1051 17.6858 9.66308 17.0244 9.36153 16.2964C9.05998 15.5685 8.90479 14.7882 8.90479 14.0003C8.90479 12.4098 9.53631 10.8843 10.6605 9.75914C11.7848 8.634 13.3097 8.00127 14.9003 8ZM14.6564 10.8567C14.4177 10.618 14.0939 10.4839 13.7563 10.4839C13.5895 10.484 13.4243 10.5169 13.2702 10.5806C13.1156 10.6446 12.9752 10.7383 12.8569 10.8565C12.7386 10.9747 12.6447 11.115 12.5807 11.2695C12.5166 11.424 12.4836 11.5896 12.4835 11.7568C12.4835 12.0944 12.6176 12.4181 12.8563 12.6568C13.095 12.8955 13.4188 13.0296 13.7563 13.0296C13.9235 13.0297 14.0891 12.9968 14.2435 12.9329C14.398 12.869 14.5383 12.7752 14.6565 12.657C14.7748 12.5388 14.8685 12.3984 14.9325 12.244C14.9964 12.0895 15.0293 11.924 15.0292 11.7568C15.0292 11.4192 14.8951 11.0955 14.6564 10.8567ZM11.0264 15.1759C11.1808 15.2398 11.3463 15.2726 11.5134 15.2725H11.5146C11.8519 15.2722 12.1752 15.1381 12.4137 14.8995C12.6521 14.661 12.7861 14.3376 12.7863 14.0003C12.7863 13.6627 12.6522 13.339 12.4135 13.1003C12.1748 12.8616 11.851 12.7275 11.5134 12.7275C11.3462 12.7274 11.1807 12.7602 11.0263 12.8242C10.8718 12.8881 10.7314 12.9819 10.6132 13.1001C10.495 13.2183 10.4013 13.3586 10.3373 13.5131C10.2734 13.6676 10.2405 13.8331 10.2406 14.0003C10.2406 14.1674 10.2735 14.3329 10.3375 14.4873C10.4014 14.6417 10.4952 14.782 10.6134 14.9001C10.7316 15.0183 10.8719 15.112 11.0264 15.1759ZM12.8565 17.1431C13.0952 17.3817 13.4188 17.5159 13.7563 17.5161H13.7575C14.0949 17.5157 14.4184 17.3815 14.6568 17.1428C14.8953 16.9042 15.0292 16.5806 15.0292 16.2432C15.0292 15.9056 14.8951 15.5819 14.6564 15.3432C14.4177 15.1045 14.0939 14.9704 13.7563 14.9704C13.4188 14.9705 13.0952 15.1047 12.8565 15.3434C12.6178 15.582 12.4837 15.9057 12.4835 16.2432C12.4837 16.5807 12.6178 16.9044 12.8565 17.1431ZM15.5128 15.1759C15.6672 15.2398 15.8327 15.2726 15.9999 15.2725H16.0011C16.3383 15.2722 16.6616 15.138 16.8999 14.8995C17.1382 14.6609 17.2721 14.3375 17.2721 14.0003C17.2722 13.8332 17.2393 13.6677 17.1754 13.5132C17.1115 13.3588 17.0178 13.2185 16.8997 13.1003C16.7815 12.9821 16.6413 12.8883 16.4869 12.8244C16.3325 12.7604 16.167 12.7275 15.9999 12.7275C15.8327 12.7274 15.6671 12.7602 15.5127 12.8242C15.3582 12.8881 15.2179 12.9819 15.0997 13.1001C14.9814 13.2183 14.8877 13.3586 14.8237 13.5131C14.7598 13.6676 14.7269 13.8331 14.727 14.0003C14.727 14.1674 14.7599 14.3329 14.8239 14.4873C14.8879 14.6417 14.9817 14.782 15.0999 14.9001C15.2181 15.0183 15.3584 15.112 15.5128 15.1759ZM22.5564 17.4563C23.4729 18.3729 24.7161 18.8878 26.0123 18.8878H26.0135C27.3096 18.8875 28.5525 18.3724 29.4688 17.4559C30.3851 16.5393 30.8999 15.2963 30.8999 14.0003C30.8999 12.704 30.385 11.4608 29.4684 10.5441C28.5518 9.62739 27.3087 9.11232 26.0123 9.11217C25.3705 9.11217 24.7348 9.23861 24.1418 9.48426C23.5488 9.72992 23.01 10.09 22.5561 10.5439C22.1023 10.9978 21.7423 11.5367 21.4967 12.1297C21.2511 12.7228 21.1247 13.3584 21.1248 14.0003C21.1248 15.2966 21.6398 16.5397 22.5564 17.4563ZM26.7201 12.2947C27.6621 12.6849 28.1094 13.7648 27.7192 14.7067C27.329 15.6486 26.2492 16.0959 25.3073 15.7057C24.3653 15.3156 23.9181 14.2357 24.3082 13.2938C24.6984 12.3519 25.7782 11.9046 26.7201 12.2947ZM39.0178 11.707C38.9114 11.5559 38.7793 11.4246 38.6275 11.3191C38.467 11.2086 38.2882 11.1274 38.0993 11.0793C37.9046 11.0277 37.6049 11.0022 37.2 11.0026C36.9202 11.0026 36.577 11.0094 36.1706 11.023C35.7653 11.0361 35.4469 11.0433 35.2113 11.0433C34.9756 11.0433 34.6495 11.0385 34.252 11.0295C34.2548 11.3257 34.2564 11.5388 34.2568 11.6687C34.2568 11.8409 34.2552 12.0132 34.252 12.1855L34.2028 13.7899L34.0829 16.0562L33.993 17.2163C34.4946 17.2103 34.8092 17.2071 34.9367 17.2067L35.839 17.2163V16.6269C35.839 16.3675 35.859 15.5881 35.899 14.2887C35.9201 13.5756 35.9499 12.9275 35.9883 12.3444L36.369 12.3174C36.4889 12.3114 36.6022 12.3084 36.7089 12.3084C36.8093 12.3072 36.9097 12.3148 37.0087 12.3312C37.0952 12.3457 37.1772 12.3798 37.2485 12.4307C37.3194 12.4796 37.3744 12.5482 37.4068 12.6279C37.4415 12.715 37.4585 12.8082 37.4566 12.9019C37.459 13.0026 37.4403 13.1026 37.4017 13.1955C37.3631 13.2885 37.3054 13.3723 37.2324 13.4415C37.0831 13.5878 36.8552 13.661 36.5507 13.661C36.4097 13.6618 36.2691 13.6482 36.131 13.6202C36.1738 13.7533 36.2281 13.9574 36.2941 14.2323C36.36 14.5073 36.4054 14.7144 36.4302 14.8535C36.6172 14.8869 36.8067 14.905 36.9967 14.9074C37.4099 14.9137 37.8194 14.8285 38.1958 14.658C38.5471 14.4988 38.8393 14.233 39.031 13.8984C39.2279 13.5615 39.3299 13.1776 39.326 12.7874C39.3261 12.5924 39.3001 12.3982 39.2486 12.2101C39.2008 12.0305 39.1228 11.8604 39.0178 11.707ZM40.0922 12.8504L40.1414 11.0271C40.5635 11.0331 40.8796 11.0361 41.0899 11.0361C41.3649 11.0361 41.6688 11.0331 42.0018 11.0271L41.8987 12.4187L41.732 15.8451L41.696 17.2139C41.3722 17.2107 41.0803 17.2091 40.8201 17.2091L39.8356 17.2139L39.9165 16.2384L40.0922 12.8504ZM46.5505 12.5884C46.231 12.5056 45.9021 12.4653 45.5721 12.4685C44.9461 12.4685 44.1981 12.5636 43.3279 12.7538C43.2948 12.9937 43.2708 13.1711 43.256 13.2862C43.2412 13.4014 43.2048 13.6076 43.1469 13.905C43.9107 13.6124 44.5524 13.4659 45.072 13.4655C45.2597 13.4655 45.4012 13.4967 45.4977 13.5584C45.5434 13.5855 45.5811 13.6244 45.6066 13.671C45.6321 13.7177 45.6446 13.7703 45.6428 13.8234C45.6431 13.8645 45.6353 13.9052 45.62 13.9433C45.6027 13.9841 45.5774 14.021 45.5457 14.0519C45.506 14.0898 45.4599 14.1204 45.4096 14.1424C45.3183 14.1798 45.2243 14.2101 45.1284 14.2329C44.9969 14.2677 44.8528 14.3003 44.6961 14.3307C44.3796 14.3878 44.067 14.4649 43.7602 14.5615C43.5562 14.6242 43.3607 14.7118 43.178 14.8223C43.0375 14.9132 42.9123 15.0257 42.8069 15.1556C42.7073 15.2746 42.6283 15.4093 42.5731 15.5543C42.5239 15.6877 42.4987 15.8288 42.4988 15.971C42.5027 16.2174 42.5722 16.4583 42.7002 16.6689C42.8297 16.8975 43.0328 17.0757 43.2764 17.1743C43.5254 17.2786 43.8371 17.3308 44.2117 17.3308C44.4594 17.3296 44.7066 17.3084 44.9509 17.2672C45.0708 16.8208 45.1749 16.481 45.2633 16.248C45.1658 16.283 45.0655 16.3095 44.9635 16.3272C44.896 16.3376 44.8279 16.343 44.7597 16.3433C44.5798 16.3433 44.4515 16.3068 44.3699 16.2348C44.3318 16.2025 44.3013 16.1621 44.2805 16.1166C44.2598 16.0711 44.2494 16.0216 44.25 15.9716C44.2495 15.909 44.2643 15.8473 44.2932 15.7918C44.3291 15.7288 44.3784 15.6746 44.4377 15.6329C44.5107 15.5787 44.5916 15.536 44.6775 15.5064C44.7698 15.4728 44.897 15.432 45.06 15.3865C45.2231 15.3409 45.3364 15.3013 45.4012 15.2773C45.4659 15.2534 45.5559 15.2138 45.6704 15.1574C45.62 16.1967 45.5742 16.8825 45.5331 17.2151C45.8528 17.2091 46.1552 17.2059 46.4402 17.2055C46.7332 17.2055 47.028 17.2087 47.3245 17.2151C47.3485 16.2558 47.3831 15.4792 47.4283 14.8852C47.4734 14.2913 47.496 13.9106 47.496 13.7431C47.496 13.4109 47.4129 13.1555 47.2466 12.9769C47.0559 12.7842 46.8146 12.6495 46.5505 12.5884ZM51.293 13.8504L51.7822 12.5859C52.1596 12.5923 52.4447 12.5945 52.6378 12.5925C52.8073 12.5929 53.1092 12.5897 53.5437 12.5829L52.6696 14.5615L51.0892 18.2283C51.0068 18.4005 50.908 18.5643 50.7942 18.7175C50.7099 18.8232 50.614 18.9189 50.5082 19.0029C50.4118 19.0787 50.3068 19.1427 50.1952 19.1936C50.0357 19.2661 49.8686 19.3208 49.697 19.3567C49.4972 19.3992 49.2934 19.4205 49.0891 19.4202C48.9955 19.4202 48.872 19.4136 48.7173 19.3998C48.5627 19.386 48.4386 19.3741 48.3432 19.3591C48.2479 19.3441 48.122 19.3207 47.9643 19.2841C47.8708 18.5619 47.8074 18.1132 47.7743 17.9381C47.9356 18.018 48.105 18.0803 48.2797 18.124C48.4038 18.1542 48.5309 18.1709 48.6586 18.1738C48.7652 18.1746 48.8713 18.1592 48.9734 18.1282C49.0573 18.1055 49.1365 18.0679 49.2072 18.0173C49.2787 17.9589 49.342 17.8911 49.3954 17.8158C49.4525 17.7424 49.5034 17.6644 49.5477 17.5826C49.5894 17.4929 49.6228 17.3996 49.6472 17.3038L48.7947 14.7257L48.0638 12.5859C48.5143 12.5923 48.8305 12.5955 49.0123 12.5955C49.2238 12.5959 49.5125 12.5927 49.8787 12.5859C49.9358 12.8182 50.0423 13.2201 50.1982 13.7916C50.3541 14.3632 50.4668 14.8105 50.5364 15.1334C50.5751 15.3117 50.6129 15.5383 50.6497 15.8133L50.745 15.4506C50.7664 15.3815 50.7901 15.306 50.8161 15.2235L50.8165 15.2223L50.8488 15.1196C50.8879 14.9961 50.9379 14.848 50.9986 14.6754L51.293 13.8504ZM54.1109 15.6371C54.0893 16.1083 54.0741 16.4187 54.0653 16.5682C54.0565 16.7176 54.0399 16.9331 54.0156 17.2145C54.4412 17.2085 54.7676 17.2053 54.9946 17.2049C55.1489 17.2049 55.4555 17.2081 55.9143 17.2145C55.9239 16.8428 55.9497 16.3169 55.9917 15.6371C55.614 15.643 55.3118 15.646 55.0852 15.646C54.8158 15.6456 54.491 15.6427 54.1109 15.6371ZM54.2278 14.902C54.2737 13.8376 54.3101 12.546 54.3369 11.0271C54.721 11.0331 55.0398 11.0361 55.2932 11.0361C55.495 11.0361 55.7972 11.0331 56.1997 11.0271C56.1389 11.5831 56.0376 12.8748 55.8957 14.902C55.5879 14.896 55.3401 14.893 55.1523 14.893C54.8777 14.893 54.5695 14.896 54.2278 14.902ZM65.0377 11.74C64.949 11.6178 64.842 11.51 64.7205 11.4204C64.5771 11.3176 64.419 11.2368 64.2517 11.1806C64.0518 11.111 63.8439 11.0669 63.6329 11.0493C63.3308 11.0193 62.9862 11.0043 62.5993 11.0043C62.2704 11.0043 61.932 11.0111 61.5843 11.0247C61.2371 11.0379 60.9422 11.0451 60.7011 11.0451C60.4601 11.0451 60.1615 11.0403 59.7856 11.0313C59.7856 11.4003 59.7794 11.8965 59.7671 12.52C59.7547 13.1435 59.7367 13.7365 59.7131 14.2989C59.6887 14.8605 59.6599 15.3545 59.6268 15.781C59.5936 16.2074 59.548 16.6871 59.4901 17.2199C59.9469 17.2139 60.2631 17.2107 60.4385 17.2103C60.5896 17.2103 60.9178 17.2135 61.423 17.2199C61.4322 16.3613 61.4522 15.4864 61.483 14.5951C61.5137 13.7037 61.5479 12.9485 61.5855 12.3294C61.7366 12.3262 61.8689 12.3224 61.9824 12.318C62.0957 12.3138 62.2054 12.3114 62.3109 12.3114C62.6219 12.3114 62.8523 12.3356 63.0022 12.3839C63.1328 12.4191 63.2483 12.4962 63.3308 12.6034C63.4009 12.7035 63.4375 12.8234 63.4351 12.9457C63.4343 13.1028 63.386 13.256 63.2966 13.3852C63.1977 13.5294 63.0546 13.6375 62.8889 13.6933C62.6966 13.762 62.4936 13.796 62.2893 13.7935C62.1284 13.7931 61.9678 13.7779 61.8097 13.7479L62.2768 15.0303C62.4195 15.4176 62.527 15.7174 62.5993 15.9297C62.6361 16.0264 62.6799 16.1639 62.7306 16.3421C62.8577 16.7678 62.9457 17.0594 62.9944 17.2169C63.4892 17.2109 63.8454 17.2077 64.0628 17.2073C64.2351 17.2073 64.5702 17.2105 65.0683 17.2169C65.0017 17.0544 64.9526 16.9436 64.9265 16.8844L64.9232 16.8769L64.3158 15.5489C64.2403 15.3823 64.1693 15.219 64.103 15.0591L63.8674 14.4835C64.114 14.3937 64.3502 14.2775 64.5718 14.137C64.7352 14.0292 64.8774 13.8925 64.9915 13.7335C65.0986 13.5819 65.1796 13.4135 65.2313 13.2353C65.2835 13.0502 65.3094 12.8586 65.3081 12.6663C65.3093 12.4937 65.2857 12.3219 65.2379 12.1561C65.1951 12.0071 65.1274 11.8665 65.0377 11.74ZM69.4498 12.5884C69.7459 12.6597 70.0194 12.804 70.2454 13.008C70.4532 13.1921 70.6131 13.424 70.7112 13.6837C70.8047 13.9439 70.8514 14.2185 70.8491 14.4949C70.8465 14.6882 70.8265 14.8808 70.7892 15.0705L67.6116 15.0753C67.6068 15.1232 67.6068 15.1669 67.6068 15.2058V15.206C67.6068 15.5322 67.7231 15.772 67.9557 15.9255C68.2107 16.0851 68.5075 16.1653 68.8083 16.1557C69.0372 16.1528 69.2653 16.1291 69.49 16.0849C69.809 16.0219 70.1244 15.9418 70.4349 15.8451C70.3957 16.0262 70.3201 16.4643 70.2082 17.1593C69.8577 17.2293 69.5631 17.2754 69.3245 17.2978C69.0859 17.3202 68.8442 17.3314 68.5996 17.3314C68.2672 17.3333 67.9352 17.3084 67.6068 17.2571C67.3332 17.216 67.0693 17.1262 66.8274 16.9921C66.6153 16.8709 66.4284 16.7101 66.277 16.5184C66.1227 16.3178 66.0079 16.0898 65.9388 15.8463C65.862 15.5861 65.8232 15.3161 65.8237 15.0447C65.8243 14.655 65.9028 14.2693 66.0545 13.9104C66.1823 13.5786 66.3864 13.2815 66.6505 13.0434C66.894 12.8352 67.1807 12.6837 67.4899 12.5998C67.8072 12.5122 68.1349 12.468 68.4641 12.4685C68.7964 12.467 69.1276 12.5073 69.4498 12.5884ZM67.6481 14.381H69.144C69.147 14.3295 69.1482 14.2857 69.1482 14.2497C69.1523 14.1105 69.1235 13.9723 69.0643 13.8462C69.014 13.7401 68.9295 13.654 68.8245 13.6016C68.715 13.5488 68.5947 13.5223 68.4731 13.5243C68.3838 13.524 68.2951 13.5386 68.2105 13.5674C68.127 13.5953 68.0494 13.6384 67.9815 13.6945C67.9148 13.7489 67.8574 13.8139 67.8118 13.887C67.7697 13.9526 67.7361 14.0233 67.7117 14.0974C67.6851 14.1907 67.6639 14.2853 67.6481 14.381ZM78.4664 12.5794C78.2263 12.5027 77.9756 12.4644 77.7236 12.4661C77.5272 12.4657 77.3315 12.4892 77.1408 12.5362C76.961 12.5793 76.7901 12.6538 76.636 12.7562C76.4699 12.8752 76.3275 13.0243 76.2163 13.1957C76.1627 13.0965 76.1014 13.0017 76.0329 12.9121C75.9794 12.8466 75.9177 12.7881 75.8494 12.7383C75.7736 12.6832 75.6915 12.6373 75.6048 12.6016C75.4965 12.5583 75.3842 12.5258 75.2696 12.5044C75.1291 12.4778 74.9864 12.4649 74.8434 12.4661C74.7128 12.4654 74.5824 12.476 74.4537 12.4978C74.3399 12.5165 74.2278 12.5443 74.1185 12.5812C74.0168 12.6172 73.9195 12.6645 73.8283 12.7221C73.7418 12.775 73.6614 12.8373 73.5885 12.9079C73.5031 12.996 73.423 13.0891 73.3487 13.1867L73.3804 12.5836C73.1083 12.5904 72.8285 12.5936 72.5411 12.5932C72.2877 12.5932 71.9945 12.59 71.6615 12.5836L71.6526 13.318L71.58 15.0267L71.4535 17.2115C71.826 17.2055 72.1376 17.2023 72.3882 17.2019C72.6148 17.2019 72.9112 17.2051 73.2773 17.2115C73.2833 16.779 73.2969 16.3288 73.3181 15.8607C73.3393 15.3927 73.3627 15.0443 73.3883 14.8157C73.4027 14.6299 73.4473 14.4476 73.5201 14.2761C73.5708 14.1602 73.6476 14.0577 73.7444 13.9763C73.8318 13.9067 73.9408 13.8698 74.0526 13.872C74.1479 13.868 74.2414 13.8986 74.3158 13.9583C74.3835 14.0173 74.4356 14.092 74.4674 14.176C74.5097 14.3076 74.5281 14.4456 74.522 14.5837C74.522 14.7983 74.5034 15.2228 74.4662 15.8571C74.4291 16.4914 74.3971 16.9433 74.3703 17.2127C74.73 17.2067 75.0424 17.2035 75.3074 17.2031C75.5668 17.2031 75.8582 17.2063 76.1816 17.2127L76.2175 15.9974C76.2295 15.5929 76.2461 15.2668 76.2673 15.0189C76.2788 14.8354 76.3077 14.6533 76.3536 14.4751C76.392 14.3397 76.4528 14.2116 76.5335 14.0962C76.5824 14.025 76.6481 13.9669 76.7247 13.9272C76.7982 13.892 76.879 13.8747 76.9604 13.8768C77.0416 13.8758 77.1218 13.8939 77.1948 13.9296C77.274 13.9735 77.3356 14.0434 77.3693 14.1274C77.4224 14.2671 77.4457 14.4164 77.4376 14.5657C77.4376 14.7895 77.4216 15.1906 77.3896 15.769C77.3577 16.3473 77.3265 16.8286 77.2961 17.2127C77.6427 17.2067 77.9746 17.2035 78.292 17.2031C78.5514 17.2031 78.82 17.2063 79.0978 17.2127C79.101 16.9377 79.1199 16.4581 79.1547 15.7738C79.1895 15.0895 79.2171 14.6069 79.2375 14.3259C79.2572 14.0453 79.2674 13.8348 79.2674 13.6957C79.2674 13.4002 79.1925 13.1561 79.0432 12.9763C78.8951 12.7892 78.6941 12.6509 78.4664 12.5794ZM83.8708 12.6405C84.1946 12.743 84.4934 12.9121 84.7479 13.1369C84.9818 13.3439 85.1636 13.6031 85.2786 13.8936C85.3937 14.1906 85.4515 14.5067 85.4488 14.8253C85.4505 15.139 85.3992 15.4507 85.2971 15.7474C85.1861 16.0543 85.0107 16.334 84.7827 16.5676C84.5272 16.8317 84.2105 17.0287 83.8606 17.1413C83.4786 17.2693 83.0782 17.3335 82.6753 17.3314C82.3001 17.3328 81.927 17.2762 81.5691 17.1635C81.2418 17.0664 80.9395 16.8995 80.683 16.6743C80.4477 16.4622 80.2646 16.1985 80.1482 15.9038C80.0284 15.6039 79.9673 15.2837 79.9683 14.9608C79.9671 14.6384 80.0262 14.3188 80.1428 14.0183C80.2643 13.7114 80.4532 13.4358 80.6956 13.2119C80.9643 12.963 81.2835 12.7751 81.6315 12.6609C82.0047 12.5323 82.3969 12.4673 82.7916 12.4684C83.1583 12.4675 83.5226 12.5256 83.8708 12.6405ZM83.1705 15.8925C83.3285 15.7822 83.4482 15.6255 83.5129 15.444H83.5135C83.5915 15.2409 83.6305 15.0249 83.6286 14.8073C83.6311 14.6337 83.6001 14.4613 83.5375 14.2995C83.4792 14.1505 83.3756 14.0236 83.2413 13.9367C83.0973 13.8443 82.9291 13.7969 82.758 13.8006C82.5748 13.7977 82.395 13.8499 82.2418 13.9505C82.085 14.057 81.9653 14.2098 81.8995 14.3876C81.8207 14.5874 81.7815 14.8006 81.7838 15.0153C81.7838 15.3479 81.8669 15.6025 82.0332 15.7791C82.1125 15.8653 82.2094 15.9335 82.3172 15.9793C82.4251 16.025 82.5414 16.0471 82.6585 16.0441C82.8406 16.0466 83.0191 15.9937 83.1705 15.8925ZM88.4285 13.8984H89.4712C89.4712 13.6957 89.4831 13.2802 89.5071 12.6519H88.4741C88.4829 12.1959 88.4981 11.7698 88.5197 11.3737C88.056 11.4852 87.7534 11.5545 87.612 11.5817L86.8361 11.7406C86.8094 12.209 86.7868 12.5128 86.7684 12.6519H86.0177L86.004 13.0716C85.992 13.4129 85.9784 13.6879 85.9632 13.8966H86.6695L86.5705 15.4644C86.5525 15.7306 86.542 15.9021 86.5388 15.9788C86.5388 16.0265 86.5372 16.065 86.5359 16.0946C86.5352 16.1131 86.5346 16.128 86.5346 16.1395C86.5337 16.3021 86.558 16.4639 86.6065 16.6191C86.6584 16.7754 86.7527 16.9142 86.8787 17.0202C87.0218 17.1414 87.1935 17.2239 87.3775 17.2601C87.6025 17.3065 87.8319 17.3286 88.0616 17.326C88.2243 17.3257 88.3868 17.3167 88.5484 17.299C88.7841 17.2686 89.018 17.2262 89.2493 17.1719L89.3488 16.6191C89.3878 16.3793 89.4352 16.1299 89.4891 15.8757C89.3513 15.9163 89.2111 15.9487 89.0695 15.9728C88.9944 15.9834 88.9187 15.9888 88.8428 15.989C88.7506 15.9902 88.6595 15.9684 88.5778 15.9255C88.5374 15.9038 88.5017 15.8742 88.4728 15.8384C88.444 15.8027 88.4226 15.7615 88.41 15.7174C88.3752 15.5997 88.359 15.4774 88.362 15.3547V15.3546C88.362 15.3059 88.362 15.1975 88.3716 15.0285L88.4285 13.8984ZM94.9696 14.4943C94.967 14.6876 94.947 14.8802 94.9097 15.0699L91.7339 15.0753C91.7291 15.1233 91.7291 15.167 91.7291 15.206C91.7291 15.5322 91.8454 15.772 92.078 15.9255C92.333 16.0851 92.6298 16.1653 92.9306 16.1557C93.1595 16.1528 93.3876 16.1291 93.6123 16.0849C93.9313 16.0219 94.2467 15.9418 94.5571 15.8451C94.518 16.0262 94.4424 16.4643 94.3305 17.1593C93.98 17.2293 93.6854 17.2754 93.4468 17.2978C93.2082 17.3202 92.9665 17.3314 92.7219 17.3314C92.3895 17.3333 92.0575 17.3084 91.7291 17.2571C91.4555 17.2162 91.1915 17.1264 90.9496 16.9921C90.7373 16.871 90.5502 16.7102 90.3987 16.5184C90.2444 16.3178 90.1296 16.0898 90.0605 15.8463C89.9837 15.5861 89.9449 15.3161 89.9454 15.0447C89.946 14.655 90.0245 14.2693 90.1762 13.9104C90.304 13.5786 90.5081 13.2815 90.7722 13.0434C91.0157 12.8352 91.3024 12.6837 91.6115 12.5998C91.9289 12.5122 92.2566 12.468 92.5858 12.4685C92.9181 12.467 93.2492 12.5073 93.5715 12.5884C93.8675 12.6597 94.141 12.804 94.3671 13.008C94.5744 13.1921 94.7339 13.4238 94.8317 13.6831C94.9255 13.9432 94.9722 14.2179 94.9696 14.4943ZM91.9323 13.887C91.8902 13.9526 91.8566 14.0233 91.8322 14.0974C91.8044 14.1906 91.7819 14.2853 91.765 14.381H93.2639C93.2681 14.3295 93.2681 14.2857 93.2681 14.2497C93.2721 14.1106 93.2435 13.9724 93.1848 13.8462C93.1342 13.7403 93.0498 13.6542 92.9449 13.6016C92.8355 13.5488 92.7152 13.5223 92.5936 13.5243C92.5043 13.5241 92.4156 13.5386 92.331 13.5674C92.2475 13.5954 92.1699 13.6385 92.102 13.6945C92.0352 13.7489 91.9779 13.8139 91.9323 13.887Z" fill="#A6A7AA"/>
</svg>
