<svg width="132" height="48" viewBox="0 0 132 48" fill="none" xmlns="http://www.w3.org/2000/svg">
<g clip-path="url(#clip0_620_1983)">
<path d="M110.426 8.9375H102.942L97.7047 22.366L97.4533 22.2612C96.8915 22.0237 96.2878 21.9008 95.6779 21.8999H84.1558L82.5846 27.1372C82.5846 27.1372 93.4782 27.1372 94.1748 27.5404C94.504 27.8223 94.7377 28.1993 94.8437 28.6195C94.9497 29.0397 94.9227 29.4825 94.7666 29.8868C94.3057 31.0233 93.871 32.4111 93.3263 33.5529C92.8969 34.4642 91.3204 34.5689 90.98 34.5689H79.1227C77.6826 34.5199 76.2984 33.9993 75.1828 33.0871C74.0673 32.175 73.2821 30.9218 72.9479 29.5201C71.6386 24.4661 72.5708 19.6007 73.5083 18.2913C74.4458 16.982 75.7551 14.5467 79.1227 14.1696C82.4903 13.7925 94.4681 14.1696 94.4681 14.1696L96.7148 8.93226C96.7148 8.93226 77.8134 8.74371 75.9384 8.93226C74.163 9.11033 70.5335 10.3044 68.5695 12.9859C65.4638 8.94273 58.5767 8 54.2245 8C48.94 8 41.6026 9.86451 38.7116 16.7987C38.0726 18.3333 37.9626 20.4648 38.1197 22.6645C36.7824 21.7688 35.2096 21.2895 33.6 21.2871H22.0412C19.0455 21.2871 17.3643 19.585 17.3643 17.4796C17.3643 15.3742 19.0455 13.8134 22.0412 13.8134H36.8524L38.9473 8.94795H16.7306C14.4284 8.97969 12.2331 9.92441 10.6274 11.5744C9.02158 13.2243 8.1368 15.4445 8.16757 17.7467C8.16583 18.9681 8.41542 20.1767 8.9008 21.2976C9.53506 22.8051 10.5878 24.0995 11.9345 25.0276C13.2812 25.9558 14.8656 26.4788 16.5002 26.5349H28.4831C31.3532 26.5977 32.9662 28.0223 32.9662 30.1539C32.9662 32.2855 31.2851 34.108 28.2894 34.108H10.3306L8 39.5391H33.6628C35.1623 39.5254 36.6311 39.1138 37.9194 38.3464C39.2076 37.5789 40.2691 36.4832 40.9951 35.1712C42.8177 37.9627 47.2065 40.0105 54.3083 40.0105C61.3211 40.0105 66.2965 38.1303 68.4072 35.4383C68.7749 36.2176 69.3355 36.89 70.036 37.3918C71.8564 38.6515 73.9986 39.3656 76.2108 39.4501H95.018C95.8272 39.451 96.6193 39.2175 97.2987 38.7779C97.9781 38.3383 98.5157 37.7114 98.8465 36.9728L99.4697 35.5745L105.566 20.6167L107.268 16.0602L109.483 21.8841H106.341L104.456 27.2262H110.987L116.224 39.4501H123.708L110.426 8.9375ZM62.5204 31.3951C60.8497 34.1238 57.6759 34.5794 54.6645 34.5794C51.9096 34.5794 49.0448 34.2861 47.3636 31.9607C45.9548 30.002 45.4939 25.7859 45.4939 22.9787C45.4939 16.8301 49.6 13.4363 54.6645 13.4363C59.729 13.4363 63.835 16.8301 63.835 22.9787C63.8455 25.4612 63.6674 29.5202 62.5362 31.3951H62.5204Z" fill="#F32735"/>
</g>
<path fill-rule="evenodd" clip-rule="evenodd" d="M102.942 8.9375H110.426L121.456 34.2751C119.331 33.0635 116.318 31.9527 112.596 30.9832L110.987 27.2262H104.456L106.341 21.8841H109.484L107.268 16.0602L105.566 20.6167L102.183 28.9168C99.7778 28.5567 97.2288 28.2413 94.5597 27.9759C94.4529 27.8145 94.3237 27.6677 94.175 27.5404C93.4784 27.1372 82.5848 27.1372 82.5848 27.1372L84.156 21.8999H95.6781C96.288 21.9008 96.8917 22.0237 97.4535 22.2612L97.7049 22.366L102.942 8.9375ZM72.4674 27.0046C71.9522 22.9316 72.7286 19.3807 73.5085 18.2913C73.6053 18.1562 73.706 18.0091 73.8125 17.8535C74.7382 16.5013 76.1028 14.5077 79.1229 14.1696C82.4905 13.7925 94.4683 14.1696 94.4683 14.1696L96.715 8.93226C96.715 8.93226 77.8136 8.74371 75.9387 8.93226C74.1632 9.11033 70.5337 10.3044 68.5697 12.9859C65.464 8.94273 58.5769 8 54.2247 8C48.9402 8 41.6028 9.86451 38.7118 16.7987C38.0728 18.3333 37.9628 20.4648 38.1199 22.6645C36.7826 21.7688 35.2098 21.2895 33.6002 21.2871H22.0414C19.0457 21.2871 17.3645 19.585 17.3645 17.4796C17.3645 15.3742 19.0457 13.8134 22.0414 13.8134H36.8526L38.9475 8.94795H16.7308C14.4286 8.97969 12.2333 9.92441 10.6276 11.5744C9.02178 13.2243 8.137 15.4445 8.16777 17.7467C8.16603 18.9681 8.41562 20.1767 8.90101 21.2976C9.53526 22.8051 10.588 24.0995 11.9347 25.0276C13.2814 25.9558 14.8658 26.4788 16.5004 26.5349H28.4833C31.3534 26.5977 32.9664 28.0223 32.9664 30.1539C32.9664 30.7091 32.8524 31.2433 32.6308 31.7299C36.3047 30.5957 40.8793 29.6185 46.118 28.8518C45.6653 26.9241 45.4941 24.6897 45.4941 22.9787C45.4941 16.8301 49.6002 13.4363 54.6647 13.4363C59.7292 13.4363 63.8352 16.8301 63.8352 22.9787C63.8403 24.172 63.8017 25.7295 63.6347 27.2336C66.4989 27.1017 69.4504 27.0237 72.4674 27.0046Z" fill="url(#paint0_linear_620_1983)"/>
<defs>
<linearGradient id="paint0_linear_620_1983" x1="66.03" y1="9.5" x2="66.03" y2="39" gradientUnits="userSpaceOnUse">
<stop offset="0.125" stop-color="#FCD37B" stop-opacity="0"/>
<stop offset="0.855" stop-color="#F8B300" stop-opacity="0.75"/>
<stop offset="1" stop-color="#F8B300" stop-opacity="0.35"/>
</linearGradient>
<clipPath id="clip0_620_1983">
<rect width="115.729" height="32" fill="white" transform="translate(8 8)"/>
</clipPath>
</defs>
</svg>
