<svg width="67" height="28" viewBox="0 0 67 28" fill="none" xmlns="http://www.w3.org/2000/svg">
<path d="M9.75221 15.2686L9.61719 16.3625H10.3092L10.125 17.1696H9.51132L9.25969 18.1301C9.22875 18.2296 9.22504 18.3355 9.24895 18.4369C9.26578 18.4685 9.29181 18.4942 9.3236 18.5107C9.35539 18.5271 9.39143 18.5335 9.42693 18.529C9.61039 18.5045 9.79154 18.465 9.96855 18.4109L9.76448 19.2195C9.51003 19.2762 9.25033 19.306 8.98964 19.3084C8.78602 19.3226 8.58205 19.2862 8.39586 19.2026C8.27404 19.1326 8.18473 19.0173 8.1473 18.8819C8.09999 18.6529 8.09738 18.4169 8.13962 18.1869L8.34983 17.1742H8L8.0982 16.3671H8.5048L8.63215 15.8086L9.75221 15.2686Z" fill="#A6A7AA"/>
<path d="M10.6084 16.3633H11.7545L11.954 18.1861L12.7565 16.3633H13.8689L12.287 19.2371H11.3096L10.6084 16.3633Z" fill="#A6A7AA"/>
<path d="M14.7387 19.2411C15.1666 19.2411 15.5135 18.8942 15.5135 18.4662C15.5135 18.0383 15.1666 17.6914 14.7387 17.6914C14.3108 17.6914 13.9639 18.0383 13.9639 18.4662C13.9639 18.8942 14.3108 19.2411 14.7387 19.2411Z" fill="#A6A7AA"/>
<path d="M53.9272 8.34285H51.1194L49.1662 13.3785L49.0711 13.3386C48.8609 13.2496 48.635 13.2036 48.4067 13.2036H44.0922L43.5061 15.166C43.5061 15.166 47.5889 15.166 47.8513 15.3195C47.9756 15.4243 48.064 15.5656 48.1039 15.7233C48.1438 15.881 48.1333 16.0472 48.0738 16.1986C47.9019 16.6236 47.7378 17.1453 47.5337 17.5795C47.3726 17.9201 46.7803 17.96 46.6545 17.96H42.205C42.205 17.96 40.3791 17.96 39.8881 16.0667C39.3971 14.1733 39.7485 12.3475 40.0983 11.8549C40.4481 11.3624 40.9407 10.4526 42.205 10.3114C43.4692 10.1702 47.9587 10.3114 47.9587 10.3114L48.801 8.34746C48.801 8.34746 41.7124 8.27688 41.0112 8.34746C40.3454 8.41343 38.9829 8.86146 38.2495 9.86798C37.0849 8.35053 34.5042 7.99609 32.8701 7.99609C30.8908 7.99609 28.1367 8.69575 27.0534 11.2934C26.8141 11.8703 26.7742 12.6651 26.834 13.4951C26.3319 13.1588 25.7414 12.9789 25.1371 12.9781H20.8041C19.6794 12.9781 19.0488 12.3383 19.0488 11.5496C19.0488 10.761 19.6794 10.1687 20.8041 10.1687C21.0051 10.1687 21.6587 10.1687 21.6587 10.1687H25.8106C25.9211 9.41688 26.4244 8.76326 27.1378 8.34439H18.7865C17.0128 8.34439 15.5751 9.82041 15.5751 11.6417C15.5752 12.1001 15.6686 12.5538 15.8498 12.975C16.0875 13.5417 16.483 14.0281 16.9892 14.3766C17.4953 14.725 18.0909 14.9207 18.7051 14.9405H23.1977C24.2717 14.9635 24.8854 15.4974 24.8854 16.2984C24.8854 17.0993 24.2548 17.779 23.1302 17.779H16.801C16.7765 18.6121 16.2763 19.3501 15.5122 19.8181H25.1371C25.6982 19.8113 26.2476 19.656 26.7292 19.3679C27.2109 19.0798 27.6076 18.6692 27.8789 18.1779C28.5632 19.2366 30.2126 20.0038 32.8701 20.0038C35.503 20.0038 37.3672 19.2995 38.1574 18.2884C38.2974 18.5804 38.5084 18.8325 38.7711 19.0218C39.9986 19.8289 41.088 19.789 41.088 19.789H48.1382C48.4418 19.7889 48.7388 19.7011 48.9936 19.5362C49.2484 19.3712 49.4501 19.1361 49.5743 18.8592L49.8091 18.3344L52.1014 12.7264L52.7381 11.0172L53.5697 13.2005H52.3991L51.6933 15.1998H54.1482L56.1121 19.7859H58.9046L53.9272 8.34285ZM35.9618 16.7679C35.3358 17.7913 34.1451 17.96 33.0143 17.96C31.9817 17.96 30.9077 17.8526 30.2771 16.9781C29.7477 16.2447 29.5759 14.6628 29.5759 13.6102C29.5759 11.3087 31.1102 10.0306 33.0143 10.0306C34.9184 10.0306 36.4528 11.3041 36.4528 13.6102C36.4528 14.5431 36.3868 16.0728 35.9618 16.7679Z" fill="#A6A7AA"/>
</svg>
