<?xml version="1.0" encoding="utf-8"?>
<!-- Generator: Adobe Illustrator 26.0.1, SVG Export Plug-In . SVG Version: 6.00 Build 0)  -->
<svg version="1.1" id="圖層_1" xmlns="http://www.w3.org/2000/svg" xmlns:xlink="http://www.w3.org/1999/xlink" x="0px" y="0px"
	 viewBox="0 0 389.2 52.9" style="enable-background:new 0 0 389.2 52.9;" xml:space="preserve">
<style type="text/css">
	.st0{fill:#232323;}
</style>
<path class="st0" d="M162.9,1.2H10.1c-1,0-2,0.2-3,0.6C6.2,2.1,5.4,2.7,4.6,3.4C3.9,4.1,3.4,4.9,3,5.9C2.6,6.8,2.4,7.8,2.4,8.8v35.4
	c0,1,0.2,2,0.6,2.9c0.4,0.9,1,1.8,1.7,2.5c0.7,0.7,1.6,1.3,2.5,1.6c0.9,0.4,1.9,0.6,3,0.6h152.8c1,0,2-0.2,3-0.6
	c0.9-0.4,1.8-0.9,2.5-1.6c0.7-0.7,1.3-1.5,1.7-2.5c0.4-0.9,0.6-1.9,0.6-2.9V8.8c0-1-0.2-2-0.6-2.9c-0.4-0.9-1-1.8-1.7-2.5
	c-0.7-0.7-1.6-1.3-2.5-1.6C164.9,1.4,163.9,1.2,162.9,1.2z M49.9,40.3h-3.1V16.5L34.2,31.3L21.6,16.5v23.8h-3.1V13h4.3l11.5,13.5
	L45.7,13H50L49.9,40.3z M83.2,16.1H61.1v9h17.8v3.1H61.1v9h22.1v3.1H58V13h25.2V16.1z M118.7,18.7h-3.1v-1.1c0-0.4-0.2-0.8-0.4-1
	c-0.3-0.3-0.7-0.4-1-0.4H95.7c-0.4,0-0.8,0.2-1,0.4c-0.3,0.3-0.4,0.6-0.4,1v18.2c0,0.4,0.2,0.8,0.4,1c0.3,0.3,0.7,0.4,1,0.4h18.4
	c0.4,0,0.8-0.2,1-0.4c0.3-0.3,0.4-0.6,0.4-1V29h-6.8v-3.1h9.9v9.8c0,0.6-0.1,1.2-0.3,1.7c-0.2,0.6-0.6,1.1-1,1.5
	c-0.4,0.4-0.9,0.8-1.5,1c-0.6,0.2-1.2,0.3-1.8,0.3H95.7c-0.6,0-1.2-0.1-1.8-0.3c-0.6-0.2-1.1-0.6-1.5-1c-0.4-0.4-0.8-0.9-1-1.5
	c-0.2-0.6-0.3-1.1-0.3-1.7V17.6c0-0.6,0.1-1.2,0.3-1.7c0.2-0.6,0.6-1.1,1-1.5c0.4-0.4,0.9-0.8,1.5-1c0.6-0.2,1.2-0.3,1.8-0.3h18.4
	c0.6,0,1.2,0.1,1.8,0.3c0.6,0.2,1.1,0.6,1.5,1c0.4,0.4,0.8,0.9,1,1.5c0.2,0.6,0.3,1.1,0.3,1.7V18.7z M154.4,40.3h-3.1v-10h-21.4v10
	h-3.1V17.6c0-0.6,0.1-1.2,0.3-1.7c0.2-0.6,0.6-1.1,1-1.5c0.4-0.4,0.9-0.8,1.5-1c0.6-0.2,1.2-0.3,1.8-0.3h18.4c0.6,0,1.2,0.1,1.8,0.3
	c0.6,0.2,1.1,0.6,1.5,1c0.4,0.4,0.8,0.9,1,1.5c0.2,0.6,0.3,1.1,0.3,1.7V40.3z"/>
<path class="st0" d="M190.9,11.6c-0.2,0-0.4,0-0.6,0.1c-0.2,0.1-0.4,0.2-0.5,0.3c-0.1,0.1-0.3,0.3-0.3,0.5c-0.1,0.2-0.1,0.4-0.1,0.6
	v18.7c-0.1,4.5-0.6,8.9-1.7,13.3h-4.5c2.1-5.7,2.1-12.4,2.1-18.6V13c0-0.6,0.1-1.2,0.3-1.8c0.2-0.6,0.5-1.1,1-1.5
	c0.9-0.8,2.1-1.3,3.4-1.2h11.9c-0.3-0.7-0.9-1.9-1.3-2.7h5.2c0.4,0.9,0.8,1.9,1.4,2.7h17v3.1H190.9z M190.1,42.8
	c3.2-0.2,6.4-0.5,9.5-0.9c1-1.7,1.7-3.4,2.2-5.3h4.3c-0.4,1.6-1,3.1-1.7,4.6c1.5-0.1,3.1-0.4,4.5-0.7v3.1c-4.9,0.8-13,1.9-18.8,2.3
	V42.8z M201.7,18v3h5.5v3H192v-3h5.5v-3h-6.6v-3h6.6v-2.2h4.1V15h7.2v3L201.7,18z M206.7,34.5c-0.6,0.6-1.5,0.9-2.4,0.9h-9.9
	c-0.4,0-0.7-0.2-1.1-0.3c-0.3-0.2-0.6-0.4-0.8-0.7c-0.5-0.5-0.8-1.2-0.8-1.9V29c0-0.4,0.1-0.8,0.2-1.1c0.2-0.4,0.4-0.7,0.7-0.9
	c0.7-0.6,1.6-0.8,2.5-0.8h9.2c0.8,0,1.6,0.3,2.3,0.8c0.3,0.3,0.6,0.6,0.8,1c0.2,0.4,0.3,0.8,0.3,1.2v3.2
	C207.5,33.2,207.2,33.9,206.7,34.5L206.7,34.5z M194.2,41.1c-0.6-1.4-1.1-2.9-1.4-4.4h4.3c0.4,1.5,0.9,3,1.6,4.4H194.2z M203.5,30.1
	c0-0.1,0-0.3-0.1-0.4c0-0.1-0.1-0.2-0.2-0.3c-0.1-0.1-0.2-0.2-0.3-0.2c-0.1,0-0.3-0.1-0.4-0.1h-5.7c-0.1,0-0.3,0-0.4,0
	c-0.1,0-0.2,0.1-0.3,0.2c-0.1,0.1-0.2,0.2-0.2,0.3c-0.1,0.1-0.1,0.2-0.1,0.4v1.5c0,0.3,0.2,0.5,0.4,0.7c0.2,0.2,0.4,0.3,0.7,0.3h5.6
	c0.3,0,0.5-0.1,0.7-0.3c0.2-0.2,0.3-0.5,0.3-0.7V30.1z M211.8,35.7c-1.4-3.5-2.5-7.1-3.3-10.8h4.2c0.9,3.7,2.2,7.4,3.9,10.8H211.8z
	 M222,22.6v19.7c0,0.5,0,1.1-0.2,1.6c-0.2,0.5-0.5,0.9-0.9,1.3c-0.4,0.4-0.8,0.7-1.4,0.8c-0.5,0.2-1,0.2-1.6,0.2h-4.1l-1.6-3.3h4.6
	c0.1,0,0.3,0,0.4-0.1c0.1-0.1,0.3-0.1,0.4-0.2c0.1-0.1,0.2-0.2,0.2-0.4c0-0.1,0.1-0.3,0-0.4V22.6h-9.2v-3.3h9.2v-6.2h4.2v6.2h2.4
	v3.3L222,22.6z"/>
<path class="st0" d="M250.9,17.1c-0.9-1.9-2.2-5.3-2.8-7.5c0-0.2-0.1-0.4-0.3-0.5C247.6,9,247.4,9,247.2,9h-1
	c-0.2,0-0.4,0.1-0.6,0.2c-0.2,0.1-0.3,0.3-0.4,0.5c-0.8,2.6-1.9,5.1-3.4,7.4H237c2.1-2.9,3.8-6,4.8-9.4c0.2-0.6,0.7-1.1,1.3-1.4
	c0.5-0.3,1.1-0.4,1.7-0.5h3.4c0.7,0,1.4,0.2,2,0.6c0.6,0.4,1,1,1.3,1.7c1,3.1,2.3,6.1,3.9,9L250.9,17.1z M251.6,45.9
	c-0.3-0.7-0.8-2-1.1-2.7l-1.4,2.7h-5.8c-0.6,0-1.2,0-1.8-0.3c-0.6-0.2-1.1-0.6-1.5-1c-0.7-0.9-1-2-1-3.1V21.6c0-0.5,0.1-1,0.3-1.5
	c0.2-0.5,0.5-0.9,0.9-1.2c0.7-0.6,1.5-0.9,2.4-0.9h2.5c-0.1-0.8-0.5-2.7-0.7-3.8h3.9c0.2,1.1,0.7,2.8,0.9,3.8h1.2
	c0.5,0,1,0.1,1.5,0.2c0.5,0.2,0.9,0.4,1.3,0.8c0.4,0.4,0.7,0.9,0.9,1.4c0.2,0.5,0.3,1.1,0.2,1.7v6.6c0,0.6-0.1,1.2-0.3,1.7
	c-0.2,0.6-0.6,1.1-1,1.5c-0.9,0.6-1.9,0.9-3,0.9h-7.1v8.8c0,0.3,0.1,0.5,0.3,0.8c0.2,0.2,0.4,0.4,0.7,0.4h6.3
	c-0.6-1.9-1.7-6-2.3-8.2h4c1,3.9,2.3,7.7,3.9,11.3L251.6,45.9z M250.3,22c0-0.1,0-0.2-0.1-0.4c0-0.1-0.1-0.2-0.2-0.3
	c-0.1-0.1-0.2-0.2-0.3-0.2c-0.1-0.1-0.2-0.1-0.4-0.1H244c-0.3,0-0.5,0.1-0.7,0.3c-0.2,0.2-0.3,0.4-0.3,0.7v1.8h7.3V22z M250.3,26.7
	H243v3h6.4c0.7,0,0.9-0.4,0.9-1V26.7z M273.6,21.2c-0.2-0.3-0.6-0.9-0.8-1.2h-4.1v5h8.6v3.2h-8.6V42c0,0.5-0.1,1-0.3,1.5
	c-0.2,0.5-0.5,0.9-0.9,1.3c-0.4,0.4-0.8,0.6-1.3,0.8s-1,0.3-1.5,0.2h-3l-1.5-3.2h3.2c0.1,0,0.3,0,0.4-0.1c0.1,0,0.2-0.1,0.3-0.2
	c0.1-0.1,0.2-0.2,0.2-0.3c0-0.1,0.1-0.3,0-0.4V28.3h-8.8v-3.3h8.8v-5h-4.7c-0.2,0.4-0.4,0.8-0.7,1.2h-4.7c2.6-3.8,4.2-9,5.3-13.1
	c0.2-0.7,0.7-1.4,1.4-1.8c0.5-0.3,1.2-0.5,1.8-0.5h6.5c0.9,0,1.7,0.3,2.4,0.8c0.6,0.5,1,1.2,1.2,2c1.2,4.4,3.1,8.6,5.4,12.5
	L273.6,21.2z M259.1,42.5h-4.2c1.8-3.7,3.2-7.7,4-11.8h4.1C262.3,34.1,260.9,39.3,259.1,42.5L259.1,42.5z M269.3,10.1
	c0-0.3-0.2-0.5-0.4-0.7c-0.2-0.2-0.5-0.3-0.8-0.3h-3.4c-0.3,0-0.5,0.1-0.7,0.2c-0.2,0.2-0.4,0.4-0.4,0.6c-0.5,2.4-1.3,4.7-2.1,7
	h10.2C270.7,14.7,269.9,12.4,269.3,10.1z M273.8,42.5c-1.5-3.1-2.8-8-3.5-11.8h3.8c0.9,4.1,2.3,8,4,11.8H273.8z"/>
<path class="st0" d="M294.7,42.1h-3.6c1-7,1.3-16.8,1.2-23.5h3.3C296,26.5,295.6,34.3,294.7,42.1z M300.8,16.3v30h-4v-30h-5.1v-3.1
	h5.1V5.8h4v7.5h4.7v3.1H300.8z M302.7,38c-0.5-6.2-0.9-14.3-0.9-19.4h3.3c0,5.7,0.5,13.3,1.1,19.4H302.7z M331.5,46.3h-3.3
	c-0.9,0-1.7-0.2-2.4-0.6c-1.1-0.7-2-1.8-2.4-3c-1.2,1.2-3,2.7-4.2,3.6h-6.8c3.1-1.9,7.3-5.1,9.2-7.3c-1.1-2.7-1.9-5.6-2.4-8.4h-7
	c-0.2,5.2-0.8,11-3.5,15.7h-4.9c3.2-4.3,4.4-9.8,4.4-15.7h-1.8v-3.2h1.8c0-0.6,0-1.2,0-1.9h4.1c0,0.5,0,1.3,0,1.9h6.3
	c-0.7-5.7-1.2-15.1-1.2-21.6h4c-0.1,7.2,0.3,14.5,1.2,21.6h2.2c-0.4-0.7-0.7-1.5-0.9-2.2h4c0.3,0.8,0.7,1.5,1.1,2.2h3.6v3.2h-9.3
	c0.3,1.6,0.7,3.1,1.2,4.7c0.8-1,1.5-2.2,2.1-3.3h4.7c-1.5,2.6-3.1,5.1-5,7.4c0.4,1.1,1,2.1,1.7,3.1c0.1,0.2,0.3,0.3,0.5,0.4
	c0.2,0.1,0.4,0.2,0.6,0.2h3.8L331.5,46.3z M314.6,25c-0.2-0.7-0.5-1.5-0.6-2.2l-0.8,1.7h-4.2c-0.3,0-0.6,0-0.9-0.2
	c-0.3-0.1-0.5-0.3-0.7-0.6c-0.2-0.3-0.2-0.7-0.2-1c0-0.4,0.1-0.7,0.3-1l2.5-4.5h-2.2c-0.3,0-0.6-0.1-0.9-0.3
	c-0.3-0.2-0.5-0.5-0.6-0.8c-0.1-0.3-0.2-0.6-0.2-0.9c0-0.3,0.1-0.6,0.3-0.9l4.1-8.1h3.9l-4.6,8.4h1.6l1.7-3h3.6l-6,10h2.9
	c-0.1-0.7-0.3-2.2-0.4-3h2.9c0.3,2.1,0.7,4.3,1.2,6.4H314.6z M315.1,39.5c-0.9-2.3-1.7-4.7-2.3-7.1h3.8c0.7,2.4,1.6,4.8,2.6,7.1
	H315.1z M329.5,25c-0.2-0.9-0.3-1.8-0.4-2.8l-0.9,2.2h-3.1c-0.4,0.1-0.8,0-1.1-0.1c-0.4-0.1-0.6-0.4-0.8-0.7
	c-0.2-0.3-0.3-0.7-0.3-1.1c0-0.4,0.2-0.7,0.4-1l2.3-4.3h-1.7c-0.3,0-0.6,0-0.9-0.2c-0.3-0.1-0.5-0.3-0.7-0.5
	c-0.2-0.3-0.3-0.7-0.4-1.1c0-0.4,0.1-0.8,0.3-1.1l3.4-8.1h3.7l-3.9,8.4h1.5l1.7-3h3.5l-5.6,10h2.5c-0.1-1-0.2-2-0.2-3h2.5
	c0.2,1.7,0.6,4.9,0.8,6.4H329.5z"/>
<path class="st0" d="M345.4,46.4v-3.1h18.4v-5.1h-15.2v-3.1h15.2v-4.8h-16.9v-3h37.7v3H368v4.8h15.1v3.1H368v5.1h18.3v3.1H345.4z
	 M383.1,23.3c-0.4,0.4-1,0.8-1.5,1c-0.6,0.2-1.2,0.4-1.8,0.3h-28.3c-0.5,0-1.1-0.1-1.5-0.3c-0.5-0.2-0.9-0.5-1.3-0.9
	c-0.7-0.7-1.1-1.7-1-2.7v-8.4c0-0.5,0.1-1.1,0.4-1.6c0.3-0.5,0.6-0.9,1.1-1.2c0.8-0.5,1.8-0.8,2.8-0.7h6.8c0.5-1,1-2,1.3-3h5.2
	c-0.4,0.9-1,2.3-1.4,3h16.1c1.1-0.1,2.2,0.3,3.1,1c0.4,0.4,0.7,0.9,0.9,1.4c0.2,0.5,0.3,1.1,0.3,1.7v7.7
	C384.1,21.5,383.8,22.5,383.1,23.3z M379.8,13.1c0-0.3-0.1-0.6-0.3-0.8c-0.2-0.2-0.5-0.4-0.8-0.4H353c-0.3,0-0.7,0.1-0.9,0.3
	c-0.2,0.2-0.4,0.5-0.4,0.9v2h28.2L379.8,13.1z M379.8,18.1h-28.2v2.3c0,0.2,0,0.3,0.1,0.5c0.1,0.1,0.1,0.3,0.2,0.4
	c0.1,0.1,0.2,0.2,0.4,0.3c0.1,0.1,0.3,0.1,0.5,0.1h25.8c0.3,0,0.7-0.2,0.9-0.4c0.2-0.2,0.3-0.6,0.3-0.9V18.1z"/>
<path class="st0" d="M149.7,15.9h-18.2c-0.4,0-0.8,0.2-1,0.4c-0.3,0.3-0.4,0.6-0.4,1v9.7h21.2v-9.7c0-0.4-0.2-0.8-0.5-1
	C150.4,16.1,150.1,15.9,149.7,15.9z"/>
</svg>
