<svg width="85" height="85" viewBox="0 0 85 85" fill="none" xmlns="http://www.w3.org/2000/svg">
<g clip-path="url(#clip0_332_2697)">
<path d="M84.1782 37.979C84.1782 17.0989 64.1202 0.822266 42.5825 0.822266C31.4919 0.865758 20.8704 5.30197 13.0435 13.1596C5.21668 21.0173 0.82218 31.6562 0.822266 42.7468C0.845229 53.0813 4.68442 63.0431 11.6028 70.7201C18.5213 78.3971 28.0315 83.2483 38.3078 84.3426C43.8978 84.8358 49.8165 77.7662 49.8165 77.7662L78.4238 49.1589C78.4238 49.1589 84.1782 44.7198 84.1782 37.979Z" stroke="#A6A7AA" stroke-linecap="round" stroke-linejoin="round"/>
<path d="M37.3213 84.1779C38.6315 84.176 39.9079 83.7622 40.97 82.9951C42.0322 82.228 42.8264 81.1465 43.2401 79.9033C46.0351 58.3656 59.3522 45.8704 79.2459 43.0754C80.5706 42.8857 81.7879 42.2402 82.6881 41.25C83.5883 40.2597 84.1152 38.9867 84.1782 37.6499" stroke="#1B2222" stroke-linecap="round" stroke-linejoin="round"/>
<mask id="mask0_332_2697" style="mask-type:luminance" maskUnits="userSpaceOnUse" x="0" y="0" width="85" height="85">
<path d="M43.2401 80.0675C46.0351 58.5298 59.3523 46.0346 79.2459 43.0753C80.5445 42.8917 81.7414 42.27 82.6384 41.3132C83.5354 40.3563 84.0787 39.1219 84.1782 37.8141C84.0138 16.934 64.1202 0.986328 42.5825 0.986328C31.507 0.986328 20.8851 5.38599 13.0536 13.2175C5.22203 21.0491 0.822266 31.6709 0.822266 42.7464C0.821313 52.9114 4.52796 62.7277 11.2473 70.355C17.9667 77.9824 27.2373 82.8971 37.3213 84.1778C38.6115 84.1877 39.8732 83.7979 40.933 83.0619C41.9928 82.3259 42.7988 81.28 43.2401 80.0675Z" fill="white"/>
</mask>
<g mask="url(#mask0_332_2697)">
<mask id="path-4-inside-1_332_2697" fill="white">
<path d="M42.5825 30.2512C39.7328 30.2515 36.9975 29.1308 34.9672 27.1312C32.9369 25.1317 31.7746 22.4138 31.7314 19.5645C31.7739 16.6998 32.9307 13.9644 34.9565 11.9386C36.9824 9.91272 39.7178 8.75583 42.5825 8.71338C45.4318 8.75655 48.1498 9.91889 50.1493 11.9492C52.1489 13.9795 53.2694 16.7149 53.2691 19.5645C53.2691 22.3988 52.1432 25.117 50.1391 27.1211C48.1349 29.1252 45.4167 30.2512 42.5825 30.2512ZM42.5825 8.87785C39.7482 8.87785 37.03 10.0038 35.0259 12.0079C33.0217 14.012 31.8958 16.7302 31.8958 19.5645C31.939 22.3702 33.0839 25.0463 35.0834 27.015C37.0828 28.9838 39.7764 30.087 42.5825 30.0867C45.3731 30.0867 48.0496 28.9781 50.0229 27.0048C51.9962 25.0315 53.1048 22.3552 53.1048 19.5645C53.1051 16.7585 52.0017 14.0649 50.033 12.0654C48.0643 10.0659 45.3882 8.92102 42.5825 8.87785Z"/>
</mask>
<path d="M42.5825 30.2512C39.7328 30.2515 36.9975 29.1308 34.9672 27.1312C32.9369 25.1317 31.7746 22.4138 31.7314 19.5645C31.7739 16.6998 32.9307 13.9644 34.9565 11.9386C36.9824 9.91272 39.7178 8.75583 42.5825 8.71338C45.4318 8.75655 48.1498 9.91889 50.1493 11.9492C52.1489 13.9795 53.2694 16.7149 53.2691 19.5645C53.2691 22.3988 52.1432 25.117 50.1391 27.1211C48.1349 29.1252 45.4167 30.2512 42.5825 30.2512ZM42.5825 8.87785C39.7482 8.87785 37.03 10.0038 35.0259 12.0079C33.0217 14.012 31.8958 16.7302 31.8958 19.5645C31.939 22.3702 33.0839 25.0463 35.0834 27.015C37.0828 28.9838 39.7764 30.087 42.5825 30.0867C45.3731 30.0867 48.0496 28.9781 50.0229 27.0048C51.9962 25.0315 53.1048 22.3552 53.1048 19.5645C53.1051 16.7585 52.0017 14.0649 50.033 12.0654C48.0643 10.0659 45.3882 8.92102 42.5825 8.87785Z" fill="#A6A7AA"/>
<path d="M42.5825 30.2512V29.2512H42.5824L42.5825 30.2512ZM31.7314 19.5645L30.7316 19.5497L30.7313 19.5647L30.7316 19.5797L31.7314 19.5645ZM42.5825 8.71338L42.5976 7.71349L42.5826 7.71327L42.5677 7.71349L42.5825 8.71338ZM53.2691 19.5645L52.2691 19.5644V19.5645H53.2691ZM42.5825 8.87785L42.5979 7.87797L42.5902 7.87785H42.5825V8.87785ZM31.8958 19.5645H30.8958V19.5722L30.8959 19.5799L31.8958 19.5645ZM42.5825 30.0867V29.0867H42.5824L42.5825 30.0867ZM53.1048 19.5645L52.1048 19.5644V19.5645H53.1048ZM42.5824 29.2512C39.9954 29.2515 37.5121 28.234 35.6689 26.4188L34.2655 27.8437C36.4829 30.0275 39.4703 31.2515 42.5826 31.2512L42.5824 29.2512ZM35.6689 26.4188C33.8257 24.6035 32.7705 22.1361 32.7313 19.5494L30.7316 19.5797C30.7787 22.6915 32.0481 25.6599 34.2655 27.8437L35.6689 26.4188ZM32.7313 19.5793C32.7699 16.9747 33.8217 14.4876 35.6636 12.6457L34.2494 11.2315C32.0397 13.4412 30.7779 16.425 30.7316 19.5497L32.7313 19.5793ZM35.6636 12.6457C37.5056 10.8037 39.9927 9.75186 42.5973 9.71327L42.5677 7.71349C39.4429 7.75979 36.4592 9.02171 34.2494 11.2315L35.6636 12.6457ZM42.5673 9.71326C45.154 9.75246 47.6215 10.8077 49.4368 12.6509L50.8618 11.2475C48.678 9.0301 45.7095 7.76065 42.5976 7.71349L42.5673 9.71326ZM49.4368 12.6509C51.2521 14.4941 52.2694 16.9774 52.2691 19.5644L54.2691 19.5646C54.2695 16.4524 53.0456 13.4649 50.8618 11.2475L49.4368 12.6509ZM52.2691 19.5645C52.2691 22.1336 51.2486 24.5974 49.432 26.414L50.8462 27.8282C53.0378 25.6365 54.2691 22.664 54.2691 19.5645H52.2691ZM49.432 26.414C47.6154 28.2306 45.1515 29.2512 42.5825 29.2512V31.2512C45.682 31.2512 48.6545 30.0199 50.8462 27.8282L49.432 26.414ZM42.5825 7.87785C39.483 7.87785 36.5104 9.10912 34.3188 11.3008L35.733 12.715C37.5496 10.8984 40.0134 9.87785 42.5825 9.87785V7.87785ZM34.3188 11.3008C32.1271 13.4925 30.8958 16.465 30.8958 19.5645H32.8958C32.8958 16.9954 33.9164 14.5316 35.733 12.715L34.3188 11.3008ZM30.8959 19.5799C30.9431 22.6481 32.1952 25.5747 34.3818 27.7276L35.785 26.3025C33.9726 24.518 32.9348 22.0923 32.8957 19.5491L30.8959 19.5799ZM34.3818 27.7276C36.5684 29.8806 39.514 31.087 42.5826 31.0867L42.5824 29.0867C40.0389 29.087 37.5973 28.087 35.785 26.3025L34.3818 27.7276ZM42.5825 31.0867C45.6384 31.0867 48.5691 29.8728 50.73 27.7119L49.3158 26.2977C47.53 28.0835 45.1079 29.0867 42.5825 29.0867V31.0867ZM50.73 27.7119C52.8908 25.5511 54.1048 22.6204 54.1048 19.5645H52.1048C52.1048 22.09 51.1015 24.5119 49.3158 26.2977L50.73 27.7119ZM54.1048 19.5646C54.1051 16.496 52.8985 13.5504 50.7456 11.3638L49.3204 12.767C51.1049 14.5794 52.1051 17.0209 52.1048 19.5644L54.1048 19.5646ZM50.7456 11.3638C48.5926 9.17722 45.6661 7.92518 42.5979 7.87797L42.5671 9.87773C45.1102 9.91686 47.5359 10.9546 49.3204 12.767L50.7456 11.3638Z" fill="#A6A7AA" mask="url(#path-4-inside-1_332_2697)"/>
<mask id="path-6-inside-2_332_2697" fill="white">
<path d="M42.5825 76.4503C39.7328 76.4506 36.9975 75.33 34.9672 73.3305C32.9369 71.3309 31.7746 68.6129 31.7314 65.7636C31.7739 62.899 32.9307 60.1635 34.9565 58.1377C36.9824 56.1118 39.7178 54.955 42.5825 54.9126C45.4318 54.9558 48.1498 56.118 50.1493 58.1483C52.1489 60.1786 53.2694 62.914 53.2691 65.7636C53.2691 68.5979 52.1432 71.3161 50.1391 73.3202C48.1349 75.3244 45.4167 76.4503 42.5825 76.4503ZM42.5825 55.077C39.7482 55.077 37.03 56.2029 35.0259 58.207C33.0217 60.2112 31.8958 62.9293 31.8958 65.7636C31.939 68.5693 33.0839 71.2454 35.0834 73.2142C37.0828 75.1829 39.7764 76.2862 42.5825 76.2859C45.3731 76.2859 48.0496 75.1773 50.0229 73.204C51.9962 71.2307 53.1048 68.5543 53.1048 65.7636C53.1051 62.9576 52.0017 60.2641 50.033 58.2646C48.0643 56.2651 45.3882 55.1201 42.5825 55.077Z"/>
</mask>
<path d="M42.5825 76.4503C39.7328 76.4506 36.9975 75.33 34.9672 73.3305C32.9369 71.3309 31.7746 68.6129 31.7314 65.7636C31.7739 62.899 32.9307 60.1635 34.9565 58.1377C36.9824 56.1118 39.7178 54.955 42.5825 54.9126C45.4318 54.9558 48.1498 56.118 50.1493 58.1483C52.1489 60.1786 53.2694 62.914 53.2691 65.7636C53.2691 68.5979 52.1432 71.3161 50.1391 73.3202C48.1349 75.3244 45.4167 76.4503 42.5825 76.4503ZM42.5825 55.077C39.7482 55.077 37.03 56.2029 35.0259 58.207C33.0217 60.2112 31.8958 62.9293 31.8958 65.7636C31.939 68.5693 33.0839 71.2454 35.0834 73.2142C37.0828 75.1829 39.7764 76.2862 42.5825 76.2859C45.3731 76.2859 48.0496 75.1773 50.0229 73.204C51.9962 71.2307 53.1048 68.5543 53.1048 65.7636C53.1051 62.9576 52.0017 60.2641 50.033 58.2646C48.0643 56.2651 45.3882 55.1201 42.5825 55.077Z" fill="#A6A7AA"/>
<path d="M42.5825 76.4503V75.4503H42.5824L42.5825 76.4503ZM31.7314 65.7636L30.7316 65.7488L30.7313 65.7638L30.7316 65.7788L31.7314 65.7636ZM42.5825 54.9126L42.5976 53.9127L42.5826 53.9125L42.5677 53.9127L42.5825 54.9126ZM53.2691 65.7636L52.2691 65.7635V65.7636H53.2691ZM42.5825 55.077L42.5979 54.0771L42.5902 54.077H42.5825V55.077ZM31.8958 65.7636H30.8958V65.7713L30.8959 65.779L31.8958 65.7636ZM42.5825 76.2859V75.2859H42.5824L42.5825 76.2859ZM53.1048 65.7636L52.1048 65.7635V65.7636H53.1048ZM42.5824 75.4503C39.9953 75.4506 37.512 74.4332 35.6689 72.618L34.2655 74.0429C36.4829 76.2268 39.4704 77.4506 42.5826 77.4503L42.5824 75.4503ZM35.6689 72.618C33.8257 70.8027 32.7705 68.3352 32.7313 65.7485L30.7316 65.7788C30.7787 68.8906 32.0481 71.8591 34.2655 74.0429L35.6689 72.618ZM32.7313 65.7784C32.7699 63.1738 33.8217 60.6867 35.6636 58.8448L34.2494 57.4306C32.0397 59.6403 30.7779 62.6241 30.7316 65.7488L32.7313 65.7784ZM35.6636 58.8448C37.5056 57.0029 39.9927 55.9511 42.5973 55.9125L42.5677 53.9127C39.443 53.959 36.4592 55.2208 34.2494 57.4306L35.6636 58.8448ZM42.5673 55.9125C45.154 55.9517 47.6216 57.0068 49.4368 58.85L50.8618 57.4466C48.678 55.2292 45.7095 53.9599 42.5976 53.9127L42.5673 55.9125ZM49.4368 58.85C51.2521 60.6932 52.2694 63.1765 52.2691 65.7635L54.2691 65.7637C54.2695 62.6515 53.0456 59.664 50.8618 57.4466L49.4368 58.85ZM52.2691 65.7636C52.2691 68.3327 51.2486 70.7965 49.432 72.6131L50.8462 74.0273C53.0378 71.8357 54.2691 68.8631 54.2691 65.7636H52.2691ZM49.432 72.6131C47.6154 74.4297 45.1515 75.4503 42.5825 75.4503V77.4503C45.682 77.4503 48.6545 76.219 50.8462 74.0273L49.432 72.6131ZM42.5825 54.077C39.483 54.077 36.5104 55.3082 34.3188 57.4999L35.733 58.9141C37.5496 57.0975 40.0134 56.077 42.5825 56.077V54.077ZM34.3188 57.4999C32.1271 59.6916 30.8958 62.6641 30.8958 65.7636H32.8958C32.8958 63.1946 33.9164 60.7307 35.733 58.9141L34.3188 57.4999ZM30.8959 65.779C30.9431 68.8472 32.1952 71.7738 34.3818 73.9267L35.785 72.5016C33.9726 70.7171 32.9348 68.2914 32.8957 65.7482L30.8959 65.779ZM34.3818 73.9267C36.5683 76.0797 39.514 77.2863 42.5826 77.2859L42.5824 75.2859C40.0389 75.2862 37.5974 74.2861 35.785 72.5016L34.3818 73.9267ZM42.5825 77.2859C45.6384 77.2859 48.5691 76.072 50.73 73.9111L49.3158 72.4969C47.53 74.2827 45.1079 75.2859 42.5825 75.2859V77.2859ZM50.73 73.9111C52.8908 71.7503 54.1048 68.8195 54.1048 65.7636H52.1048C52.1048 68.2891 51.1015 70.7112 49.3158 72.4969L50.73 73.9111ZM54.1048 65.7637C54.1051 62.6951 52.8985 59.7496 50.7456 57.563L49.3204 58.9662C51.1049 60.7786 52.1051 63.2201 52.1048 65.7635L54.1048 65.7637ZM50.7456 57.563C48.5926 55.3765 45.6661 54.1243 42.5979 54.0771L42.5671 56.0768C45.1102 56.116 47.5359 57.1538 49.3204 58.9662L50.7456 57.563Z" fill="#A6A7AA" mask="url(#path-6-inside-2_332_2697)"/>
<mask id="path-8-inside-3_332_2697" fill="white">
<path d="M65.5997 53.2683C62.7655 53.2683 60.0473 52.1424 58.0431 50.1383C56.039 48.1341 54.9131 45.416 54.9131 42.5817C54.9131 39.7474 56.039 37.0292 58.0431 35.0251C60.0473 33.0209 62.7655 31.895 65.5997 31.895C68.434 31.895 71.1522 33.0209 73.1563 35.0251C75.1605 37.0292 76.2864 39.7474 76.2864 42.5817C76.2864 45.416 75.1605 48.1341 73.1563 50.1383C71.1522 52.1424 68.434 53.2683 65.5997 53.2683ZM65.5997 32.0594C62.8091 32.0594 60.1326 33.168 58.1593 35.1413C56.186 37.1146 55.0775 39.791 55.0775 42.5817C55.0775 45.3723 56.186 48.0487 58.1593 50.022C60.1326 51.9953 62.8091 53.1039 65.5997 53.1039C66.9877 53.1261 68.3659 52.8692 69.6526 52.3482C70.9392 51.8273 72.1081 51.053 73.0896 50.0714C74.0711 49.0899 74.8454 47.9211 75.3663 46.6344C75.8872 45.3478 76.1442 43.9696 76.122 42.5817C76.122 39.791 75.0134 37.1146 73.0401 35.1413C71.0668 33.168 68.3904 32.0594 65.5997 32.0594Z"/>
</mask>
<path d="M65.5997 53.2683C62.7655 53.2683 60.0473 52.1424 58.0431 50.1383C56.039 48.1341 54.9131 45.416 54.9131 42.5817C54.9131 39.7474 56.039 37.0292 58.0431 35.0251C60.0473 33.0209 62.7655 31.895 65.5997 31.895C68.434 31.895 71.1522 33.0209 73.1563 35.0251C75.1605 37.0292 76.2864 39.7474 76.2864 42.5817C76.2864 45.416 75.1605 48.1341 73.1563 50.1383C71.1522 52.1424 68.434 53.2683 65.5997 53.2683ZM65.5997 32.0594C62.8091 32.0594 60.1326 33.168 58.1593 35.1413C56.186 37.1146 55.0775 39.791 55.0775 42.5817C55.0775 45.3723 56.186 48.0487 58.1593 50.022C60.1326 51.9953 62.8091 53.1039 65.5997 53.1039C66.9877 53.1261 68.3659 52.8692 69.6526 52.3482C70.9392 51.8273 72.1081 51.053 73.0896 50.0714C74.0711 49.0899 74.8454 47.9211 75.3663 46.6344C75.8872 45.3478 76.1442 43.9696 76.122 42.5817C76.122 39.791 75.0134 37.1146 73.0401 35.1413C71.0668 33.168 68.3904 32.0594 65.5997 32.0594Z" fill="#A6A7AA"/>
<path d="M65.5997 53.2683V54.2683V53.2683ZM65.5997 32.0594V31.0594V32.0594ZM55.0775 42.5817H54.0775H55.0775ZM65.5997 53.1039L65.6157 52.104L65.6077 52.1039H65.5997V53.1039ZM76.122 42.5817H75.122V42.5897L75.1222 42.5977L76.122 42.5817ZM65.5997 52.2683C63.0307 52.2683 60.5668 51.2478 58.7502 49.4312L57.336 50.8454C59.5277 53.0371 62.5002 54.2683 65.5997 54.2683V52.2683ZM58.7502 49.4312C56.9336 47.6146 55.9131 45.1507 55.9131 42.5817H53.9131C53.9131 45.6812 55.1444 48.6537 57.336 50.8454L58.7502 49.4312ZM55.9131 42.5817C55.9131 40.0126 56.9336 37.5488 58.7502 35.7322L57.336 34.318C55.1444 36.5096 53.9131 39.4822 53.9131 42.5817H55.9131ZM58.7502 35.7322C60.5668 33.9156 63.0307 32.895 65.5997 32.895V30.895C62.5002 30.895 59.5277 32.1263 57.336 34.318L58.7502 35.7322ZM65.5997 32.895C68.1688 32.895 70.6326 33.9156 72.4492 35.7322L73.8634 34.318C71.6718 32.1263 68.6992 30.895 65.5997 30.895V32.895ZM72.4492 35.7322C74.2658 37.5488 75.2864 40.0126 75.2864 42.5817H77.2864C77.2864 39.4822 76.0551 36.5096 73.8634 34.318L72.4492 35.7322ZM75.2864 42.5817C75.2864 45.1507 74.2658 47.6146 72.4492 49.4312L73.8634 50.8454C76.0551 48.6537 77.2864 45.6812 77.2864 42.5817H75.2864ZM72.4492 49.4312C70.6326 51.2478 68.1688 52.2683 65.5997 52.2683V54.2683C68.6992 54.2683 71.6718 53.0371 73.8634 50.8454L72.4492 49.4312ZM65.5997 31.0594C62.5439 31.0594 59.6131 32.2733 57.4522 34.4342L58.8664 35.8484C60.6522 34.0626 63.0743 33.0594 65.5997 33.0594V31.0594ZM57.4522 34.4342C55.2914 36.595 54.0775 39.5258 54.0775 42.5817H56.0775C56.0775 40.0562 57.0807 37.6341 58.8664 35.8484L57.4522 34.4342ZM54.0775 42.5817C54.0775 45.6376 55.2914 48.5682 57.4522 50.7291L58.8664 49.3149C57.0807 47.5291 56.0775 45.1071 56.0775 42.5817H54.0775ZM57.4522 50.7291C59.6131 52.8899 62.5439 54.1039 65.5997 54.1039V52.1039C63.0743 52.1039 60.6522 51.1006 58.8664 49.3149L57.4522 50.7291ZM65.5837 54.1037C67.1056 54.1281 68.617 53.8464 70.0279 53.2752L69.2773 51.4213C68.1149 51.8919 66.8697 52.1241 65.6157 52.104L65.5837 54.1037ZM70.0279 53.2752C71.4388 52.7039 72.7204 51.8548 73.7967 50.7786L72.3825 49.3643C71.4957 50.2511 70.4397 50.9507 69.2773 51.4213L70.0279 53.2752ZM73.7967 50.7786C74.873 49.7022 75.722 48.4206 76.2932 47.0097L74.4394 46.2591C73.9688 47.4216 73.2693 48.4776 72.3825 49.3643L73.7967 50.7786ZM76.2932 47.0097C76.8644 45.5988 77.1463 44.0876 77.1219 42.5657L75.1222 42.5977C75.1422 43.8516 74.91 45.0967 74.4394 46.2591L76.2932 47.0097ZM77.122 42.5817C77.122 39.5258 75.9081 36.595 73.7472 34.4342L72.333 35.8484C74.1188 37.6341 75.122 40.0562 75.122 42.5817H77.122ZM73.7472 34.4342C71.5864 32.2733 68.6556 31.0594 65.5997 31.0594V33.0594C68.1252 33.0594 70.5473 34.0626 72.333 35.8484L73.7472 34.4342Z" fill="#A6A7AA" mask="url(#path-8-inside-3_332_2697)"/>
<mask id="path-10-inside-4_332_2697" fill="white">
<path d="M19.4005 53.2683C16.5662 53.2683 13.8481 52.1424 11.8439 50.1383C9.83978 48.1341 8.71387 45.416 8.71387 42.5817C8.71387 39.7474 9.83978 37.0292 11.8439 35.0251C13.8481 33.0209 16.5662 31.895 19.4005 31.895C22.2348 31.895 24.953 33.0209 26.9571 35.0251C28.9613 37.0292 30.0872 39.7474 30.0872 42.5817C30.0872 45.416 28.9613 48.1341 26.9571 50.1383C24.953 52.1424 22.2348 53.2683 19.4005 53.2683ZM19.4005 32.0594C16.6098 32.0594 13.9334 33.168 11.9601 35.1413C9.98682 37.1146 8.87824 39.791 8.87824 42.5817C8.87824 45.3723 9.98682 48.0487 11.9601 50.022C13.9334 51.9953 16.6098 53.1039 19.4005 53.1039C20.7885 53.1261 22.1666 52.8692 23.4533 52.3482C24.7399 51.8273 25.9088 51.053 26.8903 50.0714C27.8718 49.0899 28.6461 47.9211 29.167 46.6344C29.6879 45.3478 29.9449 43.9696 29.9227 42.5817C29.9227 39.791 28.8141 37.1146 26.8408 35.1413C24.8675 33.168 22.1912 32.0594 19.4005 32.0594Z"/>
</mask>
<path d="M19.4005 53.2683C16.5662 53.2683 13.8481 52.1424 11.8439 50.1383C9.83978 48.1341 8.71387 45.416 8.71387 42.5817C8.71387 39.7474 9.83978 37.0292 11.8439 35.0251C13.8481 33.0209 16.5662 31.895 19.4005 31.895C22.2348 31.895 24.953 33.0209 26.9571 35.0251C28.9613 37.0292 30.0872 39.7474 30.0872 42.5817C30.0872 45.416 28.9613 48.1341 26.9571 50.1383C24.953 52.1424 22.2348 53.2683 19.4005 53.2683ZM19.4005 32.0594C16.6098 32.0594 13.9334 33.168 11.9601 35.1413C9.98682 37.1146 8.87824 39.791 8.87824 42.5817C8.87824 45.3723 9.98682 48.0487 11.9601 50.022C13.9334 51.9953 16.6098 53.1039 19.4005 53.1039C20.7885 53.1261 22.1666 52.8692 23.4533 52.3482C24.7399 51.8273 25.9088 51.053 26.8903 50.0714C27.8718 49.0899 28.6461 47.9211 29.167 46.6344C29.6879 45.3478 29.9449 43.9696 29.9227 42.5817C29.9227 39.791 28.8141 37.1146 26.8408 35.1413C24.8675 33.168 22.1912 32.0594 19.4005 32.0594Z" fill="#A6A7AA"/>
<path d="M19.4005 53.2683V54.2683V53.2683ZM19.4005 32.0594V31.0594V32.0594ZM8.87824 42.5817H7.87824H8.87824ZM19.4005 53.1039L19.4165 52.104L19.4085 52.1039H19.4005V53.1039ZM29.9227 42.5817H28.9227V42.5897L28.9228 42.5977L29.9227 42.5817ZM19.4005 52.2683C16.8315 52.2683 14.3676 51.2478 12.551 49.4312L11.1368 50.8454C13.3285 53.0371 16.301 54.2683 19.4005 54.2683V52.2683ZM12.551 49.4312C10.7344 47.6146 9.71387 45.1507 9.71387 42.5817H7.71387C7.71387 45.6812 8.94514 48.6537 11.1368 50.8454L12.551 49.4312ZM9.71387 42.5817C9.71387 40.0126 10.7344 37.5488 12.551 35.7322L11.1368 34.318C8.94514 36.5096 7.71387 39.4822 7.71387 42.5817H9.71387ZM12.551 35.7322C14.3676 33.9156 16.8315 32.895 19.4005 32.895V30.895C16.301 30.895 13.3285 32.1263 11.1368 34.318L12.551 35.7322ZM19.4005 32.895C21.9696 32.895 24.4334 33.9156 26.25 35.7322L27.6642 34.318C25.4726 32.1263 22.5 30.895 19.4005 30.895V32.895ZM26.25 35.7322C28.0666 37.5488 29.0872 40.0126 29.0872 42.5817H31.0872C31.0872 39.4822 29.8559 36.5096 27.6642 34.318L26.25 35.7322ZM29.0872 42.5817C29.0872 45.1507 28.0666 47.6146 26.25 49.4312L27.6642 50.8454C29.8559 48.6537 31.0872 45.6812 31.0872 42.5817H29.0872ZM26.25 49.4312C24.4334 51.2478 21.9696 52.2683 19.4005 52.2683V54.2683C22.5 54.2683 25.4726 53.0371 27.6642 50.8454L26.25 49.4312ZM19.4005 31.0594C16.3446 31.0594 13.4139 32.2733 11.253 34.4342L12.6672 35.8484C14.453 34.0626 16.8751 33.0594 19.4005 33.0594V31.0594ZM11.253 34.4342C9.09217 36.595 7.87824 39.5258 7.87824 42.5817H9.87824C9.87824 40.0562 10.8815 37.6341 12.6672 35.8484L11.253 34.4342ZM7.87824 42.5817C7.87824 45.6376 9.09218 48.5682 11.253 50.7291L12.6672 49.3149C10.8815 47.5291 9.87824 45.1071 9.87824 42.5817H7.87824ZM11.253 50.7291C13.4139 52.8899 16.3446 54.1039 19.4005 54.1039V52.1039C16.8751 52.1039 14.453 51.1006 12.6672 49.3149L11.253 50.7291ZM19.3845 54.1037C20.9064 54.1281 22.4176 53.8464 23.8286 53.2752L23.078 51.4213C21.9156 51.8919 20.6705 52.1241 19.4165 52.104L19.3845 54.1037ZM23.8286 53.2752C25.2395 52.7039 26.5211 51.8548 27.5974 50.7786L26.1832 49.3643C25.2964 50.2511 24.2404 50.9507 23.078 51.4213L23.8286 53.2752ZM27.5974 50.7786C28.6737 49.7022 29.5227 48.4206 30.0939 47.0097L28.2401 46.2591C27.7694 47.4216 27.07 48.4776 26.1832 49.3643L27.5974 50.7786ZM30.0939 47.0097C30.6651 45.5988 30.9469 44.0876 30.9226 42.5657L28.9228 42.5977C28.9429 43.8516 28.7107 45.0967 28.2401 46.2591L30.0939 47.0097ZM30.9227 42.5817C30.9227 39.5258 29.7088 36.595 27.5479 34.4342L26.1337 35.8484C27.9195 37.6341 28.9227 40.0562 28.9227 42.5817H30.9227ZM27.5479 34.4342C25.3871 32.2733 22.4564 31.0594 19.4005 31.0594V33.0594C21.926 33.0594 24.3479 34.0626 26.1337 35.8484L27.5479 34.4342Z" fill="#A6A7AA" mask="url(#path-10-inside-4_332_2697)"/>
</g>
<path d="M43.2401 80.0675C46.0351 58.5298 59.3523 46.0346 79.2459 43.0753C80.5445 42.8917 81.7414 42.27 82.6384 41.3132C83.5354 40.3563 84.0787 39.1219 84.1782 37.8141C84.0138 16.934 64.1202 0.986328 42.5825 0.986328C31.507 0.986328 20.8851 5.38599 13.0536 13.2175C5.22203 21.0491 0.822266 31.6709 0.822266 42.7464C0.821313 52.9114 4.52796 62.7277 11.2473 70.355C17.9667 77.9824 27.2373 82.8971 37.3213 84.1778C38.6115 84.1877 39.8732 83.7979 40.933 83.0619C41.9928 82.3259 42.7988 81.28 43.2401 80.0675Z" stroke="#A6A7AA" stroke-miterlimit="10"/>
</g>
<defs>
<clipPath id="clip0_332_2697">
<rect width="85" height="85" fill="white"/>
</clipPath>
</defs>
</svg>
