<svg width="33" height="80" viewBox="0 0 33 80" fill="none" xmlns="http://www.w3.org/2000/svg">
<path d="M1.16668 25.2822H1V25.824H1.16668V25.2822Z" fill="#A6A7AA"/>
<path d="M1.16668 25.7744H1V79.8684H1.16668V25.7744Z" fill="#A6A7AA"/>
<path d="M3.16701 25.1177H1.16699V25.3311H3.16701V25.1177Z" fill="#A6A7AA"/>
<path d="M30.9997 25.2822H30.833V25.824H30.9997V25.2822Z" fill="#A6A7AA"/>
<path d="M30.833 25.1177H28.833V25.3311H30.833V25.1177Z" fill="#A6A7AA"/>
<path d="M28.9997 0.164062H28.833V25.2328H28.9997V0.164062Z" fill="#A6A7AA"/>
<path d="M28.9993 0H3.16602V0.213429H28.9993V0Z" fill="#A6A7AA"/>
<path d="M3.16668 0.164062H3V25.2328H3.16668V0.164062Z" fill="#A6A7AA"/>
<path d="M9.83269 9.52148H9.66602V13.9376H9.83269V9.52148Z" fill="#A6A7AA"/>
<path d="M13.1667 9.68604H13V13.8231H13.1667V9.68604Z" fill="#A6A7AA"/>
<path d="M23.1667 9.52148H23V13.9376H23.1667V9.52148Z" fill="#A6A7AA"/>
<path d="M22.8327 9.52148H22.666V13.9376H22.8327V9.52148Z" fill="#A6A7AA"/>
<path d="M13.1667 9.68604H13V13.8888H13.1667V9.68604Z" fill="#A6A7AA"/>
<path d="M10.1667 9.52148H10V13.9376H10.1667V9.52148Z" fill="#A6A7AA"/>
<path d="M32.0003 25.6104H1.16699V25.8238H32.0003V25.6104Z" fill="#A6A7AA"/>
<path d="M31.9997 25.7744H31.833V79.8684H31.9997V25.7744Z" fill="#A6A7AA"/>
<path d="M32.0003 79.7866H1.16699V80H32.0003V79.7866Z" fill="#A6A7AA"/>
<path d="M3.99968 0.164062H3.83301V25.7746H3.99968V0.164062Z" fill="#A6A7AA"/>
<path d="M18.3326 19.7002H14.666V19.9136H18.3326V19.7002Z" fill="#A6A7AA"/>
<path d="M19.1666 17.5659H19V19.1912H19.1666V17.5659Z" fill="#A6A7AA"/>
<path d="M18.999 17.7302H18.499V17.4019H18.999V17.7302Z" fill="#A6A7AA"/>
<path d="M18.3326 16.9092H14.666V17.1226H18.3326V16.9092Z" fill="#A6A7AA"/>
<path d="M14.333 17.73H14.833V18.0583H14.333V17.73Z" fill="#A6A7AA"/>
<path d="M14.1656 17.5659H13.999V19.1912H14.1656V17.5659Z" fill="#A6A7AA"/>
<path d="M8.16668 10.0142H8V13.5931H8.16668V10.0142Z" fill="#A6A7AA"/>
<path d="M8.66702 14.1185C8.53441 14.1185 8.40724 14.0666 8.31348 13.9742C8.21971 13.8819 8.16699 13.7566 8.16699 13.626H8.33367L8.66702 13.9543V14.1185Z" fill="#A6A7AA"/>
<path d="M12.9994 13.79H8.66602V14.0035H12.9994V13.79Z" fill="#A6A7AA"/>
<path d="M13 14.1184C13.1667 14.1184 13.1666 13.9542 13.1666 13.79H13.5C13.464 13.8908 13.3958 13.9772 13.3056 14.0365C13.2155 14.0957 13.1082 14.1244 13 14.1184Z" fill="#A6A7AA"/>
<path d="M13.3326 10.0142H13.166V13.5931H13.3326V10.0142Z" fill="#A6A7AA"/>
<path d="M13.5 10.0142H13.1666C13.1666 9.85004 13.1667 9.68585 13 9.68585C13.1082 9.6798 13.2155 9.70857 13.3056 9.76779C13.3958 9.82701 13.464 9.91349 13.5 10.0142Z" fill="#A6A7AA"/>
<path d="M12.9994 9.35742H8.66602V9.57084H12.9994V9.35742Z" fill="#A6A7AA"/>
<path d="M8.33367 10.014H8.16699C8.16699 9.88338 8.21971 9.75809 8.31348 9.66572C8.40724 9.57336 8.53441 9.52148 8.66702 9.52148L8.33367 10.014Z" fill="#A6A7AA"/>
<path d="M20.5 14.1185C20.3674 14.1185 20.2402 14.0666 20.1464 13.9742C20.0527 13.8819 20 13.7566 20 13.626H20.1667L20.5 13.9543V14.1185Z" fill="#A6A7AA"/>
<path d="M24.8333 13.79H20.5V14.0035H24.8333V13.79Z" fill="#A6A7AA"/>
<path d="M24.667 14.1184C24.7554 14.1184 24.8402 14.0838 24.9027 14.0222C24.9652 13.9607 25.0003 13.8771 25.0003 13.79H25.3336C25.3336 13.9542 25.0003 14.1184 24.667 14.1184Z" fill="#A6A7AA"/>
<path d="M25.1667 10.0142H25V13.5931H25.1667V10.0142Z" fill="#A6A7AA"/>
<path d="M25.3336 10.0143H25.0003C25.0003 9.92726 24.9652 9.84373 24.9027 9.78215C24.8402 9.72058 24.7554 9.68598 24.667 9.68598C25.0003 9.52181 25.3336 9.686 25.3336 10.0143Z" fill="#A6A7AA"/>
<path d="M24.8333 9.35742H20.5V9.57084H24.8333V9.35742Z" fill="#A6A7AA"/>
<path d="M20.1667 10.014H20C20 9.88338 20.0527 9.75809 20.1464 9.66572C20.2402 9.57336 20.3674 9.52148 20.5 9.52148L20.1667 10.014Z" fill="#A6A7AA"/>
<path d="M19.9996 10.0142H19.833V13.5931H19.9996V10.0142Z" fill="#A6A7AA"/>
<path d="M18.3326 19.5361H14.666V19.7495H18.3326V19.5361Z" fill="#A6A7AA"/>
<path d="M18.4997 19.7002H18.333V19.8644H18.4997V19.7002Z" fill="#A6A7AA"/>
<path d="M14.8327 19.7002H14.666V19.8644H14.8327V19.7002Z" fill="#A6A7AA"/>
<path d="M18.3326 17.0737H14.666V17.2871H18.3326V17.0737Z" fill="#A6A7AA"/>
<path d="M14.8327 17.0737H14.666V17.2379H14.8327V17.0737Z" fill="#A6A7AA"/>
<path d="M18.4997 17.0737H18.333V17.2379H18.4997V17.0737Z" fill="#A6A7AA"/>
<path d="M14.3337 17.5659H14.167V19.1912H14.3337V17.5659Z" fill="#A6A7AA"/>
<path d="M14.3337 19.0435H14.167V19.2569H14.3337V19.0435Z" fill="#A6A7AA"/>
<path d="M14.3337 17.5659H14.167V17.7793H14.3337V17.5659Z" fill="#A6A7AA"/>
<path d="M18.9997 17.5659H18.833V19.1912H18.9997V17.5659Z" fill="#A6A7AA"/>
<path d="M18.9997 17.5659H18.833V17.7793H18.9997V17.5659Z" fill="#A6A7AA"/>
<path d="M18.9997 19.0435H18.833V19.2569H18.9997V19.0435Z" fill="#A6A7AA"/>
<path d="M14.833 19.8645H14.333V19.5361H14.833V19.8645Z" fill="#A6A7AA"/>
<path d="M14.5 17.73H14.8333V18.0583H14.5V17.73Z" fill="#A6A7AA"/>
<path d="M18.499 19.8645V19.5361H18.999V19.8645H18.499Z" fill="#A6A7AA"/>
<path d="M3.16668 25.2822H3V25.824H3.16668V25.2822Z" fill="#A6A7AA"/>
<path d="M29.9996 25.2822H29.833V25.824H29.9996V25.2822Z" fill="#A6A7AA"/>
<path d="M18.3326 17.2378H14.666V17.4512H18.3326V17.2378Z" fill="#A6A7AA"/>
<path d="M14.8327 17.2378H14.666V17.402H14.8327V17.2378Z" fill="#A6A7AA"/>
<path d="M18.4997 17.2378H18.333V17.402H18.4997V17.2378Z" fill="#A6A7AA"/>
<path d="M18.8337 17.5659H18.667V19.1912H18.8337V17.5659Z" fill="#A6A7AA"/>
<path d="M18.8337 17.5659H18.667V17.7793H18.8337V17.5659Z" fill="#A6A7AA"/>
<path d="M18.8337 19.0435H18.667V19.2569H18.8337V19.0435Z" fill="#A6A7AA"/>
<path d="M14.4997 17.5659H14.333V19.1912H14.4997V17.5659Z" fill="#A6A7AA"/>
<path d="M14.4997 19.0435H14.333V19.2569H14.4997V19.0435Z" fill="#A6A7AA"/>
<path d="M14.4997 17.5659H14.333V17.7793H14.4997V17.5659Z" fill="#A6A7AA"/>
<path d="M18.3326 19.3721H14.666V19.5855H18.3326V19.3721Z" fill="#A6A7AA"/>
<path d="M18.4997 19.5361H18.333V19.7003H18.4997V19.5361Z" fill="#A6A7AA"/>
<path d="M14.8327 19.5361H14.666V19.7003H14.8327V19.5361Z" fill="#A6A7AA"/>
<path d="M18.8324 17.7302H18.499V17.4019H18.8324V17.7302Z" fill="#A6A7AA"/>
<path d="M14.5 17.73H14.8333V18.0583H14.5V17.73Z" fill="#A6A7AA"/>
<path d="M14.5 17.73H14.8333V18.0583H14.5V17.73Z" fill="#A6A7AA"/>
<path d="M14.833 19.8645H14.333V19.5361H14.833V19.8645Z" fill="#A6A7AA"/>
<path d="M18.499 19.8645V19.5361H18.999V19.8645H18.499Z" fill="#A6A7AA"/>
<path d="M30.8333 25.9389L30 25.4464V25.2822L31 25.7747L30.8333 25.9389Z" fill="#A6A7AA"/>
<path d="M29.1656 25.2822H28.999V25.824H29.1656V25.2822Z" fill="#A6A7AA"/>
<path fill-rule="evenodd" clip-rule="evenodd" d="M2 23V24H1H0V25V79V80H1H32H33V79V25V24H32H31H30V23V1V0H29H3H2V1V23ZM3 1V24V25H2H1V79H32V25H30H29V24V1H3Z" fill="#A6A7AA"/>
</svg>
