<svg width="98" height="337" viewBox="0 0 98 337" fill="none" xmlns="http://www.w3.org/2000/svg">
<path d="M95.9677 276.083H95.8857V237.62H95.9677C96.2414 237.62 96.5039 237.728 96.6975 237.922C96.891 238.116 96.9998 238.379 96.9998 238.653V275.05C96.9998 275.324 96.891 275.586 96.6975 275.78C96.5039 275.974 96.2414 276.083 95.9677 276.083ZM96.0496 237.784V275.919C96.264 275.895 96.4622 275.793 96.607 275.633C96.7519 275.473 96.8333 275.266 96.8359 275.05V238.653C96.8414 238.431 96.7637 238.216 96.6181 238.049C96.4725 237.882 96.2696 237.775 96.0496 237.751V237.784Z" fill="#88898D"/>
<path d="M95.9677 96.1503H95.8857V57.687H95.9677C96.2414 57.687 96.5039 57.7959 96.6975 57.9897C96.891 58.1835 96.9998 58.4463 96.9998 58.7204V95.0514C97.0064 95.192 96.9847 95.3324 96.936 95.4644C96.8873 95.5964 96.8125 95.7173 96.7163 95.8198C96.62 95.9223 96.5041 96.0044 96.3755 96.0612C96.2469 96.118 96.1082 96.1483 95.9677 96.1503ZM96.0496 57.851V95.9699C96.2654 95.9494 96.4657 95.8489 96.6112 95.688C96.7567 95.5272 96.8369 95.3176 96.8359 95.1006V58.7204C96.8333 58.5044 96.7519 58.2968 96.607 58.1367C96.4622 57.9766 96.264 57.875 96.0496 57.851Z" fill="#88898D"/>
<path d="M47.8365 336.121C45.0912 336.115 42.3513 335.879 39.6453 335.416C28.5463 333.468 18.4879 327.666 11.2373 319.03C3.9868 310.394 0.00800328 299.476 4.48925e-06 288.194V49.0321C-0.00386551 40.0867 2.49447 31.3191 7.21201 23.7223C11.9296 16.1256 18.6777 10.0035 26.692 6.0495C34.7064 2.09552 43.6665 0.467724 52.5574 1.35053C61.4483 2.23333 69.9146 5.59144 76.9971 11.0444C78.64 12.3152 80.1995 13.6903 81.6661 15.1614C86.1203 19.6013 89.6526 24.88 92.0595 30.6932C94.4663 36.5065 95.7 42.7392 95.6894 49.0321V288.194C95.6888 291.176 95.4146 294.152 94.8703 297.084C93.0971 306.565 88.4863 315.283 81.6497 322.081C80.1829 323.547 78.6234 324.916 76.9807 326.181C73.6891 328.734 70.0757 330.84 66.2339 332.447C60.4038 334.875 54.1511 336.124 47.8365 336.121ZM47.8365 1.28509C45.0912 1.28902 42.351 1.52496 39.6453 1.99039C28.5797 3.91216 18.5479 9.68632 11.321 18.2935C4.09408 26.9008 0.136684 37.7876 0.14744 49.0321V288.194C0.139259 291.165 0.413535 294.131 0.966558 297.051C2.76566 306.602 7.43247 315.377 14.3438 322.203C21.255 329.029 30.0818 333.581 39.6453 335.252C42.3515 335.712 45.0916 335.942 47.8365 335.941C58.3458 335.977 68.5692 332.515 76.8989 326.099C78.5321 324.835 80.0859 323.471 81.5514 322.015C88.3374 315.229 92.9073 306.541 94.6573 297.1C95.2023 294.179 95.4766 291.214 95.4765 288.243V49.0321C95.4784 42.762 94.2451 36.553 91.8472 30.7607C89.4493 24.9684 85.9339 19.7065 81.5023 15.2762C80.045 13.8115 78.4906 12.4471 76.8497 11.1921C68.5159 4.784 58.2953 1.323 47.7874 1.3507L47.8365 1.28509Z" fill="#88898D"/>
<path d="M48.1968 89.491C39.8625 89.4942 31.7144 87.0228 24.7831 82.3892C17.8518 77.7557 12.4487 71.1681 9.25702 63.4598C6.06538 55.7515 5.22861 47.2687 6.85256 39.0842C8.47652 30.8997 12.4882 23.3812 18.3803 17.4797C24.2724 11.5781 31.7802 7.55861 39.9541 5.9295C48.1281 4.30039 56.6009 5.13486 64.3011 8.32739C72.0013 11.5199 78.583 16.9271 83.2136 23.865C87.8442 30.8029 90.3158 38.9599 90.3158 47.3043C90.3028 58.4861 85.8616 69.2064 77.9661 77.1146C70.0705 85.0229 59.365 89.4736 48.1968 89.491ZM48.1968 5.29811C39.8988 5.29811 31.7872 7.76173 24.8877 12.3774C17.9882 16.9931 12.6107 23.5536 9.43518 31.2292C6.25969 38.9049 5.42884 47.3509 7.04769 55.4993C8.66655 63.6477 12.6624 71.1325 18.5299 77.0072C24.3975 82.8819 31.8732 86.8826 40.0117 88.5034C48.1502 90.1242 56.586 89.2924 64.2523 86.113C71.9187 82.9337 78.4712 77.5496 83.0813 70.6417C87.6914 63.7338 90.152 55.6124 90.152 47.3043C90.139 36.1676 85.7146 25.4907 77.8492 17.6158C69.9839 9.74096 59.32 5.31113 48.1968 5.29811Z" fill="#88898D"/>
<path d="M48.1965 330.079C39.581 330.079 31.1589 327.521 23.9954 322.729C16.8319 317.937 11.2486 311.125 7.95162 303.156C4.65461 295.187 3.79197 286.417 5.47277 277.957C7.15357 269.497 11.3023 261.726 17.3944 255.626C23.4865 249.527 31.2482 245.373 39.6982 243.69C48.1481 242.007 56.9067 242.871 64.8664 246.172C72.8261 249.473 79.6294 255.063 84.4159 262.235C89.2024 269.408 91.7572 277.84 91.7572 286.466C91.7442 298.029 87.1506 309.115 78.9842 317.291C70.8178 325.467 59.7455 330.066 48.1965 330.079ZM48.1965 243.016C39.6099 243 31.2115 245.534 24.0642 250.299C16.9168 255.063 11.3418 261.843 8.04461 269.781C4.74744 277.719 3.87635 286.458 5.54156 294.892C7.20678 303.326 11.3335 311.075 17.3994 317.16C23.4652 323.245 31.1977 327.391 39.6181 329.074C48.0385 330.758 56.7683 329.902 64.7028 326.616C72.6374 323.33 79.4199 317.761 84.192 310.614C88.9642 303.467 91.5114 295.063 91.5115 286.466C91.4985 274.96 86.9334 263.929 78.8154 255.785C70.6975 247.642 59.6878 243.051 48.1965 243.016Z" fill="#88898D"/>
<path d="M48.1974 62.7878C45.1387 62.7878 42.1487 61.8797 39.6055 60.1783C37.0623 58.4769 35.0801 56.0587 33.9096 53.2294C32.7391 50.4001 32.4329 47.2869 33.0296 44.2833C33.6263 41.2798 35.0992 38.5208 37.262 36.3554C39.4248 34.1899 42.1804 32.7153 45.1803 32.1178C48.1802 31.5204 51.2897 31.827 54.1156 32.9989C56.9414 34.1709 59.3567 36.1555 61.056 38.7017C62.7553 41.248 63.6623 44.2417 63.6623 47.3041C63.6623 51.4106 62.033 55.349 59.1328 58.2527C56.2325 61.1565 52.2989 62.7878 48.1974 62.7878ZM48.1974 31.9843C45.1711 31.9843 42.2128 32.8828 39.6965 34.5662C37.1803 36.2495 35.2191 38.6421 34.061 41.4414C32.9029 44.2408 32.5998 47.321 33.1902 50.2928C33.7806 53.2645 35.238 55.9942 37.3779 58.1367C39.5178 60.2792 42.2441 61.7383 45.2123 62.3294C48.1804 62.9205 51.257 62.6171 54.0529 61.4576C56.8488 60.2981 59.2385 58.3346 60.9198 55.8152C62.6011 53.2959 63.4985 50.334 63.4985 47.3041C63.4942 43.2423 61.8807 39.3482 59.0121 36.4762C56.1435 33.6041 52.2542 31.9887 48.1974 31.9843Z" fill="#88898D"/>
<path d="M52.8822 232.42H42.9381C42.2823 232.417 41.6536 232.158 41.1852 231.698C40.9028 231.411 40.6942 231.06 40.5772 230.674C40.4602 230.288 40.4384 229.88 40.5135 229.484C40.6096 228.997 40.8426 228.547 41.1852 228.188C41.6536 227.729 42.2823 227.47 42.9381 227.467H52.358C52.8544 227.377 53.3644 227.394 53.8534 227.519C54.3423 227.643 54.7989 227.872 55.1921 228.188C55.6504 228.657 55.907 229.287 55.907 229.943C55.907 230.599 55.6504 231.229 55.1921 231.698C54.8762 231.969 54.5085 232.173 54.1113 232.297C53.7142 232.421 53.296 232.463 52.8822 232.42ZM42.9381 227.614C42.6327 227.612 42.3301 227.672 42.0485 227.791C41.767 227.909 41.5123 228.083 41.2999 228.303C40.9752 228.632 40.7532 229.048 40.661 229.5C40.5925 229.868 40.6149 230.248 40.7262 230.605C40.8376 230.962 41.0345 231.287 41.2999 231.551C41.5123 231.77 41.767 231.945 42.0485 232.063C42.3301 232.181 42.6327 232.242 42.9381 232.24H52.358C52.8341 232.325 53.3229 232.307 53.7918 232.188C54.2607 232.07 54.6989 231.852 55.0774 231.551C55.3399 231.285 55.5337 230.96 55.6422 230.603C55.7507 230.245 55.7705 229.867 55.7 229.5C55.6209 229.046 55.4035 228.628 55.0774 228.303C54.6984 228.002 54.2601 227.786 53.7914 227.667C53.3227 227.548 52.8341 227.53 52.358 227.614H42.9381Z" fill="#88898D"/>
<path d="M48.1965 274.115C46.08 274.118 44.0101 273.493 42.2487 272.318C40.4874 271.143 39.1136 269.471 38.3014 267.514C37.4893 265.557 37.2751 263.403 37.686 261.325C38.0969 259.246 39.1145 257.336 40.6099 255.836C42.1054 254.337 44.0115 253.315 46.0871 252.9C48.1627 252.486 50.3144 252.697 52.2701 253.507C54.2258 254.317 55.8976 255.69 57.0738 257.452C58.25 259.214 58.8778 261.285 58.8778 263.404C58.8735 266.241 57.7473 268.96 55.7455 270.967C53.7438 272.974 51.0295 274.106 48.1965 274.115ZM48.1965 252.874C46.1117 252.871 44.0728 253.487 42.338 254.644C40.6032 255.802 39.2505 257.449 38.4512 259.377C37.6519 261.305 37.4419 263.427 37.8479 265.474C38.2538 267.521 39.2574 269.402 40.7316 270.878C42.2057 272.354 44.0842 273.359 46.1291 273.765C48.174 274.172 50.2933 273.961 52.2188 273.161C54.1443 272.361 55.7893 271.007 56.9455 269.27C58.1017 267.533 58.7172 265.491 58.714 263.404C58.7053 260.614 57.5945 257.941 55.6239 255.968C53.6534 253.995 50.9832 252.882 48.1965 252.874Z" fill="#88898D"/>
<path d="M48.1965 320.222C46.0793 320.225 44.0088 319.599 42.247 318.423C40.4853 317.248 39.1116 315.575 38.2999 313.617C37.4882 311.66 37.2749 309.505 37.6872 307.425C38.0994 305.346 39.1186 303.436 40.6157 301.937C42.1128 300.438 44.0204 299.418 46.0971 299.005C48.1738 298.593 50.3261 298.806 52.2815 299.619C54.2369 300.431 55.9075 301.807 57.0817 303.571C58.256 305.335 58.881 307.408 58.8778 309.527C58.8692 312.361 57.741 315.076 55.7398 317.08C53.7385 319.083 51.0267 320.213 48.1965 320.222ZM48.1965 298.981C46.1124 298.977 44.0742 299.593 42.3397 300.75C40.6053 301.907 39.2526 303.553 38.4528 305.48C37.653 307.407 37.4421 309.528 37.8467 311.575C38.2513 313.622 39.2532 315.503 40.7258 316.979C42.1983 318.456 44.0752 319.462 46.119 319.87C48.1628 320.278 50.2817 320.071 52.2075 319.273C54.1332 318.475 55.7793 317.123 56.9375 315.388C58.0957 313.654 58.714 311.614 58.714 309.527C58.7096 306.734 57.6007 304.057 55.6297 302.08C53.6587 300.104 50.9861 298.989 48.1965 298.981Z" fill="#88898D"/>
<path d="M71.2143 297.176C69.0985 297.176 67.0302 296.548 65.271 295.371C63.5118 294.194 62.1406 292.521 61.3309 290.564C60.5212 288.607 60.3094 286.454 60.7222 284.376C61.1349 282.298 62.1538 280.39 63.6499 278.892C65.146 277.394 67.0521 276.374 69.1273 275.961C71.2024 275.547 73.3534 275.76 75.3081 276.57C77.2629 277.381 78.9336 278.754 80.1091 280.515C81.2846 282.276 81.912 284.347 81.912 286.466C81.9076 289.305 80.7792 292.027 78.7739 294.034C76.7686 296.042 74.0502 297.172 71.2143 297.176ZM71.2143 275.853C69.1356 275.844 67.1006 276.451 65.3664 277.599C63.6322 278.746 62.2765 280.382 61.4706 282.301C60.6647 284.219 60.4446 286.334 60.8383 288.378C61.232 290.421 62.2216 292.302 63.6824 293.783C65.1431 295.264 67.0093 296.278 69.0454 296.698C71.0815 297.117 73.1961 296.923 75.1221 296.14C77.0482 295.357 78.6993 294.02 79.8669 292.298C81.0346 290.577 81.6664 288.547 81.6826 286.466C81.6784 283.683 80.5756 281.014 78.6148 279.042C76.6539 277.069 73.9938 275.953 71.2143 275.935V275.853Z" fill="#88898D"/>
<path d="M25.1629 297.176C23.045 297.186 20.9719 296.566 19.2062 295.395C17.4405 294.224 16.0617 292.555 15.2445 290.598C14.4273 288.642 14.2084 286.487 14.6156 284.406C15.0228 282.325 16.0378 280.412 17.5319 278.909C19.026 277.407 20.9321 276.382 23.0085 275.964C25.085 275.547 27.2385 275.756 29.1961 276.565C31.1537 277.375 32.8274 278.747 34.0051 280.51C35.1827 282.272 35.8114 284.345 35.8114 286.465C35.8114 289.298 34.6911 292.014 32.6955 294.022C30.6999 296.029 27.9915 297.163 25.1629 297.176ZM25.1629 275.853C23.0827 275.853 21.0493 276.471 19.3197 277.628C17.5901 278.785 16.242 280.43 15.446 282.354C14.6499 284.278 14.4416 286.395 14.8475 288.438C15.2533 290.48 16.255 292.357 17.7259 293.829C19.1968 295.302 21.0708 296.305 23.111 296.711C25.1512 297.118 27.2659 296.909 29.1877 296.112C31.1096 295.315 32.7521 293.965 33.9078 292.234C35.0635 290.502 35.6803 288.466 35.6803 286.383C35.6545 283.606 34.5355 280.951 32.5663 278.995C30.5972 277.039 27.9368 275.939 25.1629 275.935V275.853Z" fill="#88898D"/>
<path d="M95.9677 120.655H95.8857V101.743H95.9677C96.2429 101.747 96.5054 101.86 96.6985 102.056C96.8916 102.253 96.9998 102.517 96.9998 102.793V119.654C96.9912 119.923 96.8788 120.177 96.6861 120.364C96.4935 120.551 96.2358 120.655 95.9677 120.655ZM96.0496 101.924V120.491C96.264 120.467 96.4622 120.365 96.607 120.205C96.7519 120.045 96.8333 119.838 96.8359 119.622V102.793C96.8369 102.576 96.7567 102.366 96.6112 102.205C96.4657 102.045 96.2654 101.944 96.0496 101.924Z" fill="#88898D"/>
<path d="M77.7177 211.622H18.5282C17.4411 211.616 16.3623 211.433 15.3336 211.081C14.8247 210.897 14.3316 210.672 13.8592 210.408C13.6054 210.269 13.3593 210.115 13.122 209.949C12.8656 209.778 12.6195 209.591 12.3848 209.391C12.1493 209.202 11.925 209 11.7131 208.784C11.4184 208.493 11.1447 208.18 10.894 207.85C10.5873 207.457 10.3133 207.04 10.0749 206.603C9.08392 204.474 8.67683 202.119 8.89537 199.78V133.006C8.82497 131.683 8.94635 130.357 9.25576 129.069C9.42036 128.503 9.63985 127.953 9.91107 127.429C10.0421 127.15 10.2059 126.871 10.3698 126.593C10.5336 126.314 10.8449 125.904 11.107 125.576C11.3691 125.248 11.5001 125.133 11.7131 124.92C11.925 124.704 12.1493 124.502 12.3848 124.313C12.6141 124.116 12.8763 123.919 13.122 123.739C13.3677 123.558 14.0558 123.197 14.2688 123.066C14.5167 122.925 14.7807 122.815 15.0551 122.738L15.3336 122.623C16.3623 122.271 17.4411 122.088 18.5282 122.082H77.7177C78.1618 122.082 78.6053 122.115 79.0447 122.18C80.1064 122.324 81.1364 122.646 82.0918 123.132L82.7143 123.476C83.0503 123.68 83.3732 123.904 83.6809 124.149C83.9757 124.395 84.2706 124.641 84.5491 124.92C84.8276 125.198 84.9587 125.346 85.1389 125.576C85.4097 125.896 85.6561 126.236 85.8761 126.593C86.0563 126.871 86.2038 127.15 86.3512 127.429C86.6156 127.956 86.8348 128.505 87.0065 129.069C87.3078 130.359 87.4291 131.683 87.3669 133.006V199.78C87.5692 202.118 87.1628 204.469 86.1874 206.603C85.9392 207.034 85.6657 207.451 85.3682 207.85C85.1061 208.178 84.8276 208.489 84.5491 208.784C84.2757 209.054 83.9857 209.306 83.6809 209.539C83.3734 209.789 83.0505 210.019 82.7143 210.228L82.0918 210.572C81.1364 211.058 80.1064 211.38 79.0447 211.524C78.6053 211.589 78.1618 211.622 77.7177 211.622ZM18.5282 122.23C17.4633 122.229 16.4057 122.406 15.3991 122.755L15.1043 122.853C14.8422 122.935 14.5896 123.045 14.3507 123.181C14.1377 123.312 13.466 123.689 13.2203 123.853C12.9746 124.018 12.7288 124.214 12.4831 124.411C12.2374 124.608 12.0408 124.788 11.8278 125.002C11.6148 125.215 11.4182 125.428 11.238 125.658C10.9743 125.968 10.7334 126.297 10.5172 126.642C10.3534 126.921 10.1896 127.2 10.0585 127.478C9.79074 128.002 9.57668 128.552 9.41959 129.119C9.11838 130.391 8.99705 131.7 9.05918 133.006V199.78C8.84472 202.09 9.24608 204.416 10.2223 206.521C10.4589 206.95 10.7272 207.362 11.0251 207.751C11.275 208.072 11.5431 208.379 11.8278 208.67C12.0408 208.883 12.2701 209.08 12.4831 209.26C12.6961 209.441 12.9746 209.654 13.2203 209.818L13.9411 210.261C14.4067 210.522 14.8946 210.742 15.3991 210.917C16.4057 211.265 17.4633 211.442 18.5282 211.442H77.7177C78.1503 211.439 78.5824 211.412 79.0119 211.36C80.0559 211.216 81.069 210.9 82.0099 210.425C82.2228 210.31 82.4194 210.211 82.616 210.08C82.9521 209.877 83.2749 209.652 83.5826 209.408C83.8761 209.179 84.1551 208.933 84.4181 208.67C84.7073 208.383 84.9756 208.076 85.2208 207.751C85.5237 207.362 85.7975 206.951 86.0399 206.521C87.0051 204.413 87.4059 202.09 87.2031 199.78V133.006C87.2652 131.7 87.1439 130.391 86.8427 129.119C86.6783 128.554 86.4645 128.005 86.2037 127.478C86.0563 127.2 85.9089 126.921 85.745 126.642C85.5178 126.3 85.2717 125.972 85.0078 125.658C84.8246 125.427 84.6276 125.208 84.4181 125.002C84.1551 124.738 83.8761 124.492 83.5826 124.264C83.2749 124.019 82.9521 123.795 82.616 123.591C82.4194 123.46 82.2228 123.361 82.0099 123.247C81.069 122.771 80.0559 122.455 79.0119 122.312C78.5824 122.259 78.1503 122.232 77.7177 122.23H18.5282Z" fill="#88898D"/>
<path d="M75.1297 117.326C73.0333 117.326 70.984 116.703 69.241 115.537C67.4979 114.371 66.1394 112.714 65.3371 110.775C64.5349 108.835 64.325 106.702 64.7339 104.643C65.1429 102.584 66.1524 100.694 67.6348 99.2094C69.1171 97.7252 71.0058 96.7145 73.0618 96.305C75.1179 95.8955 77.2491 96.1057 79.1859 96.9089C81.1227 97.7121 82.7781 99.0723 83.9427 100.817C85.1074 102.563 85.7291 104.614 85.7291 106.713C85.7291 109.528 84.6124 112.227 82.6246 114.217C80.6368 116.208 77.9408 117.326 75.1297 117.326ZM75.1297 96.2815C73.069 96.2815 71.0545 96.8933 69.3411 98.0396C67.6277 99.1859 66.2922 100.815 65.5036 102.721C64.715 104.627 64.5087 106.725 64.9107 108.749C65.3127 110.772 66.3051 112.631 67.7622 114.09C69.2194 115.549 71.0759 116.542 73.097 116.945C75.1181 117.347 77.2131 117.141 79.1169 116.351C81.0208 115.562 82.648 114.224 83.7929 112.509C84.9378 110.793 85.5489 108.777 85.5489 106.713C85.5489 105.343 85.2794 103.987 84.7557 102.721C84.2321 101.456 83.4647 100.306 82.4971 99.3369C81.5296 98.3683 80.381 97.5998 79.1169 97.0756C77.8528 96.5514 76.4979 96.2815 75.1297 96.2815Z" fill="#88898D"/>
<path d="M21.1822 117.326C19.0851 117.329 17.0342 116.709 15.289 115.545C13.5438 114.381 12.1827 112.725 11.3779 110.786C10.5732 108.847 10.361 106.713 10.7681 104.653C11.1752 102.593 12.1834 100.701 13.6651 99.2151C15.1468 97.7293 17.0354 96.717 19.0919 96.3062C21.1485 95.8954 23.2805 96.1046 25.2182 96.9073C27.156 97.71 28.8123 99.0702 29.9777 100.816C31.1431 102.561 31.7652 104.614 31.7652 106.713C31.7652 109.525 30.6507 112.222 28.6665 114.212C26.6823 116.201 23.9905 117.321 21.1822 117.326ZM21.1822 96.2815C19.1215 96.2815 17.107 96.8933 15.3936 98.0396C13.6802 99.1858 12.3447 100.815 11.5561 102.721C10.7675 104.627 10.5612 106.725 10.9632 108.748C11.3652 110.772 12.3576 112.631 13.8147 114.09C15.2719 115.549 17.1284 116.542 19.1495 116.945C21.1706 117.347 23.2656 117.141 25.1694 116.351C27.0733 115.562 28.7006 114.224 29.8454 112.509C30.9903 110.793 31.6014 108.777 31.6014 106.713C31.597 103.948 30.4979 101.297 28.5449 99.3417C26.5919 97.3863 23.9442 96.2858 21.1822 96.2815Z" fill="#88898D"/>
<path d="M25.4743 107.222L25.4907 106.205H18.561L20.1828 104.581L19.5931 103.958L16.8408 106.713L19.5931 109.469L20.2156 108.829L18.561 107.222H25.4743Z" fill="#88898D"/>
<path d="M48.1147 117.424C45.9989 117.424 43.9306 116.796 42.1714 115.619C40.4121 114.442 39.041 112.769 38.2313 110.812C37.4216 108.855 37.2098 106.701 37.6225 104.624C38.0353 102.546 39.0542 100.637 40.5503 99.1395C42.0464 97.6416 43.9525 96.6215 46.0277 96.2082C48.1028 95.795 50.2538 96.0071 52.2085 96.8178C54.1633 97.6284 55.834 99.0012 57.0095 100.763C58.185 102.524 58.8124 104.595 58.8124 106.713C58.808 109.552 57.6796 112.274 55.6743 114.282C53.669 116.29 50.9506 117.419 48.1147 117.424ZM48.1147 96.1829C46.0352 96.1861 44.0034 96.8065 42.276 97.9655C40.5485 99.1246 39.203 100.77 38.4095 102.695C37.616 104.619 37.41 106.736 37.8177 108.777C38.2253 110.819 39.2283 112.694 40.6999 114.165C42.1714 115.636 44.0455 116.637 46.0852 117.042C48.125 117.447 50.2388 117.238 52.1597 116.44C54.0806 115.643 55.7222 114.293 56.8772 112.562C58.0321 110.83 58.6486 108.795 58.6486 106.713C58.6442 103.919 57.5325 101.24 55.5575 99.2661C53.5825 97.2918 50.9056 96.1829 48.1147 96.1829Z" fill="#88898D"/>
<path d="M48.115 117.326C46.0186 117.326 43.9694 116.703 42.2263 115.537C40.4833 114.371 39.1247 112.714 38.3225 110.775C37.5202 108.835 37.3103 106.702 37.7193 104.643C38.1283 102.584 39.1378 100.694 40.6201 99.2094C42.1025 97.7252 43.9911 96.7145 46.0472 96.305C48.1033 95.8955 50.2344 96.1057 52.1712 96.9089C54.108 97.7121 55.7634 99.0723 56.9281 100.817C58.0928 102.563 58.7144 104.614 58.7144 106.713C58.7144 109.528 57.5977 112.227 55.6099 114.217C53.6221 116.208 50.9261 117.326 48.115 117.326ZM48.115 96.2815C46.055 96.2848 44.0422 96.8993 42.3309 98.0476C40.6196 99.1958 39.2867 100.826 38.5006 102.733C37.7145 104.639 37.5106 106.736 37.9144 108.759C38.3183 110.781 39.3119 112.638 40.7697 114.096C42.2275 115.553 44.0841 116.545 46.1047 116.946C48.1254 117.347 50.2195 117.14 52.1224 116.35C54.0253 115.56 55.6516 114.222 56.7958 112.507C57.9399 110.792 58.5506 108.776 58.5506 106.713C58.5506 105.342 58.2805 103.984 57.7559 102.717C57.2313 101.451 56.4623 100.3 55.4931 99.3311C54.5239 98.3622 53.3733 97.5942 52.1073 97.0709C50.8413 96.5476 49.4847 96.2794 48.115 96.2815Z" fill="#88898D"/>
<path d="M52.0634 106.615C52.0995 106.58 52.1283 106.538 52.1479 106.491C52.1675 106.445 52.1776 106.395 52.1776 106.344C52.1776 106.294 52.1675 106.244 52.1479 106.197C52.1283 106.151 52.0995 106.109 52.0634 106.074L48.4429 102.908C48.3644 102.836 48.2622 102.797 48.1562 102.797C48.0501 102.797 47.9479 102.836 47.8695 102.908L44.249 106.188C44.2102 106.224 44.1793 106.267 44.1581 106.315C44.1369 106.363 44.126 106.415 44.126 106.467C44.126 106.52 44.1369 106.572 44.1581 106.62C44.1793 106.668 44.2102 106.711 44.249 106.746V106.828C44.322 106.897 44.4187 106.936 44.5193 106.936C44.6198 106.936 44.7166 106.897 44.7896 106.828L45.0681 106.582V110.141C45.0681 110.193 45.0783 110.244 45.098 110.292C45.1178 110.34 45.1467 110.383 45.1832 110.42C45.2198 110.456 45.2631 110.485 45.3108 110.505C45.3585 110.525 45.4096 110.535 45.4613 110.535H46.8702C46.9218 110.535 46.9729 110.525 47.0206 110.505C47.0683 110.485 47.1117 110.456 47.1482 110.42C47.1847 110.383 47.2136 110.34 47.2334 110.292C47.2532 110.244 47.2633 110.193 47.2633 110.141V107.648H49.0654V110.141C49.0632 110.191 49.0708 110.24 49.0877 110.287C49.1046 110.334 49.1306 110.376 49.164 110.413C49.1975 110.45 49.2379 110.479 49.2828 110.5C49.3277 110.521 49.3763 110.533 49.4258 110.535H50.933C50.9846 110.535 51.0357 110.525 51.0834 110.505C51.1311 110.485 51.1745 110.456 51.211 110.42C51.2475 110.383 51.2765 110.34 51.2962 110.292C51.316 110.244 51.3262 110.193 51.3262 110.141V106.631L51.49 106.779C51.5883 106.779 51.7685 106.779 51.9159 106.631L52.0634 106.615Z" fill="#88898D"/>
<path d="M21.1822 237.587C19.0851 237.59 17.0342 236.97 15.289 235.806C13.5438 234.642 12.1827 232.986 11.3779 231.047C10.5732 229.108 10.361 226.974 10.7681 224.914C11.1752 222.855 12.1834 220.962 13.6651 219.476C15.1468 217.991 17.0354 216.978 19.0919 216.567C21.1485 216.157 23.2805 216.366 25.2182 217.169C27.156 217.971 28.8123 219.331 29.9777 221.077C31.1431 222.823 31.7652 224.875 31.7652 226.975C31.7652 229.786 30.6507 232.483 28.6665 234.473C26.6823 236.462 23.9905 237.582 21.1822 237.587ZM21.1822 216.543C19.1168 216.539 17.097 217.15 15.3783 218.297C13.6597 219.444 12.3196 221.075 11.5277 222.985C10.7359 224.895 10.5278 226.997 10.93 229.025C11.3321 231.054 12.3263 232.917 13.7868 234.379C15.2472 235.841 17.1081 236.837 19.134 237.239C21.1598 237.642 23.2594 237.434 25.1669 236.641C27.0744 235.848 28.7041 234.506 29.8495 232.785C30.9949 231.065 31.6046 229.042 31.6014 226.975C31.597 224.209 30.4979 221.558 28.5449 219.603C26.5919 217.647 23.9442 216.547 21.1822 216.543Z" fill="#88898D"/>
<path d="M75.1297 237.587C73.0333 237.587 70.984 236.964 69.241 235.798C67.4979 234.632 66.1394 232.975 65.3371 231.036C64.5349 229.097 64.325 226.963 64.7339 224.904C65.1429 222.846 66.1524 220.955 67.6348 219.471C69.1171 217.986 71.0058 216.976 73.0618 216.566C75.1179 216.157 77.2491 216.367 79.1859 217.17C81.1227 217.973 82.7781 219.334 83.9427 221.079C85.1074 222.824 85.7291 224.876 85.7291 226.975C85.7291 229.789 84.6124 232.488 82.6246 234.479C80.6368 236.469 77.9408 237.587 75.1297 237.587ZM75.1297 216.543C73.0643 216.54 71.0445 217.15 69.3258 218.297C67.6072 219.444 66.2671 221.075 65.4752 222.985C64.6834 224.895 64.4753 226.997 64.8774 229.025C65.2796 231.054 66.2738 232.917 67.7342 234.379C69.1947 235.841 71.0556 236.837 73.0814 237.239C75.1073 237.642 77.2069 237.434 79.1144 236.641C81.0219 235.848 82.6516 234.506 83.797 232.785C84.9424 231.065 85.5521 229.042 85.5489 226.975C85.5489 224.208 84.4511 221.554 82.4971 219.598C80.5432 217.642 77.893 216.543 75.1297 216.543Z" fill="#88898D"/>
<path d="M21.1821 207.915C19.4447 207.918 17.7454 207.406 16.2992 206.442C14.853 205.478 13.725 204.106 13.0579 202.499C12.3908 200.893 12.2145 199.125 12.5515 197.419C12.8885 195.712 13.7235 194.144 14.9509 192.913C16.1782 191.682 17.7428 190.843 19.4466 190.502C21.1504 190.162 22.9168 190.335 24.5223 191C26.1277 191.665 27.5001 192.791 28.4657 194.238C29.4313 195.684 29.9467 197.384 29.9467 199.124C29.9467 201.452 29.0238 203.686 27.3806 205.334C25.7374 206.983 23.5081 207.911 21.1821 207.915ZM21.1821 190.512C19.4764 190.509 17.8081 191.013 16.3885 191.96C14.9689 192.906 13.8619 194.254 13.2077 195.831C12.5534 197.408 12.3814 199.144 12.7134 200.819C13.0454 202.494 13.8664 204.033 15.0725 205.241C16.2786 206.448 17.8155 207.27 19.4886 207.603C21.1617 207.935 22.8957 207.763 24.4709 207.108C26.0462 206.453 27.3918 205.344 28.3374 203.923C29.283 202.502 29.7861 200.831 29.7829 199.124C29.7785 196.841 28.871 194.653 27.259 193.039C25.6469 191.425 23.4618 190.517 21.1821 190.512Z" fill="#88898D"/>
<path d="M17.7914 201.141C17.7882 201.007 17.8252 200.874 17.8977 200.761C17.9703 200.648 18.075 200.56 18.1984 200.507C18.3218 200.454 18.4581 200.439 18.5899 200.464C18.7217 200.49 18.8429 200.554 18.9378 200.649C19.0327 200.744 19.097 200.866 19.1224 200.998C19.1478 201.13 19.1331 201.266 19.0803 201.39C19.0274 201.513 18.9388 201.618 18.8259 201.691C18.713 201.763 18.5809 201.8 18.4467 201.797M19.79 201.469V200.797H24.459V201.469H19.79ZM17.7914 199.123C17.7763 199.028 17.7821 198.929 17.8085 198.836C17.8349 198.742 17.8812 198.656 17.9443 198.582C18.0074 198.508 18.0856 198.449 18.1738 198.408C18.2619 198.367 18.3578 198.346 18.4549 198.346C18.5519 198.346 18.6478 198.367 18.736 198.408C18.8241 198.449 18.9024 198.508 18.9655 198.582C19.0285 198.656 19.0748 198.742 19.1012 198.836C19.1276 198.929 19.1335 199.028 19.1184 199.123C19.1335 199.219 19.1276 199.318 19.1012 199.411C19.0748 199.505 19.0285 199.591 18.9655 199.665C18.9024 199.739 18.8241 199.798 18.736 199.839C18.6478 199.88 18.5519 199.901 18.4549 199.901C18.3578 199.901 18.2619 199.88 18.1738 199.839C18.0856 199.798 18.0074 199.739 17.9443 199.665C17.8812 199.591 17.8349 199.505 17.8085 199.411C17.7821 199.318 17.7763 199.219 17.7914 199.123ZM19.79 199.468V198.795H24.459V199.468H19.79ZM17.7914 197.122C17.7763 197.026 17.7821 196.928 17.8085 196.835C17.8349 196.741 17.8812 196.655 17.9443 196.581C18.0074 196.507 18.0856 196.448 18.1738 196.407C18.2619 196.366 18.3578 196.345 18.4549 196.345C18.5519 196.345 18.6478 196.366 18.736 196.407C18.8241 196.448 18.9024 196.507 18.9655 196.581C19.0285 196.655 19.0748 196.741 19.1012 196.835C19.1276 196.928 19.1335 197.026 19.1184 197.122C19.1335 197.218 19.1276 197.317 19.1012 197.41C19.0748 197.504 19.0285 197.59 18.9655 197.664C18.9024 197.738 18.8241 197.797 18.736 197.838C18.6478 197.879 18.5519 197.9 18.4549 197.9C18.3578 197.9 18.2619 197.879 18.1738 197.838C18.0856 197.797 18.0074 197.738 17.9443 197.664C17.8812 197.59 17.8349 197.504 17.8085 197.41C17.7821 197.317 17.7763 197.218 17.7914 197.122ZM19.79 197.45V196.745H24.459V197.401L19.79 197.45Z" fill="#88898D"/>
<path d="M75.1296 207.915C73.3929 207.915 71.6952 207.4 70.2511 206.434C68.8071 205.468 67.6816 204.095 67.017 202.488C66.3524 200.882 66.1785 199.114 66.5174 197.408C66.8562 195.703 67.6925 194.137 68.9205 192.907C70.1486 191.678 71.7132 190.84 73.4165 190.501C75.1198 190.162 76.8854 190.336 78.4899 191.001C80.0944 191.667 81.4658 192.794 82.4307 194.239C83.3955 195.685 83.9105 197.385 83.9105 199.124C83.9105 201.455 82.9854 203.692 81.3386 205.34C79.6919 206.989 77.4584 207.915 75.1296 207.915ZM75.1296 190.512C73.4246 190.512 71.7579 191.019 70.3405 191.968C68.923 192.916 67.8186 194.265 67.1668 195.842C66.5151 197.42 66.3454 199.155 66.6792 200.829C67.0131 202.503 67.8354 204.041 69.0422 205.246C70.2489 206.452 71.7859 207.273 73.4585 207.604C75.1312 207.935 76.8643 207.762 78.4386 207.106C80.0129 206.451 81.3576 205.342 82.3024 203.921C83.2473 202.5 83.7499 200.831 83.7467 199.124C83.7424 196.838 82.8326 194.648 81.217 193.034C79.6015 191.419 77.4121 190.512 75.1296 190.512Z" fill="#88898D"/>
<path d="M78.4064 200.961H73.4917L71.5586 199.124L73.4917 197.287H78.4064V200.961ZM73.6228 200.485H77.9149V197.779H73.4917L72.0664 199.124L73.6228 200.485Z" fill="#88898D"/>
<path d="M74.5927 198.159L74.3379 198.414L76.1566 200.235L76.4114 199.98L74.5927 198.159Z" fill="#88898D"/>
<path d="M76.1566 198.147L74.3379 199.968L74.5927 200.223L76.4115 198.402L76.1566 198.147Z" fill="#88898D"/>
<path d="M48.1149 207.915C46.3782 207.915 44.6805 207.4 43.2365 206.434C41.7925 205.468 40.667 204.095 40.0024 202.488C39.3378 200.882 39.1639 199.114 39.5027 197.408C39.8415 195.703 40.6778 194.137 41.9059 192.907C43.1339 191.678 44.6985 190.84 46.4019 190.501C48.1052 190.162 49.8708 190.336 51.4753 191.001C53.0798 191.667 54.4512 192.794 55.416 194.239C56.3809 195.685 56.8959 197.385 56.8959 199.124C56.8916 201.454 55.965 203.688 54.3192 205.335C52.6734 206.983 50.4425 207.911 48.1149 207.915ZM48.1149 190.512C46.4099 190.512 44.7433 191.019 43.3258 191.968C41.9084 192.916 40.8039 194.265 40.1522 195.842C39.5005 197.42 39.3308 199.155 39.6646 200.829C39.9984 202.503 40.8208 204.041 42.0275 205.246C43.2343 206.452 44.7713 207.273 46.4439 207.604C48.1165 207.935 49.8496 207.762 51.4239 207.106C52.9982 206.451 54.3429 205.342 55.2878 203.921C56.2327 202.5 56.7353 200.831 56.7321 199.124C56.7277 196.838 55.8179 194.648 54.2024 193.034C52.5868 191.419 50.3975 190.512 48.1149 190.512Z" fill="#88898D"/>
<path d="M50.1137 199.107C50.1163 199.564 50.0724 200.02 49.9826 200.469C49.9023 200.823 49.7639 201.161 49.5731 201.469C49.4162 201.728 49.1964 201.942 48.9342 202.092C48.6701 202.243 48.3695 202.317 48.0659 202.306C47.7734 202.311 47.4849 202.237 47.2304 202.092C46.9829 201.949 46.7746 201.746 46.6243 201.502C46.4443 201.209 46.3168 200.887 46.2475 200.551C46.062 199.653 46.062 198.726 46.2475 197.828C46.3124 197.462 46.4458 197.111 46.6407 196.795C46.797 196.531 47.0167 196.311 47.2796 196.155C47.5601 196.019 47.8689 195.951 48.1806 195.958C49.4693 195.958 50.1137 197.008 50.1137 199.107ZM49.3929 199.107C49.3929 197.352 48.9833 196.483 48.1478 196.483C47.3123 196.483 46.8372 197.369 46.8372 199.156C46.8372 200.944 47.2632 201.633 48.1315 201.633C48.9997 201.633 49.3929 200.862 49.3929 199.173V199.107Z" fill="#88898D"/>
<path d="M21.1821 186.297C19.4447 186.3 17.7454 185.787 16.2992 184.823C14.853 183.859 13.725 182.487 13.0579 180.881C12.3908 179.275 12.2145 177.507 12.5515 175.8C12.8885 174.094 13.7235 172.526 14.9509 171.295C16.1782 170.064 17.7428 169.225 19.4466 168.884C21.1504 168.543 22.9168 168.717 24.5223 169.382C26.1277 170.046 27.5001 171.173 28.4657 172.619C29.4313 174.066 29.9467 175.766 29.9467 177.505C29.9467 179.834 29.0238 182.068 27.3806 183.716C25.7374 185.365 23.5081 186.293 21.1821 186.297ZM21.1821 168.894C19.4764 168.891 17.8081 169.395 16.3885 170.341C14.9689 171.288 13.8619 172.636 13.2077 174.213C12.5534 175.79 12.3814 177.526 12.7134 179.201C13.0454 180.876 13.8664 182.415 15.0725 183.622C16.2786 184.83 17.8155 185.652 19.4886 185.984C21.1617 186.317 22.8957 186.145 24.4709 185.49C26.0462 184.835 27.3918 183.726 28.3374 182.305C29.283 180.884 29.7861 179.213 29.7829 177.505C29.785 176.372 29.5642 175.25 29.1332 174.203C28.7021 173.155 28.0692 172.203 27.2705 171.4C26.4719 170.597 25.5231 169.96 24.4785 169.524C23.4338 169.089 22.3137 168.864 21.1821 168.861V168.894Z" fill="#88898D"/>
<path d="M23.1322 174.848L22.7882 175.455L22.3622 176.275C22.2148 176.57 22.0673 176.898 21.9035 177.259C21.7397 177.62 21.6086 177.964 21.4776 178.325C21.3465 178.686 21.2318 179.08 21.1335 179.457C21.0257 179.827 20.949 180.206 20.9042 180.589H20.1506C20.2028 180.206 20.2849 179.827 20.3963 179.457C20.4946 179.08 20.6257 178.703 20.7567 178.342C20.8878 177.981 21.0353 177.62 21.1827 177.276L21.625 176.341L22.0182 175.586L22.2967 175.078H19.2168V174.438H23.1322V174.848Z" fill="#88898D"/>
<path d="M75.1296 186.297C73.3929 186.297 71.6952 185.782 70.2511 184.815C68.8071 183.849 67.6816 182.476 67.017 180.87C66.3524 179.263 66.1785 177.496 66.5174 175.79C66.8562 174.085 67.6925 172.518 68.9205 171.289C70.1486 170.059 71.7132 169.222 73.4165 168.883C75.1198 168.544 76.8854 168.718 78.4899 169.383C80.0944 170.049 81.4658 171.175 82.4307 172.621C83.3955 174.067 83.9105 175.767 83.9105 177.506C83.9105 179.837 82.9854 182.073 81.3386 183.722C79.6919 185.371 77.4584 186.297 75.1296 186.297ZM75.1296 168.861C73.4246 168.862 71.7579 169.368 70.3405 170.317C68.923 171.265 67.8186 172.614 67.1668 174.191C66.5151 175.769 66.3454 177.504 66.6792 179.178C67.0131 180.852 67.8354 182.39 69.0422 183.596C70.2489 184.801 71.7859 185.622 73.4585 185.953C75.1312 186.284 76.8643 186.111 78.4386 185.455C80.0129 184.8 81.3576 183.691 82.3024 182.27C83.2473 180.849 83.7499 179.18 83.7467 177.473C83.7424 175.187 82.8326 172.997 81.217 171.383C79.6015 169.768 77.4121 168.861 75.1296 168.861Z" fill="#88898D"/>
<path d="M77.0788 177.144C77.0803 177.646 77.0254 178.147 76.915 178.637C76.8222 179.036 76.6555 179.415 76.4235 179.752C76.2241 180.049 75.9539 180.292 75.6372 180.458C75.3094 180.612 74.951 180.691 74.5887 180.687C74.2221 180.699 73.8576 180.626 73.5239 180.474V179.802C73.8502 179.998 74.2244 180.1 74.6051 180.097C74.862 180.099 75.1154 180.037 75.3423 179.916C75.5631 179.797 75.7537 179.629 75.8993 179.424C76.0586 179.172 76.1749 178.895 76.2433 178.604C76.3281 178.244 76.3666 177.875 76.358 177.505C76.2411 177.763 76.048 177.978 75.8047 178.122C75.5615 178.266 75.2799 178.331 74.9983 178.309C74.7499 178.315 74.5034 178.265 74.2774 178.161C74.0561 178.081 73.8589 177.945 73.7041 177.768C73.5413 177.591 73.4134 177.385 73.3273 177.161C73.1344 176.631 73.1344 176.05 73.3273 175.521C73.4244 175.284 73.5631 175.068 73.7368 174.881C73.9154 174.7 74.1267 174.556 74.3593 174.454C74.6149 174.354 74.8875 174.304 75.1621 174.307C75.445 174.306 75.7246 174.368 75.9812 174.487C76.2149 174.622 76.4161 174.807 76.571 175.028C76.7481 175.299 76.8757 175.599 76.9478 175.914C77.0397 176.318 77.0837 176.731 77.0788 177.144ZM76.3252 176.505C76.3271 176.288 76.2939 176.072 76.2269 175.865C76.1731 175.685 76.084 175.518 75.9648 175.373C75.8679 175.234 75.7385 175.122 75.588 175.045C75.437 174.964 75.2676 174.925 75.0965 174.93C74.9331 174.93 74.7713 174.963 74.6215 175.028C74.4794 175.097 74.3515 175.191 74.2447 175.307C74.1376 175.439 74.0544 175.589 73.9989 175.75C73.9318 175.923 73.8984 176.106 73.9006 176.291C73.9014 176.491 73.929 176.69 73.9826 176.882C74.0402 177.04 74.1294 177.185 74.2447 177.308C74.3511 177.432 74.486 177.528 74.6378 177.587C74.7982 177.656 74.9714 177.689 75.1457 177.686C75.3037 177.684 75.4598 177.651 75.6044 177.587C75.7394 177.521 75.866 177.438 75.9812 177.341C76.0817 177.229 76.1646 177.101 76.2269 176.964C76.2939 176.82 76.3275 176.663 76.3252 176.505Z" fill="#88898D"/>
<path d="M48.1149 186.297C46.3782 186.297 44.6805 185.782 43.2365 184.815C41.7925 183.849 40.667 182.476 40.0024 180.87C39.3378 179.263 39.1639 177.496 39.5027 175.79C39.8415 174.085 40.6778 172.518 41.9059 171.289C43.1339 170.059 44.6985 169.222 46.4019 168.883C48.1052 168.544 49.8708 168.718 51.4753 169.383C53.0798 170.049 54.4512 171.175 55.416 172.621C56.3809 174.067 56.8959 175.767 56.8959 177.506C56.8916 179.836 55.965 182.07 54.3192 183.717C52.6734 185.365 50.4425 186.293 48.1149 186.297ZM48.1149 168.894C46.4099 168.894 44.7433 169.401 43.3258 170.349C41.9084 171.298 40.8039 172.647 40.1522 174.224C39.5005 175.802 39.3308 177.537 39.6646 179.211C39.9984 180.885 40.8208 182.422 42.0275 183.628C43.2343 184.834 44.7713 185.655 46.4439 185.986C48.1165 186.317 49.8496 186.144 51.4239 185.488C52.9982 184.833 54.3429 183.724 55.2878 182.303C56.2327 180.882 56.7353 179.213 56.7321 177.506C56.7342 176.371 56.5129 175.247 56.0808 174.199C55.6488 173.15 55.0144 172.197 54.214 171.394C53.4136 170.591 52.4629 169.954 51.4164 169.52C50.3698 169.085 49.2479 168.861 48.1149 168.861V168.894Z" fill="#88898D"/>
<path d="M46.1332 178.867C46.1109 178.703 46.1109 178.538 46.1332 178.374C46.18 178.211 46.2518 178.056 46.3461 177.915C46.4488 177.774 46.5701 177.647 46.7065 177.538C46.8465 177.417 47.0075 177.322 47.1816 177.259C46.929 177.117 46.7109 176.921 46.5427 176.685C46.3932 176.456 46.3135 176.188 46.3134 175.914C46.3123 175.699 46.357 175.487 46.4444 175.291C46.531 175.1 46.6534 174.927 46.8049 174.782C46.9723 174.645 47.1603 174.534 47.3618 174.454C47.5761 174.372 47.8043 174.333 48.0335 174.339C48.2676 174.34 48.5 174.379 48.7216 174.454C48.927 174.533 49.1159 174.65 49.2786 174.799C49.4339 174.934 49.5571 175.102 49.639 175.291C49.7265 175.487 49.7712 175.699 49.7701 175.914C49.7713 176.191 49.6853 176.46 49.5243 176.685C49.3667 176.924 49.153 177.122 48.9018 177.259C49.0759 177.322 49.237 177.417 49.3769 177.538C49.5133 177.647 49.6346 177.774 49.7373 177.915C49.8246 178.06 49.896 178.214 49.9503 178.374C49.9725 178.538 49.9725 178.703 49.9503 178.867C49.9555 179.12 49.9052 179.372 49.8028 179.605C49.7146 179.826 49.5741 180.023 49.3932 180.179C49.2083 180.338 48.9979 180.466 48.7707 180.556C48.5064 180.643 48.2299 180.688 47.9516 180.687C47.684 180.688 47.4182 180.643 47.1652 180.556C46.9313 180.47 46.7148 180.342 46.5263 180.179C46.3455 180.023 46.2049 179.826 46.1168 179.605C46.0694 179.36 46.075 179.109 46.1332 178.867ZM46.8867 178.867C46.8845 179.041 46.918 179.214 46.9851 179.375C47.0265 179.528 47.112 179.664 47.2308 179.769C47.3386 179.887 47.4735 179.977 47.624 180.031C47.7879 180.085 47.9593 180.113 48.1318 180.113C48.299 180.113 48.465 180.085 48.6233 180.031C48.9199 179.908 49.1556 179.672 49.2786 179.375C49.3325 179.211 49.3601 179.039 49.3605 178.867C49.3601 178.699 49.3324 178.533 49.2786 178.374C49.2164 178.228 49.1275 178.095 49.0165 177.981C48.9121 177.866 48.7834 177.776 48.6397 177.718C48.4785 177.653 48.3059 177.619 48.1318 177.62C47.9646 177.62 47.7986 177.648 47.6403 177.702C47.4136 177.799 47.2209 177.962 47.0868 178.17C46.9526 178.377 46.883 178.619 46.8867 178.867ZM47.1161 176.013C47.0834 176.147 47.0834 176.288 47.1161 176.423C47.1656 176.545 47.2379 176.656 47.3291 176.751C47.4251 176.84 47.536 176.912 47.6567 176.964C47.7807 177.018 47.9146 177.046 48.0499 177.046C48.1848 177.042 48.318 177.014 48.4431 176.964C48.5622 176.903 48.6724 176.825 48.7707 176.734C48.8637 176.641 48.9362 176.529 48.9837 176.406C49.0102 176.276 49.0102 176.142 48.9837 176.013C48.991 175.809 48.9351 175.608 48.8236 175.438C48.7121 175.267 48.5505 175.136 48.3612 175.061C48.2361 175.011 48.1029 174.983 47.968 174.979C47.8221 174.98 47.6776 175.007 47.5421 175.061C47.4221 175.113 47.3156 175.191 47.2308 175.291C47.1322 175.38 47.0588 175.493 47.0178 175.619C47.0296 175.739 47.0629 175.855 47.1161 175.963V176.013Z" fill="#88898D"/>
<path d="M21.1821 164.695C19.4447 164.698 17.7454 164.185 16.2992 163.221C14.853 162.257 13.725 160.885 13.0579 159.279C12.3908 157.673 12.2145 155.905 12.5515 154.198C12.8885 152.492 13.7235 150.924 14.9509 149.693C16.1782 148.461 17.7428 147.623 19.4466 147.282C21.1504 146.941 22.9168 147.115 24.5223 147.779C26.1277 148.444 27.5001 149.571 28.4657 151.017C29.4313 152.463 29.9467 154.164 29.9467 155.903C29.9424 158.231 29.0181 160.462 27.3758 162.109C25.7335 163.757 23.5068 164.686 21.1821 164.695ZM21.1821 147.276C19.4771 147.273 17.8094 147.776 16.3902 148.722C14.971 149.668 13.864 151.014 13.2092 152.59C12.5545 154.167 12.3815 155.902 12.7122 157.576C13.0428 159.251 13.8622 160.79 15.0667 161.998C16.2712 163.206 17.8066 164.03 19.4786 164.364C21.1506 164.698 22.884 164.528 24.4596 163.876C26.0351 163.223 27.3819 162.118 28.3295 160.698C29.277 159.279 29.7829 157.611 29.7829 155.903C29.7785 153.619 28.8715 151.43 27.26 149.813C25.6484 148.197 23.4633 147.284 21.1821 147.276Z" fill="#88898D"/>
<path d="M22.2313 152.82V156.888H23.0176V157.527H22.2313V159.02H21.5268V157.576H18.6436V156.97C18.9221 156.658 19.1842 156.346 19.4627 156.002C19.7412 155.657 20.0033 155.297 20.249 154.952C20.4948 154.608 20.7241 154.247 20.9371 153.886C21.1393 153.559 21.3198 153.219 21.4777 152.869L22.2313 152.82ZM19.4299 156.888H21.5105V153.87C21.2975 154.247 21.1009 154.591 20.9043 154.887C20.7077 155.182 20.5275 155.444 20.3637 155.674L19.8722 156.33L19.4299 156.888Z" fill="#88898D"/>
<path d="M75.1296 164.695C73.3929 164.695 71.6952 164.179 70.2511 163.213C68.8071 162.247 67.6816 160.874 67.017 159.268C66.3524 157.661 66.1785 155.894 66.5174 154.188C66.8562 152.483 67.6925 150.916 68.9205 149.687C70.1486 148.457 71.7132 147.62 73.4165 147.281C75.1198 146.942 76.8854 147.116 78.4899 147.781C80.0944 148.446 81.4658 149.573 82.4307 151.019C83.3955 152.465 83.9105 154.165 83.9105 155.903C83.9062 158.234 82.9797 160.467 81.3339 162.115C79.6881 163.763 77.4571 164.691 75.1296 164.695ZM75.1296 147.276C73.4253 147.276 71.7592 147.782 70.3422 148.73C68.9251 149.678 67.8206 151.025 67.1684 152.602C66.5162 154.178 66.3455 155.913 66.678 157.587C67.0105 159.26 67.8312 160.797 69.0364 162.004C70.2415 163.211 71.7769 164.032 73.4485 164.365C75.12 164.698 76.8526 164.527 78.4272 163.874C80.0018 163.221 81.3476 162.115 82.2945 160.697C83.2413 159.278 83.7467 157.61 83.7467 155.903C83.7424 153.617 82.8331 151.425 81.218 149.808C79.6029 148.191 77.4137 147.28 75.1296 147.276Z" fill="#88898D"/>
<path d="M77.0788 157.019C77.0819 157.299 77.0319 157.577 76.9314 157.839C76.8437 158.081 76.7102 158.304 76.5382 158.495C76.3624 158.679 76.1504 158.824 75.9156 158.922C75.6716 159.022 75.4097 159.073 75.1457 159.069C74.8625 159.071 74.5826 159.01 74.3265 158.889C74.0744 158.76 73.8599 158.568 73.704 158.331C73.5214 158.062 73.3883 157.762 73.3108 157.445C73.2214 157.058 73.1774 156.662 73.1798 156.264C73.1771 155.772 73.2376 155.281 73.36 154.805C73.4578 154.404 73.6301 154.026 73.8678 153.689C74.0715 153.392 74.3405 153.145 74.6542 152.967C74.9727 152.802 75.3273 152.717 75.6863 152.721C76.0337 152.71 76.3796 152.772 76.702 152.902V153.558C76.3938 153.396 76.0508 153.312 75.7027 153.312C75.4433 153.307 75.1877 153.375 74.9655 153.509C74.7369 153.631 74.5404 153.805 74.3921 154.017C74.227 154.269 74.1052 154.546 74.0317 154.837C73.9438 155.18 73.8997 155.533 73.9006 155.887C74.0397 155.64 74.2461 155.439 74.4956 155.305C74.7451 155.171 75.0274 155.112 75.3095 155.133C75.5566 155.121 75.803 155.166 76.0303 155.264C76.2415 155.354 76.4313 155.489 76.5873 155.657C76.7395 155.83 76.8564 156.03 76.9314 156.248C77.0243 156.495 77.0742 156.755 77.0788 157.019ZM76.358 157.117C76.3584 156.918 76.3308 156.719 76.276 156.527C76.2298 156.37 76.1518 156.225 76.0467 156.1C75.9479 155.976 75.8179 155.88 75.6699 155.822C75.4981 155.754 75.3134 155.726 75.1293 155.739C74.9658 155.739 74.8041 155.772 74.6542 155.838C74.508 155.9 74.3746 155.989 74.261 156.1C74.1549 156.215 74.0715 156.348 74.0153 156.494C73.95 156.644 73.9165 156.806 73.917 156.97C73.9164 157.176 73.9496 157.381 74.0153 157.577C74.0603 157.752 74.1443 157.914 74.261 158.052C74.3686 158.187 74.5024 158.299 74.6542 158.38C74.808 158.453 74.9755 158.492 75.1457 158.495C75.3064 158.497 75.4658 158.465 75.6129 158.4C75.7599 158.335 75.8912 158.239 75.9976 158.118C76.1019 157.984 76.1848 157.834 76.2433 157.675C76.3097 157.496 76.3484 157.308 76.358 157.117Z" fill="#88898D"/>
<path d="M48.1149 164.695C46.3782 164.695 44.6805 164.179 43.2365 163.213C41.7925 162.247 40.667 160.874 40.0024 159.268C39.3378 157.661 39.1639 155.894 39.5027 154.188C39.8415 152.483 40.6778 150.916 41.9059 149.687C43.1339 148.457 44.6985 147.62 46.4019 147.281C48.1052 146.942 49.8708 147.116 51.4753 147.781C53.0798 148.446 54.4512 149.573 55.416 151.019C56.3809 152.465 56.8959 154.165 56.8959 155.903C56.8916 158.234 55.965 160.467 54.3192 162.115C52.6734 163.763 50.4425 164.691 48.1149 164.695ZM48.1149 147.276C46.4106 147.276 44.7446 147.782 43.3275 148.73C41.9105 149.678 40.806 151.025 40.1537 152.602C39.5015 154.178 39.3309 155.913 39.6634 157.587C39.9959 159.26 40.8166 160.797 42.0217 162.004C43.2268 163.211 44.7623 164.032 46.4338 164.365C48.1054 164.698 49.838 164.527 51.4126 163.874C52.9872 163.221 54.333 162.115 55.2798 160.697C56.2267 159.278 56.7321 157.61 56.7321 155.903C56.7321 153.615 55.8242 151.421 54.2082 149.803C52.5921 148.185 50.4003 147.276 48.1149 147.276Z" fill="#88898D"/>
<path d="M49.8348 157.035C49.8396 157.316 49.7895 157.594 49.6874 157.856C49.591 158.095 49.4395 158.309 49.245 158.479C49.0497 158.666 48.8144 158.806 48.557 158.889C48.2705 158.977 47.9722 159.022 47.6724 159.02C47.2324 159.048 46.7926 158.964 46.3945 158.774V158.02C46.7738 158.273 47.2165 158.415 47.6724 158.43C47.8786 158.433 48.0839 158.4 48.2785 158.331C48.4475 158.268 48.6031 158.173 48.7372 158.052C48.8631 157.935 48.9587 157.789 49.0157 157.626C49.0962 157.457 49.1355 157.272 49.1304 157.085C49.1375 156.908 49.1043 156.732 49.0334 156.57C48.9624 156.408 48.8555 156.264 48.7208 156.15C48.3871 155.899 47.9741 155.776 47.5577 155.805H46.5092L46.7222 152.722H49.5563V153.361H47.2792L47.1645 155.166H47.7215C48.0161 155.163 48.3092 155.207 48.5898 155.297C48.8305 155.379 49.053 155.507 49.245 155.674C49.4259 155.829 49.5664 156.026 49.6546 156.248C49.7688 156.495 49.8302 156.763 49.8348 157.035Z" fill="#88898D"/>
<path d="M21.1821 143.077C19.4447 143.08 17.7454 142.567 16.2992 141.603C14.853 140.639 13.725 139.267 13.0579 137.661C12.3908 136.055 12.2145 134.287 12.5515 132.58C12.8885 130.874 13.7235 129.306 14.9509 128.074C16.1782 126.843 17.7428 126.004 19.4466 125.664C21.1504 125.323 22.9168 125.496 24.5223 126.161C26.1277 126.826 27.5001 127.953 28.4657 129.399C29.4313 130.845 29.9467 132.546 29.9467 134.285C29.9424 136.613 29.0181 138.844 27.3758 140.491C25.7335 142.139 23.5068 143.068 21.1821 143.077ZM21.1821 125.658C19.4771 125.654 17.8094 126.158 16.3902 127.104C14.971 128.05 13.864 129.396 13.2092 130.972C12.5545 132.548 12.3815 134.284 12.7122 135.958C13.0428 137.633 13.8622 139.172 15.0667 140.38C16.2712 141.588 17.8066 142.412 19.4786 142.746C21.1506 143.08 22.884 142.91 24.4596 142.258C26.0351 141.605 27.3819 140.499 28.3295 139.08C29.277 137.661 29.7829 135.992 29.7829 134.285C29.7785 132.001 28.8715 129.812 27.26 128.195C25.6484 126.579 23.4633 125.666 21.1821 125.658Z" fill="#88898D"/>
<path d="M75.1296 143.077C73.3929 143.077 71.6952 142.561 70.2511 141.595C68.8071 140.629 67.6816 139.256 67.017 137.65C66.3524 136.043 66.1785 134.276 66.5174 132.57C66.8562 130.865 67.6925 129.298 68.9205 128.069C70.1486 126.839 71.7132 126.002 73.4165 125.663C75.1198 125.323 76.8854 125.497 78.4899 126.163C80.0944 126.828 81.4658 127.955 82.4307 129.401C83.3955 130.847 83.9105 132.546 83.9105 134.285C83.9062 136.616 82.9797 138.849 81.3339 140.497C79.6881 142.145 77.4571 143.073 75.1296 143.077ZM75.1296 125.658C73.4253 125.658 71.7592 126.164 70.3422 127.112C68.9251 128.06 67.8206 129.407 67.1684 130.984C66.5162 132.56 66.3455 134.295 66.678 135.968C67.0105 137.642 67.8312 139.179 69.0364 140.386C70.2415 141.593 71.7769 142.414 73.4485 142.747C75.12 143.08 76.8526 142.909 78.4272 142.256C80.0018 141.603 81.3476 140.497 82.2945 139.079C83.2413 137.66 83.7467 135.992 83.7467 134.285C83.7424 131.998 82.8331 129.806 81.218 128.189C79.6029 126.572 77.4137 125.662 75.1296 125.658Z" fill="#88898D"/>
<path d="M76.8989 135.614C76.9025 135.873 76.8523 136.13 76.7515 136.369C76.6419 136.591 76.4919 136.791 76.3092 136.959C76.1028 137.123 75.8702 137.25 75.6211 137.336C75.34 137.424 75.0472 137.468 74.7529 137.467C74.2649 137.493 73.7804 137.373 73.3604 137.123V136.369C73.7582 136.692 74.2566 136.866 74.7692 136.861C74.9686 136.86 75.167 136.832 75.359 136.779C75.5188 136.729 75.6685 136.651 75.8013 136.549C75.9172 136.442 76.0117 136.314 76.0798 136.172C76.1469 136.016 76.1804 135.849 76.1781 135.68C76.1781 134.876 75.6211 134.482 74.5399 134.482H74.032V133.875H74.5071C75.5228 133.875 76.0307 133.498 76.0307 132.744C76.0307 132.055 75.6375 131.71 74.8675 131.71C74.4265 131.709 73.9983 131.859 73.6552 132.137V131.464C74.0753 131.213 74.5586 131.088 75.0477 131.103C75.2876 131.098 75.5265 131.136 75.7522 131.218C75.945 131.28 76.1233 131.381 76.2764 131.513C76.4224 131.64 76.5397 131.797 76.6205 131.973C76.7081 132.163 76.7528 132.37 76.7515 132.58C76.7907 132.958 76.6859 133.337 76.4581 133.641C76.2303 133.945 75.8963 134.152 75.5228 134.22C75.7213 134.234 75.9156 134.284 76.0962 134.367C76.267 134.442 76.4226 134.548 76.5549 134.679C76.6894 134.802 76.7956 134.953 76.8662 135.122C76.9037 135.283 76.9148 135.449 76.8989 135.614Z" fill="#88898D"/>
<path d="M48.1149 143.077C46.3782 143.077 44.6805 142.561 43.2365 141.595C41.7925 140.629 40.667 139.256 40.0024 137.65C39.3378 136.043 39.1639 134.276 39.5027 132.57C39.8415 130.865 40.6778 129.298 41.9059 128.069C43.1339 126.839 44.6985 126.002 46.4019 125.663C48.1052 125.323 49.8708 125.497 51.4753 126.163C53.0798 126.828 54.4512 127.955 55.416 129.401C56.3809 130.847 56.8959 132.546 56.8959 134.285C56.8916 136.616 55.965 138.849 54.3192 140.497C52.6734 142.145 50.4425 143.073 48.1149 143.077ZM48.1149 125.658C46.4106 125.658 44.7446 126.164 43.3275 127.112C41.9105 128.06 40.806 129.407 40.1537 130.984C39.5015 132.56 39.3309 134.295 39.6634 135.968C39.9959 137.642 40.8166 139.179 42.0217 140.386C43.2268 141.593 44.7623 142.414 46.4338 142.747C48.1054 143.08 49.838 142.909 51.4126 142.256C52.9872 141.603 54.333 140.497 55.2798 139.079C56.2267 137.66 56.7321 135.992 56.7321 134.285C56.7321 131.997 55.8242 129.803 54.2082 128.185C52.5921 126.567 50.4003 125.658 48.1149 125.658Z" fill="#88898D"/>
<path d="M49.0649 132.875C49.0644 132.707 49.0367 132.541 48.9829 132.383C48.9284 132.25 48.8444 132.133 48.7372 132.038C48.6358 131.939 48.5122 131.866 48.3768 131.825C48.2305 131.799 48.0808 131.799 47.9345 131.825C47.7984 131.809 47.661 131.809 47.5249 131.825L47.1481 131.989C47.0209 132.054 46.9002 132.131 46.7877 132.219L46.4601 132.53V131.776C46.6517 131.584 46.8802 131.433 47.1318 131.333C47.6642 131.16 48.2376 131.16 48.77 131.333C48.9747 131.406 49.1637 131.517 49.327 131.661C49.4831 131.802 49.6062 131.975 49.6874 132.169C49.7882 132.391 49.8385 132.632 49.8348 132.875C49.8349 133.101 49.8074 133.327 49.7529 133.547C49.6892 133.743 49.6012 133.931 49.4908 134.105C49.3681 134.285 49.2251 134.45 49.0649 134.597C48.8762 134.777 48.6735 134.941 48.4587 135.089L47.7543 135.614C47.5887 135.73 47.4399 135.868 47.312 136.024C47.2065 136.13 47.1279 136.259 47.0826 136.401C47.0562 136.548 47.0562 136.698 47.0826 136.844H50.1461V137.467H46.3618V137.172C46.3338 136.943 46.3338 136.712 46.3618 136.483C46.4211 136.277 46.5153 136.083 46.6403 135.909C46.7937 135.709 46.9696 135.527 47.1645 135.368L47.9345 134.761C48.1324 134.623 48.3187 134.47 48.4915 134.302C48.6356 134.171 48.7622 134.022 48.8683 133.859C48.9496 133.721 49.0103 133.572 49.0485 133.416C49.0865 133.238 49.092 133.055 49.0649 132.875Z" fill="#88898D"/>
<path d="M48.1972 328.636C39.8668 328.636 31.7236 326.163 24.7971 321.529C17.8707 316.895 12.4722 310.309 9.28426 302.604C6.09637 294.898 5.26228 286.419 6.88745 278.239C8.51263 270.058 12.5241 262.544 18.4145 256.647C24.305 250.749 31.8099 246.733 39.9802 245.106C48.1505 243.479 56.6192 244.314 64.3155 247.505C72.0117 250.697 78.5899 256.102 83.218 263.037C87.8461 269.972 90.3163 278.125 90.3163 286.466C90.3033 297.646 85.8616 308.365 77.9655 316.27C70.0695 324.176 59.3639 328.623 48.1972 328.636ZM48.1972 244.459C39.8993 244.459 31.7876 246.923 24.8881 251.539C17.9886 256.154 12.6111 262.715 9.43562 270.391C6.26013 278.066 5.42928 286.512 7.04814 294.661C8.66699 302.809 12.6628 310.294 18.5304 316.169C24.3979 322.043 31.8736 326.044 40.0122 327.665C48.1507 329.286 56.5865 328.454 64.2528 325.274C71.9191 322.095 78.4716 316.711 83.0817 309.803C87.6918 302.895 90.1525 294.774 90.1525 286.466C90.1395 275.329 85.715 264.652 77.8497 256.777C69.9844 248.902 59.3204 244.472 48.1972 244.459Z" fill="#88898D"/>
<path d="M19.5273 136.237H20.9526V131.694H19.8222V131.136C20.2847 131.069 20.7298 130.913 21.1328 130.677H21.739V136.188H23.0168V136.86H19.5273V136.237Z" fill="#88898D"/>
<path d="M75.1298 111.01C74.2462 111.005 73.3875 110.717 72.679 110.188C71.9705 109.66 71.4492 108.918 71.1913 108.072C70.9333 107.226 70.9522 106.319 71.2452 105.485C71.5382 104.65 72.0899 103.931 72.8199 103.433L73.4424 104.368C72.9014 104.721 72.4889 105.24 72.2663 105.847C72.0437 106.454 72.0229 107.117 72.207 107.737C72.3912 108.357 72.7704 108.901 73.2882 109.287C73.806 109.674 74.4347 109.883 75.0806 109.883C75.7266 109.883 76.3553 109.674 76.8731 109.287C77.3909 108.901 77.7701 108.357 77.9542 107.737C78.1384 107.117 78.1176 106.454 77.895 105.847C77.6724 105.24 77.2599 104.721 76.7189 104.368H76.637L77.2759 103.433C78.0058 103.931 78.5575 104.65 78.8505 105.485C79.1435 106.319 79.1624 107.226 78.9045 108.072C78.6466 108.918 78.1253 109.66 77.4168 110.188C76.7083 110.717 75.8495 111.005 74.9659 111.01H75.1298Z" fill="#E51C17"/>
<path d="M75.6214 102.416H74.6221V106.238H75.6214V102.416Z" fill="#E51C17"/>
<path fill-rule="evenodd" clip-rule="evenodd" d="M20.9114 223.678H20.1343C19.5853 223.678 19.0586 223.895 18.6688 224.282C18.2791 224.669 18.058 225.195 18.0537 225.744V228.664C18.058 229.461 18.3775 230.225 18.9424 230.787C19.5072 231.35 20.2714 231.666 21.0681 231.666H21.3629C21.7621 231.674 22.159 231.603 22.5303 231.456C22.9017 231.309 23.2399 231.089 23.5253 230.81C23.8107 230.53 24.0374 230.196 24.1921 229.828C24.3469 229.459 24.4265 229.064 24.4265 228.664V225.744C24.4222 225.197 24.2033 224.674 23.8171 224.288C23.431 223.901 22.9084 223.682 22.3623 223.678H21.4762C21.4801 223.535 21.4696 223.392 21.4449 223.251C21.4039 223.006 21.2842 222.78 21.104 222.608C20.9237 222.437 20.6926 222.328 20.4456 222.3V222.857C20.8634 222.946 20.9196 223.381 20.9114 223.678ZM19.0087 224.688C19.2909 224.408 19.6718 224.252 20.0687 224.252L21.0025 224.285V226.302H18.5616V225.744C18.5659 225.347 18.7266 224.967 19.0087 224.688ZM18.5616 226.646V228.664C18.5503 228.997 18.6072 229.329 18.729 229.64C18.8507 229.95 19.0347 230.233 19.2695 230.469C19.5043 230.706 19.785 230.892 20.0943 231.016C20.4037 231.14 20.735 231.199 21.0681 231.19H21.4285C22.073 231.185 22.6897 230.926 23.1439 230.468C23.5982 230.01 23.8531 229.391 23.8531 228.746V226.646H18.5616ZM23.8531 226.302V225.826C23.8531 225.43 23.696 225.051 23.4164 224.771C23.1368 224.491 22.7576 224.334 22.3623 224.334L21.3465 224.297V226.302H23.8531Z" fill="#88898D"/>
<path d="M77.9805 223.251C78.4238 223.251 78.7832 222.892 78.7832 222.448C78.7832 222.004 78.4238 221.644 77.9805 221.644C77.5372 221.644 77.1778 222.004 77.1778 222.448C77.1778 222.892 77.5372 223.251 77.9805 223.251Z" fill="#88898D"/>
<path d="M73.6591 222.751C73.3505 223.083 73.1793 223.52 73.1805 223.973H73.1969V227.254C73.1888 227.368 73.1888 227.483 73.1969 227.598C73.2294 228.068 73.4471 228.505 73.802 228.815C74.1568 229.124 74.6198 229.279 75.089 229.246C75.5583 229.214 75.9953 228.996 76.3041 228.641C76.457 228.465 76.5738 228.26 76.6478 228.039C76.7218 227.818 76.7516 227.585 76.7354 227.352V223.727C76.6742 223.278 76.4447 222.868 76.0933 222.582C75.7419 222.296 75.295 222.154 74.843 222.185C74.391 222.216 73.9678 222.418 73.6591 222.751Z" fill="#88898D"/>
<path d="M77.9149 228.648C77.6384 229.361 77.107 229.945 76.4241 230.288C76.2567 230.376 76.0811 230.447 75.8999 230.501C75.7187 230.562 75.5323 230.606 75.3429 230.632V231.551H76.0637C76.1331 231.569 76.1947 231.609 76.239 231.665C76.2834 231.722 76.3081 231.791 76.3095 231.863C76.3187 231.934 76.3065 232.006 76.2744 232.071C76.2423 232.135 76.1918 232.188 76.1293 232.224H73.9013C73.7866 232.224 73.6719 232.092 73.6391 231.961C73.6217 231.91 73.6157 231.856 73.6217 231.803C73.6276 231.75 73.6454 231.699 73.6736 231.653C73.7018 231.607 73.7399 231.569 73.7849 231.54C73.83 231.511 73.8809 231.492 73.934 231.485H74.5893V230.567L74.1634 230.468C73.5744 230.324 73.041 230.009 72.6301 229.563C72.2191 229.116 71.949 228.558 71.8535 227.959C71.8205 227.665 71.8205 227.368 71.8535 227.073C71.8577 226.985 71.8958 226.901 71.9598 226.84C72.0239 226.779 72.109 226.745 72.1975 226.745C72.2427 226.741 72.2884 226.745 72.3318 226.758C72.3753 226.772 72.4157 226.793 72.4508 226.822C72.4858 226.851 72.5147 226.887 72.5359 226.927C72.5571 226.967 72.5702 227.011 72.5743 227.057C72.5828 227.215 72.5828 227.374 72.5743 227.532C72.6027 228.101 72.83 228.642 73.2164 229.06C73.6028 229.478 74.1237 229.747 74.6879 229.819C75.2522 229.891 75.8239 229.763 76.303 229.456C76.7821 229.149 77.1381 228.683 77.3088 228.139C77.3962 227.881 77.435 227.608 77.4234 227.336V227.09C77.4232 227.041 77.4331 226.994 77.4524 226.95C77.4717 226.906 77.5 226.866 77.5355 226.834C77.571 226.801 77.6129 226.777 77.6585 226.761C77.7041 226.746 77.7524 226.741 77.8003 226.745C77.8973 226.749 77.989 226.791 78.0562 226.861C78.1233 226.932 78.1608 227.025 78.1607 227.122C78.1936 227.615 78.1152 228.108 77.9313 228.566L77.9149 228.648Z" fill="#88898D"/>
<path d="M72.7053 223.891C72.7053 224.634 72.1038 225.236 71.3619 225.236C70.62 225.236 70.0186 224.634 70.0186 223.891C70.0186 223.148 70.62 222.546 71.3619 222.546C72.1038 222.546 72.7053 223.148 72.7053 223.891Z" fill="#88898D"/>
<path d="M80.2413 225.679C80.2413 226.286 79.7499 226.778 79.1437 226.778C78.5375 226.778 78.0461 226.286 78.0461 225.679C78.0461 225.072 78.5375 224.58 79.1437 224.58C79.7499 224.58 80.2413 225.072 80.2413 225.679Z" fill="#88898D"/>
<mask id="path-53-inside-1_332_2630" fill="white">
<path fill-rule="evenodd" clip-rule="evenodd" d="M48 1C21.4903 1 0 22.4903 0 49V288C0 314.51 21.4903 336 48 336C74.5097 336 96 314.51 96 288V276.333L98 276V237L96 236.667V121.833L98 121.5V101L96 100.667V97.3333L98 97V57L96 56.6667V49C96 22.4903 74.5097 1 48 1Z"/>
</mask>
<path d="M96 276.333L95.8356 275.347L95 275.486V276.333H96ZM98 276L98.1644 276.986L99 276.847V276H98ZM98 237H99V236.153L98.1644 236.014L98 237ZM96 236.667H95V237.514L95.8356 237.653L96 236.667ZM96 121.833L95.8356 120.847L95 120.986V121.833H96ZM98 121.5L98.1644 122.486L99 122.347V121.5H98ZM98 101H99V100.153L98.1644 100.014L98 101ZM96 100.667H95V101.514L95.8356 101.653L96 100.667ZM96 97.3333L95.8356 96.3469L95 96.4862V97.3333H96ZM98 97L98.1644 97.9864L99 97.8471V97H98ZM98 57H99V56.1529L98.1644 56.0136L98 57ZM96 56.6667H95V57.5138L95.8356 57.6531L96 56.6667ZM1 49C1 23.0426 22.0426 2 48 2V0C20.938 0 -1 21.9381 -1 49H1ZM1 288V49H-1V288H1ZM48 335C22.0426 335 1 313.957 1 288H-1C-1 315.062 20.938 337 48 337V335ZM95 288C95 313.957 73.9574 335 48 335V337C75.062 337 97 315.062 97 288H95ZM95 276.333V288H97V276.333H95ZM97.8356 275.014L95.8356 275.347L96.1644 277.32L98.1644 276.986L97.8356 275.014ZM97 237V276H99V237H97ZM95.8356 237.653L97.8356 237.986L98.1644 236.014L96.1644 235.68L95.8356 237.653ZM95 121.833V236.667H97V121.833H95ZM97.8356 120.514L95.8356 120.847L96.1644 122.82L98.1644 122.486L97.8356 120.514ZM97 101V121.5H99V101H97ZM95.8356 101.653L97.8356 101.986L98.1644 100.014L96.1644 99.6803L95.8356 101.653ZM95 97.3333V100.667H97V97.3333H95ZM97.8356 96.0136L95.8356 96.3469L96.1644 98.3197L98.1644 97.9864L97.8356 96.0136ZM97 57V97H99V57H97ZM95.8356 57.6531L97.8356 57.9864L98.1644 56.0136L96.1644 55.6803L95.8356 57.6531ZM95 49V56.6667H97V49H95ZM48 2C73.9574 2 95 23.0426 95 49H97C97 21.938 75.062 0 48 0V2Z" fill="#A6A7AA" mask="url(#path-53-inside-1_332_2630)"/>
</svg>
