<svg width="147" height="288" viewBox="0 0 147 288" fill="none" xmlns="http://www.w3.org/2000/svg">
<path d="M0.15 279.328V10.0589L146.85 18.5721V287.841L0.15 279.328Z" stroke="#A6A7AA" stroke-width="0.3"/>
<mask id="path-2-inside-1_332_2690" fill="white">
<path fill-rule="evenodd" clip-rule="evenodd" d="M139 0L0 8.25763V9.40059V269.199V279.454L147 288V17.9466L139 17.4815V0Z"/>
</mask>
<path d="M0 8.25763L-0.0593029 7.25939L-1 7.31528V8.25763H0ZM139 0H140V-1.06117L138.941 -0.99824L139 0ZM0 279.454H-1V280.398L-0.058038 280.452L0 279.454ZM147 288L146.942 288.998L148 289.06V288H147ZM147 17.9466H148V17.003L147.058 16.9483L147 17.9466ZM139 17.4815H138V18.4251L138.942 18.4798L139 17.4815ZM0.0593029 9.25587L139.059 0.99824L138.941 -0.99824L-0.0593029 7.25939L0.0593029 9.25587ZM1 9.40059V8.25763H-1V9.40059H1ZM1 269.199V9.40059H-1V269.199H1ZM1 279.454V269.199H-1V279.454H1ZM147.058 287.002L0.058038 278.456L-0.058038 280.452L146.942 288.998L147.058 287.002ZM146 17.9466V288H148V17.9466H146ZM138.942 18.4798L146.942 18.9449L147.058 16.9483L139.058 16.4832L138.942 18.4798ZM138 0V17.4815H140V0H138Z" fill="#A6A7AA" mask="url(#path-2-inside-1_332_2690)"/>
</svg>
